<svg width="1440" height="112" viewBox="0 0 1440 112" fill="none" xmlns="http://www.w3.org/2000/svg">
<g clip-path="url(#clip0_1_862)">
<path d="M-1155.18 194.266L-1081.12 176.502C-1007.05 159.402 -858.918 122.878 -710.786 79.2154C-562.653 34.8886 -414.52 -18.237 -266.388 -18.237C-118.255 -18.237 29.8776 34.8886 178.01 52.6525C326.143 69.7523 474.275 53.1506 622.408 34.8886C770.541 16.6267 918.673 0.0249176 1066.81 26.0897C1214.94 53.1506 1363.07 122.878 1511.2 96.8132C1659.34 69.7523 1807.47 -53.1008 1955.6 -80.1621C2103.73 -106.226 2251.87 -36.499 2325.93 -0.472641L2400 34.8886V-336.991H2325.93C2251.87 -336.991 2103.73 -336.991 1955.6 -336.991C1807.47 -336.991 1659.34 -336.991 1511.2 -336.991C1363.07 -336.991 1214.94 -336.991 1066.81 -336.991C918.673 -336.991 770.541 -336.991 622.408 -336.991C474.275 -336.991 326.143 -336.991 178.01 -336.991C29.8776 -336.991 -118.255 -336.991 -266.388 -336.991C-414.52 -336.991 -562.653 -336.991 -710.786 -336.991C-858.918 -336.991 -1007.05 -336.991 -1081.12 -336.991H-1155.18V194.266Z" fill="#FDDBE2"/>
<path d="M1504.72 0.417969H-549V-213.553H1504.72V0.417969Z" fill="#FDDBE2"/>
</g>
<defs>
<clipPath id="clip0_1_862">
<rect width="1440" height="112" fill="white" transform="matrix(1 0 0 -1 0 112)"/>
</clipPath>
</defs>
</svg>
