<svg width="634" height="707" viewBox="0 0 634 707" fill="none" xmlns="http://www.w3.org/2000/svg">
<path d="M475.184 138.212C524.952 170.228 570.284 217.462 582.012 272.302C594.058 327.144 572.502 389.592 540.486 446.97C508.468 504.347 465.674 556.018 414.32 567.747C362.966 579.159 302.736 549.995 244.724 524.952C186.714 499.592 130.604 478.353 96.0511 436.192C61.8151 394.031 49.1351 330.63 57.0601 268.498C64.6681 206.05 92.8811 144.869 139.48 112.218C186.396 79.567 251.698 75.446 311.294 82.103C371.208 88.76 425.414 106.195 475.184 138.212Z" fill="#FFDBB4"/>
<path fill-rule="evenodd" clip-rule="evenodd" d="M276.948 491.378C283.004 462.681 304.482 440.411 333.368 429.318C338.92 426.177 344.303 412.699 351.765 410.231C352.962 409.835 351.073 412.983 351.765 413.171C354.233 413.842 356.998 413.912 359.723 411.491C364.593 407.161 366.121 394.513 369.082 388.796C384.697 358.648 423.685 370.444 428.908 403.772C432.55 406.147 437.699 408.238 441.663 410.152C445.745 412.122 449.337 416.894 453.543 418.601C457.296 420.123 463.482 419.044 467.264 420.371C484.661 426.475 499.395 434.177 510.947 449.782C513.381 453.073 516.125 457.12 518.34 460.445C529.759 473.594 537.692 488.332 544.997 504.143C565.435 550.553 570.995 601.94 575.982 651.945C575.869 660.694 581.673 684.955 573.088 689.149C573.602 689.681 573.416 690.75 572.464 690.741C550.696 690.521 528.978 692.47 507.548 696.257C497.208 698.086 486.925 700.592 476.392 701.005C454.529 700.853 432.744 697.189 410.91 700.656C384.661 700.656 352.762 699.892 323.561 698.768C296.27 697.72 268.833 700.089 241.88 695.447C239.746 695.11 238.704 692.506 239.152 690.642C242.314 679.116 243.866 667.255 245.64 655.459C245.287 647.892 245.919 639.993 248.718 632.946C256.029 585.372 265.405 538.108 276.948 491.378Z" fill="#FFDBB4"/>
<path fill-rule="evenodd" clip-rule="evenodd" d="M351.765 413.347C351.073 413.158 352.962 410.009 351.765 410.405C344.303 412.873 338.92 426.352 333.368 429.493C304.482 440.586 283.004 462.855 276.948 491.553C265.405 538.282 256.029 585.546 248.718 633.121C245.919 640.169 245.287 648.067 245.64 655.633L245.362 657.496C243.698 668.677 242.147 679.897 239.152 690.816C238.704 692.682 239.746 695.284 241.88 695.621C268.526 700.211 295.647 697.947 322.631 698.908L328.255 699.119C356.149 700.145 386.062 700.831 410.91 700.831C432.744 697.363 454.529 701.028 476.392 701.179C486.925 700.766 497.208 698.26 507.548 696.432C528.978 692.644 550.696 690.696 572.464 690.915C573.416 690.924 573.602 689.856 573.088 689.323C581.673 685.129 575.869 660.869 575.982 652.12L575.532 647.615C570.647 599.036 564.822 549.336 544.997 504.317L544.403 503.037C537.261 487.71 529.451 473.413 518.34 460.619L517.661 459.602C515.58 456.492 513.137 452.919 510.947 449.956C499.395 434.352 484.661 426.65 467.264 420.546C463.482 419.218 457.296 420.297 453.543 418.775C449.608 417.179 446.213 412.901 442.449 410.742V426.845L388 480.495L357.118 433.13L353.976 413.732C353.22 413.685 352.48 413.541 351.765 413.347Z" fill="#8FA7DF"/>
<path fill-rule="evenodd" clip-rule="evenodd" d="M285.756 553.912C286.331 556.709 287.139 559.506 288.212 562.156C289.246 564.713 290.804 567.004 291.876 569.531C292.02 569.871 292.256 570.128 292.54 570.324L292.451 571.012L292.37 571.7C291.835 576.338 291.233 580.963 290.712 585.6L290.458 587.92C289.434 597.603 287.815 607.24 286.558 616.897C285.328 626.353 284.075 635.81 282.736 645.253C281.353 654.989 279.944 664.712 278.299 674.408C277.605 678.503 276.88 682.595 276.125 686.684L275.542 689.813C269.539 691.257 267.898 699.627 274.011 702.717C276.785 704.113 280.35 703.777 282.636 701.583C285.012 699.295 285.111 695.171 285.662 692.073L286.194 689.194C290.169 667.547 293.619 645.652 295.232 623.699C295.646 618.031 295.995 612.358 296.222 606.68C296.438 601.34 296.335 596 296.417 590.66L296.445 589.203C296.571 583.508 296.467 577.822 296.318 572.127C296.301 571.433 296.27 570.739 296.235 570.041C296.436 569.806 296.58 569.526 296.641 569.256L296.72 568.898C296.916 567.977 296.693 566.899 295.986 566.24C295.681 562.361 295.28 558.486 295.171 554.61C295.162 554.292 294.704 554.301 294.677 554.61C294.42 557.909 293.906 561.217 293.391 564.521C290.079 561.859 287.632 557.468 286.187 553.794C286.083 553.528 285.694 553.624 285.756 553.912ZM364.105 399.682C363.556 402.196 362.468 404.453 361.012 406.551C360.318 407.555 359.529 408.489 358.582 409.27C357.77 409.938 356.845 410.374 355.981 410.955C354.725 410.758 353.412 411.234 352.53 412.159L352.67 410.806C352.714 410.37 351.989 410.283 351.906 410.705C348.088 429.96 344.608 449.227 341.595 468.621L340.273 477.185L339.031 485.225C336.967 498.623 334.971 512.015 333.468 525.511C331.466 543.522 329.782 561.579 328.552 579.663C327.317 597.874 326.557 616.098 326.016 634.343C325.881 638.944 325.737 643.538 325.598 648.138L324.666 642.639C323.736 637.139 322.824 631.634 322.042 626.109C319.237 606.336 316.994 586.423 315.899 566.48C314.895 548.23 315.231 529.618 319.873 511.839C321.043 507.367 322.474 502.963 324.201 498.673C325.877 494.501 328.163 490.635 329.965 486.525C332.059 481.742 332.688 477.229 331.61 472.08C330.667 467.594 329.014 463.374 328.717 458.757C328.163 450.186 330.951 441.885 334.89 434.385C335.929 432.408 337.024 430.457 338.168 428.524C341.627 422.68 345.527 417.05 349.576 411.653C349.794 411.365 349.332 411.046 349.096 411.282C345.406 414.931 341.37 418.518 338.049 422.502C336.435 424.439 334.86 426.416 333.368 428.446C316.998 431.182 302.932 441.379 293.317 454.847C282.405 470.129 276.886 488.524 272.802 506.637C268.26 526.769 264.429 547.083 260.35 567.313C256.127 588.248 251.926 609.182 247.676 630.11C245.564 640.5 243.452 650.891 241.346 661.286C240.277 666.549 239.155 671.799 237.982 677.044C237.379 679.732 236.733 682.417 236.175 685.114C235.547 688.155 236.132 690.1 238.191 692.335C238.95 693.165 240.15 693.151 241.092 692.711L241.387 692.572L241.672 692.434C242.838 691.861 243.752 691.268 244.478 689.991C245.276 688.592 245.403 687.038 245.677 685.48C246.184 682.612 246.685 679.745 247.191 676.874C247.948 672.58 248.77 668.298 249.607 664.018L253.805 642.624C254.925 636.921 256.046 631.217 257.174 625.516C261.201 605.127 265.233 584.743 269.263 564.359C273.134 544.787 276.559 525.08 280.965 505.621L281.215 504.525L281.47 503.43C285.41 486.654 290.915 470.427 300.904 456.213C308.591 445.281 319.267 435.519 331.841 430.579C330.955 431.854 330.104 433.154 329.293 434.481C324.197 442.807 320.476 452.691 321.348 462.606C321.776 467.45 323.617 472.211 323.443 477.095C323.281 481.432 320.598 485.242 318.743 489.016C314.534 497.57 311.488 506.66 309.524 515.985C305.585 534.711 305.598 553.978 306.955 572.987C308.43 593.65 311.23 614.309 314.42 634.771C316.056 645.265 318.233 655.674 319.9 666.152C320.724 671.318 321.846 676.473 322.827 681.614L323.295 684.069C323.557 685.433 323.829 686.791 324.143 688.135L324.337 688.94V689.084C324.345 690.075 324.616 690.895 325.052 691.55C325.65 693.465 326.392 695.334 327.377 697.127C327.884 698.043 328.617 698.557 329.415 698.746C330.218 700.584 332.038 701.997 334.21 701.988L362.783 701.879C379.38 701.814 395.976 701.705 412.572 701.612C416.76 701.591 420.945 701.513 425.128 701.403C429.051 701.294 432.812 700.823 436.69 700.335C441.071 699.785 443.444 696.681 442.789 692.305C442.646 691.34 442.489 690.381 442.34 689.42C443.213 689.709 444.251 689.573 444.954 688.888L445.613 688.243C446.526 687.34 447.341 686.453 447.921 685.248C448.518 684.009 449.003 682.7 449.531 681.434C450.669 678.711 451.778 675.979 452.856 673.234C455.015 667.745 457.175 662.233 459.181 656.686C463.156 645.702 466.673 634.552 469.731 623.276C475.184 603.159 479.129 582.653 481.616 561.964L482.211 557.033L482.383 555.576C483.327 547.557 484.12 539.414 483.745 531.411C483.513 526.402 482.737 521.353 480.865 516.674C479.138 512.359 476.472 508.667 473.937 504.809L473.648 504.364L473.356 503.908C471.139 500.404 469.375 496.741 469.287 492.486C469.196 488.168 470.455 483.966 471.861 479.923L472.212 478.926L472.447 478.265C475.438 469.911 478.843 461.674 477.72 452.582C476.062 439.194 467.947 428.402 457.737 420.08C466.817 421.877 475.804 425.43 483.736 429.933C493.103 435.257 501.537 442.283 508.81 450.212C522.553 465.197 532.365 483.177 540.398 501.742C548.805 521.169 555.039 541.527 559.738 562.152C564.463 582.893 567.626 603.966 569.786 625.123C570.863 635.652 571.71 646.208 572.412 656.769C572.77 662.181 573.04 667.601 573.459 673.003C573.879 678.401 574.067 683.882 575.384 689.137C575.999 691.585 580.148 691.833 580.593 689.137C581.579 683.114 581.303 676.885 581.028 670.786L581.003 670.232C580.732 664.158 580.379 658.088 579.961 652.018C579.106 639.611 577.963 627.221 576.47 614.872C571.239 571.52 561.593 528.396 542.67 488.824C533.761 470.186 522.326 452.076 506.419 438.617C498.845 432.216 490.307 427.105 481.106 423.405C472.876 420.093 464.517 418.526 455.774 418.53C451.389 415.17 446.681 412.242 441.979 409.742C441.696 409.589 441.399 409.956 441.634 410.191C441.756 410.308 441.874 410.43 441.996 410.545C441.464 410.579 440.914 410.828 440.422 411.348C438.693 413.159 437.236 415.423 435.932 417.775C433.947 420.254 432.053 422.816 430.072 425.268C426.9 429.195 423.655 433.066 420.369 436.906C414.851 443.36 409.153 449.692 403.211 455.769L402.22 456.78C399.139 459.9 396.02 463.635 392.377 466.105L392.183 466.234C390.645 467.236 389.556 467.419 388.245 465.923C387.053 464.561 386.062 462.981 385.042 461.48L384.806 461.136C379.602 453.573 374.777 445.731 370.409 437.658C368.418 433.984 366.525 430.256 364.728 426.488L364.192 425.355C363.215 423.279 362.155 421.24 361.348 419.102C361.16 418.601 360.977 418.099 360.798 417.601C363.546 415.799 365.675 411.898 366.447 408.843C367.25 405.67 366.844 402.414 365.414 399.512C365.144 398.967 364.236 399.102 364.105 399.682ZM499.7 528.605C500.08 540.667 500.311 552.742 500.878 564.796L501.074 568.91C500.189 569.897 499.669 571.036 500.084 572.598C500.246 573.197 500.721 573.737 501.314 573.939L501.5 577.764C502.342 594.978 503.328 612.155 505.132 629.325C507.388 650.813 509.997 672.265 512.601 693.715C512.972 696.752 515.084 699.16 518.369 698.716C521.693 698.266 523.041 695.372 522.605 692.357C520.89 680.527 519.242 668.688 517.797 656.817L516.153 643.295C514.09 626.39 511.979 609.488 509.547 592.637C508.531 585.595 507.475 578.555 506.415 571.516L506.785 571.036C508.3 569.068 509.866 567.143 511.415 565.207C514.389 561.47 517.326 557.766 520.053 553.855C520.188 553.659 519.913 553.371 519.717 553.519C515.896 556.343 512.278 559.362 508.639 562.431L505.455 565.127C503.622 552.965 501.807 540.799 500.189 528.605C500.149 528.301 499.691 528.278 499.7 528.605ZM444.723 413.171C447.022 415.34 449.373 417.462 451.691 419.617L452.54 420.411L453.385 421.207C457.456 425.07 461.358 429.09 464.609 433.709C470.578 442.188 474.134 452.525 471.651 462.876C469.591 471.451 464.866 479.224 463.597 488.013C462.96 492.415 463.269 496.841 464.928 501C466.621 505.242 469.325 508.876 471.756 512.704C477.035 521.021 477.755 530.151 477.231 539.787C476.681 549.849 475.525 559.917 474.098 569.889C471.21 590.093 466.856 610.089 461.093 629.67C458.208 639.476 454.802 649.072 451.412 658.707C449.723 663.504 447.755 668.186 445.726 672.846C444.658 675.299 443.562 677.738 442.449 680.172C442.86 676.734 442.86 673.204 443.061 669.787C443.349 664.89 443.715 660.004 444.051 655.111C444.735 645.184 445.346 635.247 445.892 625.31C447.825 589.875 449.247 554.409 449.142 518.918C449.09 501.17 448.728 483.422 447.965 465.691C447.607 457.342 446.913 449 446.287 440.661L446.153 438.876C445.6 431.391 444.937 423.89 443.798 416.471C444.135 415.71 444.428 414.94 444.645 414.15L444.723 413.853L444.666 413.861C444.718 413.629 444.735 413.399 444.723 413.171ZM424.837 382.677C424.788 382.472 424.497 382.489 424.444 382.677C423.148 387.041 423.607 391.84 424.723 396.231C425.325 398.609 426.18 400.918 427.214 403.144L427.576 403.923C428.462 405.817 429.46 407.77 431.184 408.952C431.904 409.444 433.192 409.475 433.912 408.952L434.278 408.673C434.339 408.626 434.399 408.577 434.457 408.528C435.129 407.965 435.46 406.721 435.151 405.901C434.352 403.785 432.541 402.231 431.289 400.346C430.181 398.67 429.2 396.902 428.384 395.065C426.626 391.09 425.836 386.871 424.837 382.677Z" fill="black"/>
<path fill-rule="evenodd" clip-rule="evenodd" d="M394.322 224.494C369.6 224.494 344.031 243.701 334.97 255.957C324.492 270.129 316.226 338.161 320.104 361.245C323.981 384.33 343.242 409.491 376.677 409.491C410.113 409.491 430.461 405.363 431.278 399.367C431.821 395.37 439.173 382.246 453.33 359.996C467.811 355.914 475.08 348.997 475.137 339.245C475.193 329.494 471.313 322.844 463.497 319.296C466.284 280.812 464.168 256.561 457.15 246.542C446.621 231.513 419.042 224.494 394.322 224.494Z" fill="#FFDBB4"/>
<path fill-rule="evenodd" clip-rule="evenodd" d="M410.99 187.22C407.665 183.298 401.801 187.005 401.933 191.291C400.606 191.651 399.04 192.893 398.436 194.513C397.129 194.428 395.812 194.688 394.626 195.369L394.376 195.06C390.264 190.028 384.822 185.71 379.207 189.415C377.679 190.424 376.994 192.091 377.331 193.897L377.358 194.025L377.233 193.467C377.107 192.937 377.296 193.998 377.366 194.222L377.375 194.248C377.523 194.625 377.671 194.816 377.806 195.101C372.057 191.007 363.303 193.404 367.916 201.328L366.04 200.595C359.551 198.081 351.481 195.382 345.565 199.902C342.92 202.452 345.856 205.852 348.55 206.676L348.087 206.598C342.916 205.718 332.129 203.543 330.588 210.29C330.034 212.717 331.65 214.491 333.689 215.468C329.374 215.452 325.119 216.165 321.385 218.276C317.833 220.806 320.704 224.992 324.418 224.81C323.266 226.237 322.884 228.652 323.996 230.194C321.885 230.75 319.938 231.464 318.143 232.577L317.65 232.641C314.062 233.09 309.969 233.357 307.996 236.888C305.091 244.551 315.434 244.246 319.874 241.555C319.61 241.984 319.415 242.453 319.305 242.953L317.867 243.358C312.439 244.871 306.297 246.542 302.803 251.121C301.201 253.755 303.43 258.233 306.779 257.433C297.704 261.765 301.182 273.176 310.057 267.24C310.472 267.625 310.977 267.911 311.506 268.037L309.633 269.055C304.877 271.665 299.156 275.238 300.15 281.164C301.094 284.3 305.434 283.727 307.64 282.527C303.786 285.849 300.149 289.446 296.845 293.335L295.931 294.425C293.362 297.512 288.892 303.194 293.734 306.163C299.703 309.208 302.678 300.216 306.15 297.007C303.374 303.553 312.398 308.119 315.548 301.525C316.077 301.618 316.609 301.628 317.131 301.557C314.415 304.442 307.07 324.185 316.206 319.855C317.661 318.313 318.938 316.626 320.112 314.856C318.645 326.168 317.572 337.533 316.878 348.906L316.632 353.028C316.379 357.305 316.188 361.599 316.668 365.861C317.221 370.823 318.644 375.479 320.799 379.974C322.785 384.12 325.345 387.96 328.275 391.491C329.842 393.38 331.505 395.218 333.551 396.6C335.18 397.7 337.083 398.425 338.915 399.123C341.897 402.107 345.724 404.364 349.464 406.166C355.628 409.13 362.312 410.766 369.073 411.586C375.987 412.42 382.971 412.219 389.827 411.028C396.38 409.893 403.402 406.991 407.438 401.462C407.786 400.986 407.138 400.537 406.712 400.733C395 406.166 381.839 407.584 369.073 405.87C363.118 405.071 357.257 403.422 351.82 400.86C347.231 398.7 343.36 395.558 339.242 392.713C338.441 391.643 337.631 390.591 336.708 389.614L335.267 388.1C334.19 386.962 333.133 385.809 332.172 384.565C329.202 380.729 326.742 376.378 325.118 371.801C321.959 362.89 322.813 353.217 323.372 343.931L323.42 343.112C323.995 333.18 324.931 323.282 326.228 313.42C326.768 309.316 327.368 305.218 328.025 301.13C329.079 299.412 330.204 297.75 331.463 296.193C330.438 300.184 333.987 305.734 338.339 303.1C343.321 298.83 343.081 291.938 347.257 286.71C351.586 280.007 381.456 266.971 390.336 265.141C388.906 267.227 386.292 268.68 385.683 271.142C374.761 280.815 392.564 285.964 398.123 272.179C398 276.768 397.536 281.318 396.518 285.797C395.034 289.911 393.87 301.831 401.309 298.234C404.869 299.265 407.584 296.224 408.031 292.795C410.602 300.545 408.171 312.929 412.886 318.641C414.333 320.143 416.568 319.143 417.32 317.427C421.682 316.282 421.309 311.185 421.839 307.537C425.817 322.078 430.796 332.172 431.481 347.34C428.403 351.733 435.155 354.963 438.053 351.443C442.12 345.554 438.37 337.502 437.412 331.054C438.556 330.995 439.689 330.486 440.634 329.374C441.149 331.397 440.853 334.062 440.68 336.258C443.259 346.364 453.064 339.891 452.657 331.692C453.081 334.006 453.402 336.342 453.605 338.695C451.712 340.879 450.308 343.493 449.478 346.267C448.881 348.272 450.914 349.474 452.465 349.183C453.291 352.007 456.872 354.044 459.228 351.345C461.556 348.985 461.96 345.575 462.145 342.18C462.47 341.834 462.667 341.382 462.635 340.834C462.605 340.319 462.479 339.884 462.279 339.516C462.319 338.822 462.368 338.141 462.443 337.483C464.246 343.101 463.073 348.989 462.916 354.744C459.732 356.54 456.099 357.308 452.45 358.066L451.92 358.176C450.793 358.412 450.435 360.096 451.285 360.803C449.025 363.02 447.075 365.665 445.172 368.104C442.646 371.341 440.229 374.705 437.88 378.076L436.499 380.057C432.47 385.81 426.899 393.603 429.394 400.689C429.734 401.662 431.153 402.012 431.706 400.99C433.522 397.63 434.536 393.929 436.26 390.53C437.953 387.196 440.061 384.106 442.15 381.017L443.356 379.227C445.364 376.236 447.352 373.214 449.195 370.134L450.478 368C451.684 365.987 452.878 363.906 453.767 361.742C456.931 362.507 460.244 361.958 463.279 360.635L463.318 360.846L463.394 361.227C463.828 363.056 466.346 364.306 467.954 363.109C471.803 360.2 473.37 355.871 473.78 351.241C474.555 349.933 475.212 348.553 475.749 347.123C476.002 349.974 477.1 352.738 480.481 352.653C486.349 352.17 486.926 346.615 485.339 341.09C492.286 343.217 493.1 333.369 490.908 328.179C491.721 327.936 492.476 327.45 492.907 326.795L493.267 327.428C494.602 329.745 496.116 331.994 498.225 333.197C501.172 334.877 505.457 332.796 505.261 329.096C504.63 323.068 499.358 318.475 496.148 313.644C496.719 313.725 497.313 313.704 497.896 313.596C504.312 317.183 507.373 308.74 505.113 303.848C503.458 299.454 500.461 295.675 497.249 292.343L498.191 292.907C499.89 293.911 501.784 294.879 503.652 294.485C515.874 302.535 519.885 288.997 506.171 284.766L506.176 284.703C507.552 283.372 508.149 281.266 507.079 279.163C512.11 280.934 519.291 276.927 514.858 271.45C511.965 268.721 508.553 266.372 504.77 265.144C504.959 264.139 505.02 263.116 504.941 262.087L505.168 262.118C507.556 262.462 510.5 263.44 511.972 260.862C512.72 259.564 512.631 257.426 511.408 256.416C507.192 252.942 502.381 250.052 497.157 248.88C496.965 248.243 496.765 247.609 496.553 246.978C501.011 246.895 506.015 240.961 500.895 237.599C496.394 235.3 491.757 233.822 486.675 233.959C489.654 231.014 487.895 225.676 483.933 224.855C486.528 219.317 480.118 216.46 475.336 217.333C475.512 214.873 474.198 212.131 471.669 211.513C472.996 203.727 464.77 204.464 459.617 206.309C461.342 203.308 459.569 199.776 456.525 198.724C451.54 197.593 446.769 202.353 442.973 205.272C444.267 202.226 443.176 199.419 440.093 198.205C436.917 196.96 433.495 199.367 430.845 201.003C429.404 199.189 426.944 198.598 424.737 198.71C424.502 198.029 424.155 197.46 423.711 197.011C423.724 192.814 416.595 190.507 414.107 194.416C413.684 191.698 412.568 189.082 410.99 187.22ZM321.801 263.342L321.719 263.794C321.613 263.887 321.514 263.986 321.413 264.081C321.095 264.157 320.788 264.236 320.497 264.318C320.921 263.974 321.357 263.655 321.801 263.342ZM316.298 252.328L316.395 252.462C316.411 252.484 316.428 252.506 316.446 252.527C316.177 252.629 315.909 252.733 315.642 252.841L315.242 253.005L315.101 253.067C315.498 252.817 315.897 252.57 316.298 252.328ZM380.471 196.881L380.711 196.941C380.787 196.959 380.86 196.977 380.927 196.993C380.951 196.999 380.974 197.002 380.996 197.011L380.933 196.997C381.047 197.084 381.197 197.186 381.321 197.268C381.199 197.258 381.077 197.246 380.955 197.239C380.795 197.119 380.633 197 380.471 196.881Z" fill="black"/>
<path fill-rule="evenodd" clip-rule="evenodd" d="M357.491 369.417C356.823 368.252 355.282 367.174 353.872 367.34C347.554 368.08 347.566 375.741 350.005 380.213C352.167 384.179 356.643 386.506 361.123 386.166C365.829 385.809 369.84 383.042 371.604 378.638C372.771 375.725 373.311 370.348 370.206 368.39C370.148 368.353 370.054 368.363 370.008 368.415C368.519 370.147 368.46 372.748 367.157 374.676C365.945 376.47 364.062 377.951 361.857 378.179C360.209 378.35 358.542 377.756 357.898 376.277C357.549 375.477 357.589 375.042 357.72 374.491L357.839 374.013C358.251 372.336 358.437 371.061 357.491 369.417ZM355.804 335.821C352.509 337.824 347.489 342.494 351.032 347.461C355.204 351.839 361.211 346.819 364.172 344.548C366.917 342.788 370 347.314 367.453 349.369C346.065 365.208 337.385 336.345 354.137 333.466C355.981 333.148 356.667 335.201 355.804 335.821ZM390.595 322.085C388.572 319.051 383.956 319.498 382.843 323.099C382.239 325.05 383.072 326.803 383.029 328.752C382.993 330.397 383.101 332.231 383.605 333.824C384.755 337.459 388.023 340.025 391.889 339.919C395.743 339.813 399.136 337.374 400.75 333.938C402.37 330.489 402.027 326.92 400.845 323.413C400.788 323.244 400.567 323.162 400.433 323.304C399.036 324.791 398.013 326.358 396.954 328.022L395.87 329.727C395.041 331.011 393.836 332.65 392.288 332.548L392.055 332.526C391.624 332.488 391.69 332.574 391.359 331.987C391.206 331.715 391.233 331.211 391.159 330.891L391.133 330.783L391.148 330.724C391.18 330.569 391.213 330.277 391.239 329.77L391.244 329.657C391.357 327.285 392.027 324.236 390.595 322.085ZM339.334 324.106C339.696 320.225 334.241 319.363 332.427 322.234C331.481 323.732 331.206 325.614 330.997 327.396L330.899 328.242C330.684 330.073 330.599 331.978 331.394 333.685C332.645 336.374 335.366 337.796 338.301 337.571C341.105 337.356 343.662 335.73 345.01 333.261C346.213 331.06 347.407 326.76 345.947 324.464C345.859 324.324 345.683 324.307 345.562 324.414C344.183 325.639 343.958 327.873 343.138 329.47C342.292 331.116 341.009 332.72 339.064 332.97C337.203 333.209 336.493 332.193 336.967 330.419C337.58 328.128 339.103 326.57 339.334 324.106ZM389.121 299.011L388.229 298.669C385.172 297.514 380.975 296.179 378.49 298.665C376.957 300.198 376.665 302.456 377.76 304.327C379.085 306.593 381.463 306.649 383.76 306.983C386.372 307.363 389.029 308.085 391.461 309.114C394.2 310.273 396.743 311.718 399.234 313.333C401.6 314.867 403.96 317.374 406.794 317.846C406.909 317.865 407.04 317.816 407.071 317.689C407.714 314.917 405.926 312.191 404.329 310.028C402.399 307.411 400.059 305.263 397.444 303.337C394.92 301.478 392.036 300.134 389.121 299.011ZM333.595 308.863L333.323 308.815C331.469 308.506 329.789 308.577 328.392 310.046C327.326 311.166 326.915 312.618 327.424 314.099C327.892 315.465 328.941 316.854 330.464 317.14C335.603 318.108 341.295 317.947 346.46 317.215C348.823 316.88 351.207 316.47 353.508 315.823L354.567 315.516C356.489 314.967 358.689 314.393 360.085 312.98C360.587 312.472 360.297 311.745 359.697 311.51C357.262 310.555 353.923 311.063 351.326 310.989C348.306 310.902 345.28 310.676 342.274 310.364C339.335 310.059 336.493 309.394 333.595 308.863Z" fill="black"/>
<path fill-rule="evenodd" clip-rule="evenodd" d="M316.757 338.479C322.054 343.954 330.897 345.524 337.944 342.588C356.04 335.026 347.183 311.439 333.227 305.105C331.484 304.67 329.155 303.639 327.032 303.405C326.84 303.311 326.422 303.584 325.915 303.325C310.527 305.044 307.022 328.937 316.757 338.479ZM375.123 339.88C381.065 347.761 392.109 350.194 401.133 346.529C418.961 339.507 412.639 318.592 400.441 310.392C374.675 300.707 364.034 325.348 375.123 339.88ZM413.77 322.417C413.787 322.409 413.804 322.404 413.82 322.397C413.726 322.355 413.631 322.314 413.538 322.272C413.568 322.352 413.602 322.431 413.631 322.51C413.678 322.479 413.719 322.441 413.77 322.417ZM304.492 313.897C305.947 313.9 308.048 314.139 309.252 315.148C312.221 305.132 323.182 295.861 332.714 302.621C340.22 305.035 345.791 310.391 348.956 317.51C354.664 314.114 363.64 315.564 368.589 320.055C371.831 309.342 379.809 305.59 389.305 305.035C399.669 303.338 410 313.406 413.223 321.483C415.904 321.177 419.908 320.325 422.43 321.979C438.794 317.687 467.404 315.32 470.73 317.704C473.101 318.615 474.402 324.212 471.091 324.513C468.204 324.104 471.428 320.413 468.518 320.01C453.02 319.049 437.975 322.171 422.64 323.48C421.271 325.323 416.847 325.939 414.488 325.199C418.204 338.9 410.182 348.221 398.159 351.014C379.544 355.29 363.348 338.634 368.216 321.309C362.577 318.503 356.09 318.624 349.947 320.102C360.213 357.889 299.368 356.193 308.871 316.444C302.547 319.59 301.174 314.532 304.492 313.897Z" fill="black"/>
<path d="M237.539 535.957C237.37 533.306 237.868 530.413 239.532 528.538C241.187 526.651 244.01 525.781 246.927 525.425C249.844 525.069 252.841 525.255 254.628 526.808C256.403 528.368 256.952 531.323 257.591 534.088C258.218 536.863 258.943 539.459 258.342 541.827C257.732 544.183 255.785 546.319 253.337 547.674C250.885 549.05 247.932 549.645 245.518 548.817C243.096 547.979 241.214 545.72 239.871 543.384C238.519 541.035 237.708 538.608 237.539 535.957Z" fill="#9093D1"/>
<path d="M121.269 573.503C120.933 568.201 121.928 562.415 125.255 558.665C128.567 554.891 134.211 553.152 140.045 552.44C145.879 551.728 151.874 552.099 155.447 555.204C158.997 558.325 160.095 564.235 161.372 569.767C162.627 575.314 164.077 580.507 162.875 585.243C161.656 589.956 157.762 594.227 152.865 596.939C147.962 599.689 142.055 600.878 137.228 599.225C132.384 597.549 128.618 593.031 125.932 588.357C123.23 583.66 121.606 578.806 121.269 573.503Z" fill="#F7859C"/>
<path d="M188.002 639.356C187.665 634.053 188.66 628.268 191.988 624.517C195.299 620.744 200.943 619.005 206.778 618.293C212.611 617.581 218.607 617.952 222.179 621.056C225.729 624.176 226.828 630.087 228.105 635.618C229.359 641.167 230.81 646.36 229.607 651.096C228.388 655.807 224.494 660.08 219.597 662.79C214.694 665.541 208.788 666.73 203.961 665.077C199.116 663.401 195.35 658.883 192.665 654.209C189.962 649.511 188.339 644.658 188.002 639.356Z" fill="#F7859C"/>
<path d="M155.345 493.342C154.831 485.061 156.401 476.023 161.613 470.157C166.799 464.255 175.627 461.525 184.75 460.398C193.873 459.272 203.246 459.837 208.823 464.676C214.365 469.542 216.068 478.77 218.05 487.406C219.997 496.068 222.252 504.174 220.36 511.573C218.443 518.936 212.345 525.619 204.682 529.864C197.01 534.172 187.773 536.045 180.23 533.475C172.661 530.869 166.785 523.822 162.598 516.529C158.384 509.199 155.858 501.623 155.345 493.342Z" fill="#9FD8E5"/>
<path d="M185.141 573.504C184.804 568.202 185.799 562.416 189.127 558.665C192.438 554.892 198.083 553.153 203.917 552.441C209.75 551.729 215.746 552.1 219.318 555.204C222.868 558.326 223.967 564.236 225.244 569.768C226.498 575.315 227.949 580.508 226.747 585.244C225.527 589.956 221.633 594.228 216.736 596.939C211.833 599.689 205.927 600.878 201.1 599.225C196.255 597.549 192.489 593.031 189.804 588.357C187.101 583.661 185.478 578.807 185.141 573.504Z" fill="#FFDBB4"/>
</svg>
