<svg width="540" height="831" viewBox="0 0 540 831" fill="none" xmlns="http://www.w3.org/2000/svg">
<path d="M381.184 335.212C430.952 367.228 476.284 414.462 488.012 469.302C500.058 524.144 478.502 586.592 446.486 643.97C414.468 701.347 371.674 753.018 320.32 764.747C268.966 776.159 208.736 746.995 150.724 721.952C92.7135 696.592 36.604 675.353 2.0511 633.192C-32.1849 591.031 -44.8649 527.63 -36.9399 465.498C-29.3319 403.05 -1.1189 341.869 45.48 309.218C92.396 276.567 157.698 272.446 217.294 279.103C277.208 285.76 331.414 303.195 381.184 335.212Z" fill="#FFDBB4"/>
<path fill-rule="evenodd" clip-rule="evenodd" d="M229.579 375.44L224.114 388.962L227.125 431.821L229.365 432.17C253.028 435.841 269.107 437.695 277.603 437.733L277.866 437.734C286.422 437.734 296.674 435.821 308.622 431.996L309.166 431.821L310.546 399.729H307.293L301.409 385.923L301.414 385.918C301.479 386.029 301.547 386.136 301.617 386.24C304.07 389.871 305.492 386.939 311.255 388.223C318.155 389.761 321.219 396.741 327.294 401.957C330.114 404.379 336.034 405.52 338.867 407.186L341.843 408.936C351.168 414.44 361.885 421.127 367.512 429.837C374.109 440.049 378.656 449.739 382.855 461.099C391.906 485.584 398.188 510.569 402.676 536.264C407.226 562.306 409.96 588.672 412.049 615.017C413.016 627.225 413.836 639.444 414.517 651.671L414.685 654.728C415.042 661.381 414.731 667.891 408.687 671.988C404.357 674.923 398.61 675.37 393.529 675.671L393.253 675.688C355.69 677.892 318.126 680.081 280.562 682.274L224.218 685.571C214.843 686.121 205.467 686.667 196.092 687.209L173.207 688.532C162.422 689.146 151.623 689.678 140.823 689.615C127.235 689.536 113.704 688.531 100.241 686.719L99.0537 686.557C90.5837 685.386 78.3027 682.425 76.7813 672.259C76.5629 670.799 77.8467 669.887 78.9245 670.097C78.5698 668.442 78.3496 666.785 78.1392 665.345C77.2365 659.194 76.6697 653.003 76.3896 646.793C75.8277 634.366 76.3011 621.881 77.5425 609.508C79.5961 589.038 82.4748 568.604 85.4493 548.241L86.1116 543.717C89.2754 522.143 93.0423 500.606 98.9367 479.591C104.382 460.178 112.876 439.983 124.564 427.708C136.253 415.432 152.917 404.767 170.041 398.235C171.524 397.669 200.987 391.213 202.972 392.153L203.328 391.873C209.202 387.232 217.582 379.079 226.21 381.646L226.229 381.614C226.433 381.24 227.23 378.735 228.331 375.44H229.579Z" fill="#8FA7DF"/>
<path fill-rule="evenodd" clip-rule="evenodd" d="M235.81 357.443C242.946 348.389 250.468 345.51 261.583 346.185C269.121 345.915 276.639 347.874 283.021 352.199C288.869 355.258 294.055 359.467 297.757 364.887C300.923 369.52 298.517 380.969 301.409 385.923C301.381 386.462 301.366 386.953 301.366 387.397C301.366 391.684 304.347 396.467 310.309 401.748L310.546 401.957V433.107C300.523 436.192 288.114 437.734 273.319 437.734C258.744 437.734 243.585 435.285 227.841 430.387L227.125 430.162L224.114 396.307L227.125 386.939L227.124 379.092L228.288 375.582C230.348 369.411 233.502 360.372 235.81 357.443Z" fill="#694D3D"/>
<path fill-rule="evenodd" clip-rule="evenodd" d="M227.125 430.162C244.767 435.304 259.61 437.875 271.654 437.875C283.698 437.875 296.202 435.304 309.167 430.162L306.012 684.049L255.236 684.67L227.125 430.162Z" fill="#9FD8E5"/>
<path fill-rule="evenodd" clip-rule="evenodd" d="M140.01 541.018C139.815 540.651 140.269 540.321 140.57 540.586C147.41 546.593 150.991 556.241 151.742 565.159C152.537 574.615 151.409 584.406 150.978 593.859C150.498 604.388 150.067 614.921 149.482 625.445C148.887 636.122 148.247 646.796 147.698 657.476L146.463 681.5C146.331 684.06 146.616 687.209 145.634 689.598C144.113 693.302 139.593 692.729 138.644 689.633L138.614 689.531L138.527 689.598C137.689 686.808 138.317 683.494 138.459 680.61L139.753 654.362C140.667 635.809 141.482 617.256 142.464 598.707L142.798 592.524C143.257 584.201 143.609 575.898 143.892 567.577L143.984 564.803C144.252 556.448 144.039 548.561 140.01 541.018ZM305.822 387.001C309.633 386.639 312.511 387.904 315.97 389.236C317.477 389.816 318.904 390.486 320.35 391.18C322.16 392.049 323.324 393.584 324.439 395.208L325.035 396.083C329.676 402.889 332.799 410.741 336.322 418.151C340.443 426.819 344.605 435.468 348.638 444.177L350.628 448.468C351.623 450.614 352.615 452.76 353.593 454.914L355.281 458.662C356.978 462.463 358.498 466.485 356.081 470.406C353.832 474.053 349.847 476.875 346.691 479.694C344.058 482.046 341.425 484.398 338.791 486.75C344.236 492.206 347.891 499.077 350.039 506.446C353.092 505.173 356.818 504.929 359.974 504.378C364.392 503.607 364.933 510.301 360.764 510.22C357.684 510.159 354.071 510.474 350.913 509.825C351.461 512.246 351.86 514.704 352.113 517.169C353.441 530.086 350.54 543.079 347.515 555.578L347.266 556.604C343.98 570.132 340.865 583.695 338.078 597.335C335.285 611.004 332.773 624.731 330.543 638.503C328.273 652.521 326.666 666.617 324.94 680.709C324.679 682.842 323.338 684.67 320.983 684.67C319.021 684.67 316.779 682.838 317.025 680.709C318.806 665.363 321.333 650.097 323.843 634.855C328.166 608.608 333.607 582.588 339.866 556.74L340.96 552.238C343.776 540.563 346.331 528.534 344.918 516.492C343.768 506.686 339.671 496.231 331.575 490.14L331.328 489.957C329.437 488.569 328.709 485.914 330.572 484.086C331.757 482.923 332.944 481.761 334.132 480.6L341.259 473.635L342.696 472.229C343.894 471.058 345.098 469.894 346.338 468.767C347.088 468.084 349.123 466.783 349.271 465.661C349.368 464.929 348.502 463.643 348.15 462.968L346.542 459.718C345.628 457.865 344.743 455.999 343.851 454.135C342.003 450.274 340.127 446.425 338.319 442.545L327.456 419.248C324.391 412.676 321.661 405.737 317.654 399.661L316.864 398.476C316.205 397.479 315.622 396.519 315.205 395.299C314.805 394.126 314.302 392.837 313.561 391.836C311.826 389.486 308.509 388.153 305.733 387.66C305.332 387.589 305.478 387.034 305.822 387.001ZM222.269 380.882C222.511 380.882 222.547 381.227 222.325 381.294C218.976 382.302 215.777 383.928 213.166 386.275C211.918 387.398 210.66 388.672 209.889 390.184C209.594 390.763 209.431 391.374 209.311 392.008L209.273 392.22C209.074 393.364 208.789 394.002 208.208 394.918L208.108 395.074C204.791 400.201 202.466 405.896 200.34 411.598L195.711 424.031L191.084 436.466C189.594 440.472 188.102 444.479 186.611 448.486C185.788 450.698 184.941 452.901 184.094 455.104C183.728 456.058 183.334 457.005 182.999 457.971C182.953 458.103 182.806 458.899 182.697 459.092L182.734 459.157C183.667 460.728 186.156 462.041 187.566 463.182L192.423 467.112C195.887 469.915 199.439 472.639 202.798 475.567C204.908 477.405 203.595 480.697 201.242 481.465C197.299 482.75 193.435 484.289 189.551 485.744C187.982 486.331 186.348 486.843 184.797 487.49L183.853 487.899C183.485 488.065 183.662 488.063 183.677 488.744C183.691 489.458 183.894 490.203 184.01 490.905C185.318 498.822 186.705 506.726 188.169 514.616C193.347 542.517 199.533 570.214 206.588 597.699C210.152 611.578 213.974 625.389 217.615 639.249C221.248 653.071 226.028 666.695 230.592 680.232C231.88 684.049 225.832 685.693 224.576 681.892C219.315 665.97 214.503 649.91 209.534 633.898C200.705 605.448 193.747 576.379 187.594 547.241C184.544 532.799 181.755 518.302 179.228 503.76C178.75 501.006 178.281 498.252 177.821 495.495L177.152 491.441C176.693 488.551 176.431 485.541 178.676 483.254C180.867 481.021 184.629 480.23 187.513 479.183L187.723 479.106C189.558 478.421 191.406 477.761 193.247 477.08C190.535 474.943 187.856 472.759 185.151 470.623C182.968 468.9 180.751 467.212 178.6 465.45C176.826 463.996 175.38 462.129 175.195 459.765C175.006 457.349 176.041 455.107 176.875 452.891L176.955 452.677C177.775 450.465 178.596 448.253 179.439 446.049L184.651 432.406C187.964 423.736 191.137 414.996 194.621 406.394C195.999 402.99 197.501 399.639 199.276 396.421C200.132 394.869 201.05 393.351 202.048 391.886C203.165 390.244 204.18 389.443 205.911 388.537C208.68 387.088 210.854 384.659 213.634 383.165C216.363 381.699 219.171 380.916 222.269 380.882ZM231.258 365.415C231.364 365.233 231.645 365.314 231.648 365.521C231.721 369.83 230.698 374.233 230.069 378.493C229.436 382.769 229.234 387.282 228.319 391.512C228.3 391.709 228.262 391.903 228.208 392.094L228.165 392.239C227.779 393.424 226.775 394.428 225.544 394.742C225.931 396.89 226.296 399.041 226.603 401.204C227.13 404.921 227.611 408.645 228.084 412.369L228.65 416.838C229.185 421.05 229.705 425.264 230.219 429.479C231.526 430.026 232.861 430.477 234.227 430.869C237.374 431.77 240.597 432.136 243.845 432.455C250.458 433.104 257.122 433.405 263.759 433.774L265.18 433.854C272.642 434.282 280.144 434.358 287.586 433.592C291.277 433.212 294.938 432.574 298.537 431.671C300.366 431.211 302.143 430.526 303.968 430.077C304.573 429.928 305.114 429.585 305.721 429.218C305.99 428.877 306.368 428.619 306.86 428.52L306.994 428.497L307.126 428.477L307.171 428.457L307.168 428.471C307.541 428.421 307.896 428.421 308.23 428.467C308.364 425.181 308.508 421.895 308.689 418.61C309.174 409.787 310.515 400.583 308.725 391.837C308.665 391.543 309.065 391.439 309.169 391.714C312.681 400.973 312.286 411.098 312.463 420.843C312.636 430.372 312.531 439.909 312.484 449.441C313.166 449.732 313.775 450.125 314.257 450.678C315.219 451.782 315.496 453.702 314.257 454.768C313.707 455.24 313.099 455.568 312.454 455.796C312.42 464.077 312.361 472.358 312.278 480.64C313.852 481.856 313.999 484.744 312.219 485.945C311.923 512.763 311.436 539.581 311.032 566.395L310.186 622.651C310.073 630.147 309.887 637.642 309.82 645.136L309.873 645.157L310.06 645.244C310.375 645.392 310.844 645.632 310.942 645.877C310.967 645.941 310.974 645.985 310.971 646.018C311.487 646.09 311.999 646.335 312.441 646.755C313.534 647.794 313.312 649.36 312.441 650.418L312.209 650.701C311.666 651.36 310.635 651.614 309.794 651.48C309.802 656.158 309.832 660.836 309.817 665.514C309.813 666.942 309.791 668.371 309.766 669.8L309.708 673.226C309.668 675.18 309.495 677.665 307.495 678.543C305.238 679.534 303.214 678.722 302.3 676.428C302.052 675.807 302.106 675.228 302.196 674.613C302.168 673.69 302.023 672.62 302.041 671.764L302.116 668.192C302.127 667.642 302.15 667.091 302.165 666.54L302.1 666.547C294.08 666.937 286.004 666.747 277.971 666.742L274.398 666.747C271.418 666.75 268.43 666.734 265.454 666.62L264.338 666.572C262.109 666.468 259.766 666.434 257.455 666.235C257.75 668.608 258.025 670.983 258.27 673.361C258.502 675.615 256.177 677.531 254.103 677.531C251.641 677.531 250.232 675.593 249.937 673.361C248.545 662.83 247.975 652.201 246.646 641.663C245.455 632.225 244.422 622.765 243.372 613.309L243.021 610.157C239.18 575.745 235.45 541.319 231.883 506.877L230.221 490.777C228.544 474.549 226.856 458.32 225.433 442.068C224.619 432.776 223.869 423.483 223.164 414.182C222.646 407.35 222.321 400.555 222.109 393.735C221.274 392.876 220.856 391.62 221.226 390.324C221.442 389.568 221.693 388.815 221.959 388.064C221.942 387.326 221.925 386.588 221.91 385.849C221.897 385.15 222.606 384.79 223.174 384.906C224.206 382.406 225.342 379.927 226.29 377.451C227.825 373.442 229.09 369.123 231.258 365.415ZM145.543 408.735C161.587 398.672 180.685 391.431 199.813 392.21C200.249 392.228 200.371 392.892 199.919 392.992C189.716 395.272 179.401 398.049 169.742 402.091C160.054 406.145 150.843 411.603 142.638 418.163C127.501 430.266 115.736 446.008 107.989 463.753C103.451 474.148 100.27 485.122 97.4925 496.1C94.5533 507.719 92.131 519.462 90.1169 531.277C86.1388 554.613 83.8227 578.207 82.5904 601.841C81.3365 625.883 81.8533 649.942 80.9591 673.987C80.8045 678.153 74.8548 678.072 74.5523 673.987C72.5262 646.649 73.6487 618.875 75.5225 591.556C77.2074 566.998 80.1497 542.491 84.8876 518.328L85.3003 516.233C89.7296 493.878 95.072 470.981 105.78 450.735C114.922 433.45 129.035 419.09 145.543 408.735ZM368.342 515.58C368.426 515.34 368.742 515.343 368.826 515.58C370.655 520.704 370.721 526.486 371.207 531.887L371.245 532.302C371.712 537.229 372.063 542.162 372.389 547.098L372.51 548.95C373.821 569.09 375.458 589.207 377.926 609.241C380.385 629.199 383.71 649.018 387.305 668.798C387.706 671.001 386.731 673.244 384.423 673.878C382.389 674.438 379.778 673.184 379.348 670.994C377.116 659.641 375.311 648.272 373.7 636.821C370.866 616.655 368.75 596.397 367.39 576.079C366.708 565.874 366.287 555.673 366.12 545.446C366.043 540.701 366.166 535.945 366.419 531.205L366.479 530.111C366.758 525.266 366.729 520.2 368.342 515.58ZM194.973 643.858C195.188 643.742 195.453 643.981 195.317 644.203C192.211 649.256 188.008 653.613 183.946 657.907C179.699 662.396 175.558 667.02 171.225 671.421C168.095 674.6 163.059 669.472 166.363 666.555C171.008 662.454 175.863 658.558 180.591 654.549L182.658 652.795C186.535 649.517 190.526 646.269 194.973 643.858ZM342.53 641.328C342.298 640.885 342.828 640.527 343.188 640.82C345.694 642.859 347.94 645.292 350.36 647.444C352.756 649.576 355.242 651.565 357.796 653.504C360.36 655.451 362.98 657.321 365.671 659.09C367.903 660.557 370.203 661.732 372.541 662.951C373.623 663.09 374.626 663.622 375.428 664.63C376.696 666.224 376.831 669.23 375.072 670.614L374.756 670.862C372.703 672.477 370.265 672.674 368.244 670.862C365.987 668.84 363.854 666.614 361.686 664.476L361.035 663.838C358.706 661.572 356.434 659.233 354.291 656.789L352.352 654.581C348.754 650.475 345.009 646.049 342.53 641.328ZM330.987 404.598C330.57 404.321 330.827 403.577 331.342 403.755L332.286 404.081C336.229 405.453 340.287 406.974 343.867 409.085C347.715 411.354 351.267 414.057 354.661 416.956C361.686 422.958 367.663 430.338 372.742 438.031C382.933 453.467 389.236 471.146 394.324 488.834C399.75 507.694 403.928 526.961 407.339 546.281C410.804 565.916 413.478 585.729 415.235 605.591C416.101 615.375 416.682 625.165 416.974 634.983C417.125 640.034 417.12 645.081 417.078 650.134C417.067 651.433 417.076 652.732 417.091 654.03L417.14 657.927C417.166 660.391 417.461 662.98 416.876 665.387C415.934 669.261 409.534 668.538 409.744 664.578C409.551 663.261 409.543 661.899 409.593 660.535C409.563 660.359 409.53 660.18 409.493 659.997C409.388 659.474 409.478 658.989 409.683 658.572C409.716 657.918 409.746 657.267 409.757 656.628C409.799 654.027 409.796 651.436 409.724 648.835C409.573 643.351 409.355 637.868 409.135 632.387C408.695 621.434 408.083 610.477 407.196 599.551C404.109 561.52 397.591 523.272 386.644 486.684C381.559 469.693 374.549 453.014 364.497 438.332C360.035 431.814 355 425.793 349.419 420.206C343.802 414.583 337.613 408.989 330.987 404.598ZM255.236 649.762L255.994 655.254C256.374 658 256.749 660.747 257.106 663.496C259.527 663.165 262.004 663.026 264.338 662.819C268.423 662.457 272.536 662.281 276.633 662.112C285.105 661.762 293.619 661.156 302.1 661.198C302.187 661.199 302.269 661.204 302.352 661.211L302.772 650.375L296.814 650.366C291.765 650.358 286.718 650.315 281.669 650.271C277.123 650.232 272.574 650.226 268.028 650.131L266.08 650.085C262.633 649.992 258.826 650.184 255.236 649.762ZM303.272 634.033C303.029 634.062 302.782 634.086 302.519 634.097C301.339 634.147 300.149 634.112 298.968 634.122C296.453 634.144 293.939 634.161 291.424 634.16C286.394 634.16 281.365 634.19 276.336 634.251C271.159 634.314 265.986 634.404 260.808 634.414C258.3 634.418 255.799 634.352 253.291 634.282C253.697 637.848 254.121 641.412 254.589 644.967C258.483 644.441 262.671 644.706 266.477 644.67L266.971 644.663C272.166 644.575 277.365 644.64 282.561 644.646C287.906 644.653 293.25 644.67 298.596 644.714L302.987 644.75L302.995 644.529C303.124 641.034 303.207 637.534 303.272 634.033ZM251.36 616.971C251.846 621.181 252.303 625.398 252.769 629.613C253.079 629.566 253.392 629.524 253.712 629.491C256.224 629.228 258.731 629.003 261.252 628.846C266.277 628.535 271.302 628.37 276.336 628.235C281.512 628.096 286.689 627.99 291.867 627.916C294.383 627.881 296.896 627.885 299.412 627.902C300.592 627.91 301.784 627.873 302.962 627.952C303.103 627.962 303.237 627.976 303.37 627.992L303.459 621.662C303.474 620.607 303.49 619.553 303.507 618.498C299.619 618.738 295.666 618.647 291.781 618.648L290.885 618.65C286.004 618.672 281.12 618.605 276.239 618.504C271.204 618.399 266.179 618.234 261.152 617.911C259.116 617.781 257.094 617.607 255.069 617.384L254.056 617.268C253.174 617.164 252.267 617.08 251.36 616.971ZM303.908 599.109C294.544 599.853 285.23 600.164 275.842 600.256L274.433 600.268C266.136 600.331 257.771 600.674 249.455 600.454C249.952 604.768 250.448 609.083 250.948 613.397C252.139 613.341 253.335 613.341 254.499 613.299C256.867 613.213 259.227 613.192 261.596 613.186C266.477 613.175 271.358 613.218 276.239 613.208C281.27 613.197 286.299 613.112 291.329 613.017C295.407 612.941 299.528 612.634 303.617 612.645L303.908 599.109ZM304.304 580.702C303.219 581.063 301.938 581.086 300.534 581.15L296.909 581.331C295.229 581.414 293.548 581.491 291.867 581.552C286.265 581.758 280.664 581.949 275.061 582.128C269.32 582.31 263.551 582.416 257.809 582.235C254.996 582.146 252.207 581.999 249.403 581.764C248.709 581.706 248.003 581.668 247.295 581.618C247.947 587.334 248.603 593.05 249.26 598.765C257.537 597.749 265.877 597.116 274.143 596.064L281.618 595.109C289.089 594.155 296.554 593.219 304.052 592.429L304.304 580.702ZM304.703 562.092C303.111 562.485 301.296 562.466 299.768 562.562L299.484 562.582C296.588 562.802 293.683 562.912 290.78 562.983C285.089 563.124 279.395 563.194 273.702 563.229L270.279 563.25C265.716 563.277 261.155 563.288 256.591 563.182C253.663 563.114 250.741 562.97 247.816 562.824C246.939 562.779 246.043 562.75 245.144 562.705C245.756 568.117 246.374 573.528 246.99 578.939C247.951 578.786 248.917 578.67 249.838 578.514C252.196 578.116 254.549 577.797 256.924 577.512C262.068 576.896 267.239 576.452 272.407 576.077C277.713 575.692 283.023 575.367 288.329 574.994L292.088 574.729C293.34 574.642 294.593 574.558 295.847 574.481C297.987 574.35 300.475 574.498 302.598 574.032C303.173 573.792 303.811 573.737 304.451 573.874L304.703 562.092ZM305.185 540.308C304.634 541.008 303.811 541.375 302.83 541.502C297.721 542.166 292.48 542.272 287.327 542.585L286.419 542.642C281.098 542.993 275.775 543.269 270.45 543.552C264.981 543.842 259.512 544.079 254.038 544.27C251.714 544.351 249.378 544.36 247.051 544.331L246.054 544.316C245.098 544.299 244.097 544.302 243.094 544.269C243.649 549.33 244.21 554.39 244.778 559.449C245.801 559.337 246.824 559.253 247.816 559.147C250.74 558.838 253.66 558.532 256.591 558.301C262.144 557.863 267.701 557.6 273.264 557.324C278.956 557.042 284.651 556.855 290.344 556.589C293.104 556.459 295.864 556.299 298.616 556.045C300.544 555.867 302.835 555.21 304.848 555.452C304.958 550.404 305.072 545.356 305.185 540.308ZM305.634 520.794C305.547 520.929 305.445 521.06 305.321 521.181C303.072 523.406 300.299 523.234 297.318 523.468L297.135 523.482C294.214 523.728 291.291 523.962 288.366 524.173C282.519 524.596 276.661 524.891 270.806 525.154C264.814 525.424 258.783 525.61 252.785 525.487C248.944 525.408 244.921 525.422 241.003 525.048C241.605 530.621 242.21 536.194 242.82 541.766C243.921 541.559 245.03 541.399 246.08 541.234C248.727 540.817 251.376 540.398 254.038 540.092C259.357 539.479 264.677 538.906 270.007 538.389C274.564 537.946 279.12 537.497 283.681 537.093L286.419 536.856C291.86 536.398 297.371 535.643 302.83 535.531C303.73 535.513 304.748 536.003 305.263 536.776C305.384 531.449 305.509 526.121 305.634 520.794ZM306.012 504.997C304.622 505.166 303.125 505.07 301.842 505.112C298.6 505.218 295.357 505.316 292.114 505.412L272.656 505.987C266.032 506.182 259.384 506.329 252.756 506.235C249.841 506.194 246.913 506.189 243.999 506.03L243.028 505.971C241.828 505.891 240.356 505.88 238.919 505.734L240.616 521.464C244.515 520.901 248.533 520.69 252.398 520.359L253.224 520.286C258.926 519.767 264.655 519.423 270.366 519.036C276.225 518.639 282.076 518.157 287.927 517.664C290.851 517.418 293.775 517.172 296.698 516.903L297.059 516.868C299.819 516.579 302.415 515.965 304.859 517.594C305.217 517.832 305.497 518.15 305.689 518.507C305.796 514.004 305.9 509.5 306.012 504.997ZM306.465 486.639C294.615 487.116 282.763 487.478 270.904 487.637C264.229 487.727 257.563 487.664 250.888 487.524C247.994 487.463 245.076 487.325 242.184 487.103L241.101 487.016C239.726 486.9 238.282 486.816 236.843 486.677C237.438 492.086 238.027 497.495 238.613 502.905C240.027 502.642 241.506 502.521 242.746 502.362L243.028 502.325C246.108 501.9 249.218 501.653 252.314 501.381C258.342 500.849 264.401 500.507 270.445 500.216C276.635 499.917 282.828 499.665 289.018 499.389L295.209 499.112C296.241 499.066 297.273 499.021 298.305 498.978C299.779 498.915 301.253 498.856 302.727 498.795C303.454 498.765 304.21 498.666 304.938 498.704L305.146 498.676C305.241 498.664 305.325 498.654 305.403 498.645C305.601 498.495 305.814 498.369 306.04 498.275L306.177 498.221L306.465 486.639ZM234.9 469.241C235.451 474.11 235.995 478.98 236.532 483.851C238.222 483.658 239.932 483.551 241.546 483.405C244.8 483.114 248.069 482.858 251.333 482.708L257.856 482.404C262.205 482.203 266.553 482.009 270.904 481.85C282.814 481.415 294.723 480.916 306.625 480.308C306.709 477.005 306.796 473.701 306.884 470.398C306.313 471.01 305.487 471.413 304.403 471.411C291.907 471.377 279.402 471.449 266.908 471.244C260.654 471.141 254.407 470.989 248.16 470.668C245.104 470.511 242.03 470.191 238.997 469.77C237.703 469.591 236.288 469.463 234.9 469.241ZM232.9 451.891C233.488 456.879 234.064 461.868 234.631 466.858C236.183 466.581 237.786 466.433 239.234 466.236C242.344 465.813 245.474 465.475 248.607 465.298C254.703 464.953 260.803 464.779 266.908 464.65C279.401 464.384 291.907 464.386 304.403 464.287C305.577 464.278 306.448 464.743 307.02 465.437C307.107 462.322 307.199 459.207 307.293 456.092C306.086 455.965 304.889 455.784 303.782 455.707C300.379 455.469 296.974 455.252 293.568 455.056C286.461 454.648 279.346 454.3 272.234 453.99C265.12 453.68 258.003 453.378 250.887 453.114L247.774 453C242.825 452.816 237.792 452.583 232.9 451.891ZM230.663 433.107C231.274 438.159 231.876 443.211 232.477 448.264L232.66 449.828C238.612 448.67 244.884 448.33 250.887 448.075C258.004 447.772 265.11 447.616 272.234 447.638C279.351 447.659 286.457 447.828 293.568 448.122C297.121 448.269 300.674 448.439 304.225 448.632C305.202 448.685 306.347 448.656 307.525 448.673C307.551 447.879 307.572 447.085 307.6 446.292C307.708 443.076 307.814 439.86 307.924 436.644C305.522 437.879 302.399 438.377 299.985 438.903L299.71 438.964C295.724 439.86 291.655 440.44 287.586 440.795C279.597 441.493 271.524 441.232 263.543 440.557L262.145 440.437C255.135 439.829 247.869 439.058 241.074 437.322C237.838 436.495 234.492 435.338 231.591 433.661C231.29 433.487 230.978 433.302 230.663 433.107ZM298.15 373.079C298.22 372.806 298.628 372.744 298.763 372.999C299.707 374.793 300.058 376.947 300.713 378.87C301.418 380.937 302.076 383.02 302.854 385.062C304.48 389.328 306.397 393.428 308.684 397.381C310.948 401.294 304.608 404.088 302.942 399.803C301.222 395.382 299.808 390.81 298.953 386.138C298.535 383.859 298.163 381.548 298.042 379.232C297.938 377.242 297.659 375.02 298.15 373.079Z" fill="black"/>
<path fill-rule="evenodd" clip-rule="evenodd" d="M335.234 245.541C319.552 204.163 291.285 173.868 243.63 192.896C242.263 191.963 240.479 191.713 238.77 192.806C212.81 209.154 194.117 235.364 186.015 264.919C181.085 265.86 176.294 267.499 172.015 270.188C162.715 276.033 156.459 285.332 150.593 294.39C148.83 297.113 150.463 301.621 153.777 302.239C155.217 302.508 156.644 302.668 158.063 302.71C157.717 303.968 157.263 305.183 156.684 306.297C154.587 310.332 158.548 314.615 162.259 313.512C162.671 313.731 163.103 313.91 163.55 314.045C163.601 316.331 164.772 319.39 167.089 319.852C170.837 320.658 175.817 317.781 174.933 313.577C176.065 313.777 177.193 313.802 178.293 313.663C178.416 315.853 178.378 318.137 178.679 320.156C179.664 329.673 189.145 336.066 198.186 333.171C198.741 336.136 199.392 340.303 202.304 341.911C205.709 351.49 211.587 362.422 221.216 366.787C220.359 368.989 220.824 371.669 223.406 373.143C241.031 383.221 262.185 386.631 282.112 382.884C290.075 382.409 297.834 380.604 305.281 376.759C310.712 373.955 315.705 370.394 320.579 366.723C325.455 363.051 330.669 359.476 334.561 354.708C338.788 349.53 340.756 343.437 342.033 336.953C347.885 307.519 345.864 278.619 335.234 250.58C322.075 215.873 348.388 280.25 335.234 245.541Z" fill="#694D3D"/>
<path fill-rule="evenodd" clip-rule="evenodd" d="M171.969 268.496C186.607 259.836 205.274 262.078 214.068 275.492C215.586 277.807 216.634 280.355 217.375 283.304L217.494 283.794L217.614 284.31C217.997 286.015 218.248 287.619 218.589 290.347L218.967 293.442L219.075 294.286C219.441 297.087 219.762 298.857 220.263 300.661L220.362 301.011L220.941 303.009L218.757 303.818C214.574 305.333 213.698 305.469 211.284 304.203C209.399 303.215 208.415 301.884 207.105 299.188L206.916 298.793L206.498 297.914L206.271 297.45C205.418 295.742 204.735 293.92 203.769 293.258C202.458 292.359 198.326 292.002 195.452 292.356L195.302 292.375L195.178 292.401L194.965 292.449C190.132 293.595 185.727 297.508 182.821 301.643C180.482 304.972 179.138 309.166 178.973 313.525L178.963 313.815L178.906 316.04L174.221 315.94L174.267 315.074L174.197 315.228C172.721 318.349 169.012 320.427 165.91 318.361L165.799 318.286L165.687 318.205C163.067 316.271 162.752 312.357 164.902 309.979L165.001 309.872L165.098 309.774L165.078 309.765L165.056 309.757L165.042 309.756C164.31 309.891 163.666 310.267 162.796 311.069L162.572 311.279L162.123 311.767L161.658 312.265L161.458 312.471C161.33 312.6 161.213 312.714 161.103 312.814C160.954 312.95 160.816 313.064 160.667 313.168C160.528 313.264 160.385 313.348 160.212 313.424C159.785 313.61 159.329 313.698 158.745 313.554C157.944 313.357 157.493 312.871 157.22 312.299C157.114 312.077 157.053 311.872 157.01 311.657C156.965 311.431 156.943 311.201 156.931 310.936C156.924 310.762 156.921 310.572 156.922 310.365L156.928 310.041L156.939 309.689L156.951 309.408L157.004 308.365C157.193 304.942 158.09 301.58 159.626 298.406L159.782 298.09L159.84 297.975L159.679 298.191C158.632 299.575 157.621 300.535 156.358 301.168L156.185 301.253L156.015 301.33C154.263 302.102 152.499 301.802 151.434 300.372C150.697 299.382 150.479 298.079 150.63 296.709C150.923 294.05 151.972 291.616 154.024 288.064L154.312 287.57L155.439 285.653C159.781 278.324 165.362 272.404 171.969 268.496Z" fill="#E8E1E1"/>
<path fill-rule="evenodd" clip-rule="evenodd" d="M259.422 184.833C267.447 184.265 275.619 185.622 283.262 188.049C295.451 191.919 306.645 198.748 315.842 207.638C325.32 216.801 332.331 228.097 336.593 240.574C341.733 255.621 342.503 271.687 343.95 287.395C344.68 295.33 345.885 303.145 347.137 311.004L347.335 312.246C348.558 319.903 349.246 327.647 347.557 335.292C344.747 347.998 336.327 358.784 326.331 366.754C305.797 383.126 273.831 393.107 249.923 378.042C246.225 375.711 249.73 369.75 253.34 372.179C255.882 373.889 258.574 375.388 261.461 376.423C273.523 380.746 286.771 379.206 298.693 375.185C310.441 371.222 321.714 364.525 330.383 355.589C339.489 346.204 344.535 334.61 343.806 321.418C343.371 313.57 341.588 305.866 340.599 298.081C339.722 291.186 339.196 284.253 338.591 277.33L338.369 274.84C337.084 260.735 335.24 246.244 328.841 233.44C323.459 222.669 315.578 213.087 306.101 205.686C296.18 197.938 284.33 192.519 271.897 190.498C257.275 188.122 243.279 192.443 231.083 200.489C220.265 207.624 210.966 217.158 203.835 227.977C200.377 233.223 197.431 238.825 194.887 244.57C192.49 249.983 190.837 255.656 188.909 261.235C190.495 261.188 192.108 261.249 193.746 261.431C202.145 262.364 209.971 266.73 214.953 273.614C221.041 282.026 219.396 292.352 221.774 301.919C221.958 302.662 221.645 303.389 221.011 303.8C217.405 306.137 212.58 306.215 209.09 303.583C206.061 301.299 204.639 297.169 205.865 293.561C206.025 293.091 206.708 293.174 206.727 293.678C206.958 299.819 212.638 304.547 218.206 301.625C215.817 293.376 217.074 284.162 212.19 276.711C203.544 263.523 185.652 262.978 173.085 270.412C166.471 274.324 161.236 280.207 157.338 286.786L156.215 288.696C154.721 291.248 153.139 294.135 152.829 296.946C152.65 298.568 153.247 300.092 155.102 299.275C156.603 298.614 157.765 297.072 158.656 295.746C160.177 293.486 163.671 295.439 162.415 297.846L162.372 297.925C160.544 301.172 159.419 304.751 159.213 308.48L159.16 309.512C159.126 310.265 159.101 311.335 159.26 311.374C159.45 311.421 160.772 309.889 160.993 309.677C162.053 308.655 163.146 307.82 164.623 307.548C166.564 307.191 168.523 309.6 166.837 311.179L166.767 311.243C165.263 312.554 165.33 315.169 166.991 316.395C169.336 318.126 172.222 315.301 172.563 312.975L172.574 312.89C172.875 310.377 176.355 310.288 176.544 312.89C176.954 318.536 170.252 323.268 165.152 320.42C163.136 319.294 161.854 317.233 161.452 315.023C160.808 315.364 160.114 315.601 159.38 315.666C156.99 315.879 155.291 314.193 154.904 311.931C154.454 309.296 154.721 306.474 155.413 303.737C154.115 304.051 152.75 303.931 151.378 303.137C147.225 300.734 148.418 295.389 149.986 291.78C156.678 276.377 170.544 262.401 187.723 261.291C187.817 258.574 188.184 256.005 188.785 253.283C194.661 226.666 213.696 202.019 238.476 190.5C245.098 187.421 252.121 185.35 259.422 184.833ZM194.436 291.159L194.671 291.105C197.349 290.527 204.394 289.847 203.545 294.366C203.505 294.578 203.197 294.552 203.142 294.366C202.31 291.525 196.66 293.797 195.011 294.481C192.736 295.423 190.493 296.813 188.636 298.429C184.57 301.968 181.845 306.956 181.431 312.372C181.02 317.745 182.574 323.549 186.439 327.436C188.333 329.341 190.751 330.634 193.467 330.729C195.908 330.814 198.604 328.909 200.856 330.025C201.3 330.245 201.652 330.848 201.611 331.346C201.536 332.287 201.116 333.019 200.491 333.588C204.261 340.478 207.346 347.771 212.155 354.037C214.569 357.181 217.303 360.092 220.4 362.57C221.872 363.748 223.472 364.782 225.122 365.691C227.056 366.757 228.729 367.424 230.109 369.23C231.286 370.77 230.108 373.748 228.169 374.014C223.6 374.638 219.161 370.934 215.807 368.159C212.456 365.386 209.56 361.966 207.167 358.337C202.572 351.369 199.428 343.149 198.171 334.832C196.711 335.296 195.068 335.438 193.832 335.441C190.544 335.448 187.404 334.262 184.819 332.257C175.358 324.917 174.306 309.849 180.983 300.346C184.178 295.799 189.033 292.439 194.436 291.159ZM194.495 308.636C196.689 308.443 198.881 308.79 200.943 309.54L201.793 309.849C203.589 310.508 205.5 311.282 206.797 312.632C208.778 314.696 206.806 318.271 203.983 317.48C200.863 316.606 198.326 313.97 195.207 312.864C192.418 311.876 189.26 312.016 186.785 313.718C186.458 313.943 186.028 313.499 186.242 313.173C188.135 310.282 191.124 308.932 194.495 308.636Z" fill="black"/>
<path fill-rule="evenodd" clip-rule="evenodd" d="M303.043 341.778C303.729 340.586 305.306 339.481 306.75 339.65C313.217 340.409 313.206 348.257 310.709 352.838C308.495 356.901 303.912 359.285 299.326 358.937C294.507 358.571 290.402 355.736 288.595 351.225C287.4 348.24 286.848 342.731 290.027 340.726C290.086 340.689 290.183 340.698 290.23 340.752C291.754 342.527 291.814 345.191 293.148 347.166C294.389 349.004 296.317 350.521 298.575 350.755C300.262 350.93 301.968 350.322 302.628 348.806C302.985 347.986 302.944 347.541 302.81 346.977L302.688 346.487C302.266 344.769 302.076 343.462 303.043 341.778ZM304.772 307.362C308.145 309.414 313.285 314.198 309.656 319.286C305.385 323.771 299.235 318.628 296.205 316.302C293.395 314.5 290.238 319.136 292.845 321.241C314.743 337.467 323.629 307.898 306.478 304.949C304.59 304.624 303.888 306.727 304.772 307.362ZM269.153 293.291C271.223 290.182 275.949 290.64 277.089 294.329C277.707 296.327 276.854 298.123 276.898 300.119C276.935 301.805 276.825 303.683 276.308 305.316C275.131 309.039 271.785 311.669 267.827 311.56C263.882 311.451 260.408 308.952 258.755 305.432C257.097 301.899 257.448 298.243 258.659 294.65C258.717 294.478 258.943 294.394 259.079 294.539C260.51 296.061 261.557 297.668 262.641 299.372L263.752 301.119C264.601 302.434 265.835 304.114 267.42 304.009L267.657 303.985C268.098 303.947 268.03 304.035 268.37 303.434C268.527 303.156 268.499 302.639 268.575 302.311L268.601 302.2L268.587 302.14C268.553 301.981 268.52 301.682 268.493 301.162L268.487 301.048C268.372 298.617 267.686 295.493 269.153 293.291ZM321.634 295.36C321.263 291.384 326.848 290.501 328.705 293.443C329.673 294.978 329.955 296.905 330.169 298.731L330.27 299.598C330.489 301.473 330.576 303.424 329.763 305.173C328.482 307.928 325.696 309.385 322.691 309.154C319.821 308.933 317.202 307.268 315.822 304.74C314.592 302.484 313.368 298.08 314.863 295.727C314.953 295.584 315.133 295.566 315.257 295.676C316.669 296.931 316.9 299.22 317.739 300.855C318.605 302.541 319.919 304.184 321.91 304.44C323.815 304.685 324.542 303.644 324.056 301.827C323.43 299.481 321.87 297.885 321.634 295.36ZM270.661 269.652L271.575 269.302C274.704 268.119 279.001 266.751 281.545 269.298C283.115 270.868 283.414 273.182 282.293 275.098C280.936 277.42 278.501 277.477 276.15 277.819C273.475 278.208 270.756 278.948 268.266 280.002C265.461 281.19 262.858 282.67 260.308 284.324C257.884 285.895 255.469 288.464 252.568 288.948C252.45 288.967 252.315 288.916 252.284 288.786C251.626 285.948 253.457 283.154 255.09 280.939C257.067 278.258 259.463 276.057 262.14 274.084C264.724 272.179 267.677 270.802 270.661 269.652ZM327.509 279.745L327.788 279.696C329.686 279.38 331.406 279.453 332.836 280.957C333.927 282.104 334.348 283.592 333.828 285.109C333.348 286.509 332.274 287.931 330.715 288.224C325.454 289.215 319.626 289.051 314.338 288.301C311.919 287.958 309.478 287.538 307.121 286.875L306.037 286.56C304.07 285.998 301.818 285.41 300.389 283.962C299.875 283.442 300.171 282.697 300.786 282.456C303.279 281.479 306.697 281.999 309.356 281.923C312.448 281.834 315.546 281.602 318.624 281.282C321.632 280.969 324.543 280.289 327.509 279.745Z" fill="black"/>
<path fill-rule="evenodd" clip-rule="evenodd" d="M356.641 273.325C356.273 273.263 355.905 273.206 355.537 273.152C355.25 272.989 354.913 272.863 354.52 272.787C353.625 272.56 352.735 272.406 351.847 272.324C339.103 269.453 309.619 273.529 308.402 284.414C304.343 285.77 300.832 284.556 296.128 284.676C292.547 269.698 230.645 271.812 227.668 280.842C227.657 280.839 227.645 280.837 227.634 280.833C224.773 279.947 220.556 280.161 217.282 280.02C210.291 279.874 203.292 280.497 196.452 281.973C183.643 284.01 166.163 286.395 175.071 302.403C175.072 302.406 175.074 302.409 175.076 302.412L175.077 302.41C176.613 303.985 179.218 302.717 179.315 300.585C176.32 293.001 183.085 292.091 188.289 289.911C201.24 285.255 214.425 284.609 227.819 286.05C228.827 287.237 230.356 288.272 231.972 288.814C240.927 290.302 236.208 296.951 241.869 297.918C240.829 321.094 268.943 333.744 285.233 318.509C291.737 312.145 293.288 302.717 294.796 294.219C295.593 294.04 296.1 293.604 296.396 293.026C298.314 291.11 299.518 289.34 303.31 288.814C307.102 288.288 310.021 289.344 310.416 289.667C310.516 289.868 310.622 290.069 310.747 290.27C310.92 290.57 311.156 290.809 311.424 290.998C307.679 314.076 325.581 328.672 343.653 316.702C351.506 309.309 353.165 297.99 353.493 287.888C354.557 287.245 355.231 285.999 354.863 284.433C354.355 282.273 355.546 280.404 357.443 279.465C359.907 278.246 359.471 273.794 356.641 273.325ZM278.987 284.274C276.743 283.78 275.785 287.241 278.036 287.736C279.629 288.087 280.98 288.891 281.892 290.254L281.988 290.402C283.213 292.352 286.309 290.552 285.076 288.589C283.689 286.381 281.533 284.834 278.987 284.274ZM344.687 282.127C343.896 281.57 342.699 281.984 342.24 282.772C341.735 283.639 342.066 284.605 342.807 285.172L342.882 285.228C343.562 285.707 344.223 286.566 344.306 287.446L344.314 287.556C344.403 289.86 347.979 289.871 347.89 287.556C347.803 285.292 346.493 283.4 344.687 282.127Z" fill="black"/>
<path d="M327.171 115.684C330.369 120.285 332.624 126.047 331.656 131.243C330.716 136.452 326.553 141.094 321.658 144.914C316.762 148.735 311.129 151.665 306.2 150.811C301.282 149.928 297.064 145.194 292.889 140.898C288.727 136.575 284.581 132.68 283.086 127.753C281.619 122.837 282.815 116.862 285.772 111.749C288.712 106.597 293.412 102.306 298.686 101.169C303.988 100.042 309.863 102.068 314.846 104.822C319.856 107.588 323.974 111.083 327.171 115.684Z" fill="#9FD8E5"/>
<path d="M335.115 31.9444C340.098 39.1361 343.606 48.1459 342.086 56.2776C340.609 64.4273 334.103 71.6988 326.455 77.6844C318.807 83.67 310.01 88.2652 302.318 86.937C294.645 85.5655 288.069 78.1664 281.562 71.4545C275.072 64.6994 268.609 58.6136 266.285 50.9078C264.005 43.2201 265.883 33.8694 270.507 25.8647C275.105 17.7988 282.45 11.079 290.683 9.28895C298.96 7.51702 308.126 10.675 315.897 14.9749C323.712 19.2928 330.133 24.7527 335.115 31.9444Z" fill="#9093D1"/>
<path d="M381.076 123.141C382.675 125.44 383.802 128.321 383.318 130.919C382.848 133.524 380.766 135.845 378.319 137.756C375.871 139.665 373.054 141.131 370.59 140.703C368.131 140.263 366.022 137.895 363.935 135.748C361.853 133.586 359.78 131.638 359.033 129.175C358.3 126.717 358.897 123.729 360.376 121.173C361.846 118.597 364.196 116.452 366.833 115.883C369.484 115.32 372.421 116.332 374.912 117.71C377.418 119.092 379.476 120.84 381.076 123.141Z" fill="#9093D1"/>
<path d="M412.34 16.4915C414.918 20.1999 416.736 24.8441 415.955 29.0328C415.197 33.2308 411.842 36.9734 407.895 40.0526C403.95 43.1318 399.409 45.494 395.437 44.8049C391.472 44.0937 388.073 40.2774 384.707 36.8153C381.352 33.331 378.011 30.1915 376.806 26.2199C375.623 22.2576 376.588 17.441 378.97 13.3197C381.341 9.16678 385.13 5.70902 389.38 4.79181C393.653 3.88392 398.389 5.51658 402.405 7.73673C406.444 9.96621 409.763 12.7831 412.34 16.4915Z" fill="#9093D1"/>
<path d="M396.231 68.1642C399.429 72.765 401.684 78.5268 400.716 83.7234C399.776 88.9317 395.613 93.5748 390.717 97.395C385.822 101.215 380.189 104.146 375.26 103.291C370.342 102.409 366.123 97.674 361.949 93.3788C357.786 89.056 353.64 85.1609 352.146 80.2336C350.679 75.3178 351.875 69.3423 354.831 64.2291C357.771 59.0769 362.473 54.787 367.746 53.6491C373.048 52.5228 378.923 54.5483 383.906 57.3026C388.916 60.0686 393.033 63.5636 396.231 68.1642Z" fill="#F7859C"/>
<path d="M478.765 116.821C483.748 124.012 487.256 133.023 485.736 141.155C484.259 149.303 477.753 156.575 470.105 162.561C462.457 168.546 453.66 173.141 445.968 171.813C438.295 170.442 431.719 163.043 425.212 156.331C418.723 149.576 412.259 143.49 409.935 135.784C407.656 128.097 409.533 118.745 414.157 110.741C418.755 102.675 426.1 95.9554 434.333 94.1655C442.61 92.3936 451.777 95.5515 459.548 99.8514C467.363 104.169 473.783 109.629 478.765 116.821Z" fill="#FFDBB4"/>
</svg>
