<svg width="1440" height="140" viewBox="0 0 1440 140" fill="none" xmlns="http://www.w3.org/2000/svg">
<path d="M-512 227L-460.211 209.078C-408.423 191.825 -304.845 154.975 -201.268 110.923C-97.6908 66.2 5.88654 12.6 109.464 12.6C213.041 12.6 316.618 66.2 420.196 84.1225C523.773 101.375 627.35 84.625 730.928 66.2C834.505 47.775 938.082 31.025 1041.66 57.3225C1145.24 84.625 1248.81 154.975 1352.39 128.677C1455.97 101.375 1559.55 -22.575 1663.12 -49.8775C1766.7 -76.175 1870.28 -5.82501 1922.07 30.5225L1973.86 66.2V-309H1922.07C1870.28 -309 1766.7 -309 1663.12 -309C1559.55 -309 1455.97 -309 1352.39 -309C1248.81 -309 1145.24 -309 1041.66 -309C938.082 -309 834.505 -309 730.928 -309C627.35 -309 523.773 -309 420.196 -309C316.618 -309 213.041 -309 109.464 -309C5.88654 -309 -97.6908 -309 -201.268 -309C-304.845 -309 -408.423 -309 -460.211 -309H-512V227Z" fill="#FBF1E6"/>
</svg>
