<svg width="1440" height="113" viewBox="0 0 1440 113" fill="none" xmlns="http://www.w3.org/2000/svg">
<g clip-path="url(#clip0_1_690)">
<path d="M-1155.18 -83L-1081.12 -65.0775C-1007.05 -47.825 -858.918 -10.975 -710.786 33.0775C-562.653 77.8 -414.52 131.4 -266.388 131.4C-118.255 131.4 29.8776 77.8 178.01 59.8775C326.143 42.625 474.275 59.375 622.408 77.8C770.541 96.225 918.673 112.975 1066.81 86.6775C1214.94 59.375 1363.07 -10.975 1511.2 15.3225C1659.34 42.625 1807.47 166.575 1955.6 193.878C2103.73 220.175 2251.87 149.825 2325.93 113.477L2400 77.8V453H2325.93C2251.87 453 2103.73 453 1955.6 453C1807.47 453 1659.34 453 1511.2 453C1363.07 453 1214.94 453 1066.81 453C918.673 453 770.541 453 622.408 453C474.275 453 326.143 453 178.01 453C29.8776 453 -118.255 453 -266.388 453C-414.52 453 -562.653 453 -710.786 453C-858.918 453 -1007.05 453 -1081.12 453H-1155.18V-83Z" fill="#FDDBE2"/>
<path d="M1504.72 112.578H-549V328.459H1504.72V112.578Z" fill="#FDDBE2"/>
</g>
<defs>
<clipPath id="clip0_1_690">
<rect width="1440" height="113" fill="white"/>
</clipPath>
</defs>
</svg>
