<svg width="186" height="424" viewBox="0 0 186 424" fill="none" xmlns="http://www.w3.org/2000/svg">
<path fill-rule="evenodd" clip-rule="evenodd" d="M151.524 143.78L151.73 146.235L151.883 145.948C151.905 150.901 152.638 155.909 153.447 160.852C155.56 159.112 157.298 157.577 156.796 154.607C155.525 150.374 153.895 146.245 152.577 142.035L152.356 143.139L151.487 143.314L151.524 143.78ZM0.586685 404.74C0.97583 403.019 1.40057 401.197 1.79845 399.471C1.83768 399.325 2.20198 399.293 2.31938 399.253C4.42322 394.095 6.26419 392.92 10.3389 392.218C16.9095 391.028 23.3935 388.448 29.6005 384.625C29.4556 384.056 29.0595 383.073 28.6994 382.024C28.7464 382.04 28.7937 382.054 28.8426 382.064C28.9258 382.08 29.0042 382.084 29.0788 382.078C29.4998 383.068 29.958 383.937 30.2004 384.258C30.9756 383.757 31.8383 383.207 32.598 382.674L32.5948 382.665C33.271 382.196 34.1067 381.616 34.7687 381.255C34.8928 380.569 35.8969 380.356 36.4215 379.903C37.4398 379.175 38.0047 378.799 38.9388 379.729C40.9535 377.109 42.5762 374.339 44.1715 370.758C45.1698 368.665 45.6602 366.347 47.0024 364.478C46.9767 364.463 46.1234 364.197 46.1025 364.173C61.356 330.341 63.7999 292.696 67.0535 256.532C67.7712 248.445 68.5221 240.284 69.9211 232.434C70.1131 231.245 70.2854 230.074 70.9999 229.126C62.4279 222.055 62.3444 208.348 66.4964 198.182C56.95 172.399 75.6626 145.015 74.2817 118.702C73.5076 100.853 76.7167 80.1716 96.8548 75.8891C99.3522 74.45 102.346 74.2351 104.729 74.1963C106.874 73.1112 107.213 70.7155 107.976 68.7461L108.723 68.7507C108.942 67.8594 109.158 66.8821 109.347 65.9841C109.63 65.4146 109.462 64.6725 110.354 64.8303C112.377 61.8992 128.56 60.4256 128.744 65.1452C129.328 65.4901 129.443 66.1633 129.579 66.9807C130.477 72.7773 136.659 77.3999 142.23 76.4677L142.321 76.3861C166.037 75.5061 175.374 92.3983 180.008 115.42C183.629 133.307 185.931 152.692 183.095 170.609C180.325 178.729 171.933 182.636 165.442 187.638C166.19 189.526 166.26 191.609 166.283 193.652C166.368 196.011 166.539 198.388 166.748 200.715C167.175 203.664 167.866 208.74 163.856 209.084C162.303 244.33 159.059 279.482 164.016 314.83C168.132 334.379 166.556 358.032 161.468 377.159C161.174 378.104 160.42 378.954 159.457 378.652C158.968 378.969 158.586 379.167 158.182 378.868C157.943 379.31 157.682 379.735 157.4 380.146C157.293 385.401 156.698 390.557 156.969 395.846C157.373 395.799 158.261 395.353 158.607 395.645L158.656 396.048L158.985 396.16C159.673 398.104 160.104 400.144 160.424 401.79C161.816 404.611 163.595 409.603 162.603 412.746C162.651 412.801 162.918 413.112 162.96 413.16C163.197 413.296 163.241 413.477 163.299 413.686C163.974 413.939 164.044 414.712 164.113 415.503C164.452 417.418 163.949 419.159 163.776 421.033L163.766 421.021C163.766 421.021 163.199 421.679 163.198 421.68C156.068 422.114 149.047 422.226 141.949 422.481C141.414 421.454 141.252 420.066 140.85 418.937C132.435 425.101 117.855 422.743 107.285 421.229C102.992 420.61 98.937 420.024 95.3415 419.829C95.1076 419.797 95.0909 419.696 95.0848 419.603C95.0495 418.192 94.7844 416.746 94.9166 415.377C94.1742 414.654 94.5127 413.339 95.0229 412.183C96.899 408.115 101.998 407.67 106.13 406.975C113.903 405.465 120.153 402.624 125.209 398.282C124.869 397.973 124.56 397.671 124.279 397.375C124.389 397.302 124.499 397.228 124.608 397.154C124.874 397.038 125.129 396.918 125.362 396.767C125.481 396.834 125.63 396.847 125.777 396.765C126.285 396.479 126.699 396.059 127.182 395.738C127.278 395.876 127.374 396.016 127.471 396.163C127.934 395.674 128.458 395.121 128.915 394.609C128.932 394.467 128.895 394.114 129.067 394.076C130.369 394.208 131.877 394.647 133.238 395.135C134.778 390.071 135.669 384.59 135.566 379.415C134.053 379.415 132.727 379.401 131.598 378.681C131.29 378.764 130.86 378.943 130.78 378.457C130.322 376.475 130.203 374.377 130.088 372.348C127.745 333.963 124.176 303.118 112.336 270.602C111.2 275.117 109.291 279.812 107.554 284.307C99.6509 303.09 93.9576 323.347 89.0773 343.062C87.1571 350.442 85.0698 358.551 83.0083 365.854C82.2088 369.365 80.5836 370.65 77.1779 370.622C74.5536 370.745 71.9202 370.707 69.2852 370.522C65.693 373.801 64.2199 378.227 63.1705 382.212C64.0448 382.863 65.4326 382.618 66.4549 382.832C67.3363 384.255 67.0313 386.244 67.0107 387.999C66.8723 390.279 66.9902 392.725 66.3273 394.877C66.2088 397.231 66.1942 399.811 66.0173 402.548C67.9648 403.679 67.6081 406.177 66.9613 408.567C66.6722 409.175 56.2054 409.054 53.6089 409.029C50.5579 408.851 46.2071 409.632 45.2067 406.283C37.9429 410.323 26.8922 408.958 18.4298 407.769C12.2881 407.019 6.72411 406.322 0.692902 405.051C0.630569 405.024 0.542953 404.829 0.586685 404.74Z" fill="#D08B5B"/>
<path d="M162.176 205.318C160.332 205.121 141.565 206.581 139.69 206.144L139.608 206.125L138.878 205.95L138.454 206.57C136.362 209.632 135.307 211.643 134.78 213.685L134.743 213.831L134.728 213.892C134.284 215.731 134.25 217.435 134.49 220.89L134.515 221.242L134.543 221.624L134.611 222.516L134.609 222.522C134.492 222.897 134.13 223.007 133.68 222.754L133.649 222.736L133.635 222.727L133.586 222.694C132.621 222.015 131.973 221.12 131.541 219.944L131.511 219.862L131.482 219.778C131.136 218.768 130.956 217.682 130.803 215.942L130.775 215.623L130.69 214.556C130.569 213.061 130.478 212.267 130.308 211.419L130.286 211.308L129.8 209.039L128.368 210.724C127.649 211.569 127.21 212.721 126.937 214.231L126.905 214.412C126.757 215.279 126.672 216.147 126.583 217.541L126.558 217.944L126.481 219.262L126.45 219.743C126.332 221.528 126.214 222.458 125.976 223.334L125.951 223.424L125.933 223.487C125.624 224.55 125.205 225.092 124.595 225.263L124.559 225.273L124.544 225.276L124.52 225.275C123.825 225.229 123.65 224.892 123.699 223.767L123.705 223.658L123.708 223.603L123.716 223.478L123.733 223.249L123.722 223.11C123.675 222.579 123.58 222.136 123.374 221.386L123.352 221.304L123.15 220.58L123.104 220.408C122.604 218.459 122.499 216.306 122.777 214.113L122.796 213.966L123.516 208.596L120.776 213.269C118.961 216.364 117.887 219.894 117.601 223.576L117.589 223.741L117.579 223.878C117.44 224.125 117.172 224.182 116.947 224.014L116.924 223.996L116.903 223.977C116.316 223.442 115.954 222.477 115.617 220.772L115.599 220.683L115.467 219.991L115.407 219.678L115.37 219.522C114.728 216.733 114.593 214.516 115.077 212.509L115.101 212.412L115.977 208.936L113.315 211.335C112.89 211.718 112.457 212.088 112.019 212.443C111.183 213.115 110.517 213.193 110.13 212.898C109.716 212.582 109.529 211.811 109.796 210.787L109.812 210.729L110.289 208.99L108.529 209.373C102.609 210.663 97.1748 211.294 92.1158 211.151C86.2943 210.987 81.1163 209.792 76.6246 207.426L76.48 207.349L75.1943 206.662L74.8995 208.091C74.4704 210.17 74.5776 212.306 75.1368 214.643L75.1767 214.807C75.5658 216.389 76.0758 217.829 77.0196 220.163L77.1188 220.408L77.5662 221.503L77.8996 222.326L78.0559 222.718C78.5316 223.932 78.6839 224.831 78.5797 225.371C78.5244 225.658 78.4333 225.752 78.2148 225.801C77.4094 225.98 75.8098 225.32 74.3478 224.071L74.2852 224.017L72.785 222.699L72.2917 225.014L72.4087 225.317C72.6877 226.039 72.7851 226.729 72.6699 227.277L72.6577 227.332L72.5444 227.803L72.8185 228.204C72.84 228.235 72.8384 228.273 72.7831 228.358C72.713 228.466 72.6041 228.533 72.5231 228.54L72.5049 228.54L71.565 228.509L71.3968 229.435L71.3041 229.952C70.8344 232.597 69.7397 243.049 68.0199 261.309C67.455 268.47 60.756 316.443 59.4967 322.566C56.6534 337.321 53.256 350.125 48.8426 361.989L48.7086 362.348L48.3475 363.313L49.2889 363.729C57.924 367.545 67.8469 369.279 77.8738 368.861L78.155 368.848L78.2644 368.847C80.4788 368.813 81.5884 367.875 82.147 365.735L82.1807 365.602L82.1963 365.538L82.2157 365.455L82.583 364.206C83.7514 360.217 97.032 311.091 99.1941 304.272L99.3356 303.828L99.5967 303.011L99.8256 302.302C102.845 292.991 106.02 284.784 109.648 277.155L109.773 276.893L109.798 276.848C110.205 276.103 110.531 275.326 110.897 274.276L110.937 274.163L111.014 273.937L111.072 273.765L111.422 272.71L111.543 272.349L111.593 272.185C112.022 270.747 112.256 269.369 112.272 268.022L112.273 267.883L112.273 267.864L112.34 268.016C113.764 271.241 115.378 275.5 117.038 280.562L117.104 280.765L117.316 281.418C121.84 295.452 125.076 310.482 127.427 327.428L127.554 328.353C129.309 341.217 130.466 354.002 131.718 372.6L131.834 374.343L131.971 376.414L132.813 376.563C133.777 376.733 134.61 376.961 135.349 377.272L135.449 377.315L135.621 377.39L135.809 377.403L138.271 377.579C138.474 377.593 138.661 377.606 138.84 377.617L139.365 377.649C146.656 378.125 152.727 377.772 158.35 376.294L158.522 376.248L158.738 376.196L160.781 375.684L166.637 342.243L163.007 310.897L162.876 309.956C160.724 294.179 163.24 223.022 163.413 218.32L163.449 217.319L163.482 216.353L163.528 215.644L163.688 212.873L163.714 212.463C163.868 210.091 164.052 208.482 164.389 206.894L164.652 205.678L163.516 205.496C163.075 205.425 162.628 205.366 162.176 205.318Z" fill="#E86BBB"/>
<path fill-rule="evenodd" clip-rule="evenodd" d="M96.4509 414.242C95.6014 415.223 95.3108 416.775 95.579 418.897C95.6583 418.928 116.079 422.525 129.873 422.388C135.498 422.331 139.427 418.46 141.352 418.46C141.934 418.46 141.634 422.166 143.823 421.806L163.895 420.917L164.312 414.242L162.278 412.061C152.535 414.002 145.173 414.729 140.19 414.242C131.343 413.378 98.34 412.061 96.4509 414.242ZM3.01489 399.406C2.03488 400.221 1.43066 401.702 1.20221 403.85C12.2733 406.395 19.6694 407.706 23.3906 407.783L24.4701 407.803L25.713 407.822C27.3165 407.842 37.8899 409.297 44.7196 406.097C45.9877 405.503 48.2597 408.225 50.2678 408.233C54.8755 408.251 60.4855 408.121 67.0978 407.842C67.1241 407.381 67.5049 405.105 67.5412 404.395C66.6968 402.68 66.2583 401.357 66.2259 400.424C66.1604 398.542 53.9946 400.592 40.5055 400.424C23.605 400.214 4.49648 398.175 3.01489 399.406Z" fill="white"/>
<path fill-rule="evenodd" clip-rule="evenodd" d="M128.843 63.9404C128.374 63.8457 127.97 63.9853 127.685 64.2429C127.624 64.8785 127.631 65.5126 127.683 66.1467C127.736 66.1918 127.794 66.2356 127.858 66.2762L127.809 66.2451C127.765 66.2166 127.735 66.1956 127.715 66.1802C128.334 70.3135 131.2 73.8295 134.916 75.6986C135.146 76.0782 135.665 76.0525 136.039 76.2237L136.564 76.3891C138.009 76.8427 139.471 77.2715 141 77.3C137.113 88.2309 121.915 94.1696 111.163 94.9765C101.878 95.4666 96.7249 87.7563 99.1746 79.1081C104.554 78.4112 109.842 72.6815 107.892 67.145L107.831 66.9773C107.818 66.9207 107.742 66.9409 107.736 66.9904C107.677 67.5547 107.341 68.176 107.192 68.7272L107.123 68.923C106.605 70.4158 106.146 72.1958 104.685 72.9903L104.435 72.996C101.806 73.0646 99.0611 73.4123 96.7464 74.7155C94.1653 75.2233 91.6982 76.2471 89.4014 77.5156C71.263 87.3755 74.1661 108.347 73.601 125.813C71.8411 149.745 57.2783 173.661 65.8674 197.688C61.9456 207.694 61.6423 221.142 70.202 228.775C70.108 228.923 70.0287 229.086 69.9623 229.251C69.5549 230.27 69.4287 231.436 69.2365 232.517L69.214 232.641C68.751 235.154 68.418 237.694 68.0925 240.228C67.4504 245.227 66.984 250.248 66.5397 255.269L66.4763 255.986C65.3638 268.606 64.3921 281.253 62.9328 293.841L62.6604 295.706C60.6851 309.182 58.5339 322.69 55.2936 335.895C55.198 336.249 55.103 336.603 55.0055 336.957C53.8377 341.193 52.4632 345.357 51.1715 349.554C50.7625 350.883 50.3094 352.192 49.8317 353.49L49.2381 354.965C49.139 355.211 49.0397 355.457 48.94 355.702C47.8867 358.296 46.7649 360.861 45.5838 363.399C45.3708 363.856 45.681 364.278 46.0466 364.396C44.9683 366.108 44.5617 368.148 43.6608 369.966C42.3723 372.865 40.8457 375.685 38.941 378.228C37.8873 377.434 36.7103 378.458 35.8342 379.044C35.2719 379.394 34.5424 379.657 34.3215 380.276C33.8972 380.52 33.4845 380.789 33.0936 381.058L33.0546 380.931C32.5798 379.41 31.6506 377.368 30.141 376.689C28.3759 375.946 26.9678 377.427 27.4962 379.199C27.8201 380.783 28.3256 382.299 28.865 383.826C23.4352 387.109 17.4974 389.598 11.2511 390.847L11.0381 390.889C9.53117 391.189 7.99959 391.397 6.61766 392.114C4.32855 393.372 2.85028 395.763 1.92551 398.155C1.60437 398.233 1.30939 398.514 1.23819 398.822L0.628784 401.459C0.425888 402.339 0.223907 403.218 0.024826 404.098C-0.0841522 404.575 0.170135 405.176 0.696167 405.282C4.32173 406.008 7.96471 406.643 11.6237 407.181C22.0105 408.143 35.3746 411.528 45.0194 406.776C46.5583 409.943 50.8433 409.037 53.7513 409.276C55.5175 409.145 67.9153 409.82 67.7972 408.32L67.8658 408.062C68.4139 405.967 68.908 403.151 66.9108 401.708C67.036 399.343 67.1292 396.976 67.168 394.61C67.8637 392.364 67.743 389.88 67.8845 387.535C67.8662 385.788 68.2731 383.77 67.3191 382.207C67.2354 381.172 64.9358 381.724 64.1745 381.345L64.2418 381.099C65.2921 377.287 66.7519 373.577 69.7008 370.786C72.2503 370.956 74.8069 370.986 77.3586 370.866C81.2444 370.882 83.0168 369.196 83.863 365.536C84.4689 363.389 85.0603 361.237 85.643 359.083C90.1891 342.136 94.3172 325.039 99.3412 308.223C101.262 302.587 103.386 297.02 105.529 291.467C106.981 287.704 108.435 283.941 109.888 280.178C110.634 278.245 111.37 276.3 112.019 274.332C112.218 273.727 112.399 273.119 112.57 272.508C123.839 303.859 127.414 337.167 129.408 370.242C129.59 372.884 129.622 375.554 130.219 378.139C130.402 378.935 131.074 379.154 131.666 378.98C132.758 379.559 133.566 379.627 134.971 379.649L134.96 380.102C134.881 383.353 134.682 386.594 133.945 389.768C133.653 391.093 133.13 392.382 132.846 393.701C131.701 393.311 130.532 393.017 129.328 392.873C128.721 392.801 128.374 393.31 128.349 393.832C128.125 394.079 127.9 394.323 127.67 394.566L127.554 394.417C126.474 393.019 125.089 391.105 123.211 390.948C122.356 390.895 121.576 391.378 121.39 392.248C121.212 394.247 122.866 396.436 124.261 397.762C119.09 402.044 112.681 404.518 106.14 405.779L105.884 405.822C101.687 406.509 96.511 407.051 94.51 411.396L94.4679 411.49C93.9986 412.549 93.5549 414.154 94.3197 415.124C94.2293 416.45 94.474 417.814 94.5057 419.152C94.5391 419.696 94.9053 420.012 95.424 420.072C108.777 420.789 129.131 427.046 140.568 419.602C140.804 420.426 141.046 421.25 141.272 422.077C141.37 422.442 141.738 422.74 142.123 422.726C149.203 422.471 156.306 422.356 163.377 421.924C163.582 421.928 163.754 421.836 163.898 421.67C164.063 421.873 164.487 421.818 164.544 421.529C164.644 421.02 164.644 420.505 164.69 419.99C164.743 419.393 164.902 418.843 164.995 418.26C165.168 417.184 165.09 416.029 164.983 414.949L164.956 414.676C164.882 413.962 164.749 413.151 164.104 412.746L164.061 412.72C164.059 412.719 164.057 412.718 164.054 412.717C163.983 412.489 163.814 412.293 163.6 412.137L163.587 412.122C163.924 411.318 163.794 410.299 163.696 409.461C163.425 406.543 162.609 403.656 161.264 401.065C160.881 399.095 160.416 397.056 159.725 395.181C159.744 395.096 159.636 395.023 159.553 395.061C159.525 395.046 159.497 395.034 159.469 395.025C159.465 394.996 159.46 394.968 159.45 394.94C159.331 394.588 158.962 394.395 158.617 394.34C158.325 394.294 158.071 394.372 157.809 394.438C157.619 389.346 158.22 384.262 158.282 379.172C158.765 379.406 159.308 379.198 159.754 378.929C161.047 379.128 161.964 378.024 162.319 376.863L162.527 375.922C164.391 367.45 166.071 358.904 166.974 350.269C168.223 338.215 166.715 326.15 164.882 314.237C159.909 282.87 163.512 251.162 163.866 219.622C164.163 216.179 164.285 212.697 164.663 209.256C166.065 209.089 167.126 207.775 167.599 206.515C168.342 204.52 167.806 202.217 167.618 200.166C167.41 197.893 167.258 195.615 167.159 193.336L167.147 192.67C167.114 190.893 167.036 189.104 166.447 187.412C172.733 182.569 181.068 178.764 183.728 170.667C184.938 169.576 184.694 164.52 184.892 162.664C185.699 146.619 184.331 130.466 180.865 114.781C176.527 93.4055 167.639 74.2511 142.729 75.1662C142.748 75.1518 142.768 75.1357 142.787 75.1197C142.524 75.0324 142.252 75.1182 142.059 75.2928C137.818 75.8379 133.764 73.3298 131.645 69.7249C131.124 68.826 130.738 67.8878 130.532 66.8682L130.515 66.7867C130.3 65.6654 130.239 64.2214 128.843 63.9404ZM161.024 413.018C161.626 413.352 162.285 413.392 162.839 413.836C163.228 415.968 163.196 418.181 162.729 420.297C156.088 420.368 149.438 420.704 142.8 420.932C142.533 419.904 142.28 418.87 142.001 417.844L141.995 417.823L141.98 417.783C141.291 417.806 140.602 417.826 139.913 417.843C129.718 425.157 108.598 418.942 96.2915 418.332L96.1651 416.282C96.2897 416.369 96.413 416.417 96.5315 416.434C96.4171 416.135 96.6204 415.745 97.0261 415.859C97.681 416.042 98.3391 416.211 98.9996 416.37C99.0497 416.35 99.1066 416.341 99.1702 416.346C104.947 416.84 110.748 416.794 116.54 416.811C122.313 416.828 128.08 417.072 133.853 417.056C136.208 417.049 138.562 417.014 140.916 416.944C147.696 415.683 154.427 414.196 161.024 413.018ZM2.77966 400.523C3.0654 400.73 3.43864 400.747 3.83548 400.801L3.89232 400.809C4.25517 400.862 4.61874 400.912 4.9839 400.94C5.88615 401.524 7.68323 401.445 8.55322 401.611C27.6504 403.521 46.8802 401.254 65.9968 402.789C66.9092 404.092 66.6869 405.705 66.2017 407.161C60.8636 407.362 55.5203 407.471 50.1795 407.239L49.7526 407.224C49.0931 407.198 48.4165 407.15 47.8065 406.901C47.2617 406.678 46.5923 406.126 46.6776 405.465L46.6833 405.427C46.814 404.668 46.0177 403.779 45.2432 404.319C37.9388 409.17 28.0141 406.731 19.7844 406.253C13.8542 405.625 7.95598 404.73 2.10278 403.597C2.32962 402.573 2.55501 401.548 2.77966 400.523ZM136.183 379.035C136.796 379.105 137.409 379.168 138.023 379.224C140.486 379.446 142.957 379.558 145.429 379.629L146.583 379.661C148.886 379.723 151.203 379.777 153.502 379.652C154.665 379.589 155.857 379.452 156.981 379.135C155.992 384.328 155.483 389.615 155.499 394.899C155.19 395.167 155.253 395.609 155.335 395.947L155.258 396.176C155.077 396.714 154.905 397.26 154.837 397.81C147.701 402.058 141.776 397.707 135.27 394.661C136.342 391.869 136.669 388.808 136.848 385.844C136.948 383.538 136.776 381.287 136.183 379.035ZM123.212 392.747C123.509 392.781 123.785 392.967 124.026 393.132C125.018 393.843 125.876 394.685 126.659 395.596C126.358 395.893 126.052 396.185 125.739 396.472C124.567 395.526 123.646 394.209 123.212 392.747ZM47.3677 365.751L48.3338 366.076C54.2983 368.08 60.3862 369.96 66.7219 370.522C66.3819 370.859 66.0956 371.259 65.8442 371.684C65.6251 371.87 65.4042 372.108 65.4664 372.391C65.2629 372.802 65.0828 373.22 64.9113 373.614C63.9091 376 62.7522 378.347 61.9075 380.804C61.6624 381.829 60.6985 383.263 61.1477 384.255C54.4122 387.191 46.0336 385.884 40.8882 380.513L41.0697 380.245C44.0264 375.86 46.6249 371.044 47.3677 365.751ZM29.099 378.145C29.5073 377.793 30.2237 378.764 30.4053 379.006C31.0767 379.9 31.5388 380.879 31.8817 381.903C31.4504 382.199 31.0158 382.478 30.5768 382.761L30.5527 382.721C30.1444 382.015 28.6756 378.592 29.099 378.145ZM157.191 378.069L157.184 378.105C156.822 378.162 156.46 378.212 156.096 378.253C155.212 378.354 154.317 378.398 153.425 378.417C154.68 378.236 155.936 378.089 157.191 378.069ZM147.618 207.378L147.915 207.348L148.297 207.3C153.199 206.691 158.138 205.876 163.074 206.668C162.391 209.833 162.345 213.15 162.124 216.393C161.071 247.626 157.277 279.038 161.528 310.198L161.659 311.142C163.208 322.224 165.052 333.345 164.31 344.574C163.731 354.81 161.65 364.872 159.582 374.888C159.086 375.013 158.589 375.138 158.09 375.26C158.076 375.121 157.989 375.201 157.972 375.289C151.849 376.926 145.459 377.066 139.168 376.655C137.981 376.587 136.8 376.491 135.615 376.409C134.701 376.012 133.724 375.758 132.733 375.583C130.643 343.799 127.907 311.651 118.084 281.177C111.831 261.818 104.021 242.967 99.3998 223.112C99.24 222.554 98.3971 222.789 98.534 223.352L98.6783 224.113C99.8516 230.331 100.909 236.569 102.736 242.647C101.349 241.135 99.7673 239.8 98.4582 238.217C98.0498 237.718 97.6749 237.193 97.3522 236.633C97.0463 235.939 96.555 235.396 95.7946 235.234C95.4458 235.092 95.1218 235.389 95.007 235.681C94.6871 236.488 94.822 237.064 95.2879 237.775L95.4043 237.95C97.4589 240.99 100.747 242.766 103.461 245.152C105.733 252.744 108.348 260.228 110.911 267.723C110.944 269.214 110.673 270.687 110.237 272.109C109.741 273.57 109.296 275.119 108.534 276.49C97.9346 298.669 92.5933 322.835 86.1531 346.435C84.4579 352.728 82.7411 359.02 80.8926 365.271L80.8661 365.384C80.445 367.146 79.7879 367.855 77.8586 367.852C68.192 368.298 58.2664 366.718 49.4602 362.826C54.3109 349.868 57.6791 336.457 60.2979 322.867C61.6192 316.443 62.6899 309.968 63.5916 303.468C64.8472 295.168 65.9551 286.85 67.0775 278.574C69.3743 262.353 69.2733 245.847 72.2002 229.725C73.1998 229.758 74.0565 228.569 73.4484 227.682C73.6604 226.799 73.4712 225.834 73.1563 225.018L73.1941 224.841C76.6231 227.89 81.0981 228.275 78.8016 222.415L78.643 222.017C76.9185 217.717 74.7244 213.123 75.6978 208.406C85.6442 213.721 97.8021 212.864 108.492 210.534C107.659 213.565 109.902 215.423 112.433 213.388C112.889 213.019 113.337 212.636 113.776 212.241C113.132 214.794 113.478 217.471 114.072 220.002L114.129 220.294C114.418 221.812 114.746 223.828 115.9 224.879C116.741 225.644 118.009 225.318 118.386 224.226C118.597 220.613 119.604 217.058 121.447 213.916C121.139 216.213 121.214 218.572 121.779 220.774C121.997 221.616 122.3 222.476 122.371 223.347L122.36 223.49C122.252 225.025 122.455 226.435 124.368 226.466C128.902 225.666 126.042 214.923 128.929 211.526C129.806 215.626 128.784 221.016 132.771 223.737C133.872 224.427 135.216 224.027 135.44 222.688L135.361 221.637C134.885 215.22 134.974 213.296 139.085 207.28C141.872 207.949 144.791 207.663 147.618 207.378ZM66.841 372.298C66.8381 372.322 66.8367 372.345 66.8352 372.37C66.7878 372.419 66.7403 372.468 66.6933 372.518L66.6231 372.593L66.7044 372.392C66.7495 372.363 66.796 372.33 66.841 372.298ZM70.5833 229.107L70.7702 229.265C70.8015 229.291 70.833 229.317 70.8647 229.343C70.6989 230.083 70.5439 230.825 70.3935 231.568L70.4227 231.078C70.4499 230.597 70.3736 229.724 70.5833 229.107ZM73.6103 163.328C75.0128 156.794 76.4107 154.036 74.6345 163.448L74.4417 164.464C73.6724 168.54 72.8617 173.159 72.1004 178.133L71.9416 179.174C71.147 184.331 69.8978 191.88 69.8055 197.927C69.7008 204.789 73.1804 206.825 74.5557 207.714C74.813 208.469 74.4864 209.098 74.2694 209.823C73.9773 210.987 73.9018 212.105 73.9849 213.301C74.2736 217.38 76.4507 221.065 77.4401 224.936C76.1723 224.587 74.7579 223.443 73.6504 222.537C71.6837 220.97 70.3112 218.649 69.7182 216.188C69.4363 215.026 69.6412 213.59 68.8507 212.637C68.6182 212.357 68.1154 212.384 67.8786 212.637C67.2334 213.326 67.2944 214.169 67.399 215.049C67.7506 218.043 69.0658 220.978 71.1844 223.133C71.2843 224.239 71.6138 225.225 71.8325 226.277C71.7483 226.512 71.664 226.748 71.584 226.985C70.1489 225.744 68.9491 224.243 68.0195 222.589C63.8708 215.295 65.3196 206.895 66.3935 198.94C66.609 199.473 67.1001 199.685 67.5778 199.633C67.8523 200.32 68.5697 199.882 68.5982 198.993C68.7757 193.45 69.5113 185.57 70.8647 177.498C71.6712 172.688 72.6481 167.812 73.6103 163.328ZM126.001 188.497C128.059 194.89 136.168 196.137 140.905 200.037C138.526 206.321 131.866 213.051 133.826 221.157L133.837 221.218C133.896 221.528 134.089 222.404 133.881 222.569C133.749 222.674 132.935 221.878 132.792 221.721C129.943 218.326 131.601 213.525 129.998 209.654C129.788 209.139 129.131 208.835 128.686 209.308C126.682 211.434 126.198 214.299 125.891 217.099L125.88 217.196C125.633 219.374 125.769 221.618 125.124 223.736L125.1 223.81C124.963 224.22 124.707 224.797 124.421 224.901C123.632 225.187 123.929 223.922 123.901 223.421C123.818 221.976 123.205 220.622 122.99 219.198C122.531 216.143 122.988 212.939 124.001 210.043C124.322 209.123 123.058 208.798 122.57 209.439C120.543 212.104 118.918 215.065 117.847 218.243C117.416 219.525 117.186 220.822 116.898 222.128C115.103 216.673 115.155 210.938 119.22 206.466C120.182 205.31 118.58 203.643 117.544 204.789C116.469 206.071 115.417 207.367 114.249 208.566C113.098 209.728 111.988 211.159 110.563 211.989C110.794 206.767 116.39 204.408 119.375 200.833C122.417 197.232 124.081 192.741 126.001 188.497ZM152.895 144.401C153.985 147.719 155.261 150.978 156.246 154.33C156.451 156.599 155.753 157.54 154.088 158.98C153.368 154.865 153.07 150.691 152.684 146.531C152.743 145.82 152.755 145.103 152.895 144.401ZM152.358 142.771L152.467 143.107L152.43 143.171L152.395 143.236L152.358 142.771ZM85.9405 101.256L85.5244 104.003C83.9957 114.073 82.4186 124.143 80.2489 134.098C80.1293 134.646 79.4237 133.91 79.5534 132.848C80.8879 121.925 85.9217 101.127 85.9414 101.246L85.9405 101.256ZM98.7851 79.1707C98.6878 79.2869 98.5962 79.4091 98.5076 79.5329C98.5265 79.4222 98.5454 79.3102 98.5657 79.1982C98.6398 79.1894 98.7125 79.1809 98.7851 79.1707Z" fill="black"/>
<path fill-rule="evenodd" clip-rule="evenodd" d="M116.427 12.9771C108.193 12.9771 99.6773 19.3787 96.6592 23.4637C93.1693 28.1873 90.4164 50.8628 91.7079 58.5571C92.9993 66.2514 99.4143 74.6377 110.551 74.6377C121.687 74.6377 128.464 73.2618 128.736 71.2633C128.917 69.931 131.365 65.5568 136.081 58.1407C140.904 56.78 143.325 54.4746 143.344 51.2243C143.362 47.9741 142.07 45.7577 139.467 44.5751C140.395 31.7483 139.69 23.6651 137.353 20.3256C133.846 15.3163 124.661 12.9771 116.427 12.9771Z" fill="#D08B5B"/>
<path fill-rule="evenodd" clip-rule="evenodd" d="M121.978 0.553364C120.871 -0.753771 118.918 0.481772 118.962 1.91015C118.52 2.03017 117.999 2.44429 117.797 2.98419C117.362 2.95588 116.924 3.04261 116.528 3.26935L116.445 3.16638C115.075 1.48914 113.263 0.0498752 111.393 1.28503C110.884 1.62118 110.656 2.1767 110.768 2.77885L110.777 2.82148L110.735 2.63557C110.693 2.45892 110.756 2.81237 110.78 2.88716L110.783 2.89564C110.832 3.02157 110.881 3.08499 110.926 3.1802C109.011 1.8157 106.096 2.61442 107.632 5.25578L107.007 5.01139C104.846 4.17352 102.158 3.27379 100.188 4.78021C99.3073 5.63009 100.285 6.76332 101.182 7.03803L101.028 7.01215C99.3059 6.7188 95.713 5.99373 95.1997 8.24255C95.0151 9.05171 95.5534 9.64307 96.2327 9.96864C94.7955 9.96335 93.3781 10.201 92.1345 10.9045C90.9516 11.7477 91.9076 13.1431 93.1447 13.0822C92.7612 13.558 92.6339 14.363 93.0042 14.8769C92.3012 15.062 91.6526 15.3001 91.0548 15.6712L90.8905 15.6924C89.6956 15.842 88.3323 15.931 87.675 17.1081C86.7076 19.6623 90.1525 19.5606 91.6312 18.6635C91.5434 18.8065 91.4783 18.9627 91.4418 19.1295L90.9627 19.2644C89.1551 19.7687 87.1093 20.3258 85.9454 21.8518C85.412 22.73 86.1544 24.2224 87.2698 23.9557C84.2473 25.3995 85.4058 29.203 88.3616 27.2245C88.4998 27.3528 88.668 27.4482 88.8441 27.4902L88.2204 27.8294C86.6362 28.6994 84.731 29.8904 85.0618 31.8656C85.3764 32.9109 86.822 32.7198 87.5567 32.3198C86.273 33.4271 85.0617 34.626 83.9613 35.9222L83.6568 36.2855C82.8011 37.3143 81.3123 39.2082 82.925 40.1979C84.9131 41.2129 85.9039 38.2157 87.0602 37.1459C86.1357 39.328 89.1414 40.8498 90.1905 38.6519C90.3667 38.6829 90.5439 38.6861 90.7176 38.6627C89.8131 39.6244 87.3668 46.2047 90.4096 44.7618C90.8942 44.2475 91.3195 43.6855 91.7104 43.0955C91.2219 46.8656 90.8646 50.6536 90.6335 54.4442L90.5513 55.8184C90.4673 57.2437 90.4037 58.6751 90.5633 60.0957C90.7476 61.7495 91.2216 63.3014 91.9394 64.7996C92.6008 66.1814 93.4534 67.4614 94.4292 68.6381C94.9512 69.2679 95.5051 69.8802 96.1866 70.3412C96.7291 70.7079 97.3628 70.9493 97.9733 71.182C98.9664 72.1769 100.241 72.9289 101.487 73.5296C103.54 74.5172 105.766 75.0627 108.018 75.3361C110.32 75.6138 112.646 75.547 114.93 75.15C117.112 74.7718 119.452 73.8045 120.796 71.9616C120.912 71.8031 120.696 71.6533 120.554 71.7187C116.653 73.5296 112.269 74.0023 108.018 73.4307C106.034 73.1645 104.082 72.6147 102.271 71.7609C100.743 71.0409 99.4538 69.9937 98.082 69.0453C97.815 68.689 97.5455 68.3384 97.2379 68.0126L96.7581 67.5079C96.3995 67.1288 96.0473 66.7446 95.7271 66.3297C94.738 65.0512 93.9189 63.6011 93.3779 62.0753C92.3258 59.1052 92.6103 55.8812 92.7962 52.786L92.8123 52.5132C93.0037 49.2027 93.3157 45.9039 93.7476 42.6167C93.9273 41.2487 94.1272 39.883 94.3461 38.5203C94.697 37.9477 95.0717 37.3937 95.4912 36.8746C95.1498 38.2052 96.3318 40.0549 97.7811 39.1767C99.4408 37.7536 99.3605 35.4566 100.751 33.714C102.193 31.4799 112.142 27.135 115.1 26.5249C114.623 27.2202 113.753 27.7046 113.55 28.5252C109.912 31.749 115.842 33.4651 117.693 28.8708C117.652 30.4004 117.498 31.9167 117.158 33.4097C116.664 34.7808 116.277 38.7541 118.754 37.555C119.94 37.8986 120.844 36.8854 120.993 35.7422C121.85 38.3256 121.04 42.4528 122.61 44.3568C123.092 44.8576 123.836 44.5242 124.087 43.9523C125.54 43.5706 125.416 41.8719 125.592 40.6559C126.917 45.5026 128.575 48.8667 128.803 53.9227C127.778 55.3866 130.027 56.4632 130.992 55.29C132.347 53.3269 131.098 50.6432 130.779 48.4942C131.16 48.4745 131.537 48.3048 131.852 47.9341C132.023 48.6086 131.925 49.4971 131.867 50.2286C132.726 53.5972 135.992 51.4395 135.857 48.707C135.998 49.4779 136.104 50.2566 136.172 51.0411C135.541 51.7689 135.074 52.6402 134.797 53.5649C134.599 54.233 135.276 54.6336 135.793 54.5367C136.068 55.4778 137.26 56.1569 138.045 55.2573C138.82 54.4707 138.955 53.334 139.017 52.2023C139.125 52.0872 139.19 51.9365 139.18 51.754C139.17 51.5825 139.128 51.437 139.061 51.3146C139.074 51.0833 139.091 50.8563 139.116 50.6368C139.716 52.5096 139.326 54.472 139.273 56.3901C138.213 56.9889 137.003 57.2448 135.787 57.4976L135.611 57.5342C135.235 57.6128 135.116 58.1742 135.399 58.4099C134.647 59.1488 133.997 60.0302 133.363 60.8433C132.522 61.9219 131.717 63.0434 130.934 64.1672L130.475 64.8274C129.133 66.7448 127.277 69.3423 128.108 71.7042C128.221 72.0286 128.694 72.1449 128.878 71.8046C129.483 70.6846 129.821 69.4511 130.395 68.3181C130.959 67.2068 131.661 66.177 132.357 65.1472L132.759 64.5504C133.427 63.5537 134.089 62.5463 134.703 61.5196L135.131 60.8088C135.532 60.1375 135.93 59.4439 136.226 58.7226C137.28 58.9775 138.383 58.7946 139.394 58.3537L139.407 58.4242L139.433 58.5509C139.577 59.1606 140.415 59.5774 140.951 59.1786C142.233 58.209 142.755 56.7657 142.891 55.2226C143.15 54.7868 143.369 54.3265 143.548 53.8502C143.632 54.8005 143.997 55.7219 145.124 55.6933C147.078 55.5324 147.27 53.6808 146.741 51.8392C149.055 52.548 149.326 49.2658 148.596 47.5361C148.867 47.4548 149.118 47.2928 149.262 47.0746L149.382 47.2855C149.827 48.0578 150.331 48.8076 151.033 49.2084C152.015 49.7683 153.442 49.0748 153.377 47.8417C153.167 45.8322 151.411 44.3017 150.342 42.6912C150.532 42.7182 150.73 42.7114 150.924 42.675C153.06 43.8706 154.08 41.0567 153.328 39.4264C152.776 37.9617 151.778 36.7021 150.708 35.5917L151.022 35.7797C151.588 36.1139 152.219 36.4366 152.841 36.3055C156.912 38.9884 158.248 34.4762 153.68 33.066L153.681 33.045C154.14 32.6015 154.339 31.8996 153.982 31.1985C155.658 31.7888 158.05 30.4533 156.573 28.6279C155.61 27.718 154.473 26.9354 153.213 26.5258C153.276 26.1908 153.296 25.85 153.27 25.507L153.346 25.5172C154.141 25.6321 155.122 25.9579 155.612 25.0988C155.861 24.6662 155.832 23.9533 155.424 23.617C154.02 22.4589 152.418 21.4957 150.677 21.1052C150.614 20.8927 150.547 20.6814 150.477 20.4711C151.961 20.4434 153.628 18.4656 151.923 17.345C150.424 16.5788 148.879 16.086 147.186 16.1317C148.179 15.1501 147.593 13.3709 146.273 13.0974C147.138 11.2516 145.003 10.2992 143.41 10.5903C143.469 9.77021 143.031 8.85616 142.189 8.65031C142.63 6.05526 139.891 6.30076 138.175 6.91589C138.749 5.9154 138.159 4.73844 137.145 4.38759C135.484 4.01055 133.895 5.5971 132.631 6.57003C133.062 5.55502 132.698 4.61917 131.672 4.21474C130.614 3.79956 129.474 4.60191 128.592 5.14711C128.112 4.54258 127.292 4.34551 126.557 4.38289C126.479 4.15586 126.364 3.96651 126.216 3.81681C126.22 2.41795 123.846 1.6489 123.017 2.95195C122.876 2.04591 122.504 1.17409 121.978 0.553364ZM92.273 25.9252L92.2457 26.0758C92.2105 26.107 92.1775 26.1398 92.1438 26.1718C92.0379 26.1969 91.9357 26.2234 91.8389 26.2505C91.98 26.1359 92.1254 26.0298 92.273 25.9252ZM90.4402 22.2541L90.4725 22.2989C90.478 22.3063 90.4836 22.3136 90.4895 22.3206C90.3999 22.3546 90.3107 22.3893 90.2218 22.4252L90.0886 22.4798L90.0416 22.5006C90.1739 22.4173 90.3067 22.3348 90.4402 22.2541ZM111.814 3.77337L111.894 3.7933C111.919 3.79952 111.944 3.80531 111.966 3.81061C111.974 3.81273 111.981 3.81363 111.989 3.81666L111.968 3.81212C112.006 3.84103 112.055 3.87509 112.097 3.90233C112.056 3.899 112.016 3.89507 111.975 3.8928C111.922 3.85284 111.868 3.81303 111.814 3.77337Z" fill="black"/>
<path fill-rule="evenodd" clip-rule="evenodd" d="M102.767 57.642C102.269 56.7614 100.781 56.9045 100.553 57.9316C100.092 60.0136 102.572 61.9362 104.456 61.9842C106.328 62.0317 108.429 60.4368 108.158 58.4223C108.091 57.924 107.426 57.9845 107.199 58.2969L107.111 58.4168C106.495 59.2447 105.683 60.1017 104.54 59.8998C104.067 59.8163 103.637 59.5202 103.35 59.139C103.005 58.6789 103.043 58.1295 102.767 57.642ZM114.671 42.4101C114.417 42.3402 114.161 42.3672 113.936 42.4629C113.435 42.555 113.015 42.9739 112.868 43.4521C112.856 43.4935 112.843 43.5344 112.829 43.5749L112.807 43.6353L112.867 43.482C112.839 43.6329 112.716 43.7916 112.672 43.9432C112.618 44.1295 112.604 44.3411 112.623 44.5462C112.463 44.5478 112.304 44.5532 112.144 44.567L111.991 44.5808C111.13 44.6609 110.185 44.8078 109.675 45.5522C109.388 45.9705 109.657 46.7237 110.184 46.8042C110.994 46.9283 111.692 46.4794 112.5 46.3896C113.263 46.3045 114.062 46.3532 114.816 46.4912C116.372 46.7759 117.801 47.4072 119.317 47.8032L119.524 47.8557L119.524 47.8547C119.783 47.9175 120.078 47.5559 119.821 47.3444C118.607 46.3456 117.051 45.5362 115.519 45.0432C115.743 44.6879 115.812 44.2198 115.659 43.8383C115.635 43.7592 115.606 43.6824 115.575 43.6057L115.511 43.4481C115.504 43.3737 115.49 43.3003 115.47 43.2283L115.466 43.2063L115.464 43.2076C115.35 42.8366 115.052 42.5154 114.671 42.4101ZM99.1741 42.4675C98.8419 42.1349 98.375 42.184 98.0284 42.4459L97.9824 42.4819C97.6556 42.6273 97.3851 42.9448 97.2076 43.239C97.0231 43.5446 96.9007 43.8559 96.8959 44.1923C96.0917 44.1949 95.3214 44.4364 94.731 45.0863C94.5403 45.296 94.4101 45.6195 94.515 45.9039L94.5775 46.073C94.7758 46.6101 95.6671 46.9192 95.97 46.2877L95.984 46.2569C96.3059 45.5069 97.5415 45.5856 98.1981 45.6623C98.6559 45.7159 99.108 45.8298 99.55 45.9574C99.7057 46.0023 99.8601 46.0511 100.014 46.1009L100.168 46.151C100.251 46.1776 100.679 46.4105 100.413 46.3553C100.341 46.3405 100.287 46.4449 100.36 46.48C100.678 46.632 101.017 46.3293 100.995 45.9878C100.959 45.3949 100.018 45.0699 99.5656 44.8655L99.5385 44.8531C99.365 44.7728 99.1832 44.6959 98.9956 44.6245C99.1011 44.4674 99.1883 44.2928 99.2608 44.1055C99.3294 43.9286 99.3752 43.7567 99.4003 43.5686C99.425 43.4767 99.425 43.3848 99.4003 43.2927L99.3965 43.2664C99.4093 43.2056 99.4154 43.1427 99.4146 43.0795L99.4172 43.0549H99.4146C99.4057 42.8334 99.3178 42.6114 99.1741 42.4675ZM104.482 48.7809C103.206 49.1756 101.1 50.251 101.765 51.9107C102.694 53.4351 105.157 52.3148 106.35 51.8223C107.423 51.4668 107.981 52.9709 106.944 53.4243C98.3766 56.817 98.4082 47.8631 104.171 47.9946C104.806 48.009 104.826 48.6497 104.482 48.7809ZM115.817 37.1058L115.6 37.0422C114.468 36.7142 113.313 36.1478 112.309 37.0316C111.915 37.3787 111.833 38.0998 112.116 38.5327C112.758 39.519 113.712 39.3683 114.75 39.4524C115.541 39.5164 116.319 39.7488 117.057 40.0393C117.66 40.2768 118.22 40.6112 118.748 40.9841C119.266 41.3508 119.621 41.924 120.153 42.2541C120.348 42.3751 120.573 42.2506 120.643 42.0544C120.892 41.3584 120.472 40.4913 120.117 39.8983C119.684 39.1749 119.026 38.5832 118.319 38.1355C117.544 37.6451 116.687 37.362 115.817 37.1058ZM99.3332 36.3569C97.4211 36.3564 95.5811 37.4209 94.5116 38.9815C94.1482 39.5116 94.4145 40.2971 94.9362 40.6024C95.5215 40.9451 96.1472 40.6983 96.5329 40.2073L96.5557 40.1775C97.1691 39.3599 97.9597 38.716 98.897 38.2968C99.3543 38.0922 99.86 37.9262 100.355 37.842L100.515 37.8146C100.739 37.777 100.998 37.7411 101.201 37.7763C101.31 37.7905 101.409 37.8264 101.501 37.8811C101.457 37.9777 101.571 38.0941 101.676 38.0362C102.152 37.7749 102.093 37.3089 101.701 36.9467C101.146 36.4343 100.05 36.3571 99.3332 36.3569Z" fill="black"/>
</svg>
