<svg width="332" height="345" viewBox="0 0 332 345" fill="none" xmlns="http://www.w3.org/2000/svg">
<path d="M217.954 144.263C217.718 140.619 218.415 136.643 220.745 134.065C223.062 131.472 227.014 130.277 231.098 129.787C235.182 129.298 239.378 129.553 241.879 131.687C244.364 133.832 245.133 137.893 246.027 141.695C246.905 145.508 247.92 149.076 247.079 152.331C246.225 155.57 243.499 158.505 240.072 160.368C236.639 162.26 232.505 163.077 229.125 161.94C225.734 160.788 223.099 157.683 221.219 154.472C219.326 151.243 218.191 147.907 217.954 144.263Z" fill="#9093D1"/>
<path d="M55.1772 195.871C54.7056 188.582 56.0985 180.63 60.7576 175.475C65.3932 170.288 73.2947 167.898 81.4625 166.92C89.6305 165.941 98.0242 166.451 103.026 170.718C107.996 175.008 109.533 183.132 111.321 190.735C113.077 198.36 115.107 205.498 113.425 212.007C111.718 218.485 106.266 224.356 99.4105 228.083C92.5461 231.863 84.2774 233.498 77.5191 231.226C70.7372 228.921 65.4655 222.711 61.7053 216.287C57.9214 209.831 55.649 203.159 55.1772 195.871Z" fill="#F7859C"/>
<path d="M148.603 286.385C148.131 279.097 149.524 271.145 154.183 265.99C158.818 260.803 166.721 258.413 174.889 257.434C183.055 256.456 191.45 256.966 196.451 261.232C201.421 265.521 202.959 273.645 204.747 281.248C206.502 288.875 208.533 296.013 206.85 302.522C205.143 308.998 199.691 314.871 192.835 318.596C185.971 322.377 177.703 324.011 170.945 321.739C164.162 319.436 158.89 313.226 155.131 306.801C151.347 300.344 149.074 293.674 148.603 286.385Z" fill="#F7859C"/>
<path d="M102.883 85.6891C102.164 74.3071 104.361 61.8841 111.659 53.8211C118.919 45.7087 131.278 41.9564 144.051 40.4077C156.822 38.8591 169.944 39.6357 177.753 46.2875C185.511 52.9752 187.895 65.6594 190.671 77.5298C193.396 89.4362 196.552 100.578 193.904 110.748C191.221 120.868 182.683 130.053 171.955 135.889C161.214 141.811 148.283 144.384 137.722 140.852C127.125 137.27 118.899 127.584 113.037 117.559C107.137 107.484 103.602 97.0712 102.883 85.6891Z" fill="#9FD8E5"/>
<path d="M144.598 195.872C144.125 188.583 145.519 180.631 150.178 175.476C154.813 170.289 162.715 167.899 170.883 166.921C179.05 165.942 187.445 166.452 192.446 170.718C197.416 175.009 198.953 183.133 200.742 190.736C202.497 198.361 204.528 205.499 202.845 212.008C201.138 218.484 195.686 224.357 188.83 228.083C181.966 231.863 173.698 233.498 166.94 231.226C160.157 228.922 154.885 222.712 151.126 216.287C147.342 209.832 145.069 203.16 144.598 195.872Z" fill="#FFDBB4"/>
</svg>
