<svg width="346" height="470" viewBox="0 0 346 470" fill="none" xmlns="http://www.w3.org/2000/svg">
<path d="M230.957 269.846C230.719 266.212 231.421 262.248 233.772 259.677C236.109 257.092 240.096 255.9 244.215 255.412C248.335 254.924 252.568 255.178 255.091 257.306C257.598 259.445 258.373 263.494 259.275 267.285C260.161 271.087 261.184 274.645 260.336 277.89C259.474 281.119 256.725 284.047 253.268 285.904C249.805 287.79 245.634 288.605 242.226 287.471C238.805 286.322 236.147 283.226 234.25 280.024C232.341 276.806 231.195 273.479 230.957 269.846Z" fill="#9093D1"/>
<path d="M66.756 321.303C66.2803 314.036 67.6854 306.107 72.3852 300.967C77.0613 295.795 85.032 293.412 93.2712 292.436C101.511 291.46 109.978 291.969 115.023 296.224C120.037 300.501 121.587 308.601 123.391 316.182C125.162 323.786 127.21 330.902 125.513 337.393C123.791 343.851 118.292 349.706 111.376 353.422C104.452 357.192 96.1107 358.821 89.2933 356.556C82.4521 354.258 77.1343 348.066 73.3412 341.661C69.5242 335.223 67.232 328.57 66.756 321.303Z" fill="#F7859C"/>
<path d="M160.999 411.555C160.522 404.288 161.928 396.359 166.628 391.219C171.304 386.047 179.275 383.664 187.515 382.688C195.753 381.712 204.221 382.221 209.265 386.474C214.279 390.752 215.83 398.852 217.634 406.433C219.404 414.038 221.454 421.154 219.756 427.645C218.034 434.102 212.534 439.958 205.618 443.673C198.694 447.442 190.354 449.072 183.536 446.807C176.694 444.51 171.376 438.318 167.584 431.911C163.767 425.473 161.474 418.822 160.999 411.555Z" fill="#F7859C"/>
<path d="M114.879 211.441C114.153 200.092 116.37 187.705 123.731 179.665C131.055 171.577 143.523 167.835 156.407 166.291C169.29 164.747 182.526 165.521 190.404 172.154C198.23 178.822 200.634 191.47 203.435 203.305C206.184 215.177 209.368 226.287 206.697 236.427C203.989 246.518 195.377 255.677 184.555 261.496C173.72 267.4 160.676 269.966 150.023 266.444C139.333 262.873 131.035 253.215 125.122 243.219C119.171 233.173 115.604 222.79 114.879 211.441Z" fill="#9FD8E5"/>
<path d="M156.959 321.304C156.482 314.037 157.888 306.108 162.588 300.968C167.263 295.796 175.235 293.413 183.474 292.437C191.712 291.461 200.181 291.97 205.225 296.223C210.239 300.502 211.79 308.602 213.594 316.183C215.364 323.787 217.413 330.903 215.716 337.394C213.994 343.851 208.494 349.707 201.578 353.422C194.654 357.191 186.314 358.821 179.496 356.556C172.654 354.259 167.336 348.067 163.544 341.66C159.727 335.224 157.434 328.571 156.959 321.304Z" fill="#FFDBB4"/>
</svg>
