<svg width="34" height="36" viewBox="0 0 34 36" fill="none" xmlns="http://www.w3.org/2000/svg">
<g clip-path="url(#clip0_1_24)">
<path d="M4.16664 7.46382C6.34027 4.12431 9.53203 1.09211 13.2162 0.330028C16.9005 -0.453436 21.0773 1.03321 24.9084 3.22266C28.7394 5.41212 32.1821 8.32544 32.9415 11.7949C33.6796 15.2642 31.6918 19.3107 29.9815 23.2098C28.2499 27.1086 26.7958 30.8814 23.9499 33.1894C21.1042 35.476 16.8455 36.2977 12.6828 35.7305C8.49863 35.1845 4.41043 33.2496 2.24537 30.0898C0.0804808 26.9086 -0.161278 22.5025 0.316772 18.4868C0.79499 14.4498 1.99301 10.8033 4.16664 7.46382Z" fill="#FFDBB4"/>
</g>
<defs>
<clipPath id="clip0_1_24">
<rect width="34" height="36" fill="white"/>
</clipPath>
</defs>
</svg>
