<svg width="34" height="36" viewBox="0 0 34 36" fill="none" xmlns="http://www.w3.org/2000/svg">
<g clip-path="url(#clip0_1_941)">
<path d="M4.16671 7.46363C6.34034 4.12411 9.53209 1.09191 13.2163 0.329829C16.9006 -0.453635 21.0774 1.03301 24.9085 3.22247C28.7395 5.41193 32.1822 8.32524 32.9416 11.7947C33.6797 15.2641 31.6919 19.3106 29.9816 23.2096C28.25 27.1085 26.7959 30.8812 23.95 33.1892C21.1043 35.4759 16.8456 36.2976 12.6829 35.7303C8.49869 35.1843 4.4105 33.2494 2.24544 30.0896C0.0805418 26.9084 -0.161217 22.5023 0.316833 18.4867C0.795051 14.4497 1.99308 10.8032 4.16671 7.46363Z" fill="#9093D1"/>
</g>
<defs>
<clipPath id="clip0_1_941">
<rect width="34" height="36" fill="white"/>
</clipPath>
</defs>
</svg>
