<svg width="202" height="150" viewBox="0 0 202 150" fill="none" xmlns="http://www.w3.org/2000/svg">
<path d="M61.1536 95.3435C63.7902 99.1358 65.6493 103.884 64.8512 108.167C64.0761 112.46 60.6437 116.286 56.6075 119.435C52.5711 122.584 47.9269 124.999 43.8629 124.294C39.8084 123.567 36.33 119.665 32.8883 116.125C29.4562 112.562 26.0378 109.352 24.8055 105.291C23.5961 101.239 24.5823 96.3148 27.0199 92.1007C29.444 87.8543 33.3195 84.3181 37.6678 83.3808C42.039 82.4523 46.8829 84.1217 50.991 86.3916C55.122 88.6714 58.517 91.5521 61.1536 95.3435Z" fill="#9FD8E5"/>
<path d="M67.7032 26.3278C71.8112 32.255 74.7041 39.6807 73.4505 46.3826C72.2327 53.0994 66.8684 59.0924 60.5628 64.0256C54.2571 68.9588 47.0041 72.746 40.6624 71.6513C34.3355 70.521 28.9138 64.4228 23.5487 58.891C18.1985 53.3236 12.8692 48.3078 10.9535 41.9569C9.07345 35.6209 10.6219 27.9143 14.4342 21.317C18.2256 14.6693 24.281 9.13098 31.0694 7.65568C37.8936 6.1953 45.4508 8.798 51.8583 12.3419C58.3015 15.9006 63.5951 20.4005 67.7032 26.3278Z" fill="#9093D1"/>
<path d="M105.597 101.489C106.915 103.385 107.845 105.759 107.446 107.901C107.058 110.047 105.342 111.96 103.324 113.535C101.306 115.109 98.9833 116.317 96.9517 115.964C94.9242 115.601 93.1852 113.649 91.4644 111.88C89.7479 110.098 88.0388 108.493 87.4228 106.463C86.8184 104.437 87.3114 101.974 88.53 99.8677C89.742 97.7445 91.6798 95.9768 93.8544 95.5077C96.0398 95.0436 98.4613 95.8782 100.515 97.0135C102.581 98.153 104.279 99.5933 105.597 101.489Z" fill="#9093D1"/>
<path d="M131.374 13.5917C133.5 16.6481 134.998 20.4757 134.355 23.928C133.73 27.3878 130.963 30.4724 127.71 33.0102C124.457 35.548 120.713 37.4948 117.438 36.9269C114.169 36.3408 111.366 33.1955 108.591 30.3421C105.825 27.4705 103.07 24.8829 102.076 21.6096C101.101 18.344 101.897 14.3743 103.861 10.9776C105.816 7.55486 108.94 4.70506 112.444 3.94911C115.967 3.20085 119.872 4.54645 123.183 6.37625C126.513 8.21373 129.249 10.5354 131.374 13.5917Z" fill="#9093D1"/>
<path d="M118.093 56.1792C120.73 59.971 122.588 64.7197 121.79 69.0027C121.015 73.2952 117.583 77.122 113.546 80.2705C109.511 83.4189 104.866 85.8347 100.802 85.1294C96.7472 84.4026 93.2691 80.5004 89.8277 76.9604C86.3953 73.3977 82.9769 70.1874 81.7447 66.1265C80.5352 62.075 81.5215 57.1501 83.9588 52.9359C86.3829 48.6896 90.2591 45.154 94.6067 44.2161C98.9783 43.2879 103.822 44.9573 107.93 47.2273C112.061 49.507 115.456 52.3874 118.093 56.1792Z" fill="#F7859C"/>
<path d="M186.141 96.2808C190.249 102.208 193.142 109.634 191.888 116.336C190.671 123.052 185.306 129.045 179.001 133.979C172.695 138.911 165.442 142.699 159.1 141.604C152.773 140.474 147.352 134.376 141.987 128.844C136.637 123.277 131.307 118.261 129.391 111.91C127.512 105.574 129.06 97.867 132.872 91.2703C136.663 84.6223 142.719 79.084 149.507 77.6088C156.331 76.1484 163.889 78.7511 170.297 82.295C176.74 85.8538 182.034 90.3537 186.141 96.2808Z" fill="#FFDBB4"/>
</svg>
