<svg width="173" height="213" viewBox="0 0 173 213" fill="none" xmlns="http://www.w3.org/2000/svg">
<path d="M52.3741 77.6121C54.6322 72.2271 56.2244 65.484 55.5409 59.4024C54.8771 53.3066 51.9374 47.8733 48.4806 43.4027C45.0238 38.9308 41.0463 35.5017 37.5658 36.5019C34.0933 37.5352 31.1143 43.0755 28.1667 48.1028C25.2273 53.1618 22.2997 57.7207 21.2443 63.487C20.2085 69.2404 21.0532 76.2329 23.1408 82.2169C25.2169 88.2468 28.536 93.2682 32.2601 94.5991C36.0037 95.9176 40.1522 93.5471 43.6705 90.3238C47.2084 87.0865 50.116 82.9959 52.3741 77.6121Z" fill="#9FD8E5"/>
<path d="M57.9834 175.615C61.5017 167.198 63.9792 156.653 62.9056 147.137C61.8627 137.599 57.2685 129.089 51.8681 122.084C46.4677 115.079 40.256 109.701 34.8248 111.255C29.4062 112.86 24.7628 121.52 20.168 129.375C15.5859 137.28 11.0217 144.403 9.38094 153.421C7.77083 162.418 9.09695 173.362 12.362 182.73C15.6091 192.17 20.7951 200.034 26.609 202.129C32.4534 204.203 38.9257 200.507 44.4133 195.475C49.9315 190.421 54.4651 184.031 57.9834 175.615Z" fill="#9093D1"/>
<path d="M90.437 68.8847C91.5661 66.1933 92.3621 62.8218 92.0203 59.781C91.6886 56.7331 90.2184 54.0159 88.4906 51.78C86.762 49.5452 84.7729 47.8294 83.0329 48.3308C81.2965 48.8462 79.8071 51.6175 78.3334 54.13C76.8633 56.6601 75.3995 58.9396 74.872 61.8227C74.3544 64.6988 74.7766 68.1962 75.8203 71.1876C76.8583 74.2026 78.5178 76.7127 80.3802 77.3788C82.2519 78.0378 84.3258 76.8527 86.085 75.2405C87.8541 73.6224 89.3079 71.5772 90.437 68.8847Z" fill="#9093D1"/>
<path d="M112.513 193.7C114.334 189.359 115.617 183.924 115.066 179.022C114.531 174.109 112.162 169.729 109.375 166.125C106.589 162.522 103.383 159.757 100.578 160.564C97.7785 161.396 95.3778 165.862 93.0014 169.914C90.6321 173.992 88.2727 177.666 87.4219 182.314C86.5868 186.951 87.2682 192.588 88.9505 197.412C90.6242 202.272 93.2997 206.319 96.3012 207.392C99.3184 208.455 102.662 206.544 105.498 203.945C108.35 201.336 110.694 198.04 112.513 193.7Z" fill="#9093D1"/>
<path d="M101.139 133.225C103.397 127.841 104.989 121.098 104.305 115.016C103.642 108.92 100.702 103.486 97.2452 99.0154C93.7888 94.5446 89.8112 91.1143 86.3306 92.1157C82.8577 93.1478 79.879 98.689 76.9316 103.716C73.992 108.775 71.0644 113.333 70.009 119.1C68.9732 124.853 69.8179 131.846 71.9053 137.83C73.9813 143.86 77.3011 148.881 81.0245 150.213C84.7686 151.531 88.917 149.16 92.4354 145.937C95.973 142.7 98.8805 138.609 101.139 133.225Z" fill="#F7859C"/>
<path d="M159.418 76.2807C162.936 67.8643 165.414 57.319 164.34 47.8022C163.297 38.2655 158.703 29.7549 153.303 22.7495C147.902 15.7452 141.691 10.3672 136.259 11.9218C130.841 13.5257 126.197 22.1858 121.603 30.0409C117.021 37.9466 112.456 45.0686 110.815 54.0875C109.206 63.0841 110.531 74.0283 113.796 83.3956C117.043 92.8359 122.23 100.7 128.044 102.795C133.888 104.869 140.361 101.173 145.848 96.1405C151.366 91.0871 155.9 84.6971 159.418 76.2807Z" fill="#FFDBB4"/>
</svg>
