<svg width="32" height="34" viewBox="0 0 32 34" fill="none" xmlns="http://www.w3.org/2000/svg">
<g clip-path="url(#clip0_1_869)">
<path d="M3.92153 7.04872C5.9673 3.89473 8.9713 1.03098 12.4388 0.311234C15.9063 -0.428704 19.8374 0.975353 23.4432 3.04318C27.0488 5.111 30.289 7.86246 31.0037 11.1391C31.6984 14.4158 29.8276 18.2375 28.2179 21.9199C26.5881 25.6022 25.2195 29.1653 22.5411 31.3451C19.8627 33.5047 15.8546 34.2808 11.9367 33.745C7.99868 33.2293 4.15098 31.4019 2.11327 28.4177C0.0757251 25.4132 -0.151813 21.2519 0.298117 17.4594C0.748204 13.6466 1.87576 10.2027 3.92153 7.04872Z" fill="#9093D1"/>
</g>
<defs>
<clipPath id="clip0_1_869">
<rect width="32" height="34" fill="white"/>
</clipPath>
</defs>
</svg>
