<svg width="295" height="321" viewBox="0 0 295 321" fill="none" xmlns="http://www.w3.org/2000/svg">
<g clip-path="url(#clip0_1_835)">
<path d="M146.892 321C228.018 321 293.783 313.657 293.783 304.599C293.783 295.541 228.018 288.198 146.892 288.198C65.7657 288.198 0 295.541 0 304.599C0 313.657 65.7657 321 146.892 321Z" fill="#F7859C"/>
</g>
<path d="M214.421 201.949H157.026V272.587H214.421V201.949Z" fill="#FDEA6B"/>
<path fill-rule="evenodd" clip-rule="evenodd" d="M140.285 132.857C146.472 128.149 162.004 126.032 168.608 130.565C175.13 135.118 175.841 142.48 178.88 149.253C181.748 147.901 186.483 149.837 187.314 152.496C188.346 153.75 188.392 157.274 189.103 158.96C220.042 163.882 224.739 187.989 228.463 215.357C233.39 243.128 244.573 270.839 239.718 299.416C240.351 300.331 240.85 301.22 241.311 302.276C242.416 304.155 240.992 306.815 238.764 306.712C235.878 306.459 233.022 306.114 230.123 306.006C222.088 305.727 214.045 305.76 206.007 305.862L204.911 305.876C164.4 306.38 123.891 307.374 83.3775 307.637C81.9078 307.639 81.1882 306.322 81.3845 305.022C81.7797 302.406 82.1464 299.788 82.5291 297.171C72.9468 299.7 62.7599 300.337 53.2046 297.437C52.5361 296.756 54.762 297.125 55.1152 297.022C46.3213 291.016 48.9475 278.365 49.7265 269.252C54.5703 238.029 56.2779 203.482 74.9927 176.838C83.0891 165.965 94.959 157.356 108.598 155.419L108.977 155.367C112.965 154.836 117.41 154.664 120.897 152.496C124.818 149.367 126.49 143.586 130.616 143.532C131.978 143.514 133.831 145.236 135.826 146.406C135.975 143.833 137.362 141.662 137.668 139.667L137.693 139.497C138.012 137.171 137.575 135.079 140.285 132.857ZM206.776 216.181C198.081 210.145 175.621 213.178 175.107 213.516C173.974 214.26 173.487 214.326 172.875 215.292C172.27 215.373 171.666 215.456 171.062 215.541C169.852 215.937 170.749 217.425 172.147 216.894C171.306 220.52 173.782 223.098 174.767 226.683C175.087 227.846 174.779 229.939 174.767 231.129C174.863 232.645 176.54 234.436 176.261 235.957C175.267 241.365 169.874 246.64 172.147 251.884C173.654 254.846 178.184 256.357 181.196 257.364C187.437 259.758 198.311 257.274 201.937 251.884C203.871 249.01 206.111 241.759 207.265 239.51L207.52 235.942C208.151 227.073 208.711 217.525 206.776 216.181Z" fill="#EDB98A"/>
<path fill-rule="evenodd" clip-rule="evenodd" d="M130.294 143.548L132.782 145.074L147.233 152.213C150.035 152.997 151.436 153.937 151.436 155.032V166.184C151.436 167.676 154.065 171.058 159.323 176.33L164.181 171.49L164.072 170.857C163.61 168.126 163.379 166.3 163.379 165.377C163.379 164.385 168.131 160.619 177.636 154.078L181.795 150.166L181.351 148.818C183.915 148.939 186.696 150.517 187.314 152.496C188.346 153.75 188.392 157.274 189.103 158.96C220.042 163.882 224.739 187.989 228.463 215.357C233.39 243.128 244.573 270.839 239.718 299.416C240.351 300.331 240.85 301.221 241.311 302.277C242.416 304.156 240.992 306.816 238.764 306.713C235.878 306.46 233.022 306.114 230.123 306.006C222.088 305.727 214.045 305.76 206.007 305.862L204.911 305.877C164.4 306.381 123.891 307.374 83.3775 307.637C81.9078 307.639 81.1882 306.322 81.3845 305.022C81.7797 302.406 82.1464 299.788 82.5291 297.171C72.9468 299.7 62.7599 300.337 53.2046 297.437C52.5361 296.756 54.762 297.125 55.1152 297.022C46.3213 291.016 48.9475 278.365 49.7265 269.253C54.5703 238.029 56.2779 203.482 74.9927 176.838C83.0891 165.965 94.959 157.356 108.598 155.419L108.977 155.367L109.358 155.318C113.246 154.823 117.52 154.596 120.897 152.496C124.715 149.45 126.4 143.889 130.294 143.548ZM164.921 209.002C163.504 209.002 160.601 211.202 156.213 215.602L155.826 215.78C150.521 218.243 147.007 220.379 145.283 222.189L145.222 222.254C143.481 224.121 140.032 229.086 134.877 237.148L127.411 241.56H124.586L122.575 256.14L127.411 266.55L138.365 262.862L156.213 258.161L166.454 247.777L172.231 245.838C171.53 247.862 171.276 249.876 172.147 251.885C173.654 254.847 178.184 256.357 181.196 257.364C187.437 259.758 198.311 257.274 201.937 251.885C203.871 249.01 206.111 241.759 207.265 239.51L207.595 234.875C208.191 226.322 208.634 217.472 206.776 216.182C198.081 210.145 175.621 213.178 175.107 213.516C173.974 214.26 173.487 214.326 172.875 215.293L172.558 215.335L174.34 212.919L173.709 212.582C169.206 210.195 166.276 209.002 164.921 209.002ZM172.147 216.894C171.342 220.365 173.577 222.877 174.634 226.23L171.933 221.064L171.933 216.961C172.003 216.944 172.075 216.922 172.147 216.894Z" fill="#9DDADB"/>
<path fill-rule="evenodd" clip-rule="evenodd" d="M129.101 143.009C129.701 142.478 130.589 143.145 130.208 143.863C129.351 145.476 128.471 147.004 127.321 148.43C126.623 149.294 125.876 150.112 125.119 150.92C127.062 152.6 128.729 154.686 130.302 156.641C132.315 159.141 134.217 161.747 136.476 164.035C138.704 166.291 141.168 167.868 144.146 168.92L144.748 169.129C147.74 170.179 150.938 171.597 152.624 174.428C152.957 174.986 152.287 175.676 151.724 175.328C148.794 173.514 145.35 173.149 142.16 171.951C139.079 170.794 136.392 169.012 134.019 166.738C131.649 164.468 129.66 161.886 127.584 159.358C125.532 156.858 123.322 154.723 120.895 152.608C117.149 155.127 112.873 156.223 108.525 157.299L108.051 157.417C103.698 158.494 99.3681 159.745 95.2842 161.62C91.6835 163.274 88.142 165.248 85.2091 167.939C82.0957 170.795 79.6725 174.442 77.4546 178.009C72.4935 185.988 69.0056 194.73 65.9351 203.579C62.7415 212.782 60.0702 222.17 57.9137 231.669C56.8169 236.501 55.9261 241.367 55.194 246.268C54.8416 248.628 54.5286 250.993 54.2536 253.363C53.9601 255.895 53.8927 258.499 53.1157 260.932C52.7826 261.975 51.9961 262.408 51.2089 262.371L51.049 264.37C50.837 267.035 50.6393 269.7 50.5725 272.381C50.4618 276.84 50.512 281.285 50.8329 285.734L50.8783 286.34C51.1304 289.587 51.6939 293.235 54.1368 295.613C56.6668 298.075 60.5574 298.849 63.9673 298.894C71.9093 298.997 79.5542 295.247 86.5821 291.957C93.82 288.568 100.86 284.807 107.732 280.728C111.231 278.651 114.693 276.505 118.11 274.295C119.787 273.211 121.452 272.108 123.105 270.988C124.052 270.346 124.949 269.643 125.912 269.073C125.44 268.634 125.229 267.943 125.625 267.34C122.839 264.923 121.68 260.61 121.544 257.121C121.434 254.304 121.849 251.495 122.177 248.705C122.342 247.298 122.546 245.894 122.758 244.493C122.841 243.94 122.905 243.348 123.003 242.764C115.481 246.895 107.747 250.574 99.8094 253.843C95.7406 255.518 91.6196 257.025 87.4417 258.405L86.595 258.684C82.6364 259.979 78.5832 261.202 74.4908 261.942C74.272 261.982 74.0943 261.659 74.3279 261.556C78.316 259.797 82.4423 258.314 86.4903 256.694L87.1555 256.424C87.0791 256.419 86.9999 256.409 86.9172 256.389C84.5431 255.816 82.1876 254.934 79.8592 254.191C77.6982 253.501 75.2703 253.068 73.2504 252.027C73.095 251.947 73.182 251.731 73.3334 251.721C75.6037 251.564 78.0682 252.225 80.2941 252.614L81.1303 252.76C82.5311 253.007 83.963 253.272 85.3569 253.619C85.4073 253.152 85.6682 252.683 86.0394 252.408C90.1241 249.385 89.7093 243.279 90.1461 238.777L90.4701 235.434C91.0399 229.584 91.6427 223.734 92.5585 217.928C92.6074 217.618 93.0873 217.707 93.0894 217.999C93.1366 225.197 92.5929 232.362 92.3204 239.548L92.2782 240.727C92.1276 245.162 92.0095 249.766 89.215 253.178C89.6057 252.95 90.1341 252.95 90.4506 253.326C90.8396 253.789 91.0642 254.308 91.0572 254.818C93.5824 253.76 96.0965 252.674 98.5984 251.567C106.642 248.005 114.517 244.02 122.184 239.707C123.009 239.243 123.793 239.608 124.201 240.22L124.26 240.211C124.27 240.21 124.28 240.209 124.29 240.209L124.349 240.206C124.351 240.206 124.353 240.207 124.355 240.207C125.434 239.614 126.905 240.036 127.831 240.9C127.858 240.927 127.881 240.955 127.906 240.982C129.078 240.456 130.173 239.746 131.166 238.846C133.2 237.004 134.922 234.727 136.423 232.444C139.188 228.238 141.536 223.561 145.271 220.099C148.305 217.286 152.068 215.535 156.014 214.436C155.998 214.321 156.042 214.198 156.122 214.116C156.324 213.908 156.469 213.837 156.731 213.963C156.752 213.973 156.764 213.987 156.773 214.002L157.158 213.344C157.368 212.987 157.584 212.628 157.659 212.534C158.107 211.97 158.568 211.41 159.036 210.862C159.83 209.935 160.735 209.019 161.782 208.376C164.075 206.968 166.486 207.765 168.844 208.534C170.269 209 171.688 209.48 173.111 209.952L173.257 210C174.318 210.34 175.559 210.638 176.033 211.761C176.22 212.205 176.25 212.667 176.162 213.114C186.234 210.554 197.42 211.73 207.248 214.735C207.626 214.85 208.002 215.16 208.082 215.568C209.208 221.339 209.709 227.258 209.2 233.128C208.76 238.195 207.637 243.16 205.52 247.799L205.4 248.061C203.41 252.36 200.257 257.66 195.442 259.007C192.534 259.821 189.318 259.341 186.352 259.192C183.47 259.047 180.524 259.026 177.67 258.573C175.127 258.17 172.899 257.031 171.328 254.965C169.973 253.182 169.259 251.028 168.674 248.885C168.407 248.97 168.141 249.061 167.879 249.163C166.774 249.594 165.839 250.29 164.992 251.109C163.206 252.838 161.82 254.939 159.95 256.589C158.258 258.083 156.329 259.245 154.261 260.138C149.975 261.989 145.377 262.728 140.843 263.709L140.526 263.778C137.113 264.527 133.629 265.446 130.617 267.222C130.558 267.744 130.32 268.236 129.938 268.558C130.469 269.057 130.694 269.847 130.227 270.588C128.923 272.657 126.676 273.834 124.659 275.157L124.528 275.243C122.544 276.558 120.543 277.846 118.525 279.108C114.423 281.675 110.236 284.1 105.989 286.419C99.1593 290.148 92.1825 293.665 85.0795 296.856C85.5058 298.952 85.35 301.114 85.6705 303.224L85.7196 303.525C85.8565 304.308 85.6716 304.963 85.1318 305.475L85.0747 305.527L85.0757 305.52L85.0251 305.567L85.0082 305.581L85.0138 305.577C84.9516 305.633 84.8874 305.686 84.822 305.732L84.7386 305.785C84.2188 306.101 83.5494 306.098 83.0171 305.819L82.9563 305.785L82.8541 305.727C82.1508 305.323 81.6658 304.321 81.9576 303.525C82.6746 301.569 82.9456 299.482 83.6077 297.513L83.0824 297.748L82.39 298.049C74.9015 301.286 66.5833 304.011 58.424 301.805C54.8188 300.83 51.4492 298.767 49.6454 295.405C47.8704 292.097 47.6195 288.256 47.5253 284.577C47.409 280.035 47.6526 275.424 48.2519 270.921C48.6541 267.899 49.1406 264.819 49.891 261.828C49.5051 261.488 49.2213 261 49.1464 260.395C48.7922 257.538 49.4121 254.568 49.7915 251.726C50.1622 248.951 50.5718 246.182 51.0349 243.421C51.9701 237.845 53.0566 232.281 54.3215 226.771C56.5728 216.964 59.5456 207.332 63.1247 197.929L63.4381 197.11C66.7454 188.516 70.5747 180.105 75.9069 172.556C78.4577 168.944 81.154 165.669 84.7582 163.066C88.1348 160.627 91.9434 158.871 95.8739 157.529C99.8087 156.186 103.853 155.286 107.969 154.726C112.149 154.158 116.561 153.809 120.46 152.095C119.966 151.212 120.39 150.019 121.22 149.471C124.013 147.626 126.597 145.226 129.101 143.009ZM218.529 223.221C218.646 223.043 218.924 223.156 218.873 223.366C217.514 228.929 216.239 234.503 215.406 240.173C213.903 250.405 214.179 260.771 214.302 271.079L214.308 271.612C214.371 277.165 214.459 282.717 214.643 288.268C214.736 291.073 214.919 293.905 214.819 296.712C214.765 298.234 214.359 299.674 214.215 301.178C214.089 302.494 214.201 303.829 214.264 305.146C214.306 306.022 213.013 305.985 212.925 305.146L212.812 304.062C212.666 302.69 212.486 301.326 212.036 300.012C211.495 298.432 211.235 296.881 211.047 295.222C210.76 292.68 210.632 290.113 210.521 287.553L210.445 285.783C209.981 275.086 209.998 264.339 210.748 253.653L210.803 252.89C211.546 242.789 212.835 231.875 218.529 223.221ZM189.567 159.56C189.212 159.414 189.336 158.878 189.729 158.971L190.444 159.142C195.681 160.395 200.823 161.754 205.711 164.086C210.602 166.42 214.743 169.905 218.034 174.19C224.43 182.519 227.088 192.641 229.186 202.754C231.518 213.991 233.641 225.269 235.994 236.503L236.43 238.596C238.607 249.058 240.662 259.527 242.176 270.114L242.285 270.882C243.812 281.768 244.73 293.032 243.064 303.947C242.734 306.107 239.139 305.569 239.279 303.435C239.685 297.267 239.976 291.132 239.695 284.95C239.414 278.768 238.834 272.612 237.969 266.483C237.241 261.325 236.156 256.232 235.196 251.115L235.045 250.307C234.241 245.955 233.412 241.608 232.585 237.26L231.349 230.75C229.497 221.003 227.608 211.247 225.474 201.561L225.347 200.991C223.259 191.672 220.18 181.911 213.915 174.511C207.558 167.001 198.457 163.219 189.567 159.56ZM166.467 258.402C166.619 258.062 167.154 258.099 167.319 258.402C167.963 259.59 168.035 261.107 168.156 262.448L168.169 262.586C168.324 264.222 168.461 265.864 168.545 267.506C168.704 270.622 168.78 273.734 168.771 276.854C168.761 280.051 168.696 283.244 168.524 286.437L168.477 287.292C168.32 290.067 168.056 293.161 166.737 295.586C166.257 296.468 164.953 296.209 164.675 295.317C163.765 292.398 164.233 288.936 164.466 285.946L164.647 283.612C164.827 281.279 164.998 278.944 165.133 276.608C165.319 273.411 165.473 270.212 165.62 267.014C165.668 265.975 165.72 264.936 165.775 263.898L165.859 262.34C165.931 261.037 165.925 259.607 166.467 258.402ZM64.1696 262.54L64.5723 262.152C65.8087 260.942 67.3712 259.08 69.1989 259.196C69.9278 259.242 70.3922 259.846 70.2411 260.563C69.9183 262.095 68.3545 262.89 67.2289 263.825C65.9958 264.85 64.8336 265.944 63.6736 267.05C62.6446 268.03 61.6549 269.038 60.689 270.077L60.3279 270.469C59.9817 270.846 57.5161 273.075 57.7827 273.653L57.7972 273.679C57.8714 273.79 57.7478 273.942 57.6248 273.903C56.5601 273.567 56.6265 272.655 57.029 271.731C57.8025 269.956 59.1569 268.313 60.3397 266.797C61.5192 265.285 62.7959 263.876 64.1696 262.54ZM170.325 218.015C169.501 216.07 166.468 216.111 164.747 216.228C160.41 216.52 155.719 217.617 151.861 219.642C147.861 221.742 145.167 225.107 142.756 228.827L142.643 229.002C140.294 232.652 138.031 236.973 134.351 239.483C132.477 240.762 130.289 241.929 128.015 242.435C127.859 242.71 127.606 242.927 127.275 243.006L127.12 243.041C126.473 243.184 125.467 243.342 124.598 243.247C124.603 243.672 124.599 244.094 124.61 244.496C124.64 245.65 124.653 246.808 124.653 247.963C124.654 250.381 124.524 252.804 124.625 255.222C124.714 257.361 125.017 259.596 126.044 261.508C126.798 262.911 127.793 263.839 128.993 264.725C131.947 262.926 135.288 261.83 138.678 261.005C142.778 260.008 146.976 259.342 150.982 257.99C152.911 257.339 154.765 256.487 156.444 255.33C158.227 254.102 159.589 252.439 160.99 250.813L161.209 250.561C162.639 248.922 164.199 247.354 166.22 246.465C167.96 245.7 170.254 245.563 171.775 244.379C172.571 243.759 172.637 242.86 172.721 241.939C171.747 242.079 170.715 241.855 169.744 241.742L169.241 241.683C168.322 241.574 167.425 241.454 166.521 241.22C166.353 241.177 166.353 240.924 166.521 240.88C167.589 240.605 168.648 240.487 169.744 240.359L170.001 240.327C170.992 240.197 172.034 240.001 173.006 240.219C173.18 239.556 173.432 238.922 173.786 238.288C174.282 237.397 175.22 236.387 175.347 235.346C175.385 235.035 175.313 234.669 175.166 234.394L175.115 234.3C175.054 234.19 174.981 234.078 174.874 234.01C174.862 234.023 174.837 234.039 174.783 234.056C174.035 234.292 173.382 233.926 173.036 233.361C171.565 233.544 169.96 233.482 168.581 233.543L167.187 233.611C165.697 233.679 164.14 233.709 162.74 233.408C162.544 233.366 162.485 233.041 162.681 232.957C164.402 232.222 166.49 231.987 168.332 231.704C169.362 231.546 170.398 231.426 171.43 231.287C172.118 231.195 172.847 231.041 173.559 231.005C175.344 228.784 174.382 225.28 171.898 224.323C170.993 224.721 170.179 224.49 169.19 224.405C168.203 224.32 167.214 224.263 166.223 224.267C164.237 224.276 162.132 224.798 160.166 224.573C159.846 224.536 159.549 224.111 159.867 223.851C161.372 222.624 163.53 222.223 165.44 221.962L165.836 221.909C166.477 221.825 167.256 221.702 168.064 221.63C168.247 221.273 168.575 221.004 169.067 220.937C169.213 220.917 169.36 220.905 169.507 220.893L169.505 220.878C170.706 220.821 170.654 218.793 170.325 218.015ZM88.0984 255.946C88.0772 255.978 88.054 256.01 88.0293 256.04L87.9911 256.084L88.1886 256.003L88.0984 255.946ZM191.283 213.67C186.228 213.127 181.166 213.241 176.095 213.387C175.69 214.713 174.278 215.842 172.91 215.885C173.981 217.514 174.092 219.72 173.341 221.448C174.936 222.082 176.31 223.222 177.144 224.845C178.3 227.095 178.149 229.599 177.006 231.679C177.982 232.561 178.557 233.995 178.5 235.346C178.435 236.853 177.537 238.14 176.79 239.387C175.983 240.736 175.956 241.924 175.708 243.435C175.346 245.646 173.853 246.988 171.933 247.825L172.035 248.227C172.53 250.152 173.146 252.184 174.561 253.593C176.381 255.404 179.205 255.387 181.61 255.502L181.726 255.508C183.928 255.618 186.129 255.747 188.33 255.871L189.981 255.964C192.515 256.103 194.949 256.12 197.018 254.445C200.396 251.712 202.712 247.188 204.178 243.184C207.254 234.778 207.291 225.554 205.879 216.8C201.143 215.274 196.229 214.201 191.283 213.67ZM149.242 227.615L149.279 227.617C150.32 227.736 151.035 228.578 151.29 229.578C151.66 231.03 151.478 232.343 152.368 233.654C153.284 235.002 153.847 236.082 153.98 237.747C154.034 238.432 154.009 239.116 154.162 239.787L154.273 240.257C154.39 240.758 154.486 241.241 154.428 241.779C154.375 242.269 154.135 242.652 153.643 242.809C152.038 243.322 150.799 242.14 150.384 240.646C150.026 239.354 150.504 237.816 149.999 236.604C149.719 235.932 149.203 235.369 148.911 234.693C148.622 234.022 148.477 233.322 148.431 232.593C148.343 231.214 149.563 229.558 148.882 228.308C148.737 228.042 148.901 227.607 149.242 227.615ZM127.925 213.387C129.011 213.167 130.244 212.661 131.316 213.081C131.867 213.298 132.139 213.969 131.674 214.436C130.865 215.245 129.691 215.29 128.603 215.481L128.507 215.498C127.22 215.736 125.93 215.962 124.639 216.176C122.211 216.578 119.776 216.933 117.333 217.236C114.823 217.546 112.307 217.822 109.787 218.03L108.811 218.11C106.683 218.28 104.468 218.409 102.379 218.083C102.076 218.035 102.125 217.594 102.379 217.516C104.667 216.824 107.177 216.639 109.543 216.346C112.058 216.034 114.568 215.705 117.072 215.314C119.573 214.924 122.069 214.505 124.557 214.042C125.681 213.833 126.804 213.615 127.925 213.387ZM167.138 211.165C166.184 210.828 165.135 210.328 164.102 210.495C162.32 210.784 160.734 212.519 159.323 213.662L160.031 213.524C163.655 212.828 168.454 212.078 171.497 214.381C171.504 214.367 171.51 214.354 171.519 214.341C171.765 213.968 172.049 213.677 172.36 213.358C172.39 213.33 172.418 213.302 172.446 213.272L172.614 213.094L172.231 212.961C171.41 212.671 170.438 212.297 170.284 212.242L170.273 212.238C169.227 211.884 168.179 211.534 167.138 211.165ZM137.362 135.248C137.213 133.331 140.198 133.347 140.346 135.248C140.668 139.399 139.734 143.51 137.722 147.149C137.707 147.176 137.691 147.199 137.676 147.224C138.934 147.878 140.206 148.506 141.507 149.067C143.171 149.785 144.866 150.439 146.592 150.994C148.153 151.495 150.076 151.694 151.388 152.738C154.156 154.94 153.116 159.511 152.584 162.473L152.501 162.941C152.236 164.466 152.044 166.03 152.687 167.493C153.374 169.056 154.762 170.215 156.001 171.333L156.252 171.56C157.349 172.559 158.603 173.773 159.408 175.128C160.143 173.609 161.145 172.369 162.204 170.972C162.96 169.975 162.422 169.646 161.879 168.672C161.356 167.735 161.101 166.736 161.265 165.666C161.566 163.691 163.146 162.265 164.718 161.193C166.574 159.928 168.646 158.99 170.565 157.813C174.509 155.395 178.349 152.63 181.809 149.559C181.905 149.475 182.07 149.586 181.994 149.702C179.26 153.857 176.056 157.447 172.117 160.494C170.52 161.73 168.842 162.755 167.153 163.832L166.667 164.144C165.989 164.583 165.143 165.17 164.837 165.917C164.528 166.669 165.186 167.236 165.54 167.859C166.665 169.837 166.122 171.682 164.789 173.359L164.727 173.436C163.402 175.068 162.398 176.585 161.918 178.67C160.886 183.148 162.323 187.812 163.828 192.016L163.887 192.182C164.701 194.448 165.566 196.697 166.273 198.999L166.468 199.636C167.108 201.754 167.633 203.843 166.914 206.021C166.67 206.762 165.659 206.937 165.239 206.24C163.758 203.781 163.389 200.823 162.461 198.12C161.556 195.486 160.517 192.9 159.643 190.255C158.518 186.849 157.764 183.184 158.173 179.612C158.161 179.591 158.148 179.571 158.138 179.549L157.851 178.923C157.07 177.227 156.316 175.746 154.895 174.395C153.413 172.985 151.805 171.737 150.639 170.03C148.106 166.322 149.673 162.198 149.979 158.144L150.014 157.647C150.069 156.805 150.1 155.661 149.549 155.079C148.931 154.423 147.479 154.256 146.658 153.965C144.536 153.215 142.445 152.34 140.454 151.29C138.558 150.291 136.722 149.187 135.012 147.893L134.145 147.242C132.778 146.211 131.36 145.085 130.443 143.681C130.338 143.519 130.517 143.259 130.709 143.336C132.239 143.957 133.637 144.943 135.068 145.802C135.09 145.75 135.116 145.697 135.145 145.644C136.916 142.441 137.645 138.892 137.362 135.248ZM186.232 157.195C186.841 155.524 189.619 155.653 189.509 157.638C189.424 159.163 188.776 160.54 188.184 161.924L188.12 162.072C187.509 163.515 186.803 164.869 185.957 166.191C184.343 168.719 182.451 171.065 180.431 173.278C178.599 175.285 176.195 176.512 173.425 176.308C172.257 176.222 171.079 175.926 170.056 175.343C168.841 174.651 167.522 172.572 165.972 173.075C165.822 173.124 165.682 172.904 165.812 172.8C167.601 171.36 169.632 173.593 171.345 174.131C173.927 174.942 176.576 174.046 178.237 171.96C179.972 169.783 181.568 167.344 183.026 164.974C183.767 163.77 184.442 162.52 185.025 161.233C185.614 159.933 185.748 158.52 186.232 157.195ZM182.071 146.914C181.996 146.684 182.282 146.464 182.485 146.596C183.661 147.361 184.68 148.372 185.764 149.258C186.968 150.24 188.18 151.203 189.411 152.151C191.205 153.534 189.124 156.079 187.544 154.569C185.383 152.503 183.016 149.802 182.071 146.914ZM175.616 138.829C176.093 136.988 178.918 137.747 178.507 139.566L178.493 139.622C177.714 142.627 178.824 145.686 181.195 147.634L181.282 147.705C182.782 148.904 180.657 151.002 179.172 149.814C175.93 147.22 174.581 142.816 175.616 138.829Z" fill="black"/>
<path fill-rule="evenodd" clip-rule="evenodd" d="M199.938 80.2275C199.009 72.8077 196.093 64.93 193.026 58.0127C186.13 43.3877 170.341 41.3741 156.187 38.3587C142.22 36.3222 127.43 34.4834 113.673 38.5466C105.94 40.444 102.919 49.6686 104.14 56.948C104.836 61.4841 106.898 65.7773 108.656 69.9812C112.15 78.6146 114.367 87.8574 114.371 97.2046C114.131 103.313 113.27 110.285 120.279 112.872C126.949 116.194 127.512 125.199 135.864 130.308C139.241 137.158 148.439 137.761 155.06 139.35C159.245 140.153 163.476 140.743 167.72 141.124C180.007 142.701 189.836 139.135 196.268 128.173C200.572 121.502 203.777 113.799 202.985 105.714C202.197 97.1996 200.883 88.7301 199.938 80.2275Z" fill="#EDB98A"/>
<path fill-rule="evenodd" clip-rule="evenodd" d="M156.293 20.5844C156.994 19.7883 158.075 20.0613 158.731 20.6908C159.158 20.8168 159.571 21.0042 159.962 21.2522C160.845 21.1387 161.77 21.1387 162.636 21.1705C162.846 21.0525 163.072 20.9476 163.317 20.8574C165.067 20.2164 166.618 20.542 167.897 21.4002C168.513 20.8166 169.29 20.4504 170.283 20.5057C171.17 20.5553 171.802 20.9731 172.343 21.5235C172.883 20.7437 173.756 20.1873 174.843 20.1099C176.363 20.0017 177.824 20.6122 179.035 21.5573C179.741 20.7467 180.703 20.2808 181.775 20.2763C182.48 20.148 183.225 20.1986 183.897 20.402C184.873 20.6973 185.731 21.2507 186.414 21.9688C187.494 20.9328 188.816 20.1873 190.341 20.2961C192.314 20.4388 193.95 21.8919 194.71 23.6804C196.046 24.2162 197.279 24.9805 198.309 26.0701C198.364 26.1274 198.417 26.1876 198.472 26.2479C199.027 26.4531 199.55 26.7439 200.01 27.1269C201.468 28.342 201.793 30.1005 201.311 31.8236C201.378 32.0994 201.436 32.3799 201.488 32.6602C202.854 32.8681 204.094 33.6574 204.8 34.9424C205.765 36.7059 205.575 39.0301 204.529 40.7137C204.08 41.4378 203.51 42.048 202.869 42.5816C203.593 44.2298 203.246 46.1966 202.077 47.5297C201.793 47.9894 201.443 48.4042 201.05 48.7797C201.484 50.4838 200.712 52.242 199.172 53.1525L199.04 53.4828C199.018 53.5377 198.995 53.5923 198.972 53.6464C198.955 53.7166 198.934 53.7845 198.913 53.8529C198.877 54.4575 198.678 55.0509 198.283 55.61C197.475 56.7558 196.474 57.503 195.942 58.8406L195.889 58.9811C195.661 59.6141 194.924 60.0607 194.295 59.8653C197.784 67.0396 199.612 75.0225 200.868 82.8457C201.494 86.7487 201.977 90.665 202.369 94.5965L202.753 98.5115C203.091 101.991 203.392 105.483 203.394 108.974C203.399 116.872 201.143 124.47 196.301 130.755C191.721 136.696 185.241 141.002 177.92 142.698C170.362 144.446 161.496 143.757 154.718 139.754C152.72 138.577 154.47 135.747 156.504 136.694C160.353 138.487 164.265 139.82 168.531 140.118C172.691 140.411 176.86 139.89 180.804 138.527C187.33 136.27 192.882 131.544 196.451 125.657C198.209 122.756 199.482 119.608 200.16 116.281C201.004 112.135 200.877 107.849 200.567 103.65L200.545 103.364C199.933 95.2725 199.125 87.1316 197.819 79.1212C196.665 72.0376 194.891 65.0976 192.587 58.3111C191.684 57.5155 190.675 56.8572 189.595 56.3572C181.685 56.0263 173.76 56.123 165.86 56.6696C159.123 57.1388 152.418 57.9326 145.764 59.0895L145.051 59.2148C143.578 59.4776 141.942 59.6279 140.554 60.2218C139.364 60.7328 138.881 61.7147 138.581 62.9218C137.826 65.9753 137.711 69.3171 137.583 72.4482C137.458 75.5089 137.741 78.5952 137.495 81.6459C137.288 84.1984 136.635 86.811 134.747 88.6573C133.759 89.624 132.543 90.1525 131.403 90.8864C130.665 91.3601 130.352 91.8483 130.447 92.725C130.652 94.6438 132.196 97.061 130.462 98.7042C130.157 98.9923 129.63 99.0298 129.329 98.7042C128.614 97.9254 127.626 97.3315 126.778 96.7028C126.423 96.4425 126.718 95.9365 127.121 96.1166C127.651 96.3549 128.191 96.6354 128.744 96.8809C127.524 95.8739 125.788 95.3802 124.342 95.0871C123.614 94.9419 122.849 94.8993 122.091 94.9672C121.531 95.2349 120.958 95.4832 120.386 95.7259C119.658 96.0317 118.922 96.3095 118.182 96.5728C115.613 98.6691 114.388 102.079 114.923 105.413C115.216 107.253 116.064 109.255 117.662 110.33C119.555 111.602 122.091 111.056 124.137 112C126.053 112.884 127.218 114.671 128.091 116.519L128.455 117.289C129.265 118.993 130.098 120.652 131.205 122.203C132.486 123.999 134.054 125.612 135.765 126.997C136.595 127.668 137.479 128.271 138.393 128.82L138.643 128.969C139.569 129.512 140.232 130.03 140.294 131.18C140.314 131.581 140.062 131.947 139.736 132.155C138.336 133.044 136.943 131.932 135.777 131.155C134.519 130.318 133.316 129.377 132.203 128.35C130.087 126.401 128.256 124.087 126.848 121.574C125.775 119.66 125.165 116.968 123.469 115.485C122.434 114.58 120.971 114.573 119.678 114.407C118.475 114.252 117.337 114.002 116.266 113.408C111.912 110.986 110.681 105.122 111.714 100.591C111.889 99.8264 112.134 99.0824 112.437 98.366C110.816 98.6366 108.996 96.9585 109.653 95.265C109.703 95.1372 109.761 95.0173 109.816 94.8943C108.748 94.1904 107.905 93.1236 107.505 91.7281C107.3 91.0067 107.27 90.2777 107.377 89.5739C106.86 89.2259 106.432 88.7473 106.157 88.1586C105.296 87.7603 104.534 87.1644 104.078 86.3127C103.448 85.1377 103.528 84.0556 104.008 83.0812C103.941 82.9587 103.876 82.8335 103.813 82.7055C102.05 81.586 100.82 79.657 100.96 77.5178C101.005 76.8089 101.18 76.1702 101.45 75.5943C101.427 75.5217 101.405 75.4463 101.385 75.3736C99.9091 74.6222 98.6886 73.3875 98.2534 71.7393C97.8182 70.0808 98.331 68.4276 99.3564 67.1551C97.8558 66.0557 96.9529 64.5202 97.5006 62.1979C97.7232 61.2538 98.1709 60.3944 98.7762 59.6705C98.7737 59.6482 98.7687 59.6256 98.7637 59.6028L98.6233 59.4938C96.7707 58.0297 95.7057 56.1639 96.8428 53.8691C97.353 52.8374 98.0809 52.1182 98.9362 51.6448L98.9787 51.5095C98.366 50.1945 98.1584 48.7341 98.5811 47.1986C98.9262 45.9339 99.7441 44.9267 100.79 44.2581C100.72 43.6918 100.73 43.0883 100.842 42.4343C101.03 41.3299 101.577 40.3655 102.378 39.6817C102.408 39.5361 102.445 39.3936 102.488 39.2506C102.758 38.3766 103.263 37.4273 103.848 36.7231C104.331 36.1395 104.871 35.9266 105.532 35.904C105.492 35.3657 105.519 34.8194 105.629 34.2658C105.967 32.5578 107.052 30.9519 108.66 30.2229C109.321 29.9249 110.016 29.8374 110.686 29.9098C111.257 28.7075 112.37 27.836 113.738 27.6482C114.27 27.573 114.766 27.5778 115.221 27.6457C115.478 27.5252 115.746 27.4177 116.026 27.3198C116.211 27.2546 116.399 27.1945 116.586 27.1347C117.219 26.3481 118.052 25.7191 119.025 25.3412C120.148 24.9028 121.291 24.9476 122.304 25.3159L122.626 25.2482C123.132 24.3715 123.937 23.6927 125.175 23.3846C126.581 23.0364 128.024 23.5224 129.129 24.4068C129.134 24.4068 129.139 24.4068 129.147 24.4041C129.725 23.109 130.713 22.2073 132.371 22.2699C133.404 22.31 134.337 22.8237 135.057 23.5552C135.457 23.5048 135.857 23.4597 136.26 23.4149C136.685 22.9162 137.158 22.4505 137.681 22.0322C138.536 21.3456 139.649 21.401 140.279 22.3676C140.417 22.578 140.544 22.7909 140.672 23.0038L141.25 22.9638C141.93 22.0445 142.858 21.4233 144.128 21.3734C145.294 21.3256 146.124 21.8969 146.757 22.6957C147.272 22.6832 147.79 22.6734 148.308 22.6657C148.91 21.9668 149.621 21.3506 150.431 20.8396C151.051 20.4489 151.967 20.5819 152.469 21.1029C152.809 21.4571 153.125 21.8268 153.419 22.2095C154.177 21.3589 155.2 20.7985 156.293 20.5844ZM119.483 100.127C120.651 99.4608 122.221 100.182 123.352 100.748C124.73 101.437 126.098 102.477 126.941 103.779C128.089 105.553 125.39 106.986 124.182 105.395C123.439 104.416 122.847 103.429 121.946 102.572C121.123 101.785 119.93 101.259 119.458 100.222C119.44 100.187 119.445 100.147 119.483 100.127ZM120.303 57.0803L120.325 57.0178C120.657 56.1078 119.208 55.7155 118.878 56.618C118.379 57.9859 118.954 59.4731 120.303 60.0637C120.677 60.2276 121.105 60.1707 121.33 59.7942C121.519 59.4773 121.431 58.9283 121.061 58.7662C120.302 58.4338 120.047 57.847 120.303 57.0803ZM107.815 54.5357C108.54 53.8944 107.476 52.8346 106.754 53.4731C106.08 54.0688 105.58 54.8778 105.71 55.8084C105.842 56.7568 106.556 57.4263 107.338 57.8995C108.166 58.4012 108.921 57.1022 108.095 56.6017L108.002 56.5449C107.656 56.3292 107.25 56.0326 107.191 55.6083C107.129 55.1574 107.51 54.8055 107.815 54.5357ZM111.933 43.2206L111.985 43.1828C112.764 42.6257 112.016 41.3216 111.227 41.885C110.504 42.4017 109.925 43.073 109.864 43.9988C109.804 44.8986 110.262 45.6786 110.859 46.3116C111.524 47.0157 112.584 45.9517 111.921 45.249C111.274 44.5642 111.147 43.817 111.933 43.2206Z" fill="black"/>
<path fill-rule="evenodd" clip-rule="evenodd" d="M169.344 112.848C170.746 110.543 173.735 116.189 174.052 117.16C174.334 118.02 174.519 118.901 174.614 119.793C175.701 120.036 176.829 120.037 177.943 119.823C179.599 119.506 180.611 118.616 182.049 117.853C183.043 117.325 184.295 117.944 184.812 118.819C185.42 119.849 185.033 120.918 184.233 121.686C182.717 123.143 179.734 123.477 177.755 123.09C176.621 122.869 175.582 122.444 174.664 121.826C174.658 121.942 174.654 122.057 174.645 122.172L174.628 122.372C174.475 123.987 174.031 126.018 172.776 127.069C170.717 128.793 168.176 125.477 170.177 123.755L170.239 123.703C171.482 122.699 171.754 120.005 171.687 118.521C171.643 117.553 171.466 116.572 171.16 115.65L171.097 115.466C171.005 115.205 170.001 112.734 169.638 113.049L169.621 113.066C169.471 113.245 169.229 113.037 169.344 112.848ZM180.539 99.8412C182.431 100.991 185.315 103.672 183.279 106.522C180.883 109.036 177.432 106.154 175.732 104.851C174.155 103.841 172.383 106.438 173.846 107.618C186.133 116.709 191.12 100.142 181.496 98.4893C180.437 98.3072 180.043 99.4855 180.539 99.8412ZM160.329 89.2137C162.178 88.8858 164.073 89.3454 165.604 90.427L165.72 90.5104C167.194 91.5883 168.844 93.4808 167.998 95.3386C167.658 96.0846 166.641 96.2016 165.996 95.8634C164.921 95.3003 164.727 93.9149 163.768 93.1481C162.982 92.5196 161.923 92.1384 160.911 92.2303C158.532 92.4462 157.069 94.7911 156.33 96.8118C156.235 97.0703 155.855 97.1707 155.707 96.8932C153.965 93.6388 157.049 89.7953 160.329 89.2137ZM189.957 87.9855C193.5 87.6937 197.647 91.3649 196.714 95.1027C196.267 96.8962 193.605 96.8448 193.132 95.1027C192.871 94.1441 192.897 93.2959 192.207 92.4998C191.637 91.8426 190.827 91.4608 189.957 91.5194C188.997 91.5841 188.112 92.0632 187.44 92.7368C186.832 93.345 186.469 94.235 185.84 94.7733C185.685 94.9055 185.478 94.9141 185.325 94.7733C184.242 93.7756 184.892 91.6985 185.579 90.657C186.561 89.1666 188.161 88.1336 189.957 87.9855ZM153.581 82.5844C155.854 80.5735 159.984 78.6315 163.05 79.6211C164.812 80.19 165.58 83.0278 163.613 83.9273C161.335 84.9688 158.708 84.545 156.39 85.6246C155.416 86.0783 154.5 86.6451 153.822 87.4765C153.288 88.1318 152.745 88.9939 151.972 89.3717C151.769 89.4711 151.494 89.4736 151.331 89.2893C149.638 87.375 152.103 83.8922 153.581 82.5844ZM186.05 79.5213C187.454 79.1273 189.013 79.1353 190.44 79.3828C191.867 79.6303 193.315 80.2212 194.48 81.0831L194.615 81.184C195.887 82.1416 197.404 83.5349 197.323 85.2312C197.255 86.6477 195.764 87.6059 194.476 86.8634C193.427 86.258 192.933 85.0451 192.045 84.2375C191.312 83.571 190.45 83.0455 189.532 82.6772C188.511 82.2682 187.489 82.0766 186.393 82.0583C185.55 82.0442 184.701 82.3208 183.874 82.4092C183.942 82.549 183.288 82.4839 182.913 82.3599C182.635 82.2416 182.634 81.8907 182.73 81.663C183.207 80.535 184.945 79.8309 186.05 79.5213Z" fill="black"/>
<path fill-rule="evenodd" clip-rule="evenodd" d="M202.97 101.367C199.927 104.51 194.847 105.411 190.799 103.726C180.403 99.3853 185.491 85.8464 193.509 82.2106C194.51 81.9611 195.848 81.3692 197.068 81.2349C197.178 81.1808 197.418 81.3374 197.709 81.1893C206.549 82.1757 208.562 95.8905 202.97 101.367ZM169.44 102.172C166.027 106.696 159.682 108.091 154.498 105.988C144.257 101.957 147.889 89.9517 154.896 85.245C169.698 79.6864 175.81 93.83 169.44 102.172ZM147.239 92.1475C147.229 92.143 147.22 92.1407 147.21 92.1362C147.264 92.1124 147.318 92.0886 147.372 92.0643C147.355 92.1101 147.336 92.1555 147.319 92.2013C147.292 92.183 147.269 92.1617 147.239 92.1475ZM210.016 87.2572C209.18 87.2589 207.973 87.3962 207.282 87.9756C205.576 82.2261 199.279 76.9049 193.803 80.785C189.491 82.171 186.291 85.2447 184.473 89.3312C181.194 87.3819 176.037 88.2143 173.194 90.7921C171.332 84.6423 166.749 82.4889 161.293 82.171C155.339 81.1963 149.405 86.9754 147.553 91.6114C146.013 91.4363 143.713 90.9466 142.264 91.8962C132.864 89.4324 116.428 88.074 114.517 89.4429C113.155 89.9652 112.408 93.178 114.31 93.3513C115.968 93.1161 114.116 90.9972 115.787 90.766C124.691 90.2144 133.334 92.0064 142.143 92.7584C142.93 93.8157 145.471 94.1694 146.827 93.7446C144.691 101.609 149.301 106.959 156.207 108.562C166.901 111.017 176.205 101.456 173.408 91.512C176.648 89.9013 180.374 89.9705 183.903 90.8189C178.006 112.509 212.959 111.536 207.5 88.7188C211.133 90.5248 211.922 87.6216 210.016 87.2572Z" fill="black"/>
<defs>
<clipPath id="clip0_1_835">
<rect width="294" height="33" fill="white" transform="translate(0 288)"/>
</clipPath>
</defs>
</svg>
