<svg width="296" height="322" viewBox="0 0 296 322" fill="none" xmlns="http://www.w3.org/2000/svg">
<g clip-path="url(#clip0_1_732)">
<path d="M147.892 322C229.018 322 294.783 314.657 294.783 305.599C294.783 296.541 229.018 289.198 147.892 289.198C66.7657 289.198 1 296.541 1 305.599C1 314.657 66.7657 322 147.892 322Z" fill="#F7859C"/>
</g>
<path fill-rule="evenodd" clip-rule="evenodd" d="M226.202 205.585C225.441 203.494 226.553 201.409 227.17 199.386C229.36 192.37 223.368 174.675 219.177 174.417C217.644 170.45 213.554 168.804 210.334 166.52C206.681 164.239 203.127 161.619 199.327 159.619C199.116 157.729 196.825 157.261 195.425 158.613C191.578 156.219 186.965 156.663 182.841 155.095C179.708 150.029 179.472 144.701 178.643 139.813C178.281 137.683 178.665 135.627 177.21 133.727C172.321 126.849 153.004 123.867 145.882 127.943C142.048 125.551 141.956 129.883 141.347 132.556C140.67 133.894 140.304 135.409 140.417 137.005C138.602 140.797 137.063 145.54 133.249 148.373C128.409 151.967 120.963 153.333 116.244 155.095C115.538 154.416 115.078 153.585 114.862 152.603C107.548 154.194 100.451 156.989 94.3231 161.355C87.3617 163.391 82.459 169.055 78.9138 175.128C78.5231 175.768 78.431 176.421 78.5452 177.021C67.6433 193.007 62.4401 212.145 61.7092 231.474C54.6986 235.683 65.0414 273.493 67.4492 281.343C67.4516 281.342 67.454 281.341 67.4564 281.34C69.0185 284.106 70.792 292 74.7012 291.39C77.3828 294.423 81.6561 293.826 85.2951 294.059C84.7024 296.334 84.9937 298.936 85.6991 301.183C86.5334 303.858 90.6277 303.949 91.2083 301.032C127.446 308.075 164.628 302.456 201.274 303.513C211.869 303.588 222.464 303.916 233.034 304.671C234.522 304.777 236.031 303.256 235.93 301.774C233.657 277.588 231.523 245.772 228.982 221.823C228.379 216.361 227.902 210.839 226.202 205.585Z" fill="#EDB98A"/>
<path fill-rule="evenodd" clip-rule="evenodd" d="M114.862 152.604C114.874 152.658 114.886 152.711 114.9 152.764L114.761 153.079C113.883 155.104 113.444 156.782 113.444 158.11C113.444 161.14 126.923 191.119 156.826 188.364C176.761 186.527 188.913 177.468 193.28 161.185L193.535 157.667C194.181 157.923 194.813 158.232 195.425 158.613C196.825 157.261 199.116 157.73 199.327 159.619C203.127 161.619 206.681 164.239 210.334 166.52L210.557 166.677C213.74 168.882 217.679 170.541 219.177 174.417L219.776 174.455C223.779 174.718 229.36 192.371 227.17 199.386C226.553 201.409 225.441 203.495 226.202 205.586C227.902 210.84 228.379 216.361 228.982 221.823C231.523 245.772 233.657 277.588 235.93 301.774C236.031 303.256 234.519 304.535 233.034 304.672C202.282 307.493 86.5334 305.313 85.6991 302.638C84.9937 300.391 84.7024 296.334 85.2952 294.06C81.6562 293.827 77.3828 294.423 74.7013 291.39C70.7921 292.001 69.0185 284.107 67.4565 281.34L67.4492 281.344C65.0415 273.494 54.6986 235.683 61.7093 231.474C62.4401 212.145 67.6433 193.007 78.5452 177.021C78.4359 176.447 78.5159 175.823 78.8665 175.209L78.9138 175.129C82.459 169.056 87.3617 163.392 94.3232 161.355C100.451 156.99 107.549 154.194 114.862 152.604ZM203.422 203.213C201.857 201.999 189.561 204.427 180.626 206.609C174.668 208.064 170.519 210.031 168.176 212.51L157.69 224.023L155.037 225.739C155.037 229.323 155.242 233.092 155.651 237.047C156.06 241.001 157.864 245.185 161.062 249.6C170.487 247.01 176.122 245.54 177.968 245.19C180.737 244.666 182.931 240.118 184.233 238.554C185.534 236.991 190.526 236.817 194.33 235.613C196.866 234.81 198.629 232.759 199.621 229.459C205.163 228.263 208.827 227.465 210.612 227.065C212.397 226.666 212.397 225.652 210.612 224.023L189.856 223.297C198.14 221.526 203.17 220.518 204.944 220.274C207.606 219.908 214.756 217.688 214.756 215.967C214.756 214.281 203.871 214.312 198.069 214.314L197.602 214.314C193.793 214.321 187.72 214.678 179.384 215.385L184.233 213.062C195.171 210.944 201.369 209.884 202.828 209.884C204.286 209.884 205.32 208.792 205.928 206.609C205.301 205.154 204.466 204.022 203.422 203.213Z" fill="#FFCF77"/>
<path fill-rule="evenodd" clip-rule="evenodd" d="M189.994 203.615L200.645 179.48C201.718 176.747 203.165 175.38 204.987 175.38C206.809 175.38 215.98 175.639 232.501 176.156C235.881 176.588 237.026 177.696 235.934 179.48C234.843 181.265 226.18 198.764 209.948 231.976H199.621V229.459L211.118 226.244C212.513 224.763 212.123 224.023 209.948 224.023C207.772 224.023 200.358 223.781 187.703 223.296L205.803 220.64L214.756 217.195L213.439 215.385L205.803 214.294L180.935 215.385L187.703 213.095L202.828 209.884C204.811 208.487 205.803 207.103 205.803 205.733C205.803 204.363 203.146 203.415 197.834 202.888L189.994 203.615Z" fill="white"/>
<path fill-rule="evenodd" clip-rule="evenodd" d="M141.945 129.436C142.048 129.152 142.472 129.19 142.48 129.508C142.647 136.308 140.955 144.618 135.515 149.212C132.723 151.57 129.031 152.649 125.641 153.889L125.258 154.03L119.268 156.262C117.68 156.854 115.966 157.765 114.563 156.928C115.698 159.745 116.651 162.64 118.034 165.354C119.756 168.734 121.837 171.826 124.385 174.638C134.476 185.779 150.448 189.177 164.781 185.913C172.161 184.232 179.343 181.046 184.378 175.235C188.205 170.819 190.404 164.891 190.922 159.044C190.77 159.068 190.611 159.067 190.448 159.031C188.635 158.635 186.804 157.663 185.208 156.709L185.055 156.617C183.519 155.693 181.919 154.633 180.817 153.197C180.088 152.245 179.34 150.219 178.574 147.116C178.262 145.367 177.968 141.883 178.018 140.115C178.023 139.949 178.763 139.85 178.842 140.024C179.525 141.524 179.746 144.822 180.274 146.384L180.38 146.696C180.944 148.327 181.427 150.313 182.595 151.632C184.789 154.108 188.098 155.156 191.051 156.398C191.264 153.599 195.732 153.665 195.675 156.583C195.672 156.742 195.665 156.899 195.66 157.057C196.012 157.251 196.351 157.473 196.668 157.686L196.977 157.896C198.147 158.692 199.326 159.449 200.571 160.124C202.983 161.432 205.537 162.469 208.008 163.656C210.508 164.857 212.846 166.288 215.029 168.001C216.055 168.805 217.038 169.661 217.97 170.572L218.223 170.821C219.111 171.705 220.266 172.694 220.772 173.856C220.883 174.113 221.441 174.708 221.744 174.728C226.44 175.036 231.125 175.471 235.791 176.123C236.999 176.292 237.476 176.915 237.03 177.922C235.495 181.383 229.488 195.205 227.891 198.915C228.078 201.64 227.826 204.848 227.994 207.574C228.24 211.552 228.562 215.529 228.948 219.495C230.329 233.685 232.423 247.806 234.315 261.934C235.262 269.004 236.125 276.086 236.978 283.168C237.408 286.747 237.773 290.33 238.054 293.924C238.171 295.422 238.278 296.921 238.371 298.42L238.452 299.75C238.563 301.424 238.819 303.022 237.784 304.459C237.315 305.11 236.243 305.477 235.626 304.737C234.85 303.806 234.561 303.111 234.487 301.889C234.43 300.953 234.417 300.013 234.374 299.076C234.282 297.046 234.166 295.016 234.031 292.988C233.76 288.934 233.451 284.88 233.093 280.832C231.838 266.638 229.454 252.551 227.868 238.393C227.068 231.255 226.5 224.103 226.199 216.926C226.049 213.342 225.994 209.758 226.03 206.17C226.043 204.83 226.107 203.496 226.198 202.166C223.822 207.567 221.323 212.916 218.711 218.194L218.092 219.444C216.436 222.78 214.736 226.128 212.747 229.273L212.405 229.809C211.599 231.087 210.497 233.101 209.028 233.504C208.004 233.785 206.753 233.587 205.703 233.567C204.661 233.547 203.618 233.543 202.577 233.501C201.409 233.454 200.295 233.3 199.167 232.996C198.979 232.945 198.802 232.89 198.64 232.821C197.503 234.682 195.571 236.099 193.596 236.925C192.014 237.587 190.356 238.04 188.695 238.46L188.109 238.607C186.328 239.051 184.291 239.262 183.287 240.982L183.054 241.381C182.307 242.65 181.591 243.764 180.355 244.674C179.025 245.653 177.449 246.269 175.879 246.749C174.272 247.239 172.627 247.615 170.995 248.017L170.55 248.128C169.473 248.398 168.386 248.645 167.315 248.939C166.858 249.064 166.393 249.193 165.945 249.347C165.42 249.527 165.038 249.809 164.624 250.116C164.252 251.416 162.661 252.123 161.353 252.032C160.666 251.984 160.05 251.751 159.489 251.409C158.511 252.243 157.433 252.99 156.435 253.762C155.038 254.843 153.636 255.916 152.225 256.98C149.317 259.173 146.388 261.336 143.427 263.457C138.172 267.222 132.804 270.814 127.344 274.273C125.067 275.715 122.775 277.155 120.461 278.561L120.708 278.652L121.197 278.838C122.356 279.27 123.646 279.969 123.87 281.32C124.048 282.392 123.45 283.131 122.392 283.262C121.134 283.417 120.156 282.529 119.373 281.68C119.027 281.306 118.64 280.959 118.309 280.573C118.174 280.416 118.071 280.235 117.979 280.045C115.695 281.391 113.387 282.692 111.042 283.909L110.455 284.211C104.64 287.186 98.98 290.445 93.1155 293.335C91.5857 294.089 89.7206 294.904 87.7764 295.461C88.2923 297.461 88.2843 299.657 88.2974 301.688C88.3097 303.666 85.1666 303.657 85.233 301.688L85.2649 300.737C85.3222 299.138 85.4157 297.478 85.7949 295.922C80.0667 296.872 74.3443 294.807 73.2789 294.187C72.1029 293.503 71.0354 292.408 70.1471 291.392C68.246 289.219 66.9268 286.613 65.7564 283.992C63.2493 278.379 61.4731 272.379 60.1745 266.378C55.3869 244.255 57.4462 220.576 65.2211 199.368C67.1636 194.069 69.4569 188.887 72.0849 183.893L72.4113 183.276C75.0337 178.337 77.9484 173.416 81.6507 169.213C85.507 164.836 90.2641 161.431 95.4435 158.788C97.9712 157.499 100.572 156.381 103.23 155.391C103.657 155.231 104.087 155.089 104.518 154.953C107.288 153.186 110.65 151.496 114.014 151.562C114.242 151.566 114.427 151.653 114.565 151.784C114.727 151.812 114.89 151.847 115.052 151.894C115.41 151.998 115.789 152.391 115.737 152.794L115.72 152.929C115.711 152.994 115.699 153.058 115.678 153.119C115.798 153.137 115.916 153.166 116.032 153.205C119.25 152.296 122.416 150.906 125.556 149.785L126.271 149.532C128.901 148.61 131.599 147.707 133.756 145.882C135.902 144.067 137.516 141.716 138.683 139.174C140.121 136.043 140.764 132.65 141.945 129.436ZM206.369 294.594C207.006 294.12 207.759 294.67 207.997 295.257C208.78 297.183 208.393 300.176 207.29 301.878C206.147 303.643 203.41 302.946 203.344 300.809C203.275 298.581 204.57 295.933 206.369 294.594ZM212.95 241.412C213.007 241.162 213.396 241.164 213.454 241.412C213.984 243.672 213.972 246.106 214.127 248.423L214.146 248.68C214.332 251.235 214.489 253.798 214.601 256.357C214.821 261.393 215.084 266.429 215.378 271.462C215.524 273.957 215.681 276.452 215.848 278.947C216.371 278.655 216.909 278.399 217.468 278.173C218.304 277.835 219.119 277.796 220.018 277.805C221.112 277.816 221.936 278.779 221.791 279.852C221.633 281.02 220.605 281.521 219.537 281.354C218.355 281.169 217.167 280.882 215.973 280.763C216.106 282.692 216.244 284.62 216.389 286.547C216.583 289.098 216.834 291.647 217.011 294.199C217.028 294.442 217.046 294.686 217.065 294.931C217.777 294.56 218.533 294.371 219.39 294.137L219.613 294.075C220.857 293.717 222.188 293.223 223.339 294.06C224.113 294.623 224.268 295.549 223.627 296.291C222.655 297.417 221.216 297.198 219.873 297.141L219.151 297.114C218.47 297.088 217.842 297.044 217.212 296.872C217.328 298.535 217.389 300.204 217.185 301.842C217.075 302.728 215.909 302.96 215.601 302.057C214.795 299.696 214.629 297.15 214.334 294.677C214.058 292.367 213.891 290.041 213.711 287.721L213.656 287.026C213.25 281.922 212.926 276.816 212.689 271.701C212.452 266.588 212.309 261.476 212.253 256.357C212.227 254.033 212.265 251.701 212.356 249.377L212.385 248.68C212.49 246.29 212.417 243.754 212.95 241.412ZM106.467 294.971C106.498 294.644 106.759 294.238 107.148 294.289C107.507 294.335 107.876 294.313 108.23 294.372C108.698 294.45 109.075 294.726 109.51 294.901C110.217 295.183 110.989 295.33 111.714 295.561C113.076 295.996 113.818 297.43 113.254 298.769C112.661 300.176 111.171 300.496 109.884 299.905C108.869 299.44 108.112 298.695 107.43 297.834L107.237 297.589C106.943 297.219 106.609 296.806 106.485 296.357C106.365 295.921 106.425 295.415 106.467 294.971ZM172.621 288.353C174.317 288.114 175.765 288.694 177.334 289.241L177.462 289.285C179.059 289.836 181.39 290.218 182.208 291.854C182.702 292.84 182.318 294.149 181.156 294.441C179.316 294.903 177.665 293.557 176.143 292.651L176.063 292.604C174.594 291.743 173.078 291.019 172.14 289.535C171.89 289.139 172.107 288.425 172.621 288.353ZM113.416 153.43C112.737 153.582 112.057 153.716 111.379 153.846C108.797 155.23 106.29 156.667 103.625 157.9C100.796 159.209 97.9782 160.561 95.2916 162.144C89.8638 165.342 85.3893 169.501 81.6919 174.599C75.3052 183.404 70.5544 193.559 67.1544 203.863C66.2808 206.51 65.4991 209.187 64.8075 211.886C66.0302 210.755 67.4779 210.059 69.1012 209.464C69.7892 209.211 70.6455 209.639 70.9942 210.234C71.151 210.502 71.2395 210.767 71.2232 211.081C71.1871 211.773 70.7364 212.561 69.9925 212.698C68.2582 213.017 66.5718 213.64 64.8996 214.188C64.6461 214.271 64.4282 214.239 64.2542 214.142C62.5941 221.176 61.5555 228.355 61.1876 235.578C60.8765 241.692 61.0684 247.855 61.7455 253.961C62.2657 253.727 62.7746 253.508 63.345 253.375C64.0849 253.203 64.8126 252.993 65.5342 252.757C67.6167 252.073 68.5666 255.512 66.4381 256.037C65.6459 256.232 64.8489 256.394 64.0417 256.512C63.3383 256.615 62.716 256.57 62.0527 256.462C62.5594 260.271 63.2515 264.053 64.1331 267.781L64.3276 268.597C65.4728 273.358 66.8074 278.164 68.7375 282.664C69.6842 284.871 70.9378 286.968 72.4855 288.808C73.2459 289.713 74.0899 290.489 75.0103 291.224C75.7765 291.836 78.3811 293.163 81.4658 293.163C84.5505 293.163 85.3855 292.871 86.9418 292.335C90.0196 291.276 92.9418 289.584 95.8282 288.077L96.1266 287.922C97.403 287.261 98.6744 286.591 99.9425 285.915C99.7823 284.621 100.063 283.535 100.736 282.341C101.465 281.048 103.269 281.692 103.403 283.014L103.407 283.064C103.428 283.362 103.478 283.666 103.54 283.969C112.019 279.322 120.318 274.351 128.486 269.17C133.747 265.832 138.952 262.395 144.081 258.858C146.645 257.09 149.187 255.289 151.703 253.454C153.022 252.492 154.334 251.523 155.64 250.546C156.184 250.138 156.718 249.711 157.263 249.301C157.13 249.135 157.001 248.97 156.876 248.806C154.84 246.14 153.519 242.961 152.861 239.682C152.464 237.703 152.272 235.649 152.213 233.632L152.188 232.755C152.147 231.277 152.137 229.731 152.409 228.299C152.039 228.502 151.66 228.702 151.283 228.916C149.929 229.683 148.574 230.449 147.217 231.211C144.499 232.736 141.773 234.243 139.012 235.69C134.081 238.274 129.102 240.732 123.988 242.935L121.5 244.008C117.182 245.866 112.828 247.691 108.338 249.072C105.805 249.851 102.008 250.815 99.4391 251.409C101.503 253.355 101.788 254.662 100.295 255.331C98.054 256.335 96.1978 252.485 96.1239 252.136C95.335 252.301 93.8141 252.583 91.5612 252.982C88.3498 253.602 85.2363 254.83 82.3658 256.401C81.368 256.947 81.0899 255.886 82.1472 255.147C85.2387 252.985 88.8447 251.762 92.5654 250.735L92.7482 250.685C94.1132 250.311 95.4757 249.921 96.8354 249.517C96.6859 248.976 96.5996 248.415 96.6169 247.795C96.6551 246.416 96.777 245.032 96.8502 243.654C97.0038 240.762 97.1999 237.879 97.4296 234.992C97.5178 233.879 97.6167 232.764 97.7298 231.65C97.0007 231.259 96.3719 230.74 95.559 230.484L95.4217 230.444C94.5522 230.21 94.8457 229.089 95.618 228.993C96.3176 228.907 97.0138 228.946 97.7034 229.095C97.8103 229.118 97.9114 229.144 98.0078 229.173C98.1345 228.141 98.2751 227.111 98.4348 226.088C98.8571 223.383 99.1559 220.533 100.035 217.934C100.1 217.742 100.386 217.673 100.492 217.875C101.771 220.309 101.815 223.294 101.959 226.005L101.977 226.328C102.147 229.285 102.157 232.271 102.102 235.232C102.046 238.284 101.941 241.327 101.805 244.376C101.75 245.604 101.752 246.877 101.543 248.051C109.153 245.576 116.63 242.614 123.796 239.106C128.851 236.632 133.863 234.058 138.817 231.388C141.299 230.05 143.793 228.734 146.273 227.392C147.142 226.921 148.01 226.449 148.878 225.976L150.179 225.266C151.397 224.601 152.414 223.94 153.832 223.893C154.255 223.879 154.635 224.077 154.904 224.377C155.666 223.836 156.547 223.504 157.472 223.512C158.864 221.589 160.277 219.681 161.747 217.815L162.832 216.434C164.711 214.05 166.701 211.63 169.097 209.816C170.167 209.007 171.343 208.399 172.57 207.898C172.281 207.827 171.998 207.685 171.747 207.452C170.575 206.365 170.414 204.346 170.176 202.83C169.929 201.257 170.024 199.85 170.268 198.282C170.363 197.673 171.371 197.546 171.618 198.106C172.136 199.286 172.686 200.416 173.158 201.609L173.297 201.969C173.804 203.312 174.883 204.725 174.812 206.182C174.793 206.581 174.659 206.929 174.452 207.208C175.482 206.866 176.526 206.561 177.555 206.243C180.791 205.243 184.041 204.271 187.34 203.494C188.218 203.288 189.1 203.096 189.986 202.92C190.451 200.715 191.127 198.551 191.925 196.426C191.17 196.039 190.681 195.39 190.03 194.813C189.422 194.272 189.003 193.614 188.484 192.993C188.011 192.429 188.277 191.409 189.126 191.442L189.367 191.452C190.247 191.493 191.1 191.584 191.898 191.995L192.182 192.141C192.572 192.344 192.999 192.576 193.379 192.85C193.876 191.706 194.393 190.573 194.915 189.451L195.593 188.001C197.351 184.226 199.103 180.308 201.31 176.793C202.29 175.231 203.596 174.255 205.469 174.104C207.399 173.948 209.405 174.149 211.337 174.218C213.577 174.298 215.816 174.393 218.053 174.511C217.48 173.91 216.956 173.241 216.38 172.664C215.424 171.708 214.414 170.801 213.352 169.963C211.25 168.305 208.94 166.939 206.539 165.762C204.139 164.585 201.667 163.559 199.414 162.105C197.988 161.185 196.713 160.027 195.55 158.775C194.818 166.675 191.005 174.014 185.276 179.529C179.325 185.256 171.102 188.402 163.058 189.74C154.853 191.106 146.289 190.605 138.44 187.752C134.393 186.28 130.512 184.179 127.05 181.543C127.012 181.772 126.966 181.999 126.876 182.212C126.756 182.498 126.608 182.742 126.439 182.993L126.137 183.435C125.947 183.712 125.753 183.987 125.537 184.245C125.014 184.868 124.272 185.141 123.474 185.138C121.945 185.133 120.787 183.633 121.199 182.15C121.457 181.218 122.01 180.657 122.874 180.293C123.147 180.177 123.425 180.081 123.705 179.985L123.915 179.914C124.198 179.817 124.479 179.725 124.77 179.671C123.13 178.224 121.61 176.651 120.248 174.952C115.976 169.626 111.763 162.167 113.191 155.094C113.216 154.972 113.325 154.896 113.443 154.877C113.526 154.38 113.79 153.9 114.152 153.577C113.908 153.513 113.663 153.464 113.416 153.43ZM157.771 275.724C158.617 275.253 159.491 276.372 158.803 277.062L157.777 278.089C156.824 279.047 155.897 280.015 155.082 281.106L154.884 281.373C153.783 282.871 152.61 284.607 150.806 285.166C148.625 285.843 146.529 283.185 147.792 281.244C148.895 279.547 151.02 278.907 152.852 278.205C154.585 277.541 156.151 276.625 157.771 275.724ZM87.3998 267.893C87.8968 267.242 89.1927 267.585 88.8533 268.506C87.7504 271.497 87.3009 275.575 84.5157 277.563C83.6171 278.203 82.2056 277.909 81.4658 277.169C80.6251 276.328 80.5915 275.144 81.0722 274.118C81.6586 272.866 83.1007 271.959 84.1117 271.006L84.2023 270.919C85.2899 269.862 86.4661 269.116 87.3998 267.893ZM203.809 271.336C204.696 270.953 207.008 270.209 207.694 271.09C207.726 271.122 207.753 271.157 207.775 271.196C207.943 271.488 207.968 271.9 207.775 272.19C206.977 273.39 206.145 274.286 205.01 275.141L204.882 275.235C203.646 276.144 202.486 277.212 200.98 277.622C198.893 278.19 197.435 275.576 198.901 274.049C200.081 272.82 201.884 272.181 203.449 271.495L203.809 271.336ZM119.993 254.246C119.644 253.615 120.357 252.84 121.003 253.235C122.846 254.362 124.993 255.207 127.063 255.815C127.901 256.06 128.656 256.91 128.594 257.826L128.584 257.965C128.56 258.289 128.515 258.61 128.309 258.88C127.589 259.823 126.557 260.186 125.456 259.628C123.001 258.384 121.321 256.647 119.993 254.246ZM173.856 252.334C173.811 252.069 174.006 251.864 174.275 251.915C175.833 252.21 177.271 252.963 178.608 253.828C179.326 254.292 180.018 254.801 180.733 255.27C181.617 255.848 181.948 256.326 182.079 257.388C182.165 258.088 181.511 258.728 180.911 258.922C179.277 259.449 177.404 257.719 176.296 256.595L176.247 256.544C175.087 255.362 174.131 253.964 173.856 252.334ZM220.632 250.498C220.277 249.539 221.501 248.744 222.301 249.215C223.054 249.658 223.872 250.026 224.582 250.534C225.236 251.001 225.831 251.555 226.457 252.061L226.767 252.306C227.915 253.23 229.811 255.514 228.169 256.839C226.606 258.101 224.534 256.49 223.484 255.312L223.411 255.229C222.808 254.531 222.064 253.774 221.626 252.959C221.213 252.192 220.934 251.312 220.632 250.498ZM205.218 176.261C203.26 176.641 202.462 179.058 201.638 180.634C199.692 184.353 197.903 188.139 196.106 191.931C195.553 193.097 195.014 194.272 194.47 195.445C194.437 195.537 194.395 195.628 194.344 195.717C193.231 198.115 192.084 200.498 190.744 202.774C191.971 202.544 193.204 202.348 194.441 202.194C194.379 201.029 195.177 199.469 195.571 198.487L195.604 198.405C196.096 197.147 196.612 195.166 197.879 194.513C198.301 194.296 198.753 194.568 198.785 195.033C198.881 196.418 197.528 198.002 196.866 199.176C196.466 199.887 196.076 200.601 195.696 201.323C195.554 201.593 195.435 201.858 195.288 202.096C195.927 202.027 196.566 201.966 197.206 201.921L197.624 201.892C199.999 201.735 202.522 201.691 204.668 202.862C206.659 203.949 207.677 206.269 206.583 208.382C205.22 211.014 202.219 211.363 199.581 211.576C196.284 211.842 192.981 212.322 189.708 212.79C186.323 213.275 183.135 214.523 179.8 215.165C179.49 215.224 179.297 214.819 179.581 214.645C182.212 213.044 185.41 212.162 188.351 211.264L188.589 211.191C190.184 210.701 191.743 210.141 193.393 209.863C194.995 209.593 196.607 209.375 198.223 209.208L198.38 209.194C200.159 209.045 204.698 209.096 204.506 206.461C204.379 204.717 201.545 204.416 200.252 204.395C194.321 204.3 188.348 205.875 182.711 207.562L181.453 207.939C179.145 208.634 176.834 209.349 174.57 210.163C172.003 211.085 169.982 212.524 168.113 214.493C166.04 216.677 164.033 218.909 161.883 221.019C160.528 222.349 159.155 223.655 157.771 224.951C157.459 225.356 157.209 225.796 157.035 226.368C156.743 227.333 156.81 228.23 156.92 229.222C157.199 231.725 157.261 234.255 157.61 236.751C157.934 239.064 158.386 241.461 159.346 243.606C159.726 244.455 160.221 245.29 160.784 246.036L161.239 246.627C161.437 246.884 161.659 247.165 161.891 247.429C162.233 247.012 162.727 246.741 163.302 246.809C164.523 246.953 165.483 246.918 166.681 246.638C167.608 246.421 168.528 246.166 169.451 245.931C171.263 245.469 173.092 245.048 174.886 244.517L175.195 244.424C176.532 244.013 177.869 243.5 178.982 242.636C180.274 241.633 180.672 240.185 181.63 238.934C183.674 236.261 188.093 236.317 191.085 235.585C193.627 234.963 196.074 233.982 197.833 232.136L197.936 232.027C197.858 231.697 197.985 231.326 198.29 231.155L198.357 231.118C198.476 231.051 198.605 231.024 198.731 231.026C198.894 230.786 199.052 230.539 199.195 230.275C199.313 230.057 199.607 230.217 199.568 230.432C199.545 230.56 199.513 230.685 199.483 230.811C201.188 230.372 203.059 230.456 204.79 230.457L207.035 230.449C207.424 230.444 208.003 230.425 208.055 230.402L208.108 230.378C208.248 230.317 208.049 230.418 208.147 230.288C208.255 230.145 208.36 230 208.464 229.854C208.837 229.333 209.189 228.796 209.534 228.254C205.773 229.213 201.878 229.809 198.038 230.306C193.918 230.84 189.744 231.211 185.588 231.214C184.442 231.216 184.453 229.485 185.588 229.442C189.989 229.274 194.367 229.041 198.739 228.477C200.999 228.185 203.251 227.818 205.489 227.39C206.353 227.225 207.216 227.049 208.076 226.864L208.72 226.723C209.125 226.634 210.268 226.505 210.825 226.131C210.934 225.942 211.044 225.755 211.152 225.567C211.099 224.906 209.42 224.994 209.027 224.993C207.911 224.991 206.795 225 205.679 225.003C203.447 225.01 201.215 224.99 198.982 224.972C194.523 224.936 190.046 224.78 185.59 224.971C184.508 225.017 183.94 223.282 185.009 222.825C189.729 220.809 194.969 220.371 200.008 219.751C202.659 219.426 205.311 219.05 207.901 218.39L208.542 218.227C210.17 217.81 211.967 217.301 213.338 216.306C211.278 215.473 208.717 215.568 206.582 215.45L206.418 215.441C203.428 215.257 200.433 215.163 197.437 215.158C191.308 215.15 185.177 215.367 179.054 215.658C178.9 215.665 178.869 215.422 179.018 215.39C185.311 214.016 191.706 213.355 198.146 213.253C201.146 213.205 204.146 213.248 207.143 213.38L208.243 213.431C210.798 213.541 213.633 213.571 215.77 215.115C216.096 215.35 216.268 215.65 216.295 215.968C219.162 210.251 221.81 204.415 224.468 198.617C226.535 194.11 228.525 189.564 230.667 185.091L231.361 183.644C232.289 181.713 233.241 179.782 234.297 177.922C230.347 177.394 226.375 177.027 222.4 176.746C218.778 176.49 206.962 175.923 205.218 176.261ZM203.469 238.219C203.919 237.969 204.609 238.173 204.72 238.729C204.803 239.143 204.944 239.602 204.944 240.025C204.944 240.532 204.763 241.083 204.666 241.579C204.444 242.72 204.17 243.647 203.59 244.663C203.228 245.299 202.495 245.731 201.759 245.714C201.176 245.7 200.659 245.544 200.259 245.093C199.78 244.552 199.451 243.756 199.714 243.028C200.402 241.12 201.668 239.22 203.469 238.219ZM107.921 236.316C108.975 234.469 111.474 232.819 113.654 232.982C116.928 233.227 117.596 237.637 114.427 238.69C112.532 239.318 109.925 238.673 108.268 237.638C107.821 237.359 107.657 236.779 107.921 236.316ZM74.2723 230.007C74.0329 229.658 74.4286 229.261 74.7853 229.339C75.5765 229.513 76.4295 229.589 77.2044 229.825C77.998 230.066 78.7662 230.467 79.5523 230.742C81.1991 231.319 82.9582 231.609 84.5519 232.306C85.189 232.584 85.6901 233.507 85.6312 234.187L85.6162 234.346C85.581 234.684 85.5225 234.979 85.3337 235.287C84.8265 236.116 83.8216 236.544 82.8731 236.289C81.1136 235.816 79.3943 234.602 77.8941 233.592L77.6169 233.408C76.9614 232.976 76.2566 232.525 75.7284 231.969C75.1771 231.388 74.724 230.664 74.2723 230.007ZM134.756 223.29C134.553 222.56 135.461 222.078 135.99 222.571C137.047 223.556 138.152 224.469 139.187 225.479L139.257 225.548C139.998 226.293 141.076 227.73 140.112 228.694C138.877 229.93 137.157 228.096 136.494 227.14C135.653 225.928 135.149 224.707 134.756 223.29ZM215.645 217.257C214.077 218.918 211.661 219.682 209.534 220.315C207.011 221.065 204.413 221.513 201.811 221.881C199.298 222.237 196.804 222.555 194.33 222.964C196.201 222.987 198.072 223.001 199.939 223.034C202.092 223.073 204.244 223.12 206.396 223.182C207.964 223.228 209.803 223.013 211.293 223.596C211.561 223.7 211.812 223.846 212.031 224.023C213.283 221.795 214.483 219.537 215.645 217.257ZM118.923 201.72C120.56 201.2 122.099 200.51 123.834 200.689C124.295 200.736 124.625 201.185 124.374 201.629C123.551 203.076 122.214 203.893 120.898 204.862L120.782 204.947C119.342 206.019 117.795 206.996 116.228 207.876C113.531 209.39 111.114 205.056 113.838 203.785C115.477 203.019 117.198 202.268 118.923 201.72ZM148.39 197.957C150.894 198.122 153.396 198.234 155.903 198.336C158.807 198.453 157.831 202.923 155.405 202.019C153.009 201.125 150.612 200.242 148.194 199.408C147.457 199.155 147.517 197.945 148.343 197.956L148.39 197.957ZM84.1676 190.005C84.8165 189.959 85.471 190.101 86.1209 190.164L86.8125 190.231C88.238 190.373 89.5747 190.548 90.9342 191.128C93.4427 192.199 92.0954 196.233 89.5772 196.141C87.7159 196.072 86.1243 195.272 84.5526 194.342C83.1786 193.528 82.3363 192.51 81.4085 191.232C81.1012 190.809 81.5294 190.334 81.9479 190.292C82.685 190.217 83.4302 190.056 84.1676 190.005ZM209.914 181.767C209.499 184.358 208.468 186.786 206.916 188.901C206.135 189.963 204.766 190.003 203.992 188.901C202.898 187.341 203.573 185.553 204.397 184.055L204.641 183.616C205.01 182.959 205.577 181.999 206.224 181.336L206.235 181.269C206.582 178.556 210.341 179.097 209.914 181.767ZM108.638 165.138C109.262 164.576 110.412 164.744 110.615 165.66C110.898 166.942 111.071 168.386 110.885 169.687C110.784 170.392 110.747 171.184 110.469 171.841C110.171 172.548 109.598 173.092 109.058 173.623C107.98 174.684 105.706 174.333 105.417 172.662L105.381 172.457C105.235 171.666 105.05 170.82 105.265 170.037C105.427 169.445 105.79 168.842 106.09 168.293L106.154 168.177C106.755 167.056 107.693 165.989 108.638 165.138ZM196.382 167.865L196.607 167.868C198.35 167.902 201.535 168.326 201.552 170.48C201.556 170.988 201.18 171.514 200.676 171.63C199.635 171.872 198.962 171.256 198.22 170.634C197.613 170.126 196.905 169.72 196.17 169.427C195.376 169.112 195.428 167.864 196.382 167.865Z" fill="black"/>
<path fill-rule="evenodd" clip-rule="evenodd" d="M193.703 64.8175C192.769 59.155 195.833 57.9801 193.703 52.5975C188.968 42.6239 176.063 43.0536 166.594 42.2868C156.032 41.881 145.342 43.2788 135.605 47.5224C133.279 48.5359 131.042 49.7279 128.898 51.0822C127.044 52.2534 127.299 54.4801 128.468 55.6948C120.037 67.663 124.859 83.7278 118.132 96.3258C116.889 98.5777 115.246 100.597 114.165 102.94C112.524 106.502 112.418 111.605 116.142 113.97C121.386 116.792 124.312 111.205 126.889 119.304C139.758 147.542 165.632 149.133 190.194 134.41C192.319 133.225 194.488 131.886 196.093 130.024C199.735 125.915 199.306 120.137 199.386 115.005C199.431 111.998 199.439 108.99 199.41 105.983C199.295 93.7998 195.267 76.9 193.703 64.8175Z" fill="#EDB98A"/>
<path fill-rule="evenodd" clip-rule="evenodd" d="M141.387 30.9496C156.217 24.2058 173.038 21.6484 189.215 23.3259C197.2 24.1525 205.08 25.9261 212.579 28.807L213.236 29.0617C215.087 29.7759 217.082 30.4848 218.489 31.9387C220.126 33.6282 220.586 36.1832 219.415 38.2704C218.506 39.8921 216.871 41.0554 215.128 41.6762C215.742 42.1804 216.325 42.7428 216.871 43.3707C217.793 44.4227 217.863 45.923 216.871 46.9607C214.961 48.9606 212.483 50.4076 209.813 51.1011C210.113 52.5531 209.951 54.1603 209.308 55.6075C207.462 59.7616 202.263 60.2567 198.261 60.01L198.141 60.0023L197.918 62.5549C197.8 63.9148 196.987 64.9693 195.609 65.1778C195.56 65.185 195.512 65.1899 195.464 65.1945C197.645 73.1021 198.963 81.2541 200.179 89.3581C200.815 93.5883 201.383 97.8284 201.928 102.071L202.109 103.486C202.689 108.06 203.415 112.68 203.666 117.288C203.891 121.47 203.095 125.462 200.525 128.837C198.218 131.862 195.072 134.129 191.689 135.811C184.045 139.614 176 142.446 167.546 143.759L166.983 143.846C163.72 144.346 160.357 144.767 157.129 143.861C154.293 143.066 151.318 141.015 151.959 137.721C152.174 136.608 153.727 136.56 154.259 137.42L154.382 137.618C155.02 138.632 155.719 139.575 156.832 140.099C158.135 140.715 159.646 140.887 161.071 140.904C165.049 140.95 169.191 139.956 173.021 138.96C180.174 137.098 187.52 134.063 193.379 129.465C195.872 127.511 197.875 125.067 198.581 121.923C199.454 118.047 198.651 113.81 198.254 109.914C197.438 101.876 196.467 93.853 195.442 85.8387L195.236 84.236C194.373 77.5358 193.467 70.8332 193.036 64.0942C192.857 63.8494 192.736 63.5706 192.688 63.2652L192.62 62.8264C192.562 62.4507 192.552 62.1064 192.593 61.7889C192.596 60.572 192.63 59.3624 192.7 58.1452C192.712 57.9273 192.722 57.7091 192.729 57.4934C191.467 57.7722 190.195 57.9976 188.918 58.1891C179.942 59.5442 170.825 59.8836 161.777 59.2097C157.262 58.8725 152.782 58.2934 148.315 57.5686C146.042 57.2001 143.776 56.7928 141.518 56.3371C139.886 56.0099 138.287 55.5663 136.682 55.1493C135.025 57.5661 134.13 60.5405 134.304 63.4615C134.5 66.7946 136.715 69.8175 136.094 73.2233C135.511 76.4108 132.787 77.3991 130.097 78.1885L128.953 78.5198C128.073 78.7773 127.434 79.0258 127.275 80.0859C127.002 81.9064 127.338 83.9548 127.408 85.785C127.493 87.9497 127.604 90.1144 127.655 92.2791C127.681 93.399 127.725 94.5238 127.722 95.6437C127.72 96.4388 127.601 96.9818 127.294 97.4955C127.531 97.7939 127.744 98.1163 127.933 98.4581C127.993 98.5696 127.843 98.6881 127.754 98.5963C127.514 98.3466 127.26 98.1211 126.992 97.9197C126.857 98.0872 126.699 98.2569 126.515 98.4387L126.501 98.4193C125.926 98.9938 125.012 99.0496 124.298 98.4387L124.111 98.2761C123.589 97.8171 123.23 97.4349 123.084 96.6764C123.077 96.6376 123.07 96.5988 123.065 96.56C121.737 96.514 120.388 96.8289 119.194 97.4909C117.3 98.5405 115.968 100.036 115.18 101.883C115.494 102.252 115.861 102.581 116.289 102.858C116.35 102.899 116.297 102.989 116.231 102.957C115.794 102.751 115.402 102.497 115.051 102.198C114.768 102.926 114.57 103.706 114.449 104.533C114.024 107.451 114.783 111.017 117.414 112.68C118.553 113.4 119.854 113.79 121.203 113.795C121.861 113.797 122.429 113.686 123.067 113.529C123.5 113.422 123.931 113.267 124.383 113.267C124.77 113.267 125.128 113.364 125.459 113.558L125.367 113.566C125.144 113.587 125.187 113.596 125.498 113.596C126.465 113.638 127.018 114.622 126.574 115.478L126.515 115.61C126.503 115.637 126.493 115.659 126.485 115.676L126.449 115.903C126.446 115.925 126.442 115.947 126.438 115.97L126.425 116.016C126.422 116.023 126.42 116.03 126.417 116.038L127.867 118.255C129.646 120.968 131.464 123.671 133.533 126.148C134.984 127.887 136.522 129.591 138.147 131.169C139.607 132.587 141.358 133.27 143.012 134.386C143.895 134.977 144.154 136.216 143.351 137.013C140.995 139.357 137.661 137.496 135.729 135.59C133.901 133.784 132.322 131.612 130.96 129.438C128.545 125.572 126.622 121.46 125.781 116.998C125.43 117.32 124.983 117.521 124.53 117.679C123.624 117.994 122.625 118.125 121.667 118.159C119.832 118.219 117.994 117.773 116.343 116.983C109.623 113.771 108.636 104.152 112.744 98.4799C112.191 96.8694 111.881 95.122 111.545 93.6319L111.392 92.9658C109.693 85.5256 108.552 77.6922 111.564 70.4017C111.951 69.4611 112.387 68.5448 112.902 67.6673C113.315 66.9619 114.026 66.2104 114.222 65.4081C114.657 63.6457 111.971 61.7937 111.187 60.395C110.266 58.7539 110.135 56.8171 111.39 55.3163C111.55 55.1275 111.724 54.9527 111.913 54.8002C110.723 52.638 110.667 49.9181 112.234 47.7849C113.264 46.379 114.836 45.3948 116.553 45.0966C117.602 44.9148 118.865 44.9827 120.018 45.3075C126.334 39.4291 133.54 34.5179 141.387 30.9496ZM117.133 104.504C118.819 103.013 120.681 102.232 122.978 102.429C125.287 102.627 128.068 103.585 129.425 105.57C130.496 107.139 128.312 109.439 126.741 108.261C125.309 107.187 124.354 105.975 122.577 105.398C120.98 104.882 119.005 104.55 117.334 104.846C117.15 104.877 116.967 104.649 117.133 104.504Z" fill="black"/>
<path fill-rule="evenodd" clip-rule="evenodd" d="M169.603 115.498C170.959 113.267 173.848 118.732 174.155 119.671C174.427 120.504 174.607 121.356 174.698 122.219C175.749 122.454 176.84 122.455 177.917 122.248C179.517 121.941 180.496 121.08 181.887 120.341C182.847 119.831 184.058 120.43 184.558 121.277C185.146 122.273 184.771 123.308 183.998 124.051C182.532 125.461 179.648 125.784 177.735 125.41C176.639 125.196 175.634 124.785 174.747 124.187C174.741 124.298 174.737 124.41 174.728 124.521L174.711 124.715C174.564 126.278 174.135 128.243 172.921 129.26C170.931 130.928 168.474 127.72 170.408 126.053L170.468 126.003C171.67 125.032 171.933 122.425 171.868 120.989C171.825 120.051 171.655 119.102 171.359 118.209L171.298 118.032C171.209 117.78 170.238 115.388 169.887 115.692L169.871 115.709C169.726 115.882 169.492 115.681 169.603 115.498ZM180.426 102.911C182.256 104.024 185.044 106.618 183.076 109.377C180.759 111.809 177.423 109.02 175.779 107.759C174.254 106.781 172.541 109.295 173.956 110.437C185.835 119.235 190.656 103.202 181.352 101.603C180.327 101.426 179.947 102.567 180.426 102.911ZM160.886 92.6263C162.675 92.309 164.507 92.7538 165.987 93.8005L166.099 93.8812C167.525 94.9243 169.12 96.7558 168.302 98.5537C167.973 99.2756 166.99 99.3888 166.366 99.0615C165.327 98.5166 165.139 97.1758 164.212 96.4338C163.452 95.8256 162.428 95.4567 161.449 95.5456C159.149 95.7546 157.735 98.0238 157.02 99.9793C156.929 100.229 156.562 100.327 156.418 100.058C154.734 96.9087 157.715 93.1892 160.886 92.6263ZM189.532 91.4378C192.957 91.1554 196.967 94.7081 196.065 98.3253C195.633 100.061 193.059 100.011 192.601 98.3253C192.35 97.3976 192.375 96.5768 191.707 95.8065C191.156 95.1704 190.373 94.8009 189.532 94.8577C188.604 94.9202 187.748 95.3839 187.098 96.0358C186.511 96.6243 186.16 97.4856 185.552 98.0066C185.402 98.1346 185.202 98.1428 185.054 98.0066C184.007 97.041 184.635 95.031 185.299 94.0231C186.249 92.5807 187.796 91.581 189.532 91.4378ZM154.363 86.2109C156.561 84.2648 160.554 82.3854 163.517 83.3432C165.221 83.8937 165.964 86.64 164.062 87.5104C161.859 88.5184 159.32 88.1082 157.078 89.153C156.137 89.592 155.251 90.1406 154.596 90.9451C154.079 91.5793 153.554 92.4137 152.807 92.7792C152.611 92.8754 152.345 92.8779 152.188 92.6995C150.551 90.847 152.933 87.4765 154.363 86.2109ZM185.754 83.2466C187.113 82.8653 188.619 82.873 189.999 83.1125C191.379 83.352 192.779 83.9239 193.905 84.758L194.036 84.8557C195.265 85.7824 196.732 87.1307 196.653 88.7723C196.588 90.1431 195.146 91.0703 193.902 90.3518C192.887 89.7659 192.41 88.5922 191.551 87.8107C190.842 87.1656 190.009 86.657 189.121 86.3007C188.134 85.9049 187.146 85.7194 186.087 85.7017C185.271 85.6881 184.451 85.9558 183.651 86.0413C183.717 86.1766 183.084 86.1136 182.722 85.9936C182.453 85.8792 182.452 85.5395 182.545 85.3192C183.007 84.2276 184.686 83.5462 185.754 83.2466Z" fill="black"/>
<defs>
<clipPath id="clip0_1_732">
<rect width="294" height="33" fill="white" transform="translate(1 289)"/>
</clipPath>
</defs>
</svg>
