<svg width="295" height="322" viewBox="0 0 295 322" fill="none" xmlns="http://www.w3.org/2000/svg">
<g clip-path="url(#clip0_1_705)">
<path d="M146.892 322C228.018 322 293.783 314.657 293.783 305.599C293.783 296.541 228.018 289.198 146.892 289.198C65.7657 289.198 0 296.541 0 305.599C0 314.657 65.7657 322 146.892 322Z" fill="#F7859C"/>
</g>
<path d="M215.421 202.949H158.025V273.587H215.421V202.949Z" fill="#FDEA6B"/>
<path fill-rule="evenodd" clip-rule="evenodd" d="M141.285 133.857C147.472 129.149 163.004 127.032 169.608 131.565C176.13 136.118 176.841 143.48 179.88 150.253C182.748 148.901 187.483 150.837 188.314 153.496C189.345 154.75 189.392 158.274 190.103 159.96C221.042 164.882 225.739 188.989 229.463 216.357C234.39 244.128 245.573 271.839 240.718 300.416C241.351 301.331 241.85 302.22 242.311 303.276C243.416 305.155 241.992 307.815 239.764 307.712C236.878 307.459 234.022 307.114 231.123 307.006C223.088 306.727 215.045 306.76 207.007 306.862L205.911 306.876C165.399 307.38 124.891 308.374 84.3775 308.637C82.9078 308.639 82.1882 307.322 82.3844 306.022C82.7797 303.406 83.1464 300.788 83.5291 298.171C73.9467 300.7 63.7598 301.337 54.2046 298.437C53.5361 297.756 55.762 298.125 56.1152 298.022C47.3213 292.016 49.9475 279.365 50.7265 270.252C55.5703 239.029 57.2779 204.482 75.9927 177.838C84.089 166.965 95.959 158.356 109.598 156.419L109.977 156.367C113.965 155.836 118.41 155.664 121.897 153.496C125.818 150.367 127.49 144.586 131.616 144.532C132.978 144.514 134.831 146.236 136.826 147.406C136.974 144.833 138.362 142.662 138.668 140.667L138.693 140.497C139.012 138.171 138.575 136.079 141.285 133.857ZM207.776 217.181C199.081 211.145 176.621 214.178 176.106 214.516C174.974 215.26 174.487 215.326 173.875 216.292C173.27 216.373 172.666 216.456 172.062 216.541C170.852 216.937 171.749 218.425 173.147 217.894C172.306 221.52 174.782 224.098 175.767 227.683C176.087 228.846 175.779 230.939 175.767 232.129C175.863 233.645 177.54 235.436 177.261 236.957C176.267 242.365 170.874 247.64 173.147 252.884C174.654 255.846 179.184 257.357 182.196 258.364C188.437 260.758 199.311 258.274 202.937 252.884C204.871 250.01 207.111 242.759 208.265 240.51L208.52 236.942C209.151 228.073 209.711 218.525 207.776 217.181Z" fill="#EDB98A"/>
<path fill-rule="evenodd" clip-rule="evenodd" d="M131.294 144.548L133.782 146.074L148.233 153.213C151.035 153.997 152.436 154.937 152.436 156.032V167.184C152.436 168.676 155.065 172.058 160.323 177.33L165.181 172.49L165.072 171.857C164.61 169.126 164.379 167.3 164.379 166.377C164.379 165.385 169.131 161.619 178.636 155.078L182.795 151.166L182.351 149.818C184.915 149.939 187.696 151.517 188.314 153.496C189.345 154.75 189.392 158.274 190.103 159.96C221.042 164.882 225.739 188.989 229.463 216.357C234.39 244.128 245.573 271.839 240.718 300.417C241.351 301.331 241.85 302.221 242.311 303.277C243.416 305.156 241.992 307.816 239.764 307.713C236.878 307.46 234.022 307.114 231.123 307.006C223.088 306.727 215.045 306.76 207.007 306.862L205.911 306.877C165.399 307.381 124.891 308.374 84.3775 308.637C82.9078 308.639 82.1882 307.322 82.3844 306.022C82.7797 303.406 83.1464 300.788 83.5291 298.171C73.9467 300.7 63.7598 301.337 54.2046 298.437C53.5361 297.756 55.762 298.125 56.1152 298.022C47.3213 292.016 49.9475 279.365 50.7265 270.253C55.5703 239.029 57.2779 204.482 75.9927 177.838C84.089 166.965 95.959 158.356 109.598 156.419L109.977 156.367L110.358 156.318C114.246 155.823 118.52 155.596 121.897 153.496C125.715 150.45 127.4 144.889 131.294 144.548ZM165.921 210.002C164.504 210.002 161.601 212.202 157.213 216.602L156.826 216.78C151.521 219.243 148.007 221.379 146.283 223.189L146.222 223.254C144.48 225.121 141.032 230.086 135.877 238.148L128.411 242.56H125.586L123.575 257.14L128.411 267.55L139.365 263.862L157.213 259.161L167.454 248.777L173.231 246.838C172.53 248.862 172.276 250.876 173.147 252.885C174.654 255.847 179.184 257.357 182.196 258.364C188.437 260.758 199.311 258.274 202.937 252.885C204.871 250.01 207.111 242.759 208.265 240.51L208.595 235.875C209.191 227.322 209.634 218.472 207.776 217.182C199.081 211.145 176.621 214.178 176.106 214.516C174.974 215.26 174.487 215.326 173.875 216.293L173.558 216.335L175.34 213.919L174.709 213.582C170.205 211.195 167.276 210.002 165.921 210.002ZM173.147 217.894C172.342 221.365 174.577 223.877 175.634 227.23L172.933 222.064L172.933 217.961C173.003 217.944 173.075 217.922 173.147 217.894Z" fill="#9DDADB"/>
<path fill-rule="evenodd" clip-rule="evenodd" d="M130.101 144.009C130.701 143.478 131.589 144.145 131.208 144.863C130.351 146.476 129.471 148.004 128.321 149.43C127.623 150.294 126.876 151.112 126.119 151.92C128.062 153.6 129.729 155.686 131.302 157.641C133.315 160.141 135.217 162.747 137.476 165.035C139.704 167.291 142.168 168.868 145.146 169.92L145.748 170.129C148.74 171.179 151.938 172.597 153.624 175.428C153.957 175.986 153.287 176.676 152.724 176.328C149.794 174.514 146.35 174.149 143.16 172.951C140.078 171.794 137.392 170.012 135.019 167.738C132.649 165.468 130.66 162.886 128.584 160.358C126.532 157.858 124.322 155.723 121.895 153.608C118.149 156.127 113.873 157.223 109.525 158.299L109.051 158.417C104.698 159.494 100.368 160.745 96.2842 162.62C92.6835 164.274 89.142 166.248 86.209 168.939C83.0956 171.795 80.6725 175.442 78.4546 179.009C73.4935 186.988 70.0056 195.73 66.935 204.579C63.7414 213.782 61.0701 223.17 58.9137 232.669C57.8169 237.501 56.9261 242.367 56.194 247.268C55.8416 249.628 55.5285 251.993 55.2536 254.363C54.9601 256.894 54.8927 259.499 54.1157 261.932C53.7826 262.975 52.9961 263.408 52.2089 263.371L52.049 265.37C51.8369 268.035 51.6393 270.7 51.5725 273.381C51.4617 277.84 51.5119 282.285 51.8328 286.734L51.8783 287.34C52.1304 290.587 52.6938 294.235 55.1368 296.613C57.6667 299.075 61.5574 299.849 64.9673 299.894C72.9092 299.997 80.5542 296.247 87.582 292.957C94.8199 289.568 101.86 285.807 108.732 281.728C112.231 279.651 115.692 277.505 119.11 275.295C120.787 274.211 122.452 273.108 124.105 271.988C125.052 271.346 125.949 270.643 126.912 270.073C126.44 269.634 126.229 268.943 126.625 268.34C123.839 265.923 122.68 261.61 122.544 258.121C122.434 255.304 122.849 252.495 123.177 249.705C123.342 248.298 123.546 246.894 123.757 245.493C123.841 244.94 123.905 244.348 124.003 243.764C116.48 247.895 108.747 251.574 100.809 254.843C96.7406 256.518 92.6196 258.025 88.4417 259.405L87.5949 259.684C83.6364 260.979 79.5831 262.202 75.4908 262.942C75.272 262.982 75.0943 262.659 75.3279 262.556C79.316 260.797 83.4423 259.314 87.4903 257.694L88.1555 257.424C88.079 257.419 87.9998 257.409 87.9171 257.389C85.5431 256.816 83.1876 255.934 80.8592 255.191C78.6982 254.501 76.2703 254.068 74.2504 253.027C74.095 252.947 74.182 252.731 74.3334 252.721C76.6036 252.564 79.0681 253.225 81.294 253.614L82.1302 253.76C83.5311 254.007 84.963 254.272 86.3569 254.619C86.4073 254.152 86.6682 253.683 87.0394 253.408C91.124 250.385 90.7092 244.279 91.1461 239.777L91.47 236.434C92.0398 230.584 92.6426 224.734 93.5585 218.928C93.6073 218.618 94.0873 218.707 94.0893 218.999C94.1366 226.197 93.5929 233.362 93.3204 240.548L93.2782 241.727C93.1275 246.162 93.0095 250.766 90.215 254.178C90.6057 253.95 91.1341 253.95 91.4506 254.326C91.8396 254.789 92.0642 255.308 92.0572 255.818C94.5823 254.76 97.0965 253.674 99.5983 252.567C107.642 249.005 115.517 245.02 123.184 240.707C124.009 240.243 124.793 240.608 125.201 241.22L125.26 241.211C125.27 241.21 125.28 241.209 125.29 241.209L125.349 241.206C125.351 241.206 125.353 241.207 125.355 241.207C126.434 240.614 127.905 241.036 128.831 241.9C128.858 241.927 128.881 241.955 128.906 241.982C130.078 241.456 131.173 240.746 132.166 239.846C134.2 238.004 135.922 235.727 137.423 233.444C140.188 229.238 142.536 224.561 146.271 221.099C149.305 218.286 153.068 216.535 157.014 215.436C156.998 215.321 157.042 215.198 157.122 215.116C157.324 214.908 157.469 214.837 157.731 214.963C157.752 214.973 157.764 214.987 157.773 215.002L158.158 214.344C158.368 213.987 158.584 213.628 158.659 213.534C159.107 212.97 159.568 212.41 160.036 211.862C160.83 210.935 161.735 210.019 162.782 209.376C165.075 207.968 167.486 208.765 169.844 209.534C171.269 210 172.688 210.48 174.111 210.952L174.257 211C175.318 211.34 176.558 211.638 177.033 212.761C177.22 213.205 177.249 213.667 177.162 214.114C187.234 211.554 198.42 212.73 208.248 215.735C208.625 215.85 209.002 216.16 209.082 216.568C210.208 222.339 210.709 228.258 210.2 234.128C209.76 239.195 208.637 244.16 206.52 248.799L206.4 249.061C204.41 253.36 201.257 258.66 196.442 260.007C193.534 260.821 190.318 260.341 187.352 260.192C184.47 260.047 181.524 260.026 178.67 259.573C176.127 259.17 173.899 258.031 172.328 255.965C170.973 254.182 170.259 252.028 169.674 249.885C169.407 249.97 169.141 250.061 168.879 250.163C167.774 250.594 166.839 251.29 165.992 252.109C164.206 253.838 162.82 255.939 160.95 257.589C159.258 259.083 157.329 260.245 155.261 261.138C150.975 262.989 146.376 263.728 141.843 264.709L141.526 264.778C138.113 265.527 134.629 266.446 131.617 268.222C131.558 268.744 131.319 269.236 130.938 269.558C131.469 270.057 131.694 270.847 131.227 271.588C129.923 273.657 127.676 274.834 125.659 276.157L125.528 276.243C123.544 277.558 121.543 278.846 119.525 280.108C115.423 282.675 111.236 285.1 106.989 287.419C100.159 291.148 93.1825 294.665 86.0795 297.856C86.5058 299.952 86.35 302.114 86.6705 304.224L86.7196 304.525C86.8565 305.308 86.6716 305.963 86.1318 306.475L86.0747 306.527L86.0757 306.52L86.0251 306.567L86.0081 306.581L86.0138 306.577C85.9516 306.633 85.8874 306.686 85.8219 306.732L85.7386 306.785C85.2187 307.101 84.5494 307.098 84.0171 306.819L83.9563 306.785L83.8541 306.727C83.1508 306.323 82.6658 305.321 82.9575 304.525C83.6746 302.569 83.9455 300.482 84.6077 298.513L84.0824 298.748L83.39 299.049C75.9015 302.286 67.5832 305.011 59.4239 302.805C55.8188 301.83 52.4492 299.767 50.6454 296.405C48.8704 293.097 48.6195 289.256 48.5252 285.577C48.4089 281.035 48.6526 276.424 49.2518 271.921C49.6541 268.899 50.1406 265.819 50.891 262.828C50.505 262.488 50.2213 262 50.1464 261.395C49.7922 258.538 50.412 255.568 50.7915 252.726C51.1622 249.951 51.5717 247.182 52.0349 244.421C52.97 238.845 54.0566 233.281 55.3215 227.771C57.5727 217.964 60.5455 208.332 64.1246 198.929L64.4381 198.11C67.7454 189.516 71.5747 181.105 76.9069 173.556C79.4576 169.944 82.154 166.669 85.7581 164.066C89.1347 161.627 92.9434 159.871 96.8739 158.529C100.809 157.186 104.853 156.286 108.969 155.726C113.149 155.158 117.56 154.809 121.46 153.095C120.966 152.212 121.39 151.019 122.22 150.471C125.013 148.626 127.597 146.226 130.101 144.009ZM219.529 224.221C219.646 224.043 219.924 224.156 219.873 224.366C218.514 229.929 217.239 235.503 216.406 241.173C214.902 251.405 215.179 261.771 215.302 272.079L215.308 272.612C215.371 278.165 215.459 283.717 215.643 289.268C215.736 292.073 215.919 294.905 215.819 297.712C215.765 299.234 215.359 300.674 215.215 302.178C215.089 303.494 215.201 304.829 215.264 306.146C215.306 307.022 214.013 306.985 213.925 306.146L213.812 305.062C213.666 303.69 213.486 302.326 213.036 301.012C212.495 299.432 212.235 297.881 212.047 296.222C211.76 293.68 211.632 291.113 211.521 288.553L211.445 286.783C210.981 276.086 210.998 265.339 211.748 254.653L211.803 253.89C212.546 243.789 213.835 232.875 219.529 224.221ZM190.567 160.56C190.212 160.414 190.336 159.878 190.729 159.971L191.444 160.142C196.681 161.395 201.823 162.754 206.711 165.086C211.602 167.42 215.743 170.905 219.034 175.19C225.43 183.519 228.088 193.641 230.186 203.754C232.518 214.991 234.641 226.269 236.994 237.503L237.43 239.596C239.607 250.058 241.662 260.527 243.176 271.114L243.285 271.882C244.812 282.768 245.73 294.032 244.064 304.947C243.734 307.106 240.139 306.569 240.279 304.435C240.685 298.267 240.976 292.132 240.695 285.95C240.414 279.768 239.834 273.612 238.969 267.483C238.241 262.325 237.156 257.232 236.196 252.115L236.045 251.307C235.241 246.955 234.412 242.608 233.585 238.26L232.349 231.75C230.497 222.003 228.608 212.247 226.474 202.561L226.347 201.991C224.259 192.672 221.18 182.911 214.915 175.511C208.558 168.001 199.457 164.219 190.567 160.56ZM167.467 259.402C167.619 259.062 168.154 259.099 168.319 259.402C168.963 260.59 169.035 262.107 169.156 263.448L169.169 263.586C169.324 265.222 169.461 266.864 169.545 268.506C169.704 271.622 169.78 274.734 169.771 277.854C169.761 281.051 169.696 284.244 169.524 287.437L169.477 288.292C169.32 291.066 169.056 294.161 167.737 296.586C167.257 297.468 165.953 297.209 165.675 296.317C164.765 293.398 165.233 289.936 165.466 286.946L165.647 284.612C165.827 282.279 165.998 279.944 166.133 277.608C166.319 274.411 166.473 271.212 166.62 268.014C166.668 266.975 166.72 265.936 166.775 264.898L166.859 263.34C166.931 262.037 166.925 260.607 167.467 259.402ZM65.1696 263.54L65.5723 263.152C66.8087 261.942 68.3711 260.08 70.1989 260.195C70.9278 260.242 71.3922 260.846 71.2411 261.563C70.9182 263.095 69.3545 263.89 68.2289 264.825C66.9958 265.85 65.8336 266.944 64.6736 268.05C63.6446 269.03 62.6549 270.038 61.689 271.077L61.3279 271.469C60.9816 271.846 58.5161 274.075 58.7827 274.653L58.7972 274.679C58.8714 274.79 58.7478 274.942 58.6247 274.903C57.56 274.567 57.6265 273.655 58.029 272.731C58.8024 270.956 60.1569 269.313 61.3396 267.797C62.5192 266.285 63.7959 264.876 65.1696 263.54ZM171.325 219.015C170.501 217.07 167.468 217.111 165.746 217.228C161.41 217.52 156.719 218.617 152.861 220.642C148.861 222.742 146.167 226.107 143.756 229.827L143.643 230.002C141.294 233.652 139.031 237.973 135.351 240.483C133.477 241.762 131.289 242.929 129.015 243.435C128.859 243.709 128.606 243.927 128.274 244.006L128.12 244.041C127.473 244.184 126.467 244.342 125.598 244.247C125.603 244.672 125.599 245.094 125.61 245.496C125.64 246.65 125.653 247.808 125.653 248.963C125.654 251.381 125.524 253.804 125.625 256.222C125.714 258.361 126.016 260.596 127.044 262.508C127.798 263.911 128.793 264.839 129.993 265.725C132.947 263.926 136.288 262.83 139.678 262.005C143.778 261.008 147.976 260.342 151.982 258.99C153.911 258.339 155.765 257.487 157.444 256.33C159.227 255.101 160.589 253.439 161.99 251.813L162.209 251.561C163.639 249.922 165.199 248.354 167.22 247.465C168.96 246.7 171.253 246.563 172.775 245.379C173.571 244.759 173.637 243.86 173.721 242.939C172.747 243.079 171.715 242.855 170.744 242.742L170.241 242.683C169.322 242.574 168.425 242.454 167.521 242.22C167.353 242.177 167.353 241.924 167.521 241.88C168.589 241.605 169.648 241.487 170.744 241.359L171.001 241.327C171.992 241.197 173.034 241.001 174.006 241.219C174.18 240.556 174.432 239.922 174.786 239.288C175.282 238.397 176.22 237.387 176.347 236.346C176.385 236.035 176.313 235.669 176.166 235.394L176.115 235.3C176.054 235.19 175.981 235.078 175.874 235.009C175.862 235.023 175.837 235.039 175.783 235.056C175.035 235.292 174.382 234.926 174.036 234.361C172.565 234.544 170.96 234.482 169.581 234.543L168.187 234.611C166.697 234.679 165.14 234.709 163.74 234.408C163.544 234.366 163.485 234.041 163.681 233.957C165.402 233.222 167.49 232.987 169.332 232.704C170.361 232.546 171.398 232.426 172.43 232.287C173.117 232.194 173.847 232.041 174.559 232.005C176.344 229.784 175.382 226.28 172.898 225.323C171.993 225.721 171.179 225.49 170.19 225.405C169.203 225.32 168.214 225.263 167.222 225.267C165.237 225.276 163.132 225.798 161.166 225.573C160.846 225.536 160.549 225.111 160.867 224.851C162.372 223.624 164.529 223.223 166.44 222.962L166.836 222.909C167.477 222.825 168.256 222.702 169.064 222.63C169.247 222.273 169.574 222.004 170.067 221.937C170.213 221.917 170.36 221.905 170.507 221.893L170.505 221.878C171.706 221.821 171.654 219.793 171.325 219.015ZM89.0984 256.946C89.0772 256.978 89.0539 257.01 89.0292 257.039L88.9911 257.084L89.1886 257.003L89.0984 256.946ZM192.283 214.67C187.228 214.127 182.165 214.241 177.095 214.387C176.69 215.713 175.278 216.842 173.91 216.885C174.981 218.514 175.092 220.72 174.341 222.448C175.936 223.082 177.31 224.222 178.144 225.845C179.3 228.095 179.149 230.599 178.006 232.679C178.982 233.561 179.557 234.995 179.5 236.346C179.435 237.853 178.537 239.14 177.79 240.387C176.983 241.736 176.956 242.924 176.708 244.435C176.346 246.646 174.853 247.988 172.933 248.825L173.035 249.227C173.53 251.152 174.146 253.184 175.561 254.592C177.381 256.404 180.205 256.387 182.61 256.502L182.726 256.508C184.928 256.618 187.129 256.747 189.33 256.871L190.981 256.964C193.515 257.103 195.949 257.12 198.018 255.445C201.396 252.712 203.712 248.188 205.177 244.184C208.254 235.778 208.291 226.554 206.879 217.8C202.143 216.274 197.229 215.201 192.283 214.67ZM150.242 228.615L150.279 228.617C151.32 228.736 152.035 229.578 152.29 230.578C152.66 232.03 152.478 233.343 153.368 234.654C154.284 236.002 154.847 237.082 154.98 238.747C155.034 239.432 155.009 240.116 155.162 240.787L155.273 241.257C155.39 241.758 155.486 242.241 155.428 242.779C155.374 243.269 155.135 243.652 154.643 243.809C153.038 244.322 151.799 243.14 151.384 241.646C151.026 240.354 151.504 238.816 150.999 237.604C150.719 236.932 150.203 236.369 149.911 235.693C149.622 235.022 149.477 234.322 149.431 233.593C149.343 232.214 150.563 230.558 149.882 229.308C149.737 229.042 149.901 228.607 150.242 228.615ZM128.925 214.387C130.011 214.167 131.244 213.661 132.316 214.081C132.867 214.298 133.139 214.969 132.674 215.436C131.865 216.245 130.691 216.29 129.603 216.481L129.507 216.498C128.22 216.736 126.93 216.962 125.639 217.176C123.21 217.578 120.776 217.933 118.333 218.236C115.823 218.546 113.307 218.822 110.787 219.03L109.811 219.11C107.683 219.28 105.468 219.409 103.379 219.083C103.076 219.035 103.125 218.594 103.379 218.516C105.667 217.824 108.177 217.639 110.543 217.346C113.058 217.034 115.568 216.705 118.072 216.314C120.573 215.924 123.069 215.505 125.557 215.042C126.681 214.833 127.804 214.615 128.925 214.387ZM168.138 212.165C167.184 211.828 166.135 211.328 165.102 211.495C163.32 211.784 161.734 213.519 160.323 214.661L161.031 214.524C164.655 213.828 169.454 213.078 172.497 215.381C172.504 215.367 172.51 215.354 172.519 215.341C172.765 214.968 173.049 214.677 173.36 214.358C173.39 214.33 173.418 214.302 173.446 214.272L173.614 214.094L173.231 213.961C172.41 213.671 171.438 213.297 171.284 213.242L171.273 213.238C170.227 212.884 169.179 212.534 168.138 212.165ZM138.362 136.248C138.213 134.331 141.198 134.347 141.346 136.248C141.668 140.399 140.734 144.51 138.722 148.149C138.707 148.176 138.691 148.199 138.675 148.224C139.934 148.878 141.206 149.506 142.507 150.067C144.171 150.785 145.866 151.439 147.592 151.993C149.153 152.495 151.076 152.694 152.388 153.738C155.156 155.94 154.116 160.511 153.584 163.473L153.501 163.941C153.236 165.466 153.044 167.03 153.687 168.493C154.374 170.056 155.762 171.215 157.001 172.333L157.252 172.56C158.349 173.559 159.603 174.773 160.408 176.128C161.143 174.609 162.145 173.369 163.204 171.972C163.96 170.975 163.422 170.646 162.879 169.672C162.356 168.735 162.101 167.736 162.265 166.666C162.566 164.691 164.146 163.265 165.717 162.193C167.574 160.928 169.646 159.99 171.565 158.813C175.509 156.395 179.349 153.63 182.809 150.559C182.905 150.475 183.07 150.586 182.994 150.702C180.26 154.857 177.056 158.447 173.117 161.494C171.52 162.73 169.842 163.755 168.153 164.832L167.667 165.144C166.989 165.583 166.143 166.17 165.837 166.917C165.528 167.669 166.186 168.236 166.54 168.859C167.665 170.837 167.122 172.682 165.789 174.359L165.727 174.436C164.402 176.068 163.398 177.585 162.918 179.67C161.886 184.148 163.323 188.812 164.828 193.016L164.887 193.182C165.701 195.448 166.566 197.697 167.273 199.999L167.467 200.636C168.108 202.754 168.633 204.843 167.914 207.021C167.67 207.762 166.659 207.937 166.239 207.24C164.758 204.781 164.389 201.823 163.461 199.12C162.556 196.486 161.517 193.9 160.643 191.255C159.517 187.849 158.764 184.184 159.173 180.612C159.161 180.591 159.148 180.571 159.138 180.549L158.851 179.923C158.07 178.227 157.316 176.746 155.895 175.395C154.413 173.985 152.805 172.737 151.639 171.03C149.106 167.322 150.673 163.198 150.979 159.144L151.014 158.647C151.069 157.805 151.1 156.661 150.549 156.079C149.931 155.423 148.479 155.256 147.658 154.965C145.536 154.215 143.445 153.34 141.454 152.29C139.558 151.291 137.722 150.187 136.012 148.893L135.145 148.242C133.778 147.211 132.36 146.085 131.443 144.681C131.338 144.519 131.517 144.259 131.709 144.336C133.239 144.957 134.636 145.943 136.068 146.802C136.09 146.75 136.116 146.697 136.145 146.644C137.916 143.441 138.645 139.892 138.362 136.248ZM187.232 158.195C187.841 156.524 190.619 156.653 190.509 158.638C190.424 160.163 189.776 161.54 189.184 162.924L189.12 163.072C188.509 164.515 187.802 165.869 186.957 167.191C185.342 169.719 183.451 172.065 181.431 174.278C179.599 176.285 177.195 177.512 174.424 177.308C173.257 177.222 172.079 176.926 171.056 176.343C169.841 175.651 168.522 173.572 166.972 174.075C166.822 174.124 166.682 173.904 166.812 173.8C168.601 172.36 170.632 174.593 172.345 175.131C174.927 175.942 177.575 175.046 179.237 172.96C180.972 170.783 182.568 168.344 184.026 165.974C184.767 164.77 185.442 163.52 186.025 162.233C186.614 160.933 186.748 159.52 187.232 158.195ZM183.071 147.914C182.996 147.684 183.282 147.464 183.485 147.596C184.661 148.361 185.68 149.372 186.764 150.258C187.968 151.24 189.18 152.203 190.411 153.151C192.205 154.534 190.124 157.079 188.544 155.569C186.383 153.503 184.016 150.802 183.071 147.914ZM176.616 139.829C177.093 137.988 179.918 138.747 179.507 140.566L179.493 140.622C178.714 143.627 179.824 146.686 182.195 148.634L182.282 148.705C183.782 149.904 181.657 152.002 180.172 150.814C176.93 148.22 175.581 143.816 176.616 139.829Z" fill="black"/>
<path fill-rule="evenodd" clip-rule="evenodd" d="M137.395 32.9512L139.555 35.5241C138.359 36.3683 137.23 37.2166 136.168 38.0689L136.167 38.0663C141.086 34.8515 146.535 32.9512 152.421 32.9512C163.758 32.9512 186.786 42.7045 191.992 49.7395C194.575 53.2308 199.376 63.9486 201.866 75.6008C203.867 84.9632 206.843 111.413 203.867 121.352C200.058 134.072 187.528 145.828 174.607 145.828C161.686 145.828 141.627 136.486 127.35 116.013C126.697 115.077 119.2 113.992 113.853 110.478L115.257 125.97L116.324 134.982L116.088 135.624C112.258 145.998 109.223 151.411 106.983 151.861C104.697 152.321 100.041 148.568 93.0167 140.602L92.1191 136.829C89.8393 127.204 88.6993 122.038 88.6993 121.33L88.7009 121.201C88.7345 119.572 89.2948 110.352 89.3064 107.87L89.3065 70.6816C96.8614 45.528 104.071 32.9512 110.935 32.9512H137.395Z" fill="#EDB98A"/>
<path fill-rule="evenodd" clip-rule="evenodd" d="M119.494 24.3852C121.715 23.5236 124.288 23.6864 126.397 24.9839C130.536 24.8061 134.653 27.2308 136.811 30.7702C136.856 30.8203 136.904 30.8704 136.947 30.9205L137.404 31.4544C137.837 31.9643 138.294 32.5262 138.656 33.1065C136.883 33.1471 135.406 33.8708 134.375 35.3324C133.64 36.3753 135.325 37.3663 136.077 36.3799L136.103 36.3438C136.722 35.4664 137.656 35.1265 138.697 35.1087C138.995 35.1037 139.222 34.9892 139.382 34.8204C139.446 35.0531 139.503 35.2883 139.555 35.5245C144.793 33.4843 150.439 32.944 156.063 33.4279C155.816 33.8277 155.61 34.256 155.452 34.7061C155.272 35.2164 155.656 35.8023 156.151 35.9386C156.686 36.0858 157.17 35.7717 157.363 35.2862L157.381 35.2387C157.597 34.6255 157.95 34.0992 158.424 33.6912C161.071 34.0506 163.7 34.6222 166.264 35.3592C169.346 36.2457 172.399 37.3275 175.385 38.5662C174.879 38.7648 174.442 39.1005 174.137 39.6608C173.526 40.7793 175.205 41.7811 175.842 40.7119L175.864 40.6723C175.927 40.5576 175.982 40.4887 176.023 40.4494L176.037 40.4361L176.125 40.3955L176.289 40.3484L176.352 40.3329C176.408 40.3204 176.431 40.3212 176.577 40.3131C176.772 40.3021 176.967 40.3031 177.161 40.3028C177.62 40.3026 177.912 40.0468 178.044 39.7197C179.518 40.3857 180.972 41.0871 182.401 41.8218L182.741 41.9979C187.151 44.3058 191.33 47.3367 193.754 51.7963C193.914 52.0944 193.964 52.42 193.924 52.7306C194.441 53.3518 194.942 53.9931 195.422 54.6443C196.887 56.6382 197.96 58.9052 198.976 61.1521C201.019 65.6709 202.395 70.3124 203.468 75.1519C204.506 79.816 205.344 84.5302 206.122 89.2444C206.984 94.4822 207.702 99.765 207.852 105.078C208.118 114.549 206.269 124.075 200.959 132.048C196.222 139.162 189.089 144.81 180.63 146.619C172.027 148.458 162.923 146.664 156.142 140.923C155.049 139.999 155.2 138.132 156.142 137.186C157.21 136.118 158.786 136.266 159.874 137.186C166.259 142.594 175.553 143.428 183.247 140.672C190.36 138.122 195.932 132.241 199.351 125.636C203.523 117.58 204.226 108.327 203.585 99.4143C203.235 94.5197 202.507 89.6653 201.757 84.8183L201.304 81.9007C200.81 78.7405 200.291 75.5847 199.614 72.4566L199.455 71.7279C198.628 67.9558 197.659 64.0869 196.16 60.5409C195.374 58.6797 194.429 56.8862 193.461 55.1153C193.274 54.7721 193.081 54.4239 192.883 54.0732C192.618 54.1659 192.315 54.1809 191.998 54.0807C189.264 53.2291 186.455 52.658 183.597 52.4676C182.295 52.3804 180.99 52.3669 179.687 52.4177C177.457 52.2877 175.165 52.4841 173.04 53.169C172.832 52.9904 172.622 52.8155 172.411 52.6407C172.354 52.6362 172.298 52.6302 172.24 52.6189C171.698 52.5122 171.317 52.1264 171.088 51.6392C171.076 51.6134 171.065 51.5876 171.055 51.5618C170.783 51.3537 170.509 51.1488 170.232 50.9466C169.558 51.1217 168.967 50.5599 168.808 49.9442C168.658 49.8427 168.505 49.7445 168.354 49.6451C168.235 49.6741 168.117 49.6982 168.002 49.7067C167.505 49.7425 167.026 49.6664 166.586 49.4292C166.029 49.1288 165.673 48.6444 165.435 48.094C164.593 48.1459 163.74 47.8721 162.987 47.3771C162.376 46.9756 161.908 46.4213 161.442 45.8679C155.77 43.3342 149.605 41.8383 143.424 41.4551C142.816 41.5723 142.211 41.7118 141.614 41.8741C141.473 41.9127 141.272 41.9884 141.041 42.079C142.419 41.9122 143.815 41.8957 145.23 42.0998C151.947 43.0725 157.178 48.1088 161.68 52.8629C162.751 52.6462 163.833 54.0352 162.842 54.955L155.115 62.1267C155.304 62.9288 154.386 63.7193 153.581 63.5267C152.232 63.2021 150.881 62.8864 149.528 62.5761C148.118 63.2597 146.344 63.1427 145.065 62.1518C145.005 62.1057 144.876 62.032 144.764 61.9589C144.659 62.0458 144.517 62.133 144.461 62.17C144.006 62.4716 143.452 62.5603 142.92 62.4756C142.374 62.3887 141.88 62.1109 141.455 61.765C141.184 61.5447 140.553 60.6252 140.201 60.5575L140.167 60.5536C140.402 60.5604 139.648 61.2615 139.446 61.4065C138.974 61.744 138.452 61.9213 137.864 61.8567C136.84 61.7438 135.96 60.8093 135.459 59.9463L135.422 59.8801L135.406 59.839L135.392 59.8834C135.39 59.8913 135.387 59.8997 135.384 59.9091C135.309 60.1123 135.073 60.3432 134.913 60.4852C134.457 60.8893 133.892 61.0669 133.289 60.9614C132.778 60.8724 132.349 60.5635 132.004 60.1896L131.95 60.1301C131.848 60.0147 131.175 59.1095 131.281 58.8926L131.294 58.8744L131.26 58.8673C130.851 58.968 130.508 58.8671 130.256 58.6559C128.852 58.3478 127.466 57.9889 126.124 57.5325C126.019 57.8281 125.917 58.1236 125.817 58.4217C126.549 58.8751 127.227 59.5214 127.85 59.9823C129.031 60.854 130.211 61.7257 131.389 62.5999L136.057 66.0481L136.59 65.9046C137.272 65.7212 137.857 66.1189 138.108 66.7267L138.128 66.7793C138.228 67.0456 138.347 67.2918 138.488 67.5275C139.655 67.4809 140.643 68.1983 140.962 69.2273C141.25 69.2208 141.541 69.2318 141.839 69.2646C142.654 69.3543 143.203 69.9605 143.056 70.7929L143.045 70.85L143.025 70.9427C143.497 71.1436 143.84 71.5316 143.916 72.1182C144.042 72.3088 144.145 72.5163 144.21 72.7472C144.551 73.9456 143.888 75.4269 143.534 76.5749L143.507 76.6649C143.28 77.4193 143.046 78.1702 142.808 78.9207L142.217 80.784C140.577 85.9772 138.978 91.4526 140.305 96.8969C140.588 98.0491 139.117 98.5701 138.48 97.6684C136.933 95.4851 135.263 93.4278 133.509 91.453L133.424 91.4395C132.196 91.1922 131.719 90.3233 131.155 89.4375C130.823 89.5355 130.466 89.5585 130.12 89.4919C129.621 89.3955 129.173 89.1097 128.82 88.7487C128.52 88.4426 128.246 87.6576 127.892 87.4629C127.449 87.2197 126.559 87.5674 126.031 87.4892C125.601 87.4259 125.199 87.2781 124.81 87.0925C124.094 88.0696 123.62 89.2184 123.503 90.4568C123.458 90.9277 123.318 91.326 123.115 91.6566C123.861 91.6291 124.609 91.6817 125.347 91.8195C128.078 92.3279 130.036 94.0162 131.137 96.5312C131.184 96.6414 131.041 96.7316 130.976 96.6263C129.343 94.1089 125.789 93.9812 123.208 94.8679C120.467 95.8098 118.929 98.227 118.381 100.985C117.781 104.008 118.551 107.267 120.194 109.842C120.957 111.039 121.998 112.132 123.381 112.572C125.024 113.096 126.542 112.159 128.225 112.643C129.371 112.971 129.876 114.08 129.668 115.19C129.586 115.626 129.433 116.007 129.228 116.337C129.834 117.54 130.394 118.777 131.106 119.914C132.207 121.67 133.538 123.123 134.988 124.588C136.486 126.101 138.012 127.584 139.615 128.987C141.151 130.332 142.912 131.289 144.522 132.521C145.653 133.386 146.213 134.598 145.655 135.986C145.195 137.133 143.644 138.11 142.389 137.591C139.985 136.599 137.882 134.911 135.966 133.173C134.19 131.56 132.645 129.631 131.477 127.537C130.375 125.562 129.563 123.32 128.878 121.161L128.793 120.891C128.47 119.864 128.13 118.709 127.91 117.545C126.592 118.266 124.804 118.371 123.393 118.176C121.115 117.863 119.036 116.713 117.465 115.037C116.733 114.258 116.086 113.368 115.528 112.404C115.578 112.991 115.609 113.559 115.641 114.075C116.947 115.508 117.471 117.575 117.007 119.461C118.1 120.587 118.406 122.277 117.836 123.717C119.031 124.905 118.986 126.795 118.469 128.511C119.883 130.094 120.017 132.559 118.913 134.344L118.88 134.473C119.994 136.34 119.743 138.754 118.347 140.403C119.3 142.256 119.153 144.748 116.769 145.466C115.901 145.728 115.059 145.505 114.429 145.017C115.004 147.883 115.262 150.792 114.494 153.67C114.189 154.812 113.074 155.647 111.901 155.647C110.92 155.647 110.207 155.153 109.715 154.427C109.772 155.872 109.685 157.325 109.377 158.79C109.192 159.675 108.372 160.365 107.502 160.579C107.816 160.933 107.941 161.446 107.64 161.98C106.364 164.242 103.282 163.304 103.073 161.137C102.203 160.486 101.798 159.418 101.63 158.263C101.386 156.579 101.298 154.923 101.021 153.261L100.915 153.36L100.861 153.407L100.843 153.528C100.685 154.349 100.222 154.924 99.6215 155.268C99.752 156.701 99.5104 158.161 98.6025 159.249C97.9978 159.974 96.9676 160.26 96.0845 160.103C96.0289 160.105 95.9722 160.105 95.9131 160.097C93.913 159.831 92.7558 157.931 93.2822 156.187C92.4769 155.199 92.1377 153.945 92.3761 152.705C90.8177 151.672 90.8494 149.402 91.3892 147.578C89.7555 146.287 89.1409 143.873 89.9618 141.955C88.4894 140.123 88.2846 137.571 89.285 135.486C87.665 134.153 87.6743 131.58 89.281 130.217C88.4254 128.516 87.9094 126.477 88.7645 124.921C88.1613 124.254 87.8301 123.303 87.8999 122.385C88.0022 121.037 88.8931 120.105 89.9986 119.484L90.0751 119.062C90.3347 119.094 90.6113 119.022 90.8552 118.787C91.0965 118.555 91.3449 118.368 91.6018 118.214C91.8926 118.21 92.143 118.08 92.3191 117.88C92.8008 117.717 93.3188 117.644 93.8932 117.638C95.134 117.624 95.1778 115.766 94.0231 115.645C93.8407 115.461 93.5896 115.345 93.3172 115.345L93.104 115.346C92.6053 115.351 92.1019 115.382 91.6393 115.58C91.3386 115.709 91.1068 115.903 90.937 116.14C90.9052 116.5 90.7101 116.858 90.2877 117.154C89.7997 117.495 89.1324 117.535 88.6102 117.226C87.8791 116.793 87.8716 116.118 87.9559 115.383C88.1405 113.777 87.2181 112.265 87.4377 110.621C87.535 109.894 87.7766 109.267 88.1705 108.76C87.3399 107.515 87.1933 105.907 87.8329 104.541C86.5005 103.105 86.2702 100.892 87.1198 99.1646C87.1321 99.1227 87.1416 99.0799 87.1548 99.0386C87.2509 98.745 87.3832 98.4802 87.529 98.227C86.7832 96.9329 86.7887 95.3451 87.5467 94.0566C86.3985 92.716 86.362 90.5825 87.3832 89.1382C87.3892 89.0185 87.4017 88.8988 87.4119 88.779C86.9432 87.5604 87.0558 86.1749 87.6503 85.0417C87.4382 84.552 87.2746 84.0247 87.1701 83.4631C86.9022 82.0153 87.04 80.6076 87.4402 79.1948C87.505 78.9719 87.5775 78.7489 87.655 78.526C87.668 77.5583 87.7048 76.595 87.7533 75.6333C87.5632 74.8193 87.5325 73.9247 87.5283 73.0943L87.5271 72.5557C87.5178 71.1853 87.4224 69.1787 88.2876 68.0137C87.7321 66.7552 87.9604 65.1697 88.8876 64.1722C88.2368 63.0513 88.1002 61.6748 88.7543 60.4311C88.8593 60.231 88.9811 60.0446 89.1147 59.8683C89.0607 58.7293 89.3 57.5548 89.906 56.4228C90.2997 55.6859 90.8877 55.0479 91.5867 54.5374C91.575 54.3863 91.5677 54.2355 91.5702 54.087C91.5825 53.4242 91.7293 52.7587 91.9764 52.1377C91.533 51.3797 91.3274 50.5253 91.5867 49.6045C91.8769 48.5625 92.64 47.6657 93.5926 47.1597C93.6694 46.1773 93.8227 45.2006 94.0418 44.237C93.4563 42.9312 93.9225 41.2078 95.2458 40.4386C95.0733 39.3951 95.2288 38.3129 95.9872 37.4978C96.2745 37.189 96.6132 36.9548 96.9776 36.7995C96.802 35.7502 97.0001 34.6586 97.7247 33.8041C98.3164 33.1065 99.1933 32.6827 100.086 32.6203C100.429 30.7953 102.17 29.4306 104.007 29.5393C104.237 28.7357 104.785 28.0351 105.636 27.6799C105.854 27.589 106.074 27.5291 106.293 27.4958C107.787 25.9869 110.011 24.9641 111.936 24.4403C113.867 23.9171 115.824 23.8664 117.482 24.4748L117.603 24.5205L117.738 24.503C118.324 24.4378 118.909 24.4003 119.494 24.3852ZM104.82 148.061C104.304 147.9 103.729 148.251 103.589 148.76C103.442 149.298 103.77 149.832 104.288 149.993C104.933 150.194 105.611 150.245 106.283 150.245C106.823 150.246 107.283 149.784 107.283 149.243C107.283 148.7 106.825 148.242 106.283 148.241C105.736 148.241 105.332 148.221 104.82 148.061ZM100.232 137.42C99.4612 137.421 98.7999 137.605 98.2281 138.146C97.847 138.507 97.8375 139.205 98.2281 139.564C98.6227 139.926 99.1952 139.947 99.6003 139.602L99.6783 139.532C99.6876 139.524 99.6949 139.517 99.7008 139.511C99.7333 139.49 99.766 139.469 99.8006 139.45L99.7353 139.493C99.6856 139.529 99.8009 139.47 99.8655 139.443L99.8858 139.434L99.8924 139.433L99.9441 139.429C100.04 139.424 100.136 139.424 100.232 139.424C100.755 139.424 101.257 138.964 101.233 138.422C101.208 137.88 100.793 137.42 100.232 137.42ZM114.783 131.063C115.866 130.398 114.899 128.697 113.813 129.31L113.773 129.333C113.217 129.675 112.532 129.629 111.901 129.629C110.614 129.63 110.611 131.634 111.901 131.633L112.114 131.632C113.039 131.625 113.974 131.56 114.783 131.063ZM106.261 123.749C105.442 123.595 104.526 123.457 103.665 123.551L103.522 123.569H103.257C103.027 123.569 102.804 123.662 102.626 123.808C102.342 123.925 102.074 124.083 101.83 124.295C100.855 125.142 102.275 126.554 103.245 125.713C103.298 125.666 103.361 125.627 103.43 125.596L103.484 125.573H104.554C104.651 125.573 104.746 125.553 104.838 125.524C105.186 125.571 105.509 125.64 105.729 125.682C106.987 125.919 107.526 123.988 106.261 123.749ZM105.347 104.517C103.779 103.788 102.042 103.794 100.592 104.805C99.5545 105.528 100.518 107.234 101.564 106.561L101.601 106.535C101.731 106.445 101.865 106.369 102 106.3C102.736 106.513 103.477 106.523 104.189 106.261L104.282 106.225L104.337 106.247C105.498 106.786 106.515 105.059 105.347 104.517ZM122.424 101.377C120.839 101.199 120.827 98.6927 122.424 98.8721C125.795 99.2508 128.855 100.752 131.095 103.33C132.138 104.529 130.421 106.283 129.36 105.138L129.327 105.101C127.545 103.051 125.141 101.682 122.424 101.377ZM104.676 88.5087C104.324 88.4702 103.973 88.4509 103.627 88.4677C102.796 88.5077 101.784 89.0628 102.149 90.0658C102.441 90.8694 103.399 90.9012 103.873 90.4726C104.069 90.4773 104.266 90.4904 104.462 90.5104C104.984 90.5643 105.502 90.6639 106.017 90.7656C107.275 91.0134 107.813 89.0824 106.549 88.8331L105.99 88.7223C105.801 88.6854 105.611 88.6493 105.42 88.6162C105.306 88.5593 105.183 88.521 105.052 88.5112L104.986 88.5087H104.676ZM94.7356 72.9621L94.6181 72.9462C92.9286 72.7297 90.2166 72.9289 90.0116 75.0828C89.8983 76.2756 91.619 76.3505 91.9587 75.3305C93.2062 75.1053 94.464 75.0622 95.703 75.199C96.1757 74.7181 96.1795 73.7935 95.3926 73.5628C95.2816 73.2637 95.0498 73.0075 94.7356 72.9621ZM133.354 69.3243C132.963 68.9653 132.323 68.9177 131.939 69.3243C131.717 69.5582 131.533 69.8182 131.386 70.1043L131.289 70.2974C131.272 70.3295 131.256 70.3614 131.238 70.3929C131.205 70.4512 131.168 70.5068 131.133 70.5634L131.109 70.5871C131.099 70.5968 131.088 70.6085 131.074 70.6228C130.714 71.0038 130.669 71.6668 131.074 72.0398C131.465 72.3988 132.105 72.4464 132.489 72.0398C132.71 71.8059 132.895 71.5461 133.042 71.2598L133.139 71.0668C133.155 71.0348 133.172 71.003 133.19 70.9715C133.223 70.9129 133.26 70.8573 133.295 70.8006L133.335 70.7608C133.341 70.7549 133.347 70.7484 133.354 70.7413C133.714 70.3605 133.759 69.6972 133.354 69.3243ZM112.838 66.7149C111.429 65.7145 109.752 65.6679 108.457 66.8715C107.521 67.7402 108.895 69.1321 109.838 68.3181L109.871 68.2885C109.906 68.2564 109.94 68.2284 109.975 68.2016C110.144 68.3459 110.359 68.4373 110.604 68.4375C110.669 68.4377 110.733 68.4375 110.797 68.4389L110.893 68.4423L110.944 68.4465L110.951 68.4478L110.996 68.467C111.078 68.5041 111.192 68.5615 111.036 68.4638C111.071 68.4821 111.103 68.5037 111.136 68.5247L111.194 68.5771C111.571 68.9342 112.223 68.9813 112.598 68.5863C113.261 68.3619 113.613 67.2642 112.838 66.7149ZM126.62 63.4323L126.645 63.4242C127.881 63.0708 127.356 61.1368 126.113 61.4917C124.795 61.8687 124.166 63.0974 123.902 64.3558C123.791 64.8851 124.057 65.4389 124.601 65.5885C125.098 65.725 125.72 65.4206 125.832 64.8886C125.91 64.5145 126 64.197 126.143 63.9025L126.229 63.7343C126.27 63.6577 126.284 63.645 126.42 63.5257C126.443 63.5056 126.547 63.4571 126.62 63.4323ZM105.684 53.3398L105.491 53.2956C104.287 53.0315 102.689 52.8935 101.961 54.089C101.299 55.1781 102.971 56.1696 103.659 55.1401C103.67 55.1397 103.682 55.1398 103.696 55.141L103.719 55.1436L104.027 55.1185C104.412 55.1158 104.779 55.1839 105.152 55.2723C106.404 55.5691 106.939 53.6374 105.684 53.3398ZM148.912 45.6362C149.824 44.7232 148.409 43.3057 147.497 44.2195C146.776 44.9416 146.081 45.6688 145.612 46.5864C145.366 47.0678 145.487 47.6735 145.971 47.9573C146.418 48.219 147.093 48.0813 147.34 47.5978C147.746 46.8025 148.259 46.291 148.912 45.6362ZM137.409 43.2396C136.508 43.7736 135.925 44.6533 135.571 45.6716C135.393 46.1826 135.773 46.7675 136.27 46.904C136.803 47.0508 137.291 46.7378 137.483 46.2517L137.5 46.2041C137.595 45.9318 137.747 45.6102 137.934 45.3675C138.094 45.1603 138.343 44.9529 138.531 44.884C138.982 44.7182 139.301 44.3089 139.259 43.831C138.518 44.0877 137.829 43.7789 137.409 43.2396ZM110.448 38.8811C109.539 38.0364 108.32 37.9244 107.219 38.4357C106.728 38.6631 106.605 39.3713 106.86 39.8066C107.154 40.3103 107.736 40.3945 108.228 40.1661C108.102 40.2247 108.33 40.1473 108.429 40.119C108.441 40.1248 108.606 40.1173 108.663 40.1181L108.732 40.1224C108.732 40.1229 108.716 40.1226 108.681 40.1215C108.729 40.1323 108.777 40.1453 108.824 40.1602L108.883 40.1809C108.853 40.1746 108.988 40.2629 109.026 40.2922L109.033 40.2978C109.976 41.1743 111.394 39.7605 110.448 38.8811Z" fill="black"/>
<path fill-rule="evenodd" clip-rule="evenodd" d="M170.344 113.849C171.746 111.544 174.735 117.19 175.052 118.161C175.334 119.021 175.519 119.902 175.614 120.794C176.701 121.037 177.829 121.038 178.943 120.824C180.599 120.507 181.61 119.617 183.049 118.854C184.043 118.326 185.295 118.945 185.812 119.82C186.42 120.85 186.033 121.919 185.233 122.687C183.717 124.144 180.734 124.478 178.755 124.091C177.621 123.87 176.582 123.445 175.664 122.827C175.658 122.943 175.654 123.058 175.645 123.173L175.628 123.373C175.475 124.988 175.031 127.019 173.776 128.07C171.717 129.794 169.176 126.478 171.177 124.756L171.239 124.704C172.482 123.7 172.754 121.006 172.687 119.522C172.643 118.554 172.466 117.573 172.16 116.651L172.097 116.467C172.005 116.206 171.001 113.735 170.638 114.049L170.621 114.067C170.471 114.246 170.229 114.038 170.344 113.849ZM181.539 100.842C183.431 101.992 186.315 104.673 184.279 107.523C181.883 110.037 178.432 107.155 176.732 105.852C175.155 104.842 173.383 107.439 174.846 108.619C187.133 117.71 192.12 101.143 182.496 99.4903C181.436 99.3082 181.043 100.486 181.539 100.842ZM161.329 90.2147C163.178 89.8868 165.073 90.3464 166.604 91.428L166.72 91.5114C168.194 92.5892 169.844 94.4818 168.998 96.3396C168.658 97.0856 167.641 97.2026 166.996 96.8644C165.921 96.3013 165.727 94.9158 164.768 94.1491C163.982 93.5206 162.923 93.1394 161.911 93.2313C159.532 93.4472 158.068 95.792 157.33 97.8127C157.235 98.0712 156.855 98.1717 156.707 97.8942C154.965 94.6398 158.049 90.7963 161.329 90.2147ZM190.956 88.9865C194.5 88.6947 198.647 92.3659 197.714 96.1037C197.267 97.8972 194.605 97.8458 194.132 96.1037C193.871 95.145 193.897 94.2969 193.207 93.5008C192.637 92.8435 191.827 92.4618 190.956 92.5204C189.997 92.585 189.112 93.0642 188.44 93.7378C187.832 94.346 187.469 95.236 186.84 95.7743C186.685 95.9065 186.478 95.915 186.325 95.7743C185.242 94.7766 185.892 92.6995 186.579 91.658C187.561 90.1676 189.161 89.1345 190.956 88.9865ZM154.581 83.5854C156.854 81.5745 160.984 79.6324 164.049 80.6221C165.812 81.191 166.58 84.0288 164.613 84.9283C162.335 85.9698 159.708 85.546 157.39 86.6256C156.416 87.0792 155.5 87.6461 154.822 88.4775C154.288 89.1327 153.745 89.9949 152.972 90.3727C152.769 90.4721 152.494 90.4746 152.331 90.2903C150.638 88.376 153.103 84.8932 154.581 83.5854ZM187.05 80.5223C188.454 80.1283 190.013 80.1363 191.44 80.3838C192.867 80.6313 194.315 81.2222 195.48 82.0841L195.615 82.185C196.887 83.1426 198.404 84.5359 198.323 86.2322C198.255 87.6487 196.764 88.6068 195.476 87.8644C194.427 87.259 193.933 86.0461 193.045 85.2385C192.312 84.572 191.45 84.0464 190.531 83.6782C189.511 83.2692 188.489 83.0775 187.393 83.0593C186.55 83.0452 185.701 83.3218 184.874 83.4102C184.942 83.55 184.288 83.4848 183.913 83.3608C183.635 83.2426 183.634 82.8917 183.73 82.664C184.207 81.536 185.945 80.8319 187.05 80.5223Z" fill="black"/>
<defs>
<clipPath id="clip0_1_705">
<rect width="294" height="33" fill="white" transform="translate(0 289)"/>
</clipPath>
</defs>
</svg>
