<svg width="295" height="322" viewBox="0 0 295 322" fill="none" xmlns="http://www.w3.org/2000/svg">
<g clip-path="url(#clip0_1_759)">
<path d="M146.892 322C228.018 322 293.783 314.657 293.783 305.599C293.783 296.541 228.018 289.198 146.892 289.198C65.7657 289.198 0 296.541 0 305.599C0 314.657 65.7657 322 146.892 322Z" fill="#F7859C"/>
</g>
<path fill-rule="evenodd" clip-rule="evenodd" d="M202.076 178.064C199.899 177.288 197.802 176.393 195.89 175.075C190.381 170.976 186.788 164.808 183.393 158.964C178.612 150.464 175.205 141.407 172.85 131.958C171.839 127.899 171.495 123.192 169.196 119.593C163.985 112.057 148.704 113.034 140.589 114.356C135.156 115.317 134.033 121.395 132.798 125.892C131.771 129.628 131.098 133.407 130.533 137.237C129.19 138.119 127.673 138.836 126.228 139.461C110.473 144.289 107.704 153.24 101.686 167.066C91.5227 187.163 63.9439 195.031 59.778 218.815C57.094 234.517 64.7266 249.289 72.5959 262.343C79.9245 276.601 90.1557 283.444 106.449 280.076C121.732 276.649 136.419 270.918 151.433 266.489C158.705 264.702 165.965 260.055 173.614 261.675C189.375 265.213 205.569 266.876 221.722 266.417C244.401 267.333 244.397 245.58 242.069 228.734C240.439 202.517 227.208 185.683 202.076 178.064Z" fill="#AE5D29"/>
<path fill-rule="evenodd" clip-rule="evenodd" d="M203.592 215.999C205.487 217.252 207.081 219.15 208.361 221.149C203.019 220.594 197.687 219.953 192.366 219.224C193.063 218.78 193.766 218.344 194.485 217.934C197.108 216.456 200.663 214.063 203.592 215.999ZM114.845 231.779C113.867 231.396 113.488 229.905 113.106 229.05C111.91 226.369 110.819 223.643 109.683 220.935C113.995 219.707 118.188 218.344 122.655 217.689C127.458 216.986 132.332 216.816 137.179 216.974C146.998 217.294 156.725 218.897 166.378 220.617C176.02 222.335 185.661 223.985 195.37 225.28C204.883 226.549 214.425 227.477 223.986 228.292C225.843 228.451 228.94 229.118 230.434 227.658C231.617 226.501 231.655 224.367 230.175 223.426C229.253 222.84 227.918 222.831 226.864 222.696C225.538 222.525 224.206 222.412 222.872 222.323C222.328 222.288 221.785 222.255 221.241 222.221C225.606 220.577 230.166 219.68 234.898 219.93C235.166 221.554 236.372 223.226 237.031 224.566C238.184 226.906 239.082 229.274 239.672 231.818C240.905 237.135 240.958 242.654 240.61 248.077C240.29 252.599 239.603 257.601 236.054 260.803C233.367 263.228 229.576 264.126 226.059 264.408C221.971 264.736 217.82 264.386 213.766 263.838C208.081 263.07 202.369 262.054 196.795 260.692C186 258.055 175.653 253.859 166.106 248.17C161.451 245.396 157.008 242.275 152.289 239.606C147.48 236.886 142.363 234.776 136.99 233.466C130.977 232 124.691 231.374 118.51 231.736C117.438 231.799 115.889 232.187 114.845 231.779ZM107.877 229.057C108.509 231.106 108.992 233.446 110.341 235.168C111.677 236.874 113.692 237.477 115.78 237.628C118.298 237.811 120.845 237.694 123.368 237.788C128.542 237.98 133.645 238.82 138.592 240.36C143.202 241.796 147.481 244.036 151.603 246.521C155.414 248.819 159.114 251.286 162.927 253.577C161.913 254.042 160.909 254.545 159.9 254.983C157.785 255.901 155.656 256.787 153.517 257.651C149.3 259.355 145.065 261.017 140.787 262.561C132.161 265.674 123.393 268.394 114.519 270.711C110.287 271.816 105.994 273.107 101.597 273.291C97.6983 273.454 94.0868 272.352 90.9423 270.035C84.4203 265.23 79.2313 258.294 75.0367 251.452C72.5446 247.388 70.3698 243.117 68.571 238.701C67.6612 236.468 66.8361 234.2 66.0934 231.906C65.745 230.829 65.4147 229.746 65.1019 228.658C64.9643 228.18 64.8325 227.7 64.7019 227.219C71.3711 225.185 78.1195 223.349 85.0263 222.33C88.7139 221.786 92.4507 221.51 96.1787 221.55C98.0291 221.57 99.8786 221.67 101.719 221.861C102.71 221.963 103.697 222.096 104.679 222.26C105.085 222.327 105.503 222.427 105.921 222.5C106.561 224.69 107.205 226.877 107.877 229.057ZM245.738 220.352C246.098 219.625 246.249 218.91 246.378 218.119C246.476 217.516 246.737 216.666 246.509 215.883C246.253 215.005 245.556 214.22 245.056 213.472C244.504 212.645 243.953 211.817 243.402 210.989C242.3 209.333 241.2 207.676 240.102 206.017C235.619 199.243 231.167 192.45 226.707 185.662C222.749 179.637 218.859 173.558 214.78 167.615C211.293 162.532 207.492 157.534 202.719 153.581C196.684 148.583 189.498 146.229 181.992 144.392C181.172 143.542 180.077 143.077 178.906 143.171C177.253 141.297 175.938 139.988 175.342 137.604C175.057 136.462 175.146 133.254 174.034 132.579C172.712 131.776 172.022 132.838 171.658 134.036C170.438 138.041 171.838 143.426 175.058 147.438C173.701 152.125 171.902 158.786 168.693 162.541C165.256 166.561 160.503 167.813 155.375 167.895C145.596 168.052 135.827 164.42 128.368 158.125C126.1 156.212 123.995 154.075 122.09 151.802C120.661 150.097 118.971 147.465 117.853 145.477C117.853 144.702 116.937 143.891 126.259 143.265C135.581 142.639 136.288 129.882 136.495 128.146C136.664 126.736 137.38 124.548 136.386 123.398C135.964 122.91 135.099 122.831 134.564 123.163C133.555 123.789 133.224 125.39 132.907 126.476C132.463 127.999 131.011 137.449 128.259 138.544C126.971 139.056 125.494 139.065 124.132 139.16C122.449 139.277 120.763 139.363 119.087 139.559C118.469 139.631 117.795 139.831 117.185 139.837C116.789 139.841 116.379 139.648 115.996 139.513C114.701 139.056 113.408 139.398 112.075 139.578C100.286 141.161 88.1472 144.775 78.0917 151.277C69.2286 157.008 62.9845 165.251 58.8643 174.888C54.6604 184.722 52.2507 195.357 50.2314 205.827C49.5549 209.335 48.9641 212.859 48.4566 216.395C47.9661 219.812 47.3525 223.305 47.2057 226.757C47.1475 228.122 47.4741 229.391 47.9766 230.638C48.5426 232.042 49.8802 232.596 51.1632 233.252C53.9796 234.691 56.9507 235.808 60.0117 236.599C61.8817 239.999 63.4555 243.531 64.7202 247.198C64.251 248.127 64.2412 249.514 64.151 250.417C63.9272 252.666 63.8314 254.926 63.8114 257.185C63.771 261.713 64.0435 266.236 64.257 270.757C64.4736 275.341 65.1934 293.432 65.3107 295.641C65.4019 297.357 65.2791 299.757 66.1837 301.281C67.5737 303.622 71.0044 303.544 72.5934 301.645C112.075 310.127 186.289 307.572 216.178 303.305C220.067 302.749 218.846 303.365 219.835 302.383C220.577 301.646 221.209 300.383 221.414 299.368C221.688 298.014 221.246 296.788 220.47 295.692C219.654 294.539 219.505 292.673 219.202 291.303C218.486 288.064 218.129 273.839 217.795 272.262C217.69 271.771 217.589 271.252 217.467 270.732C222.95 271.251 228.663 271.251 233.879 269.419C236.837 268.38 239.595 266.747 241.719 264.416C244.29 261.594 245.72 258.041 246.456 254.333C247.405 249.551 247.606 244.597 247.42 239.736C247.161 233.991 246.207 228.165 243.841 222.89C244.62 222.167 245.272 221.295 245.738 220.352Z" fill="black"/>
<path fill-rule="evenodd" clip-rule="evenodd" d="M153.602 27.3398C167.803 27.3398 182.492 38.3644 187.698 45.3994C193.717 53.5341 198.465 92.5845 196.238 105.835C194.01 119.086 182.946 133.528 163.738 133.528C144.53 133.528 132.841 131.159 132.372 127.717C132.059 125.423 127.836 117.89 119.703 105.118C111.384 102.775 107.209 98.8044 107.176 93.207C107.144 87.6097 109.372 83.7927 113.863 81.7562C112.262 59.6665 113.477 45.7461 117.509 39.9951C123.557 31.3684 139.401 27.3398 153.602 27.3398Z" fill="#AE5D29"/>
<path fill-rule="evenodd" clip-rule="evenodd" d="M146.372 24.0186L146.625 24.0197C162.338 24.1214 178.319 31.3628 187.667 44.0125L187.948 44.3975C187.963 44.4175 188.243 44.8345 188.309 44.9534C188.697 45.6498 189.153 46.3014 189.503 47.0096C189.799 47.6108 189.995 48.2824 190.213 48.9227L190.278 49.1138C190.836 50.7119 191.306 52.325 191.722 53.9657C192.527 57.1595 193.155 60.4033 193.765 63.6396C195.946 75.2283 197.372 86.9826 198.091 98.7521L198.233 101.119C198.378 103.573 198.487 106.038 198.212 108.485C197.894 111.333 197.077 114.006 195.839 116.586C194.698 118.965 193.227 121.169 191.544 123.196C190.644 124.281 189.688 125.335 188.513 126.129C187.577 126.76 186.484 127.176 185.431 127.577C183.718 129.29 181.52 130.585 179.371 131.62C175.83 133.321 171.991 134.26 168.107 134.731C164.135 135.209 160.123 135.094 156.184 134.41C152.42 133.759 148.385 132.093 146.067 128.92C145.867 128.647 146.239 128.389 146.484 128.501C153.213 131.62 160.773 132.434 168.107 131.45C171.528 130.991 174.894 130.044 178.018 128.574C180.655 127.334 182.878 125.531 185.244 123.897C185.704 123.284 186.169 122.68 186.7 122.119L187.527 121.25C188.146 120.597 188.753 119.935 189.305 119.221C191.011 117.019 192.424 114.522 193.358 111.894C195.172 106.779 194.681 101.227 194.361 95.8965L194.333 95.4267C194.003 89.7256 193.465 84.0445 192.72 78.3834C191.974 72.7149 191.026 67.0688 189.906 61.4629C189.353 58.7 188.733 55.9546 188.185 53.1917C187.902 51.7664 187.705 50.3211 187.49 48.8808C187.36 48.0041 187.362 47.1599 187.36 46.3033C187.335 46.3433 187.305 46.3809 187.275 46.4185C187.365 46.6314 187.302 46.9044 187.082 47.0297C186.249 47.5056 185.289 47.3453 184.351 47.3478C183.355 47.3528 182.36 47.3553 181.365 47.3578C180.328 47.3616 179.291 47.3616 178.254 47.36L175.144 47.3528L162.704 47.3152C154.557 47.2908 146.272 47.6152 138.151 46.846L137.531 46.7847C136.893 46.7111 129.691 45.8291 127.743 45.6013L127.684 45.5944C124.125 45.1836 120.616 44.5749 117.157 43.6631C118.287 44.1165 119.375 44.7277 120.496 45.1911C121.942 45.7873 123.424 46.3083 124.908 46.8067C127.952 47.8312 131 48.8257 134.032 49.8828C134.901 50.1853 136.876 57.6418 137.373 58.8215L137.388 58.8553C137.641 59.4239 137.989 60.0476 137.796 60.6939C137.371 62.1217 135.117 63.1787 133.999 63.9853L132.85 64.816L131.347 65.9051C130.73 66.3473 130.161 66.6857 129.355 66.4326C129.352 66.4301 129.35 66.4301 129.347 66.4301C130.038 69.6388 130.373 80.0166 130.475 81.8377C130.565 83.4233 131.03 85.4547 130.29 86.9001C130.115 87.2432 129.66 87.5138 129.272 87.4862C127.581 87.3585 125.891 87.2332 124.2 87.108C123.747 87.0729 123.334 86.8149 123.209 86.354L123.204 86.3289C123.15 86.344 123.087 86.334 123.035 86.2789C122.942 86.1862 122.847 86.096 122.749 86.0083C120.523 84.0194 117.042 83.5285 114.296 84.563C112.855 85.1041 111.217 86.0158 110.201 87.1981C109.073 88.5107 108.831 90.3443 108.828 92.0201C108.823 95.2514 109.989 98.5228 112.367 100.765C114.553 102.823 117.372 103.421 120.209 104.01L120.513 104.074C121.161 104.209 121.366 105.176 120.879 105.582C122.177 106.854 123.297 108.372 124.39 109.772C125.841 111.63 127.229 113.561 128.58 115.497L129.231 116.433C131.554 119.753 134.916 124.326 133.454 128.476C133.259 129.035 132.444 129.235 132.126 128.649C131.083 126.72 130.5 124.596 129.51 122.645C128.537 120.731 127.326 118.958 126.126 117.184L125.433 116.156C124.28 114.44 123.138 112.705 122.079 110.937L121.342 109.713C120.649 108.557 119.963 107.362 119.453 106.12C116.039 106.944 112.327 105.111 109.929 102.668C106.913 99.5924 105.494 95.061 105.884 90.8002C106.09 88.5708 106.748 86.4141 108.378 84.811C108.543 84.6507 108.716 84.4979 108.893 84.3451C108.831 84.3125 108.778 84.2624 108.753 84.2023C107.66 81.6022 107.428 78.5037 107.335 75.7032C107.238 72.8075 107.3 69.9044 107.52 67.0137C107.923 61.7134 108.878 56.4406 110.394 51.3456C112.637 43.8159 116.492 36.444 122.649 31.3916C129.216 26.0029 138.013 24.0047 146.372 24.0186ZM113.686 89.8784C114.613 89.4569 116.06 90.2076 116.885 90.686L116.939 90.7175C119.378 92.1378 121.114 94.5575 121.916 97.2378C122.432 98.9661 119.538 99.655 119.293 97.9617C119.093 96.5815 118.632 95.2889 117.875 94.1342C117.695 94.1943 117.519 94.272 117.362 94.3722C116.759 94.7629 116.409 95.4342 115.571 95.334C114.951 95.2614 114.316 94.8306 114.358 94.1192C114.426 92.9444 115.371 92.476 116.384 92.4158C116.24 92.2862 116.094 92.158 115.944 92.0343L115.781 91.9028C115.595 91.7687 113.613 90.3996 113.556 90.7517L113.555 90.7726C113.558 90.9129 113.37 90.9931 113.275 90.8879C112.892 90.4771 113.248 90.0788 113.686 89.8784Z" fill="black"/>
<path fill-rule="evenodd" clip-rule="evenodd" d="M169.657 115.428C167.972 114.742 166.469 113.596 165.37 112.132C164.988 111.623 164.889 111.086 164.969 110.594C165.059 110.042 165.386 109.541 165.832 109.205C166.28 108.868 166.839 108.702 167.381 108.786C167.851 108.86 168.319 109.117 168.689 109.651L168.767 109.758C169.42 110.641 170.272 111.366 171.242 111.833C172.177 112.284 173.223 112.494 174.305 112.372C176.366 112.139 177.787 111.025 179.297 109.512C179.484 109.321 179.671 109.124 179.86 108.924C179.979 108.742 180.143 108.626 180.327 108.565C180.53 108.497 180.76 108.5 180.971 108.574C181.174 108.645 181.355 108.779 181.477 108.958C181.593 109.128 181.659 109.338 181.637 109.579C181.499 111.147 180.679 112.546 179.514 113.645C178.22 114.865 176.505 115.709 174.89 116.005C173.111 116.331 171.298 116.098 169.657 115.428ZM175.729 91.2414C177.622 92.3912 180.506 95.0722 178.47 97.9226C176.073 100.436 172.622 97.5542 170.922 96.2509C169.345 95.2409 167.574 97.8386 169.037 99.018C181.324 108.11 186.31 91.542 176.687 89.8896C175.627 89.7075 175.233 90.8857 175.729 91.2414ZM153.711 80.6656C153.92 78.0714 157.873 77.4823 158.266 80.0494C158.618 82.3488 158.204 84.4612 157.167 86.5315C156.177 88.5094 153.688 87.5866 153.5 85.7856C153.248 83.3714 153.581 82.2793 153.711 80.6656ZM183.803 79.5171C184.354 78.7957 185.15 78.3032 186.103 78.5815C189.082 79.4515 188.204 83.678 187.158 85.7352C186.59 86.8524 184.752 87.1357 183.922 86.1521C182.568 84.5479 181.92 81.3444 183.641 79.7643C183.687 79.6827 183.739 79.6003 183.803 79.5171ZM157.125 69.3144L157.596 69.2321C159.052 68.9805 160.862 68.7387 161.891 69.9083C162.437 70.5285 162.625 71.6813 161.891 72.2749C160.6 73.3195 159.172 72.9147 157.625 73.0031C156.35 73.0763 155.124 73.2872 153.896 73.6381C151.201 74.4079 149.005 75.8131 146.703 77.3561C146.401 77.5585 146.093 77.1725 146.237 76.8902C147.566 74.2894 150.141 72.153 152.72 70.8507C154.096 70.1556 155.603 69.5789 157.125 69.3144ZM181.088 68.1494L181.448 68.223C185.367 69.0418 190.459 70.6773 192.315 74.5247C192.386 75.0687 192.311 75.1853 192.25 75.2615L192.23 75.2868C192.18 75.3519 192.14 75.4416 191.904 75.5156C191.839 75.5 191.772 75.4835 191.706 75.466C190.855 75.2432 190.182 74.9362 189.53 74.6177L188.824 74.2698C188.004 73.8681 187.177 73.4811 186.301 73.1953C184.43 72.5856 182.506 72.1562 180.553 71.9268C180.13 71.8772 179.722 71.7343 179.4 71.4896C179.095 71.2572 178.862 70.9356 178.755 70.508C178.617 69.9547 178.657 69.5357 178.954 69.0365C179.177 68.6616 179.497 68.4018 179.864 68.2526C180.238 68.1005 180.664 68.0646 181.088 68.1494Z" fill="black"/>
<defs>
<clipPath id="clip0_1_759">
<rect width="294" height="33" fill="white" transform="translate(0 289)"/>
</clipPath>
</defs>
</svg>
