<svg width="296" height="321" viewBox="0 0 296 321" fill="none" xmlns="http://www.w3.org/2000/svg">
<g clip-path="url(#clip0_1_809)">
<path d="M147.892 321C229.018 321 294.783 313.657 294.783 304.599C294.783 295.541 229.018 288.198 147.892 288.198C66.7657 288.198 1 295.541 1 304.599C1 313.657 66.7657 321 147.892 321Z" fill="#F7859C"/>
</g>
<path fill-rule="evenodd" clip-rule="evenodd" d="M222.526 186.359C219.111 170.156 207 157.584 190.712 151.32C187.581 149.547 184.546 141.937 180.338 140.543C179.663 140.32 180.728 142.098 180.338 142.204C178.946 142.583 177.387 142.622 175.85 141.255C173.104 138.811 172.243 131.67 170.573 128.442C161.768 111.42 139.783 118.081 136.838 136.898C134.784 138.238 131.881 139.419 129.645 140.499C127.343 141.612 125.319 144.306 122.946 145.269C120.83 146.129 117.342 145.52 115.209 146.269C105.399 149.715 97.0907 154.064 90.5768 162.874C89.2043 164.732 87.6571 167.017 86.408 168.894C79.9687 176.318 75.496 184.639 71.3767 193.566C59.8516 219.769 56.7168 248.781 53.9043 277.013C53.9683 281.953 50.6952 295.651 55.5362 298.019C55.2468 298.319 55.3516 298.923 55.8885 298.917C68.1632 298.793 80.4093 299.893 92.4936 302.032C98.324 303.064 104.123 304.48 110.062 304.712C122.39 304.627 134.674 302.558 146.987 304.516C161.788 304.516 179.776 304.084 196.242 303.45C211.631 302.857 227.102 304.196 242.301 301.575C243.504 301.384 244.091 299.915 243.839 298.861C242.056 292.355 241.181 285.657 240.18 278.997C240.38 274.726 240.023 270.266 238.445 266.287C234.322 239.427 229.036 212.742 222.526 186.359Z" fill="#FFDBB4"/>
<path fill-rule="evenodd" clip-rule="evenodd" d="M180.338 142.303C180.728 142.197 179.663 140.419 180.338 140.642C184.546 142.036 187.581 149.646 190.712 151.419C207 157.683 219.111 170.255 222.526 186.458C229.036 212.841 234.322 239.526 238.445 266.386C240.023 270.365 240.38 274.825 240.18 279.096L240.337 280.148C241.276 286.461 242.15 292.796 243.839 298.961C244.092 300.014 243.504 301.483 242.301 301.674C227.275 304.265 211.982 302.986 196.766 303.529L193.595 303.649C177.866 304.228 160.998 304.615 146.987 304.615C134.675 302.657 122.391 304.726 110.062 304.811C104.123 304.579 98.3241 303.163 92.4936 302.131C80.4094 299.992 68.1632 298.892 55.8885 299.016C55.3517 299.022 55.2469 298.418 55.5362 298.118C50.6953 295.75 53.9683 282.052 53.9044 277.112L54.1586 274.57C56.9125 247.142 60.1974 219.082 71.3767 193.665L71.7115 192.942C75.7393 184.288 80.1428 176.216 86.4081 168.993L86.7913 168.418C87.9648 166.663 89.3416 164.646 90.5769 162.973C97.0908 154.163 105.399 149.814 115.209 146.368C117.342 145.619 120.83 146.228 122.946 145.368C125.165 144.467 127.08 142.052 129.202 140.833L129.202 149.925L159.906 180.215L177.32 153.473L179.091 142.521C179.517 142.494 179.935 142.413 180.338 142.303Z" fill="#8FA7DF"/>
<path fill-rule="evenodd" clip-rule="evenodd" d="M217.56 221.665C217.235 223.244 216.78 224.823 216.175 226.319C215.592 227.763 214.713 229.056 214.109 230.483C214.027 230.675 213.894 230.82 213.734 230.931L213.784 231.319L213.83 231.707C214.132 234.326 214.471 236.937 214.765 239.556L214.908 240.865C215.486 246.332 216.399 251.773 217.107 257.225C217.801 262.564 218.507 267.903 219.262 273.235C220.042 278.732 220.837 284.221 221.764 289.696C222.156 292.008 222.565 294.318 222.99 296.626L223.319 298.393C226.705 299.209 227.63 303.934 224.183 305.679C222.618 306.467 220.608 306.277 219.319 305.038C217.979 303.747 217.923 301.418 217.613 299.669L217.313 298.044C215.071 285.822 213.126 273.46 212.216 261.066C211.983 257.866 211.786 254.663 211.658 251.457C211.536 248.442 211.594 245.427 211.548 242.412L211.532 241.59C211.461 238.374 211.52 235.164 211.604 231.949C211.614 231.557 211.631 231.165 211.651 230.771C211.538 230.638 211.456 230.48 211.422 230.327L211.377 230.125C211.267 229.606 211.392 228.997 211.791 228.625C211.963 226.435 212.189 224.247 212.251 222.059C212.256 221.879 212.514 221.884 212.529 222.059C212.674 223.921 212.964 225.789 213.255 227.654C215.122 226.151 216.502 223.673 217.316 221.598C217.375 221.448 217.595 221.502 217.56 221.665ZM173.38 134.588C173.69 136.007 174.302 137.281 175.124 138.466C175.515 139.033 175.96 139.56 176.494 140.001C176.952 140.378 177.474 140.624 177.96 140.952C178.669 140.841 179.41 141.11 179.906 141.632L179.828 140.868C179.803 140.622 180.212 140.573 180.259 140.811C182.411 151.682 184.374 162.56 186.073 173.51L186.818 178.345L187.519 182.885C188.682 190.449 189.808 198.01 190.655 205.63C191.785 215.798 192.734 225.994 193.428 236.204C194.124 246.485 194.552 256.774 194.857 267.076C194.933 269.672 195.015 272.267 195.093 274.863L195.619 271.759C196.143 268.654 196.658 265.545 197.098 262.426C198.68 251.263 199.945 240.02 200.562 228.761C201.128 218.457 200.939 207.949 198.321 197.911C197.662 195.385 196.855 192.899 195.881 190.477C194.936 188.122 193.647 185.939 192.631 183.618C191.45 180.918 191.095 178.37 191.703 175.463C192.235 172.93 193.167 170.548 193.334 167.941C193.647 163.102 192.075 158.416 189.853 154.18C189.268 153.064 188.65 151.963 188.005 150.871C186.055 147.572 183.855 144.394 181.572 141.346C181.449 141.184 181.71 141.004 181.843 141.137C183.924 143.197 186.2 145.222 188.072 147.471C188.982 148.565 189.87 149.681 190.712 150.827C199.943 152.372 207.874 158.13 213.296 165.733C219.449 174.362 222.561 184.747 224.864 194.974C227.426 206.34 229.586 217.809 231.886 229.231C234.267 241.05 236.636 252.869 239.033 264.686C240.223 270.552 241.414 276.418 242.602 282.287C243.205 285.259 243.838 288.223 244.499 291.184C244.839 292.702 245.203 294.217 245.518 295.74C245.872 297.457 245.542 298.556 244.381 299.817C243.953 300.285 243.276 300.278 242.745 300.029L242.579 299.951L242.418 299.873C241.761 299.55 241.245 299.214 240.836 298.494C240.386 297.703 240.314 296.826 240.16 295.947C239.874 294.328 239.591 292.709 239.306 291.088C238.879 288.664 238.416 286.246 237.944 283.829L235.576 271.751C234.945 268.53 234.313 265.31 233.677 262.091C231.406 250.58 229.133 239.072 226.86 227.563C224.677 216.513 222.746 205.386 220.261 194.4L220.12 193.781L219.977 193.163C217.755 183.692 214.651 174.53 209.018 166.505C204.683 160.333 198.663 154.821 191.573 152.032C192.072 152.751 192.552 153.486 193.01 154.235C195.883 158.936 197.982 164.516 197.49 170.114C197.249 172.849 196.21 175.537 196.309 178.294C196.4 180.743 197.913 182.894 198.959 185.025C201.332 189.854 203.05 194.986 204.157 200.251C206.378 210.824 206.371 221.702 205.606 232.434C204.774 244.1 203.195 255.764 201.397 267.317C200.474 273.242 199.246 279.119 198.306 285.034C197.842 287.951 197.209 290.861 196.656 293.764L196.392 295.15C196.244 295.92 196.091 296.687 195.914 297.446L195.805 297.9V297.982C195.8 298.541 195.647 299.004 195.401 299.374C195.064 300.455 194.646 301.51 194.09 302.523C193.804 303.04 193.391 303.331 192.941 303.437C192.488 304.474 191.462 305.272 190.237 305.267L174.125 305.206C164.766 305.169 155.408 305.107 146.049 305.055C143.688 305.043 141.328 304.999 138.969 304.937C136.757 304.876 134.637 304.609 132.449 304.334C129.979 304.023 128.641 302.271 129.01 299.8C129.091 299.255 129.18 298.714 129.263 298.171C128.771 298.334 128.186 298.258 127.79 297.871L127.418 297.507C126.904 296.997 126.443 296.496 126.117 295.816C125.78 295.116 125.506 294.377 125.209 293.663C124.567 292.125 123.942 290.583 123.334 289.033C122.117 285.934 120.899 282.822 119.767 279.69C117.526 273.489 115.543 267.194 113.818 260.827C110.743 249.469 108.519 237.891 107.116 226.21L106.781 223.426L106.684 222.604C106.152 218.077 105.704 213.479 105.916 208.961C106.046 206.132 106.484 203.282 107.54 200.641C108.514 198.204 110.017 196.12 111.446 193.942L111.61 193.69L111.774 193.433C113.024 191.455 114.019 189.386 114.069 186.984C114.119 184.546 113.41 182.173 112.617 179.891L112.42 179.328L112.287 178.955C110.6 174.238 108.68 169.588 109.313 164.455C110.249 156.896 114.824 150.803 120.581 146.104C115.461 147.119 110.394 149.124 105.921 151.667C100.639 154.673 95.8832 158.64 91.782 163.117C84.0324 171.577 78.4994 181.729 73.9704 192.21C69.2293 203.179 65.7137 214.672 63.0643 226.316C60.3999 238.027 58.6162 249.925 57.3982 261.869C56.7908 267.815 56.3132 273.774 55.9174 279.737C55.7157 282.792 55.5631 285.852 55.327 288.903C55.0908 291.95 54.9847 295.045 54.2418 298.011C53.8949 299.394 51.5552 299.534 51.3045 298.011C50.7482 294.611 50.9036 291.094 51.0589 287.651L51.073 287.338C51.2258 283.908 51.4251 280.481 51.661 277.054C52.1434 270.049 52.7878 263.055 53.6292 256.082C56.5789 231.606 62.0187 207.259 72.6886 184.917C77.7123 174.394 84.1605 164.169 93.1304 156.57C97.4011 152.956 102.216 150.071 107.404 147.981C112.044 146.111 116.758 145.227 121.688 145.229C124.161 143.332 126.816 141.679 129.467 140.267C129.627 140.181 129.795 140.388 129.662 140.521C129.593 140.588 129.526 140.656 129.458 140.721C129.758 140.74 130.068 140.881 130.346 141.174C131.32 142.196 132.142 143.475 132.877 144.803C133.997 146.203 135.064 147.649 136.182 149.033C137.97 151.251 139.8 153.436 141.653 155.604C144.765 159.248 147.977 162.823 151.328 166.254L151.887 166.825C153.624 168.586 155.383 170.695 157.437 172.09L157.547 172.163C158.414 172.728 159.028 172.831 159.767 171.987C160.439 171.218 160.998 170.326 161.573 169.478L161.706 169.284C164.641 165.014 167.362 160.586 169.825 156.028C170.947 153.954 172.015 151.85 173.028 149.722L173.331 149.083C173.882 147.91 174.479 146.759 174.934 145.552C175.04 145.269 175.144 144.985 175.244 144.705C173.694 143.687 172.494 141.484 172.059 139.76C171.606 137.968 171.835 136.13 172.642 134.492C172.794 134.184 173.306 134.26 173.38 134.588ZM96.9194 207.377C96.7049 214.187 96.5747 221.004 96.2547 227.81L96.1442 230.133C96.6434 230.69 96.9361 231.333 96.7024 232.215C96.6116 232.552 96.3432 232.858 96.0086 232.971L95.9043 235.131C95.4295 244.85 94.873 254.548 93.856 264.242C92.584 276.374 91.1128 288.486 89.6443 300.596C89.4352 302.311 88.2442 303.671 86.3917 303.419C84.5173 303.165 83.7571 301.532 84.0031 299.829C84.97 293.15 85.8997 286.466 86.7142 279.764L87.6417 272.129C88.8047 262.585 89.9951 253.042 91.3665 243.529C91.9397 239.552 92.5351 235.578 93.1327 231.604L92.9238 231.333C92.0699 230.222 91.1866 229.135 90.3133 228.041C88.6357 225.932 86.9799 223.84 85.4423 221.632C85.3658 221.522 85.521 221.359 85.6315 221.443C87.7867 223.037 89.8264 224.742 91.8782 226.474L93.6742 227.997C94.7074 221.13 95.7309 214.261 96.6434 207.377C96.6658 207.205 96.9241 207.192 96.9194 207.377ZM127.92 142.204C126.623 143.428 125.298 144.626 123.991 145.843L123.512 146.291L123.036 146.741C120.74 148.922 118.54 151.192 116.707 153.799C113.341 158.586 111.336 164.422 112.736 170.267C113.897 175.108 116.561 179.496 117.277 184.458C117.636 186.944 117.462 189.443 116.527 191.791C115.572 194.186 114.047 196.238 112.677 198.399C109.7 203.095 109.294 208.249 109.589 213.689C109.899 219.371 110.551 225.055 111.356 230.685C112.984 242.092 115.439 253.382 118.689 264.437C120.316 269.973 122.237 275.391 124.149 280.831C125.101 283.539 126.21 286.183 127.354 288.814C127.957 290.199 128.575 291.576 129.202 292.95C128.97 291.009 128.97 289.016 128.857 287.087C128.695 284.322 128.488 281.563 128.299 278.801C127.913 273.196 127.568 267.586 127.261 261.975C126.171 241.969 125.369 221.946 125.428 201.907C125.457 191.887 125.662 181.866 126.092 171.856C126.294 167.142 126.685 162.432 127.038 157.724L127.113 156.716C127.426 152.49 127.8 148.255 128.441 144.066C128.251 143.637 128.086 143.202 127.964 142.756L127.92 142.588L127.952 142.593C127.923 142.462 127.913 142.332 127.92 142.204ZM139.134 124.987C139.161 124.871 139.325 124.881 139.355 124.987C140.086 127.45 139.827 130.161 139.198 132.639C138.858 133.982 138.376 135.285 137.793 136.542L137.589 136.982C137.089 138.052 136.527 139.154 135.554 139.821C135.148 140.1 134.422 140.117 134.016 139.821L133.809 139.664C133.775 139.637 133.742 139.61 133.709 139.582C133.33 139.264 133.143 138.562 133.318 138.099C133.768 136.904 134.789 136.027 135.495 134.963C136.12 134.016 136.674 133.019 137.133 131.981C138.125 129.737 138.57 127.354 139.134 124.987Z" fill="black"/>
<path fill-rule="evenodd" clip-rule="evenodd" d="M134.73 31.7559L136.85 34.2866C135.676 35.117 134.568 35.9513 133.525 36.7897L133.524 36.7872C138.353 33.625 143.702 31.7559 149.479 31.7559C160.608 31.7559 183.211 41.3493 188.321 48.269C190.857 51.703 195.569 62.2451 198.014 73.7063C199.978 82.9152 202.899 108.932 199.978 118.708C196.239 131.219 183.939 142.783 171.257 142.783C158.574 142.783 138.884 133.594 124.87 113.456C124.229 112.535 116.87 111.468 111.621 108.012L112.999 123.25L114.047 132.114L113.816 132.745C110.056 142.95 107.077 148.273 104.878 148.716C102.634 149.168 98.0643 145.477 91.1691 137.642L90.288 133.931C88.0501 124.464 86.9312 119.382 86.9312 118.686L86.9327 118.559C86.9657 116.956 87.5157 107.887 87.527 105.447L87.5272 68.8678C94.9428 44.1265 102.019 31.7559 108.757 31.7559H134.73Z" fill="#FFDBB4"/>
<path fill-rule="evenodd" clip-rule="evenodd" d="M117.158 23.3296C119.339 22.482 121.865 22.6422 123.934 23.9184C127.998 23.7435 132.039 26.1285 134.157 29.6099C134.201 29.6592 134.248 29.7084 134.29 29.7577L134.739 30.2829C135.164 30.7844 135.612 31.3371 135.968 31.9079C134.227 31.9478 132.778 32.6596 131.766 34.0973C131.044 35.1231 132.698 36.0978 133.436 35.1276L133.462 35.0921C134.069 34.2291 134.987 33.8947 136.008 33.8772C136.301 33.8723 136.523 33.7597 136.68 33.5936C136.743 33.8225 136.799 34.0539 136.85 34.2862C141.991 32.2794 147.534 31.748 153.054 32.224C152.812 32.6172 152.61 33.0385 152.454 33.4813C152.277 33.9832 152.654 34.5595 153.14 34.6935C153.665 34.8384 154.14 34.5294 154.33 34.0518L154.348 34.0051C154.56 33.402 154.906 32.8843 155.371 32.483C157.97 32.8365 160.55 33.3988 163.067 34.1236C166.093 34.9956 169.089 36.0597 172.02 37.2781C171.524 37.4734 171.095 37.8036 170.795 38.3547C170.195 39.4549 171.843 40.4403 172.468 39.3885L172.491 39.3496C172.552 39.2369 172.606 39.169 172.646 39.1304L172.66 39.1173L172.747 39.0774L172.908 39.0311L172.969 39.0158C173.024 39.0035 173.047 39.0043 173.19 38.9963C173.381 38.9855 173.572 38.9865 173.764 38.9862C174.213 38.986 174.5 38.7344 174.63 38.4126C176.077 39.0678 177.504 39.7577 178.907 40.4803L179.24 40.6535C183.57 42.9236 187.671 45.9048 190.05 50.2913C190.208 50.5845 190.257 50.9048 190.217 51.2103C190.725 51.8213 191.216 52.452 191.688 53.0926C193.126 55.0538 194.18 57.2836 195.176 59.4937C197.182 63.9384 198.532 68.5039 199.586 73.264C200.605 77.8517 201.427 82.4886 202.191 87.1255C203.037 92.2774 203.742 97.4736 203.889 102.699C204.15 112.015 202.335 121.385 197.123 129.227C192.474 136.225 185.472 141.781 177.169 143.56C168.724 145.368 159.787 143.604 153.132 137.957C152.059 137.048 152.206 135.212 153.132 134.281C154.18 133.231 155.727 133.377 156.795 134.281C163.062 139.6 172.185 140.421 179.737 137.71C186.719 135.202 192.189 129.417 195.545 122.92C199.64 114.996 200.33 105.895 199.701 97.1286C199.357 92.3143 198.643 87.5394 197.906 82.7719L197.462 79.9021C196.977 76.7938 196.467 73.6897 195.803 70.6129L195.647 69.8961C194.835 66.1858 193.883 62.3804 192.412 58.8925C191.641 57.0619 190.713 55.2978 189.763 53.5558C189.579 53.2183 189.39 52.8758 189.196 52.5309C188.936 52.622 188.639 52.6368 188.327 52.5383C185.644 51.7006 182.887 51.1388 180.081 50.9516C178.802 50.8658 177.522 50.8525 176.243 50.9025C174.054 50.7747 171.804 50.9678 169.719 51.6414C169.515 51.4658 169.308 51.2938 169.101 51.1218C169.045 51.1174 168.989 51.1115 168.933 51.1004C168.401 50.9954 168.027 50.616 167.802 50.1368C167.79 50.1114 167.78 50.086 167.77 50.0606C167.503 49.8559 167.234 49.6544 166.962 49.4555C166.3 49.6278 165.72 49.0751 165.564 48.4695C165.417 48.3697 165.267 48.2731 165.118 48.1753C165.002 48.2039 164.886 48.2276 164.773 48.2359C164.286 48.2712 163.815 48.1963 163.383 47.9629C162.836 47.6675 162.487 47.191 162.253 46.6497C161.427 46.7007 160.59 46.4314 159.851 45.9446C159.251 45.5496 158.791 45.0044 158.334 44.4601C152.767 41.968 146.715 40.4966 140.648 40.1196C140.051 40.2349 139.457 40.3721 138.871 40.5318C138.733 40.5697 138.536 40.6441 138.309 40.7333C139.662 40.5692 141.032 40.553 142.421 40.7538C149.013 41.7105 154.148 46.6643 158.567 51.3404C159.619 51.1272 160.681 52.4934 159.708 53.3981L152.123 60.4523C152.309 61.2413 151.408 62.0188 150.618 61.8294C149.294 61.5101 147.967 61.1996 146.64 60.8943C145.255 61.5667 143.514 61.4517 142.258 60.477C142.2 60.4316 142.073 60.3592 141.963 60.2873C141.86 60.3728 141.721 60.4585 141.666 60.495C141.219 60.7916 140.675 60.8788 140.153 60.7955C139.617 60.7101 139.132 60.4368 138.715 60.0966C138.449 59.8798 137.829 58.9755 137.485 58.9089L137.451 58.9051C137.681 58.9117 136.942 59.6013 136.743 59.744C136.28 60.0759 135.767 60.2503 135.191 60.1867C134.185 60.0758 133.321 59.1565 132.83 58.3077L132.793 58.2425L132.777 58.2021L132.764 58.2458C132.762 58.2536 132.759 58.2618 132.756 58.2711C132.682 58.4709 132.451 58.6981 132.294 58.8378C131.846 59.2352 131.291 59.4099 130.699 59.3062C130.198 59.2186 129.777 58.9147 129.438 58.547L129.385 58.4884C129.285 58.3749 128.625 57.4846 128.729 57.2713L128.741 57.2533L128.708 57.2464C128.306 57.3454 127.969 57.2462 127.722 57.0385C126.344 56.7354 124.984 56.3823 123.667 55.9334C123.564 56.2242 123.463 56.5149 123.365 56.8081C124.084 57.254 124.749 57.8897 125.361 58.3431C126.52 59.2005 127.678 60.0579 128.835 60.9178L133.416 64.3095L133.94 64.1683C134.609 63.9879 135.184 64.379 135.43 64.9769L135.45 65.0287C135.547 65.2906 135.665 65.5328 135.803 65.7646C136.948 65.7188 137.918 66.4244 138.231 67.4366C138.514 67.4301 138.8 67.441 139.092 67.4733C139.892 67.5614 140.431 68.1577 140.286 68.9765L140.275 69.0326L140.256 69.1238C140.72 69.3214 141.056 69.703 141.131 70.2801C141.255 70.4676 141.355 70.6716 141.419 70.8987C141.754 72.0774 141.103 73.5345 140.756 74.6637L140.729 74.7522C140.507 75.4943 140.276 76.2328 140.043 76.971L139.463 78.8038C137.853 83.9119 136.284 89.2975 137.587 94.6525C137.864 95.7859 136.421 96.2983 135.794 95.4114C134.277 93.2639 132.637 91.2403 130.915 89.2979L130.832 89.2846C129.626 89.0414 129.158 88.1867 128.605 87.3155C128.279 87.4118 127.928 87.4345 127.589 87.3689C127.099 87.2741 126.659 86.9929 126.312 86.6379C126.019 86.3368 125.749 85.5647 125.402 85.3732C124.967 85.134 124.094 85.476 123.575 85.3991C123.153 85.3368 122.759 85.1914 122.377 85.0088C121.674 85.97 121.208 87.0999 121.094 88.318C121.05 88.7812 120.912 89.1729 120.713 89.4982C121.445 89.4711 122.179 89.5228 122.903 89.6583C125.584 90.1585 127.507 91.8191 128.587 94.2928C128.633 94.4012 128.493 94.4899 128.429 94.3864C126.827 91.9103 123.338 91.7846 120.804 92.6568C118.113 93.5832 116.604 95.9608 116.066 98.6735C115.477 101.647 116.233 104.853 117.846 107.386C118.595 108.563 119.616 109.638 120.974 110.071C122.587 110.586 124.077 109.665 125.729 110.14C126.853 110.463 127.349 111.554 127.145 112.646C127.064 113.075 126.915 113.449 126.713 113.774C127.308 114.957 127.857 116.174 128.557 117.293C129.637 119.02 130.944 120.449 132.367 121.89C133.838 123.378 135.335 124.837 136.909 126.217C138.417 127.54 140.145 128.481 141.726 129.693C142.836 130.543 143.385 131.736 142.838 133.101C142.386 134.229 140.864 135.19 139.632 134.68C137.272 133.704 135.208 132.044 133.327 130.334C131.584 128.747 130.067 126.85 128.92 124.79C127.839 122.848 127.042 120.643 126.37 118.519L126.286 118.254C125.97 117.243 125.636 116.108 125.42 114.962C124.126 115.671 122.37 115.775 120.986 115.583C118.749 115.275 116.709 114.144 115.167 112.496C114.449 111.729 113.814 110.854 113.265 109.905C113.315 110.483 113.345 111.041 113.377 111.549C114.659 112.958 115.173 114.991 114.718 116.846C115.79 117.954 116.091 119.617 115.531 121.033C116.705 122.201 116.66 124.06 116.153 125.749C117.54 127.305 117.672 129.73 116.588 131.486L116.556 131.612C117.65 133.449 117.403 135.823 116.032 137.446C116.968 139.268 116.824 141.719 114.484 142.426C113.632 142.683 112.805 142.464 112.187 141.984C112.751 144.803 113.004 147.664 112.251 150.495C111.951 151.619 110.856 152.439 109.705 152.439C108.743 152.439 108.043 151.954 107.56 151.239C107.616 152.661 107.53 154.09 107.228 155.531C107.046 156.402 106.242 157.081 105.387 157.291C105.696 157.639 105.818 158.144 105.523 158.669C104.271 160.894 101.245 159.971 101.04 157.839C100.186 157.199 99.7885 156.148 99.624 155.013C99.3844 153.356 99.2975 151.728 99.026 150.093L98.9222 150.19L98.8686 150.236L98.8514 150.355C98.6958 151.163 98.2416 151.729 97.6522 152.066C97.7803 153.476 97.5432 154.912 96.652 155.982C96.0584 156.696 95.0471 156.977 94.1803 156.822C94.1258 156.825 94.07 156.825 94.0121 156.817C92.0488 156.555 90.9129 154.686 91.4297 152.971C90.6392 151.999 90.3063 150.765 90.5402 149.546C89.0105 148.529 89.0417 146.297 89.5715 144.503C87.9679 143.233 87.3647 140.859 88.1704 138.972C86.7251 137.17 86.5241 134.66 87.5061 132.609C85.916 131.298 85.9251 128.767 87.5022 127.426C86.6623 125.753 86.1558 123.748 86.9952 122.217C86.403 121.561 86.078 120.626 86.1465 119.723C86.2469 118.396 87.1214 117.48 88.2065 116.869L88.2816 116.454C88.5364 116.486 88.808 116.415 89.0473 116.184C89.2842 115.956 89.528 115.771 89.7802 115.62C90.0657 115.616 90.3114 115.488 90.4843 115.292C90.9571 115.131 91.4655 115.06 92.0294 115.053C93.2474 115.04 93.2903 113.212 92.1569 113.094C91.9779 112.912 91.7314 112.798 91.4641 112.798L91.2547 112.799C90.7653 112.804 90.2711 112.834 89.817 113.029C89.5219 113.156 89.2943 113.347 89.1276 113.581C89.0964 113.934 88.9049 114.286 88.4903 114.577C88.0113 114.913 87.3563 114.952 86.8437 114.648C86.1261 114.223 86.1188 113.558 86.2015 112.836C86.3827 111.256 85.4773 109.768 85.6928 108.152C85.7883 107.437 86.0255 106.82 86.4121 106.321C85.5968 105.096 85.453 103.515 86.0807 102.171C84.7729 100.759 84.5468 98.5823 85.3808 96.883C85.3928 96.8419 85.4021 96.7997 85.4151 96.7591C85.5094 96.4703 85.6393 96.2099 85.7824 95.9608C85.0503 94.688 85.0557 93.1262 85.7998 91.8588C84.6727 90.5401 84.6369 88.4417 85.6393 87.021C85.6452 86.9033 85.6575 86.7855 85.6675 86.6677C85.2074 85.4691 85.3179 84.1063 85.9015 82.9917C85.6933 82.51 85.5327 81.9914 85.4301 81.439C85.1672 80.0149 85.3025 78.6302 85.6953 77.2406C85.7588 77.0213 85.83 76.8021 85.9061 76.5828C85.9189 75.631 85.955 74.6834 86.0026 73.7375C85.816 72.9369 85.7859 72.057 85.7817 71.2401L85.7806 70.7104C85.7714 69.3624 85.6778 67.3887 86.527 66.2428C85.9818 65.005 86.2059 63.4454 87.116 62.4643C86.4772 61.3617 86.3431 60.0079 86.9851 58.7846C87.0882 58.5877 87.2078 58.4044 87.3389 58.2309C87.2859 57.1106 87.5208 55.9554 88.1157 54.842C88.5021 54.1171 89.0793 53.4896 89.7654 52.9874C89.7539 52.8389 89.7468 52.6905 89.7492 52.5444C89.7613 51.8925 89.9054 51.2379 90.1479 50.6271C89.7126 49.8815 89.5108 49.0411 89.7654 48.1354C90.0502 47.1105 90.7992 46.2284 91.7343 45.7307C91.8097 44.7644 91.9602 43.8038 92.1753 42.8559C91.6006 41.5715 92.0582 39.8764 93.3571 39.1198C93.1877 38.0933 93.3404 37.029 94.0848 36.2272C94.3669 35.9234 94.6993 35.6931 95.057 35.5403C94.8846 34.5082 95.0791 33.4345 95.7903 32.5941C96.3711 31.9079 97.2319 31.491 98.1078 31.4297C98.4451 29.6345 100.154 28.2922 101.957 28.3992C102.182 27.6088 102.721 26.9196 103.556 26.5703C103.77 26.4808 103.986 26.4219 104.201 26.3892C105.667 24.905 107.85 23.899 109.74 23.3838C111.635 22.8691 113.557 22.8193 115.184 23.4177L115.302 23.4626L115.435 23.4454C116.01 23.3813 116.584 23.3444 117.158 23.3296ZM102.755 144.978C102.249 144.819 101.684 145.165 101.547 145.666C101.402 146.195 101.725 146.719 102.233 146.878C102.866 147.076 103.531 147.126 104.191 147.126C104.721 147.127 105.173 146.673 105.173 146.141C105.173 145.606 104.723 145.156 104.191 145.155C103.654 145.155 103.258 145.135 102.755 144.978ZM98.2517 134.512C97.4948 134.512 96.8457 134.694 96.2845 135.226C95.9103 135.581 95.901 136.267 96.2845 136.62C96.6718 136.976 97.2337 136.997 97.6313 136.658L97.7079 136.589C97.7171 136.58 97.7242 136.574 97.73 136.568C97.7619 136.547 97.7941 136.526 97.8279 136.509L97.7639 136.551C97.7151 136.586 97.8282 136.528 97.8917 136.501L97.9117 136.493L97.918 136.491L97.9689 136.487C98.0629 136.482 98.1574 136.483 98.2517 136.483C98.7653 136.482 99.2572 136.03 99.2337 135.497C99.2096 134.963 98.8021 134.511 98.2517 134.512ZM112.534 128.259C113.597 127.605 112.648 125.932 111.582 126.534L111.543 126.557C110.997 126.893 110.325 126.848 109.706 126.848C108.442 126.849 108.44 128.82 109.706 128.819L109.915 128.818C110.822 128.811 111.74 128.748 112.534 128.259ZM104.169 121.065C103.366 120.913 102.466 120.778 101.621 120.87L101.481 120.888H101.221C100.995 120.888 100.776 120.979 100.601 121.122C100.323 121.238 100.06 121.393 99.8197 121.602C98.863 122.434 100.257 123.824 101.208 122.996C101.261 122.95 101.323 122.912 101.391 122.881L101.443 122.859H102.494C102.589 122.859 102.682 122.839 102.773 122.81C103.114 122.857 103.432 122.925 103.647 122.965C104.882 123.199 105.411 121.299 104.169 121.065ZM103.272 102.147C101.733 101.431 100.028 101.436 98.6045 102.431C97.5865 103.143 98.5321 104.82 99.5588 104.158L99.5955 104.133C99.7232 104.044 99.8543 103.969 99.9869 103.901C100.71 104.111 101.437 104.121 102.136 103.863L102.227 103.828L102.281 103.849C103.42 104.379 104.419 102.681 103.272 102.147ZM120.034 99.0591C118.479 98.8842 118.467 96.4189 120.034 96.5953C123.344 96.9678 126.347 98.4444 128.546 100.98C129.569 102.16 127.885 103.885 126.842 102.758L126.81 102.722C125.061 100.706 122.701 99.3592 120.034 99.0591ZM102.614 86.4019C102.268 86.3639 101.923 86.345 101.584 86.3615C100.768 86.4009 99.7748 86.9469 100.133 87.9334C100.42 88.7238 101.36 88.7551 101.825 88.3335C102.018 88.3382 102.211 88.351 102.403 88.3707C102.916 88.4237 103.424 88.5218 103.93 88.6218C105.164 88.8655 105.693 86.9661 104.452 86.7209L103.903 86.612C103.718 86.5756 103.531 86.5401 103.344 86.5076C103.232 86.4516 103.111 86.4139 102.983 86.4043L102.918 86.4019H102.614ZM92.8563 71.1101L92.7409 71.0944C91.0826 70.8815 88.4205 71.0774 88.2193 73.196C88.108 74.3693 89.7971 74.4429 90.1305 73.4397C91.3551 73.2182 92.5897 73.1758 93.8059 73.3103C94.2699 72.8373 94.2736 71.9279 93.5012 71.7009C93.3922 71.4068 93.1646 71.1547 92.8563 71.1101ZM130.763 67.5319C130.38 67.1788 129.751 67.132 129.374 67.5319C129.157 67.762 128.975 68.0178 128.832 68.2991L128.736 68.4891C128.72 68.5207 128.703 68.552 128.686 68.583C128.654 68.6404 128.618 68.6951 128.583 68.7508L128.559 68.774C128.55 68.7836 128.539 68.7951 128.526 68.8092C128.172 69.1839 128.127 69.8361 128.526 70.2029C128.909 70.556 129.537 70.6028 129.914 70.2029C130.131 69.9728 130.313 69.7173 130.457 69.4357L130.552 69.2459C130.568 69.2144 130.585 69.1831 130.602 69.1521C130.634 69.0945 130.671 69.0398 130.705 68.9841L130.745 68.9449C130.75 68.9391 130.756 68.9327 130.763 68.9257C131.116 68.5512 131.161 67.8988 130.763 67.5319ZM110.625 64.9653C109.242 63.9813 107.596 63.9355 106.324 65.1193C105.407 65.9738 106.755 67.3429 107.681 66.5423L107.713 66.5131C107.747 66.4816 107.781 66.454 107.815 66.4276C107.981 66.5695 108.192 66.6595 108.433 66.6597C108.496 66.6599 108.559 66.6597 108.622 66.661L108.716 66.6644L108.766 66.6686L108.773 66.6698L108.817 66.6887C108.898 66.7252 109.009 66.7816 108.856 66.6856C108.89 66.7036 108.922 66.7248 108.955 66.7454L109.011 66.7969C109.381 67.1483 110.022 67.1946 110.39 66.8061C111.04 66.5853 111.386 65.5056 110.625 64.9653ZM124.153 61.7365L124.178 61.7286C125.392 61.381 124.876 59.4786 123.656 59.8278C122.362 60.1986 121.744 61.4071 121.485 62.6449C121.377 63.1655 121.638 63.7103 122.171 63.8573C122.659 63.9916 123.27 63.6923 123.379 63.169C123.456 62.8009 123.545 62.4887 123.685 62.199L123.77 62.0336C123.809 61.9582 123.823 61.9457 123.957 61.8284C123.98 61.8087 124.082 61.7609 124.153 61.7365ZM103.603 51.8095L103.414 51.766C102.232 51.5062 100.663 51.3705 99.9491 52.5464C99.2985 53.6177 100.94 54.5929 101.616 53.5802C101.626 53.5799 101.638 53.58 101.651 53.5811L101.674 53.5837L101.977 53.559C102.354 53.5563 102.715 53.6233 103.081 53.7103C104.31 54.0023 104.835 52.1022 103.603 51.8095ZM146.035 44.2322C146.93 43.3341 145.541 41.9399 144.646 42.8387C143.938 43.549 143.256 44.2642 142.796 45.1667C142.554 45.6403 142.672 46.236 143.148 46.5152C143.587 46.7727 144.249 46.6372 144.492 46.1616C144.89 45.3794 145.394 44.8763 146.035 44.2322ZM134.743 41.8748C133.859 42.4001 133.287 43.2654 132.94 44.267C132.765 44.7696 133.138 45.3449 133.625 45.4792C134.149 45.6236 134.628 45.3157 134.816 44.8376L134.833 44.7908C134.926 44.5229 135.075 44.2066 135.259 43.9678C135.416 43.7641 135.66 43.5601 135.845 43.4923C136.287 43.3292 136.601 42.9266 136.56 42.4565C135.832 42.7091 135.156 42.4053 134.743 41.8748ZM108.279 37.5878C107.387 36.757 106.19 36.6468 105.109 37.1497C104.628 37.3734 104.507 38.0699 104.757 38.4981C105.046 38.9936 105.617 39.0764 106.1 38.8517C105.976 38.9094 106.2 38.8332 106.297 38.8054C106.309 38.8111 106.471 38.8037 106.527 38.8045L106.595 38.8088C106.595 38.8093 106.579 38.809 106.545 38.8078C106.592 38.8185 106.639 38.8313 106.685 38.846L106.743 38.8663C106.714 38.8601 106.847 38.9469 106.883 38.9757L106.89 38.9813C107.816 39.8434 109.208 38.4528 108.279 37.5878Z" fill="black"/>
<path fill-rule="evenodd" clip-rule="evenodd" d="M177.108 117.501C177.486 116.844 178.355 116.235 179.15 116.328C182.712 116.746 182.706 121.071 181.33 123.596C180.111 125.835 177.587 127.15 175.061 126.958C172.407 126.756 170.146 125.193 169.151 122.707C168.492 121.062 168.188 118.026 169.939 116.921C169.972 116.9 170.025 116.906 170.051 116.935C170.89 117.913 170.923 119.382 171.658 120.47C172.342 121.483 173.404 122.319 174.647 122.448C175.576 122.545 176.516 122.209 176.88 121.374C177.076 120.922 177.054 120.677 176.98 120.366L176.913 120.096C176.68 119.149 176.576 118.429 177.108 117.501ZM178.061 98.5329C179.918 99.6638 182.749 102.301 180.75 105.105C178.398 107.577 175.011 104.742 173.342 103.46C171.794 102.467 170.055 105.022 171.491 106.182C183.552 115.125 188.447 98.8286 179 97.2032C177.96 97.0241 177.574 98.1831 178.061 98.5329ZM158.442 90.7781C159.583 89.0648 162.185 89.3171 162.814 91.3502C163.154 92.4516 162.684 93.4415 162.708 94.5414C162.729 95.4705 162.668 96.5058 162.383 97.4056C161.735 99.4575 159.892 100.907 157.712 100.847C155.539 100.787 153.626 99.4094 152.716 97.4696C151.802 95.5225 151.996 93.5073 152.662 91.5274C152.694 91.4323 152.819 91.3862 152.894 91.4663C153.682 92.305 154.259 93.1904 154.856 94.1297L155.468 95.0923C155.935 95.8172 156.615 96.7432 157.488 96.685L157.619 96.6721C157.861 96.6512 157.824 96.6995 158.011 96.3683C158.098 96.2151 158.082 95.9302 158.124 95.7494L158.138 95.6883L158.13 95.6554C158.112 95.5678 158.094 95.4028 158.079 95.1164L158.076 95.0531C158.012 93.7135 157.634 91.9921 158.442 90.7781ZM187.348 91.9188C187.143 89.7274 190.219 89.2408 191.242 90.8623C191.775 91.7078 191.931 92.77 192.049 93.7763L192.104 94.254C192.225 95.2876 192.273 96.3628 191.825 97.3269C191.119 98.8453 189.585 99.648 187.93 99.5209C186.349 99.3992 184.907 98.4814 184.147 97.0881C183.469 95.8449 182.795 93.4175 183.618 92.1208C183.668 92.0422 183.767 92.0321 183.835 92.0927C184.613 92.7843 184.74 94.0458 185.202 94.9468C185.68 95.8762 186.403 96.7819 187.5 96.923C188.549 97.0581 188.949 96.4842 188.682 95.4827C188.337 94.1897 187.477 93.3101 187.348 91.9188ZM159.273 77.7502L159.776 77.5573C161.5 76.9052 163.866 76.1514 165.268 77.5551C166.132 78.4206 166.297 79.6957 165.68 80.7519C164.932 82.0314 163.591 82.0629 162.296 82.2514C160.823 82.4657 159.325 82.8733 157.954 83.4542C156.409 84.1089 154.975 84.9249 153.571 85.8363C152.236 86.7023 150.906 88.1178 149.308 88.3846C149.243 88.3954 149.169 88.3673 149.152 88.2957C148.789 86.7311 149.797 85.1915 150.697 83.9709C151.786 82.4931 153.105 81.2801 154.58 80.1926C156.003 79.1428 157.629 78.3842 159.273 77.7502ZM190.583 83.3127L190.737 83.2857C191.782 83.1115 192.73 83.1516 193.517 83.9806C194.118 84.6131 194.35 85.4328 194.064 86.2691C193.799 87.0405 193.208 87.8242 192.349 87.9859C189.451 88.5318 186.242 88.4417 183.329 88.0282C181.997 87.839 180.652 87.6074 179.354 87.2423L178.757 87.0689C177.674 86.759 176.433 86.4351 175.646 85.6371C175.363 85.3503 175.527 84.9398 175.865 84.807C177.238 84.2684 179.121 84.555 180.585 84.5128C182.288 84.4641 183.995 84.3362 185.69 84.16C187.347 83.9875 188.95 83.6128 190.583 83.3127Z" fill="black"/>
<defs>
<clipPath id="clip0_1_809">
<rect width="294" height="33" fill="white" transform="translate(1 288)"/>
</clipPath>
</defs>
</svg>
