<svg width="295" height="321" viewBox="0 0 295 321" fill="none" xmlns="http://www.w3.org/2000/svg">
<g clip-path="url(#clip0_1_784)">
<path d="M146.892 321C228.018 321 293.783 313.657 293.783 304.599C293.783 295.541 228.018 288.198 146.892 288.198C65.7657 288.198 0 295.541 0 304.599C0 313.657 65.7657 321 146.892 321Z" fill="#F7859C"/>
</g>
<path fill-rule="evenodd" clip-rule="evenodd" d="M60.5048 291.325C60.1692 291.336 60.275 291.238 60.3983 291.214C60.4338 291.251 60.4693 291.288 60.5048 291.325ZM70.4137 298.685C79.7904 299.796 89.1788 298.78 98.5095 297.761C117.412 296.361 136.182 300.44 155.123 299.196C178.793 298.199 202.527 296.328 226.118 299.482C232.643 299.632 243.051 301.391 240.685 291.298C237.576 265.349 233.42 239.531 228.969 213.782C225.196 199.347 224.923 174.379 214.592 164.34C213.081 162.962 207.663 158.505 206.231 157.906C199.11 155.257 186.272 153.19 180.976 147.574C176.686 140.321 178.682 130.424 172.011 124.585C166.164 119.815 153.404 120.823 147.153 124.405C142.222 127.6 141.449 133.806 138.376 138.395C137.618 139.495 135.818 142.146 134.801 143.001C132.326 145.381 123.634 147.883 121.124 148.342C106.958 151.243 99.895 153.035 88.7537 162.44C59.6427 192.135 63.7693 244.657 55.7142 283.488C55.3845 287.757 52.7873 293.55 57.421 296.298C61.412 298.209 66.1044 298.001 70.4137 298.685Z" fill="#AE5D29"/>
<path fill-rule="evenodd" clip-rule="evenodd" d="M177.729 137.702C177.763 137.601 177.926 137.584 177.951 137.702C178.348 139.518 179.092 141.509 179.847 143.211C180.614 144.936 181.662 146.52 182.986 147.866C185.76 150.684 189.328 151.97 193.241 151.973L193.335 151.975C193.353 151.844 193.373 151.712 193.392 151.581L193.419 151.384C193.776 148.684 196.984 148.762 197.611 150.8C197.929 150.901 198.247 151.002 198.562 151.108L198.625 151.131C199.157 151.333 200.957 152.228 201.287 151.99C202.014 151.467 202.845 152.066 203.122 152.734C203.573 153.827 203.648 155.178 203.795 156.365L203.815 156.518L203.837 156.703C214.132 159.377 219.909 169.668 222.858 179.149C224.456 184.288 225.501 189.591 226.552 194.863C227.676 200.503 228.712 206.157 229.809 211.799C231.972 222.918 234.018 234.063 235.796 245.248L236.312 248.497C237.94 258.783 239.527 269.062 240.861 279.395C241.581 284.965 242.257 290.541 242.908 296.122C243.024 297.117 243.14 298.112 243.255 299.108L243.426 300.603C243.578 301.944 243.837 303.269 243.174 304.523C241.736 307.243 237.382 307.223 237.135 303.74C237.086 303.047 237.32 302.518 237.707 302.148L237.702 302.09C237.698 302.055 237.694 302.029 237.693 302.017C237.564 301.325 237.53 300.593 237.451 299.893C237.278 298.401 237.111 296.907 236.94 295.412C236.612 292.564 236.282 289.716 235.939 286.87C235.247 281.097 234.514 275.332 233.738 269.571L232.968 263.876C230.393 244.89 227.71 225.909 224.18 207.074C223.218 201.947 222.23 196.827 221.216 191.709C220.254 186.863 219.174 182.039 217.561 177.36C214.928 169.717 210.324 162.56 203.933 157.543C204.032 158.502 204.103 159.465 204.194 160.424C204.429 162.885 204.678 165.344 204.929 167.803C205.844 176.712 207.084 185.606 209.2 194.318C210.248 198.635 211.525 202.895 213.081 207.057C213.848 209.106 214.684 211.129 215.601 213.115C216.509 215.079 218.099 217.178 218.195 219.366C218.24 220.379 217.179 221.278 216.198 221.169C216.657 225.2 216.915 229.273 217.189 233.294C217.589 239.118 217.907 244.953 218.373 250.772C219.206 261.197 220.252 271.606 221.347 282.006C221.564 284.068 221.799 286.128 222.033 288.188L222.228 289.918C222.36 291.039 222.559 292.382 221.963 293.377C222.496 294.66 222.861 295.979 223.073 297.353C223.341 299.063 222.363 300.98 220.365 300.906C220.138 300.899 219.911 300.879 219.685 300.855C217.833 301.283 215.986 301.66 214.062 301.673C211.607 301.69 209.146 301.641 206.69 301.623C201.938 301.591 197.186 301.559 192.435 301.52C175.233 301.382 158.024 301.389 140.825 301.113L133.944 301.004C127.635 300.903 121.326 300.786 115.02 300.556C110.678 300.399 106.336 300.239 101.996 300.064L101.112 300.03C97.283 299.891 93.449 299.819 89.6619 299.233C89.567 299.217 89.5259 299.119 89.5406 299.032L89.546 299.009L89.3808 298.972C89.2846 299.386 87.2873 297.647 87.3021 296.491C86.4736 295.414 86.8607 293.695 86.9495 292.448C87.0358 291.233 87.1443 290.016 87.2404 288.801C87.4451 286.207 87.6202 283.61 87.8298 281.016C88.6756 270.554 89.4054 260.066 89.8789 249.582C90.1181 244.297 90.3104 239.01 90.5126 233.725C90.6036 231.319 90.7304 228.911 90.9666 226.515L91.0279 225.917C91.2869 223.488 91.2622 220.876 92.1573 218.587C92.1696 218.555 92.2115 218.555 92.2239 218.587C93.1288 220.815 93.2151 223.404 93.3976 225.848C93.4297 225.838 93.4617 225.833 93.4962 225.826C94.7464 225.232 96.0089 224.698 97.1925 223.963C97.3528 223.865 97.5081 223.761 97.6659 223.66C99.5276 217.969 101.685 212.371 103.67 206.717C110.084 188.433 113.625 168.961 114.409 149.6C109.517 152.751 104.189 155.203 99.0092 157.836L98.524 158.083C93.4223 160.69 88.5375 163.649 84.9053 168.17C81.7392 172.107 79.6704 176.904 77.7347 181.529C75.656 186.498 73.782 191.557 72.0683 196.662C68.5915 207.02 65.8988 217.631 63.7979 228.351C61.7241 238.931 60.2422 249.589 59.2509 260.322C58.7454 265.797 58.2843 271.276 57.8972 276.763C57.6999 279.54 57.5249 282.319 57.3621 285.101C57.2832 286.451 57.224 287.804 57.1353 289.154C57.081 289.932 57.0711 290.735 56.8147 291.475C56.6002 292.09 56.2204 292.606 55.8654 293.15C55.2168 294.143 53.5795 294.323 52.9705 293.15L52.7068 292.642C52.3577 291.966 52.0389 291.285 51.9916 290.504C51.9472 289.765 52.0384 288.994 52.0803 288.252C52.1617 286.752 52.2554 285.249 52.3491 283.748C52.5464 280.592 52.7658 277.436 53.0124 274.282C53.5031 267.965 54.1344 261.665 54.9283 255.377C57.7221 233.294 61.7562 211.326 69.4545 190.369C71.3581 185.188 73.4812 180.048 75.878 175.074C78.1958 170.264 81.1277 165.723 85.3837 162.412C89.3014 159.363 93.8554 157.323 98.3803 155.342L98.9457 155.094C104.018 152.879 109.08 150.494 114.377 148.849C114.258 148.863 114.143 148.878 114.042 148.913C113.926 148.95 113.857 148.799 113.928 148.718C114.229 148.385 114.355 148.043 114.7 147.715C114.939 147.489 115.187 147.275 115.442 147.068L115.809 146.776C116.481 146.243 117.188 145.698 118.034 145.513C119.23 145.251 119.817 146.338 119.481 147.188C119.654 146.964 120.117 147.03 120.238 147.338C124.173 157.479 126.758 168.214 132.054 177.796C135.965 184.875 141.212 191.411 148.176 195.686C151.916 197.982 156.197 199.746 160.618 200.025C164.588 200.274 168.408 199.266 171.784 197.184C178.328 193.151 182.601 186.07 185.649 179.208C189 171.654 191.392 163.605 192.797 155.444C188.344 155.506 183.644 153.476 180.683 150.167C179.124 148.425 177.963 146.303 177.374 144.042C176.779 141.76 176.969 139.885 177.729 137.702ZM140.369 131.777C140.912 130.808 142.115 130.488 143.099 130.882C144.191 131.321 144.519 132.38 144.364 133.457C144.184 134.719 143.372 136.081 142.741 137.182C142.08 138.335 141.23 139.398 140.349 140.39C138.692 142.263 136.919 143.95 134.816 145.33C132.723 146.703 130.355 147.73 127.922 148.304L127.343 148.439C125.45 148.871 122.757 149.367 121.18 148.339C121.104 148.289 121.106 148.188 121.18 148.139C122.033 147.545 123.175 147.439 124.156 147.159C125.226 146.851 126.299 146.501 127.322 146.062C129.342 145.195 131.275 144.051 132.996 142.687C134.725 141.317 136.396 139.683 137.553 137.798C138.135 136.852 138.631 135.859 139.106 134.859C139.588 133.856 139.829 132.743 140.369 131.777Z" fill="black"/>
<path fill-rule="evenodd" clip-rule="evenodd" d="M205.108 86.9595C205.01 81.4342 204.901 75.7983 204.081 70.3268C203.279 64.9775 201.074 60.1423 197.283 56.2579C189.232 48.0069 177.562 45.9915 166.698 44.1446L148.125 40.9869C142.459 40.0237 136.414 38.4841 130.689 39.8501C127.868 40.5232 125.473 42.0869 123.283 43.937C121.173 45.7202 118.904 47.6352 117.474 50.0343C116.041 52.4369 115.548 55.2454 115.083 57.9627C114.557 61.0263 114.149 64.1138 113.859 67.2087C113.278 73.4093 113.199 79.6566 113.621 85.8701C113.825 88.8839 114.15 91.889 114.564 94.8808C114.77 96.3644 115.002 97.8442 115.265 99.3189C115.342 99.7537 115.401 100.235 115.48 100.722C114.894 102.39 114.562 104.119 114.588 105.839C114.667 110.909 118.939 114.1 123.246 115.813C125.743 116.807 128.354 117.482 130.807 118.592C133.388 119.759 135.145 121.652 136.91 123.811C140.276 127.928 144.074 131.629 148.411 134.716C157.606 141.262 169.252 144.359 180.409 142.008C183.085 141.445 185.786 140.569 188.192 139.25C190.733 137.857 192.643 135.839 194.247 133.452C197.226 129.022 199.362 124.034 200.978 118.958C202.626 113.78 203.796 108.592 204.434 103.193C205.07 97.8112 205.204 92.3746 205.108 86.9595Z" fill="#AE5D29"/>
<path fill-rule="evenodd" clip-rule="evenodd" d="M145.784 21.7586C153.46 20.7009 164.054 24.1386 167.877 31.07C186.127 26.7599 209.145 26.6188 224.187 40.9667C239.883 57.9864 220.168 80.4271 207.096 85.4866C208.047 90.1201 206.563 119.804 196.063 133.045C187.73 144.264 168.323 149.441 159.343 136.041L159.273 135.931C158.311 134.383 159.14 134.433 160.127 135.584C168.921 143.33 180.876 143.463 190.09 135.287C207.356 120.345 205.576 83.7073 197.36 62.5118C173.964 59.9377 148.914 67.0413 132.754 84.6837L133.847 91.2736C134.033 92.3963 134.244 93.518 134.406 94.6447C134.509 95.3666 134.521 96.0845 134.021 96.6689C132.373 98.5979 129.594 95.6992 127.308 94.5461C126.634 94.451 125.958 94.4143 125.294 94.4611C114.311 95.8783 116.475 117.221 128.547 113.48C129.561 112.847 130.432 113.04 130.826 113.959C133.703 116.599 135.6 121.308 140.38 125.843C142.067 127.544 143.602 128.967 145.499 130.332C146.614 131.461 149.976 132.612 148.91 134.544C146.894 138.939 135.008 125.132 132.906 121.313C126.322 123.918 119.025 123.033 112.201 122.396C76.2029 120.521 81.0086 82.509 110.515 58.5097C116.07 54.4136 122.198 51.0721 128.568 48.5007C129.438 48.1496 129.058 46.7192 128.176 47.0752C123.961 48.7769 119.852 50.8023 115.935 53.1465L115.929 51.745C115.923 49.3845 115.96 46.9269 116.37 44.7701C116.574 43.2757 116.918 41.6794 117.448 40.4786C118.103 36.7971 128.362 24.1602 145.784 21.7586ZM124.814 99.3611C125.37 98.8321 126.407 99.4629 126.902 99.4471C128.168 99.6205 129.37 100.156 130.307 100.817C130.926 101.164 131.36 101.49 131.723 101.79L131.733 101.788C131.73 101.788 131.726 101.79 131.723 101.791L131.758 101.814C132.285 102.19 134.218 104.306 132.997 103.737C132.906 103.618 132.813 103.505 132.719 103.393C132.709 103.408 132.695 103.423 132.678 103.438L132.747 103.54C133.784 105.103 131.993 103.456 131.717 103.018C131.704 103.029 131.689 103.036 131.675 103.044L132.034 103.481C132.084 103.544 132.123 103.593 132.156 103.635L132.232 103.708C133.431 104.89 133.469 105.953 132.075 104.206C132.13 104.289 132.174 104.376 132.18 104.453L132.263 104.559C133.357 105.971 132.467 105.47 131.923 104.866L131.878 104.814L131.887 104.828C132.393 105.609 131.389 105.061 131.212 104.644L131.204 104.625C131.011 104.467 130.892 104.29 130.851 104.245L130.844 104.237C129.903 103.271 128.539 102.454 127.38 102.083C127.212 102.051 127.042 102.025 126.871 102.007C126.174 101.851 125.469 101.745 124.758 101.687C124.671 101.677 124.582 101.613 124.516 101.53C123.44 101.494 123.772 101.052 124.219 100.97L124.227 100.968L124.138 100.961C123.447 100.893 122.976 100.645 123.674 100.493L123.763 100.475C123.752 100.458 123.742 100.441 123.733 100.424C123.135 100.358 123.525 99.7757 123.857 99.9167C123.717 99.4592 124.356 99.6875 124.436 99.6196C124.496 99.552 124.572 99.4924 124.615 99.4892C124.808 99.3532 124.714 99.3655 124.814 99.3611ZM128.474 91.9538L128.334 92.0359C128.22 92.1021 128.104 92.1462 127.987 92.1721C128.152 92.2426 128.315 92.3187 128.477 92.4C128.474 92.3006 128.472 92.2014 128.472 92.1023L128.474 91.9538Z" fill="black"/>
<path fill-rule="evenodd" clip-rule="evenodd" d="M172.349 111.326C173.728 109.058 176.668 114.612 176.981 115.567C177.257 116.413 177.44 117.28 177.533 118.157C178.602 118.396 179.713 118.397 180.808 118.187C182.437 117.874 183.433 117 184.848 116.248C185.826 115.729 187.058 116.338 187.566 117.199C188.164 118.212 187.783 119.264 186.997 120.019C185.505 121.452 182.57 121.781 180.623 121.4C179.508 121.182 178.485 120.764 177.583 120.157C177.577 120.27 177.573 120.384 177.564 120.497L177.546 120.693C177.397 122.282 176.96 124.28 175.725 125.313C173.699 127.009 171.2 123.748 173.168 122.054L173.229 122.003C174.452 121.016 174.719 118.366 174.653 116.906C174.61 115.954 174.436 114.989 174.135 114.082L174.073 113.901C173.983 113.645 172.995 111.213 172.638 111.523L172.621 111.541C172.473 111.716 172.236 111.512 172.349 111.326ZM183.362 98.5322C185.224 99.6631 188.061 102.3 186.058 105.104C183.7 107.576 180.305 104.742 178.633 103.46C177.081 102.466 175.339 105.021 176.778 106.181C188.866 115.124 193.772 98.8279 184.304 97.2025C183.261 97.0234 182.874 98.1824 183.362 98.5322ZM163.479 88.079C165.299 87.7565 167.163 88.2086 168.669 89.2724L168.783 89.3545C170.233 90.4146 171.857 92.2761 171.024 94.1035C170.69 94.8373 169.689 94.9523 169.054 94.6197C167.997 94.0658 167.806 92.7031 166.863 91.9489C166.089 91.3307 165.048 90.9557 164.051 91.0462C161.711 91.2585 160.271 93.5649 159.545 95.5525C159.452 95.8068 159.078 95.9056 158.932 95.6326C157.218 92.4316 160.252 88.6511 163.479 88.079ZM192.627 86.8709C196.113 86.5839 200.194 90.1949 199.276 93.8714C198.836 95.6355 196.217 95.585 195.751 93.8714C195.495 92.9285 195.521 92.0943 194.841 91.3113C194.28 90.6648 193.484 90.2893 192.627 90.3469C191.683 90.4105 190.813 90.8818 190.151 91.5443C189.554 92.1426 189.196 93.018 188.578 93.5474C188.425 93.6775 188.221 93.6859 188.071 93.5474C187.006 92.5661 187.645 90.5231 188.32 89.4986C189.287 88.0326 190.861 87.0166 192.627 86.8709ZM156.841 81.5584C159.077 79.5804 163.14 77.6702 166.156 78.6437C167.889 79.2032 168.645 81.9945 166.71 82.8792C164.469 83.9037 161.885 83.4868 159.604 84.5487C158.646 84.9949 157.745 85.5525 157.078 86.3702C156.552 87.0148 156.017 87.8628 155.258 88.2344C155.058 88.3322 154.787 88.3347 154.627 88.1533C152.961 86.2705 155.386 82.8448 156.841 81.5584ZM188.784 78.5455C190.166 78.1579 191.699 78.1658 193.103 78.4092C194.507 78.6527 195.932 79.2339 197.078 80.0817L197.211 80.181C198.461 81.1228 199.954 82.4933 199.874 84.1618C199.807 85.5551 198.341 86.4975 197.074 85.7672C196.042 85.1717 195.556 83.9787 194.682 83.1844C193.96 82.5288 193.113 82.0119 192.209 81.6497C191.205 81.2473 190.199 81.0588 189.122 81.0409C188.292 81.0271 187.457 81.2991 186.643 81.386C186.71 81.5235 186.067 81.4595 185.698 81.3375C185.425 81.2212 185.423 80.876 185.518 80.6521C185.987 79.5426 187.697 78.85 188.784 78.5455Z" fill="black"/>
<defs>
<clipPath id="clip0_1_784">
<rect width="294" height="33" fill="white" transform="translate(0 288)"/>
</clipPath>
</defs>
</svg>
