<svg width="392" height="500" viewBox="0 0 392 500" fill="none" xmlns="http://www.w3.org/2000/svg">
<path fill-rule="evenodd" clip-rule="evenodd" d="M46.5525 288.614C53.4267 260.022 77.806 237.836 110.594 226.784C116.896 223.654 123.006 210.226 131.476 207.767C132.834 207.373 130.691 210.51 131.476 210.697C134.277 211.366 137.416 211.435 140.509 209.022C146.036 204.709 147.77 192.108 151.131 186.413C168.856 156.376 213.11 168.128 219.039 201.333C223.173 203.699 229.017 205.783 233.517 207.689C238.151 209.652 242.227 214.406 247.002 216.106C251.263 217.622 258.283 216.548 262.577 217.87C282.323 223.951 299.048 231.625 312.16 247.172C314.923 250.451 318.038 254.482 320.552 257.795C333.514 270.895 342.517 285.578 350.809 301.331C374.009 347.569 380.319 398.765 385.98 448.583C385.851 457.3 392.44 481.471 382.695 485.65C383.278 486.18 383.067 487.244 381.986 487.235C357.278 487.016 332.627 488.957 308.302 492.732C296.566 494.553 284.892 497.05 272.937 497.461C248.121 497.31 223.394 493.66 198.61 497.114C168.816 497.114 132.608 496.352 99.4622 495.233C68.4846 494.188 37.341 496.549 6.74719 491.924C4.32553 491.588 3.14291 488.995 3.65051 487.137C7.23993 475.654 9.00195 463.836 11.0161 452.084C10.6149 444.546 11.3325 436.677 14.5089 429.656C22.8079 382.258 33.4498 335.169 46.5525 288.614Z" fill="#FFDBB4"/>
<path fill-rule="evenodd" clip-rule="evenodd" d="M131.476 210.871C130.69 210.684 132.834 207.546 131.476 207.94C123.006 210.4 116.896 223.828 110.594 226.957C77.8058 238.01 53.4266 260.196 46.5524 288.787C33.4496 335.343 22.8077 382.432 14.5087 429.829C11.3323 436.85 10.6148 444.72 11.0159 452.258L10.6997 454.114C8.81128 465.253 7.0509 476.432 3.65042 487.31C3.14279 489.168 4.32541 491.761 6.74704 492.098C36.9932 496.67 67.7768 494.414 98.406 495.373L104.79 495.583C136.451 496.605 170.405 497.288 198.61 497.288C223.394 493.833 248.121 497.484 272.937 497.634C284.892 497.224 296.565 494.727 308.302 492.905C332.627 489.131 357.278 487.19 381.986 487.409C383.067 487.418 383.278 486.353 382.695 485.823C392.44 481.644 385.851 457.474 385.98 448.757L385.468 444.27C379.925 395.871 373.312 346.355 350.809 301.504L350.135 300.229C342.027 284.959 333.163 270.714 320.552 257.968L319.78 256.954C317.418 253.857 314.647 250.297 312.16 247.345C299.048 231.798 282.323 224.125 262.576 218.044C258.283 216.722 251.263 217.796 247.002 216.279C242.536 214.69 238.681 210.428 234.41 208.277L234.41 224.32L172.605 277.77L137.551 230.582L133.986 211.255C133.127 211.208 132.287 211.065 131.476 210.871Z" fill="#8FA7DF"/>
<path fill-rule="evenodd" clip-rule="evenodd" d="M56.5497 350.915C57.2034 353.701 58.1196 356.488 59.3378 359.128C60.5115 361.675 62.2795 363.958 63.4973 366.475C63.6607 366.814 63.9281 367.071 64.2505 367.266L64.15 367.951L64.0573 368.636C63.4499 373.257 62.7668 377.865 62.1752 382.485L61.8878 384.797C60.7245 394.444 58.8872 404.043 57.4609 413.665C56.0644 423.086 54.6426 432.508 53.1227 441.916C51.5529 451.616 49.9533 461.303 48.0863 470.963C47.2981 475.043 46.4754 479.12 45.6184 483.193L44.9565 486.311C38.1422 487.75 36.2801 496.089 43.2182 499.167C46.3673 500.558 50.4134 500.223 53.0089 498.037C55.706 495.758 55.8179 491.649 56.4439 488.562L57.0469 485.694C61.5591 464.128 65.4752 442.314 67.306 420.443C67.7765 414.796 68.1727 409.144 68.4302 403.487C68.6749 398.166 68.558 392.846 68.6516 387.526L68.6827 386.074C68.8259 380.401 68.7075 374.736 68.5391 369.062C68.5193 368.371 68.4846 367.679 68.445 366.984C68.6724 366.749 68.8363 366.471 68.9051 366.201L68.9948 365.845C69.2176 364.927 68.965 363.853 68.1623 363.197C67.8161 359.332 67.3605 355.471 67.2367 351.61C67.2268 351.293 66.7068 351.302 66.6766 351.61C66.3844 354.897 65.8005 358.193 65.2162 361.484C61.4574 358.832 58.6792 354.458 57.04 350.797C56.9211 350.532 56.4799 350.628 56.5497 350.915ZM145.483 197.258C144.859 199.762 143.625 202.01 141.971 204.102C141.184 205.102 140.288 206.032 139.213 206.81C138.291 207.475 137.242 207.91 136.261 208.488C134.835 208.292 133.345 208.767 132.344 209.688L132.502 208.341C132.552 207.906 131.73 207.819 131.636 208.24C127.303 227.423 123.352 246.618 119.931 265.94L118.432 274.472L117.021 282.483C114.679 295.831 112.413 309.174 110.707 322.619C108.434 340.563 106.523 358.554 105.127 376.57C103.725 394.713 102.863 412.869 102.249 431.047C102.096 435.63 101.932 440.208 101.774 444.79L100.716 439.311C99.6604 433.832 98.6251 428.347 97.7378 422.843C94.5535 403.144 92.0075 383.305 90.765 363.436C89.6255 345.254 90.0068 326.711 95.276 308.998C96.6037 304.542 98.2281 300.155 100.189 295.881C102.091 291.725 104.685 287.873 106.731 283.778C109.108 279.012 109.821 274.517 108.598 269.387C107.528 264.917 105.651 260.713 105.315 256.113C104.685 247.574 107.85 239.305 112.322 231.831C113.501 229.862 114.744 227.918 116.041 225.992C119.968 220.171 124.396 214.562 128.991 209.184C129.239 208.897 128.714 208.58 128.446 208.815C124.257 212.449 119.676 216.023 115.907 219.992C114.075 221.923 112.288 223.892 110.594 225.914C92.0125 228.64 76.0464 238.8 65.1321 252.218C52.7465 267.443 46.4818 285.769 41.846 303.816C36.6907 323.872 32.3427 344.111 27.7123 364.266C22.919 385.122 18.1499 405.978 13.3264 426.83C10.9295 437.181 8.53214 447.534 6.14069 457.89C4.9274 463.133 3.65417 468.363 2.32251 473.589C1.63861 476.268 0.905701 478.941 0.27179 481.628C-0.440826 484.659 0.222778 486.597 2.55975 488.824C3.42194 489.65 4.78381 489.637 5.85349 489.198L6.1879 489.059L6.51108 488.922C7.83469 488.351 8.87241 487.76 9.69595 486.489C10.6027 485.093 10.7463 483.546 11.0578 481.994C11.6328 479.137 12.2018 476.281 12.7763 473.42C13.6346 469.142 14.5679 464.876 15.5178 460.611L20.2838 439.297C21.5546 433.614 22.8274 427.932 24.1075 422.252C28.6785 401.939 33.2544 381.631 37.8297 361.323C42.2229 341.823 46.1104 322.189 51.1117 302.803L51.3961 301.71L51.6853 300.62C56.1575 283.907 62.4061 267.741 73.744 253.578C82.4699 242.687 94.5877 232.962 108.861 228.04C107.855 229.31 106.889 230.605 105.968 231.927C100.184 240.222 95.9599 250.07 96.9504 259.948C97.4352 264.774 99.5251 269.517 99.3275 274.382C99.1443 278.704 96.0981 282.499 93.9934 286.26C89.215 294.782 85.7578 303.838 83.5293 313.128C79.0574 331.784 79.0722 350.98 80.6129 369.918C82.2867 390.505 85.4656 411.087 89.0857 431.473C90.9428 441.929 93.414 452.299 95.3062 462.738C96.2417 467.885 97.5149 473.02 98.6292 478.141L99.1602 480.588C99.4576 481.946 99.7661 483.3 100.122 484.639L100.342 485.441V485.584C100.352 486.572 100.66 487.389 101.155 488.041C101.833 489.949 102.675 491.811 103.794 493.598C104.368 494.511 105.201 495.023 106.107 495.211C107.018 497.041 109.083 498.449 111.549 498.441L143.982 498.332C162.82 498.267 181.659 498.158 200.497 498.067C205.251 498.045 210 497.967 214.749 497.858C219.201 497.75 223.47 497.28 227.873 496.793C232.845 496.245 235.539 493.154 234.796 488.793C234.633 487.832 234.455 486.876 234.286 485.92C235.277 486.206 236.455 486.072 237.252 485.389L238 484.747C239.036 483.847 239.963 482.963 240.62 481.763C241.298 480.528 241.849 479.224 242.448 477.963C243.74 475.25 244.998 472.529 246.222 469.794C248.672 464.324 251.124 458.833 253.402 453.307C257.913 442.364 261.905 431.255 265.376 420.021C271.567 399.979 276.044 379.549 278.867 358.936L279.542 354.024L279.738 352.572C280.808 344.583 281.709 336.47 281.284 328.498C281.021 323.506 280.14 318.477 278.015 313.815C276.054 309.516 273.028 305.838 270.151 301.994L269.822 301.551L269.491 301.096C266.974 297.605 264.972 293.956 264.872 289.717C264.77 285.414 266.198 281.228 267.794 277.2L268.192 276.207L268.459 275.549C271.855 267.225 275.719 259.019 274.444 249.961C272.562 236.622 263.351 225.871 251.763 217.579C262.069 219.371 272.27 222.909 281.273 227.397C291.906 232.701 301.479 239.701 309.734 247.6C325.334 262.53 336.472 280.443 345.588 298.938C355.132 318.294 362.209 338.576 367.542 359.123C372.905 379.788 376.495 400.783 378.947 421.861C380.17 432.352 381.131 442.868 381.928 453.39C382.334 458.781 382.641 464.181 383.116 469.563C383.592 474.942 383.805 480.402 385.301 485.637C385.999 488.076 390.709 488.324 391.213 485.637C392.333 479.636 392.02 473.431 391.708 467.355L391.679 466.803C391.372 460.751 390.971 454.703 390.496 448.655C389.525 436.295 388.228 423.952 386.534 411.648C380.596 368.458 369.646 325.494 348.168 286.069C338.056 267.5 325.076 249.457 307.02 236.049C298.423 229.67 288.732 224.579 278.287 220.892C268.947 217.593 259.458 216.032 249.534 216.036C244.557 212.688 239.214 209.771 233.876 207.279C233.554 207.128 233.217 207.493 233.484 207.728C233.622 207.845 233.757 207.966 233.895 208.08C233.291 208.115 232.667 208.362 232.108 208.88C230.146 210.684 228.492 212.94 227.012 215.283C224.758 217.753 222.609 220.305 220.36 222.748C216.761 226.661 213.076 230.518 209.346 234.344C203.083 240.774 196.616 247.082 189.872 253.136L188.745 254.143C185.249 257.252 181.708 260.973 177.573 263.434L177.352 263.563C175.608 264.561 174.371 264.742 172.883 263.252C171.531 261.896 170.405 260.322 169.248 258.826L168.981 258.483C163.073 250.948 157.595 243.135 152.638 235.092C150.379 231.432 148.229 227.718 146.19 223.963L145.581 222.836C144.472 220.766 143.268 218.736 142.353 216.605C142.14 216.106 141.932 215.606 141.729 215.11C144.849 213.314 147.265 209.428 148.141 206.384C149.053 203.223 148.592 199.98 146.968 197.089C146.661 196.545 145.631 196.68 145.483 197.258ZM299.393 325.702C299.825 337.72 300.087 349.75 300.731 361.758L300.953 365.857C299.949 366.84 299.359 367.975 299.83 369.532C300.012 370.127 300.553 370.666 301.226 370.866L301.436 374.678C302.392 391.827 303.512 408.941 305.56 426.047C308.12 447.456 311.081 468.828 314.037 490.198C314.458 493.224 316.856 495.623 320.585 495.18C324.358 494.732 325.888 491.849 325.393 488.845C323.447 477.059 321.575 465.263 319.935 453.438L318.068 439.965C315.727 423.123 313.331 406.284 310.571 389.496C309.417 382.479 308.218 375.466 307.015 368.453L307.436 367.975C309.155 366.014 310.933 364.097 312.691 362.167C316.068 358.445 319.401 354.753 322.496 350.858C322.65 350.662 322.337 350.375 322.115 350.524C317.777 353.337 313.671 356.345 309.541 359.402L305.925 362.088C303.846 349.971 301.785 337.85 299.949 325.702C299.904 325.398 299.384 325.376 299.393 325.702ZM236.99 210.697C239.6 212.857 242.269 214.971 244.899 217.119L245.863 217.909L246.822 218.703C251.444 222.551 255.872 226.557 259.562 231.157C266.337 239.605 270.373 249.904 267.556 260.217C265.218 268.76 259.855 276.504 258.414 285.26C257.691 289.647 258.042 294.056 259.924 298.198C261.846 302.425 264.916 306.046 267.675 309.859C273.667 318.146 274.484 327.242 273.889 336.841C273.265 346.867 271.953 356.897 270.334 366.832C267.056 386.962 262.113 406.883 255.571 426.391C252.297 436.16 248.43 445.721 244.582 455.32C242.666 460.099 240.432 464.764 238.13 469.407C236.916 471.85 235.673 474.28 234.41 476.706C234.876 473.281 234.876 469.763 235.104 466.359C235.431 461.481 235.847 456.612 236.228 451.738C237.005 441.847 237.698 431.947 238.317 422.047C240.511 386.744 242.126 351.41 242.007 316.051C241.947 298.368 241.536 280.686 240.67 263.021C240.263 254.703 239.476 246.392 238.765 238.085L238.614 236.305C237.985 228.849 237.233 221.375 235.941 213.984C236.323 213.226 236.655 212.459 236.902 211.671L236.99 211.375L236.926 211.384C236.985 211.153 237.005 210.923 236.99 210.697ZM214.417 180.315C214.364 180.111 214.032 180.128 213.972 180.315C212.501 184.663 213.021 189.445 214.289 193.819C214.972 196.189 215.943 198.489 217.116 200.706L217.527 201.482C218.533 203.37 219.665 205.316 221.624 206.493C222.44 206.984 223.902 207.014 224.719 206.493L225.135 206.215C225.204 206.168 225.272 206.12 225.338 206.071C226.1 205.51 226.477 204.271 226.125 203.454C225.219 201.345 223.163 199.797 221.742 197.919C220.484 196.25 219.37 194.489 218.444 192.658C216.448 188.698 215.552 184.493 214.417 180.315Z" fill="black"/>
<path fill-rule="evenodd" clip-rule="evenodd" d="M223.283 15.7979L219.014 20.2636C221.378 21.7289 223.609 23.2012 225.707 24.6806L225.709 24.6761C215.988 19.0962 205.222 15.7979 193.592 15.7979C171.192 15.7979 125.691 32.7265 115.406 44.9371C110.301 50.9968 100.816 69.5996 95.8953 89.8241C91.9419 106.074 86.0618 151.983 91.9419 169.234C99.4674 191.312 124.226 211.717 149.756 211.717C175.286 211.717 214.921 195.502 243.13 159.967C244.42 158.342 259.232 156.459 269.799 150.36L267.025 177.25L264.916 192.892L265.382 194.005C272.95 212.012 278.947 221.406 283.373 222.188C287.89 222.985 297.088 216.472 310.968 202.646L312.742 196.097C317.246 179.391 319.499 170.424 319.499 169.195L319.496 168.971C319.429 166.144 318.322 150.14 318.299 145.834L318.299 81.286C303.372 37.6272 289.127 15.7979 275.564 15.7979H223.283Z" fill="#FFDBB4"/>
<path fill-rule="evenodd" clip-rule="evenodd" d="M258.653 0.929675C254.264 -0.565934 249.179 -0.283333 245.013 1.96878C236.834 1.66009 228.7 5.86866 224.436 12.012C224.347 12.0989 224.252 12.1859 224.168 12.2728L223.264 13.1995C222.409 14.0845 221.506 15.0599 220.791 16.0671C224.294 16.1375 227.212 17.3935 229.249 19.9304C230.702 21.7406 227.373 23.4607 225.887 21.7486L225.835 21.686C224.612 20.163 222.766 19.5731 220.71 19.5422C220.12 19.5335 219.673 19.3348 219.356 19.0418C219.23 19.4457 219.118 19.8539 219.014 20.2639C208.665 16.7227 197.509 15.7849 186.397 16.6249C186.884 17.3188 187.291 18.0622 187.605 18.8435C187.96 19.7291 187.202 20.7461 186.224 20.9826C185.166 21.2382 184.21 20.6929 183.828 19.8503L183.793 19.7678C183.366 18.7035 182.668 17.7901 181.732 17.0818C176.501 17.7057 171.308 18.6979 166.241 19.977C160.151 21.5156 154.118 23.3934 148.219 25.5433C149.218 25.8881 150.081 26.4707 150.686 27.4433C151.892 29.3846 148.575 31.1235 147.317 29.2675L147.272 29.1989C147.149 28.9998 147.039 28.8802 146.959 28.812L146.931 28.7889L146.757 28.7184L146.432 28.6367L146.308 28.6098C146.198 28.5881 146.153 28.5894 145.864 28.5754C145.479 28.5563 145.094 28.558 144.709 28.5576C143.804 28.5571 143.226 28.1132 142.965 27.5454C140.054 28.7015 137.179 29.9188 134.356 31.194L133.685 31.4997C124.97 35.5055 116.715 40.7661 111.925 48.5066C111.608 49.0239 111.51 49.5891 111.589 50.1283C110.566 51.2065 109.578 52.3195 108.629 53.4499C105.733 56.9107 103.613 60.8453 101.607 64.7452C97.5692 72.5885 94.8512 80.6448 92.7312 89.0445C90.6798 97.1399 89.0248 105.322 87.4874 113.505C85.783 122.596 84.3647 131.765 84.0677 140.986C83.5439 157.425 87.1964 173.959 97.6878 187.798C107.047 200.146 121.141 209.95 137.855 213.089C154.855 216.28 172.843 213.167 186.24 203.202C188.4 201.598 188.103 198.359 186.24 196.715C184.13 194.863 181.017 195.12 178.867 196.715C166.251 206.102 147.887 207.55 132.685 202.767C118.631 198.341 107.621 188.133 100.865 176.668C92.6225 162.686 91.2333 146.625 92.4989 131.156C93.1903 122.661 94.6288 114.235 96.1114 105.822L97.0063 100.758C97.9826 95.2732 99.0083 89.7956 100.346 84.3664L100.659 83.1015C102.294 76.5543 104.209 69.8393 107.171 63.6844C108.723 60.454 110.59 57.3411 112.503 54.2673C112.874 53.6716 113.255 53.0673 113.645 52.4586C114.169 52.6195 114.767 52.6456 115.394 52.4717C120.796 50.9934 126.345 50.0022 131.993 49.6717C134.567 49.5204 137.144 49.497 139.718 49.5852C144.125 49.3596 148.654 49.7004 152.852 50.8891C153.263 50.5791 153.679 50.2756 154.095 49.9722C154.207 49.9643 154.32 49.9539 154.432 49.9343C155.503 49.7491 156.256 49.0796 156.71 48.234C156.734 48.1892 156.755 48.1444 156.775 48.0996C157.312 47.7383 157.854 47.3827 158.401 47.0318C159.733 47.3357 160.9 46.3605 161.214 45.2919C161.511 45.1158 161.812 44.9454 162.112 44.7728C162.347 44.8232 162.58 44.8649 162.807 44.8797C163.788 44.9419 164.735 44.8097 165.605 44.398C166.705 43.8767 167.408 43.0359 167.879 42.0807C169.543 42.1707 171.228 41.6955 172.715 40.8363C173.923 40.1394 174.848 39.1773 175.768 38.2169C186.975 33.8192 199.158 31.2227 211.369 30.5575C212.572 30.761 213.766 31.0032 214.946 31.2849C215.225 31.3518 215.621 31.4831 216.077 31.6405C213.355 31.351 210.597 31.3223 207.801 31.6766C194.53 33.3648 184.194 42.1063 175.299 50.3578C173.182 49.9817 171.044 52.3925 173.002 53.989L188.271 66.4369C187.896 67.829 189.711 69.2012 191.301 68.8668C193.966 68.3034 196.636 67.7556 199.308 67.2169C202.096 68.4034 205.6 68.2003 208.128 66.4804C208.246 66.4004 208.501 66.2726 208.723 66.1456C208.931 66.2965 209.21 66.4478 209.321 66.5121C210.22 67.0356 211.315 67.1895 212.365 67.0425C213.445 66.8917 214.42 66.4095 215.261 65.8091C215.796 65.4266 217.043 63.8308 217.737 63.7133L217.805 63.7066C217.342 63.7183 218.83 64.9352 219.23 65.187C220.163 65.7726 221.194 66.0804 222.355 65.9682C224.378 65.7724 226.118 64.1502 227.107 62.6524L227.182 62.5375L227.213 62.4662L227.239 62.5433C227.244 62.5569 227.25 62.5715 227.256 62.5879C227.405 62.9405 227.87 63.3413 228.186 63.5879C229.088 64.2891 230.204 64.5974 231.396 64.4144C232.404 64.2599 233.253 63.7236 233.935 63.0747L234.041 62.9714C234.243 62.7711 235.572 61.2001 235.362 60.8236L235.338 60.7919L235.404 60.7797C236.212 60.9545 236.891 60.7792 237.388 60.4127C240.162 59.878 242.901 59.2549 245.551 58.4628C245.759 58.9758 245.962 59.4888 246.159 60.0062C244.712 60.7932 243.373 61.9149 242.142 62.7148C239.809 64.2278 237.477 65.7408 235.149 67.2582L225.927 73.2432L224.872 72.9941C223.525 72.6758 222.369 73.366 221.874 74.421L221.833 74.5123C221.637 74.9745 221.401 75.4019 221.123 75.811C218.818 75.7301 216.866 76.9753 216.235 78.7613C215.665 78.75 215.09 78.7692 214.502 78.8261C212.891 78.9817 211.806 80.0339 212.098 81.4787L212.12 81.5778L212.159 81.7386C211.225 82.0873 210.548 82.7608 210.398 83.779C210.148 84.1099 209.946 84.4699 209.817 84.8707C209.144 86.9507 210.454 89.5219 211.152 91.5144L211.206 91.6705C211.654 92.9801 212.118 94.2833 212.587 95.586L213.755 98.8201C216.995 107.834 220.154 117.337 217.532 126.787C216.973 128.787 219.879 129.691 221.139 128.126C224.194 124.337 227.495 120.766 230.961 117.338L231.129 117.315C233.556 116.885 234.498 115.377 235.612 113.84C236.268 114.01 236.974 114.05 237.656 113.934C238.643 113.767 239.528 113.271 240.226 112.644C240.818 112.113 241.36 110.75 242.059 110.413C242.934 109.99 244.692 110.594 245.737 110.458C246.586 110.348 247.379 110.092 248.149 109.77C249.563 111.466 250.501 113.459 250.73 115.609C250.82 116.426 251.097 117.118 251.497 117.692C250.024 117.644 248.547 117.735 247.088 117.974C241.692 118.857 237.822 121.787 235.648 126.152C235.555 126.343 235.836 126.5 235.965 126.317C239.191 121.948 246.214 121.726 251.314 123.265C256.73 124.9 259.77 129.096 260.851 133.882C262.037 139.13 260.516 144.786 257.268 149.256C255.762 151.334 253.705 153.23 250.973 153.995C247.726 154.903 244.727 153.277 241.401 154.117C239.137 154.686 238.139 156.612 238.549 158.538C238.712 159.295 239.014 159.956 239.419 160.529C238.223 162.616 237.116 164.764 235.708 166.738C233.533 169.786 230.904 172.307 228.038 174.851C225.078 177.477 222.063 180.051 218.896 182.485C215.861 184.82 212.382 186.481 209.199 188.62C206.966 190.12 205.859 192.224 206.961 194.633C207.87 196.624 210.935 198.32 213.415 197.42C218.164 195.698 222.32 192.768 226.105 189.75C229.614 186.95 232.669 183.603 234.976 179.968C237.154 176.541 238.758 172.65 240.111 168.901L240.279 168.434C240.917 166.651 241.588 164.647 242.023 162.625C244.627 163.877 248.161 164.06 250.948 163.721C255.45 163.177 259.557 161.182 262.66 158.273C264.107 156.92 265.385 155.376 266.489 153.702C266.389 154.721 266.329 155.706 266.265 156.603C263.685 159.089 262.65 162.677 263.566 165.951C261.407 167.905 260.802 170.84 261.929 173.338C259.566 175.399 259.655 178.68 260.677 181.66C257.884 184.406 257.619 188.685 259.8 191.784L259.866 192.006C257.664 195.248 258.16 199.437 260.919 202.3C259.035 205.516 259.327 209.841 264.036 211.088C265.752 211.543 267.416 211.155 268.66 210.309C267.524 215.282 267.015 220.331 268.531 225.328C269.134 227.31 271.338 228.758 273.656 228.758C275.593 228.758 277.002 227.901 277.975 226.641C277.861 229.149 278.034 231.671 278.642 234.214C279.009 235.75 280.628 236.948 282.347 237.319C281.727 237.934 281.48 238.824 282.074 239.751C284.595 243.677 290.686 242.048 291.098 238.287C292.818 237.158 293.618 235.303 293.949 233.299C294.431 230.377 294.606 227.502 295.152 224.617L295.361 224.789L295.469 224.871L295.504 225.08C295.817 226.506 296.731 227.504 297.918 228.1C297.66 230.588 298.137 233.121 299.931 235.01C301.126 236.269 303.162 236.765 304.907 236.492C305.016 236.497 305.128 236.496 305.245 236.483C309.197 236.021 311.484 232.723 310.443 229.696C312.035 227.981 312.705 225.804 312.234 223.652C315.313 221.859 315.25 217.919 314.184 214.754C317.412 212.513 318.626 208.323 317.004 204.993C319.913 201.814 320.318 197.385 318.341 193.765C321.542 191.452 321.524 186.986 318.349 184.62C320.04 181.667 321.059 178.129 319.37 175.427C320.562 174.27 321.216 172.62 321.078 171.027C320.876 168.686 319.116 167.068 316.932 165.991L316.78 165.258C316.267 165.314 315.721 165.188 315.239 164.781C314.762 164.378 314.271 164.054 313.764 163.786C313.189 163.779 312.694 163.554 312.347 163.208C311.395 162.923 310.371 162.798 309.236 162.786C306.784 162.763 306.698 159.537 308.98 159.328C309.34 159.009 309.836 158.807 310.374 158.807L310.796 158.809C311.781 158.817 312.776 158.87 313.69 159.215C314.284 159.439 314.742 159.776 315.077 160.188C315.14 160.811 315.526 161.433 316.36 161.946C317.324 162.539 318.643 162.608 319.675 162.072C321.119 161.321 321.134 160.148 320.967 158.873C320.603 156.085 322.425 153.46 321.991 150.608C321.799 149.346 321.322 148.257 320.543 147.378C322.185 145.216 322.474 142.426 321.211 140.054C323.843 137.562 324.298 133.721 322.62 130.723C322.595 130.65 322.577 130.576 322.55 130.504C322.361 129.995 322.099 129.535 321.811 129.096C323.285 126.85 323.274 124.093 321.776 121.857C324.045 119.53 324.117 115.827 322.099 113.32C322.087 113.113 322.063 112.905 322.042 112.697C322.968 110.582 322.746 108.177 321.571 106.21C321.99 105.36 322.314 104.445 322.52 103.47C323.049 100.957 322.777 98.5138 321.987 96.0617C321.859 95.6748 321.715 95.2878 321.562 94.9009C321.536 93.2214 321.464 91.5492 321.368 89.8801C321.744 88.4672 321.804 86.9146 321.812 85.4731L321.815 84.5384C321.833 82.1597 322.022 78.6769 320.312 76.6549C321.41 74.4706 320.959 71.7185 319.127 69.9872C320.413 68.0416 320.682 65.6526 319.39 63.494C319.183 63.1466 318.942 62.8231 318.678 62.517C318.785 60.5401 318.312 58.5015 317.114 56.5368C316.337 55.2577 315.175 54.1503 313.793 53.2643C313.817 53.0021 313.831 52.7403 313.826 52.4825C313.802 51.3321 313.512 50.1769 313.024 49.0992C313.9 47.7835 314.306 46.3005 313.793 44.7023C313.22 42.8937 311.712 41.3372 309.83 40.459C309.678 38.7538 309.375 37.0586 308.943 35.3861C310.099 33.1196 309.178 30.1284 306.564 28.7932C306.905 26.982 306.597 25.1038 305.099 23.689C304.531 23.1529 303.862 22.7464 303.142 22.4769C303.489 20.6556 303.097 18.7609 301.666 17.2779C300.497 16.0671 298.764 15.3314 297.001 15.2232C296.322 12.0554 292.882 9.68681 289.252 9.8755C288.799 8.48076 287.715 7.26471 286.034 6.64821C285.603 6.49038 285.168 6.38647 284.735 6.32865C281.784 3.70959 277.39 1.93443 273.586 1.02532C269.771 0.117069 265.903 0.0291536 262.627 1.08514L262.389 1.16445L262.122 1.13402C260.965 1.02098 259.809 0.955761 258.653 0.929675ZM287.646 215.591C288.665 215.312 289.802 215.922 290.078 216.806C290.37 217.74 289.72 218.665 288.697 218.945C287.423 219.295 286.084 219.382 284.756 219.383C283.688 219.384 282.779 218.583 282.779 217.644C282.779 216.7 283.684 215.906 284.756 215.905C285.836 215.904 286.634 215.869 287.646 215.591ZM296.711 197.123C298.235 197.124 299.541 197.444 300.671 198.383C301.424 199.01 301.443 200.22 300.671 200.843C299.891 201.472 298.76 201.509 297.96 200.91L297.806 200.788C297.787 200.773 297.773 200.762 297.761 200.752C297.697 200.715 297.632 200.678 297.564 200.647L297.693 200.721C297.791 200.783 297.563 200.681 297.436 200.633L297.396 200.619L297.383 200.616L297.28 200.609C297.091 200.6 296.901 200.601 296.711 200.601C295.677 200.6 294.687 199.802 294.734 198.862C294.783 197.92 295.603 197.122 296.711 197.123ZM267.961 186.089C265.821 184.935 267.732 181.982 269.878 183.046L269.956 183.086C271.056 183.68 272.409 183.599 273.655 183.6C276.199 183.601 276.203 187.079 273.655 187.078L273.234 187.076C271.407 187.064 269.559 186.952 267.961 186.089ZM284.8 173.394C286.416 173.127 288.227 172.888 289.928 173.051L290.211 173.082H290.734C291.189 173.082 291.629 173.243 291.982 173.496C292.542 173.7 293.071 173.974 293.555 174.342C295.481 175.811 292.674 178.262 290.759 176.802C290.653 176.721 290.529 176.654 290.392 176.599L290.287 176.56H288.172C287.98 176.56 287.793 176.525 287.61 176.474C286.924 176.557 286.284 176.676 285.851 176.748C283.364 177.16 282.299 173.808 284.8 173.394ZM286.605 140.013C289.704 138.748 293.135 138.757 296.001 140.513C298.05 141.768 296.147 144.729 294.08 143.56L294.006 143.516C293.749 143.359 293.485 143.227 293.218 143.108C291.763 143.478 290.299 143.495 288.892 143.04L288.709 142.978L288.6 143.016C286.307 143.951 284.297 140.954 286.605 140.013ZM252.864 134.563C255.994 134.254 256.019 129.904 252.864 130.215C246.202 130.873 240.157 133.478 235.73 137.953C233.67 140.034 237.062 143.078 239.159 141.09L239.224 141.027C242.744 137.469 247.495 135.092 252.864 134.563ZM287.93 112.228C288.626 112.161 289.321 112.127 290.004 112.156C291.646 112.226 293.645 113.189 292.925 114.93C292.347 116.325 290.453 116.38 289.518 115.636C289.129 115.645 288.741 115.667 288.354 115.702C287.322 115.795 286.299 115.969 285.282 116.145C282.796 116.575 281.732 113.223 284.231 112.791L285.335 112.598C285.708 112.534 286.083 112.472 286.461 112.414C286.687 112.316 286.929 112.249 287.187 112.232L287.318 112.228H287.93ZM307.572 85.2438L307.804 85.2161C311.142 84.8403 316.501 85.1861 316.906 88.9245C317.13 90.9949 313.73 91.1249 313.059 89.3545C310.594 88.9636 308.108 88.8889 305.66 89.1263C304.726 88.2915 304.719 86.6868 306.274 86.2863C306.493 85.7672 306.951 85.3225 307.572 85.2438ZM231.268 78.9296C232.039 78.3066 233.304 78.224 234.063 78.9296C234.501 79.3357 234.866 79.787 235.155 80.2835L235.347 80.6187C235.38 80.6744 235.413 80.7297 235.448 80.7843C235.513 80.8856 235.585 80.9821 235.656 81.0804L235.704 81.1215C235.722 81.1383 235.745 81.1587 235.771 81.1834C236.482 81.8447 236.573 82.9956 235.771 83.6429C235 84.266 233.735 84.3486 232.976 83.6429C232.539 83.2369 232.173 82.786 231.884 82.2891L231.692 81.9541C231.659 81.8985 231.626 81.8433 231.591 81.7886C231.527 81.6869 231.453 81.5904 231.383 81.4921L231.305 81.423C231.293 81.4128 231.281 81.4015 231.268 81.3891C230.556 80.7282 230.467 79.577 231.268 78.9296ZM271.803 74.4006C274.589 72.6641 277.901 72.5833 280.461 74.6723C282.309 76.1802 279.594 78.5961 277.731 77.1833L277.665 77.1318C277.598 77.0762 277.529 77.0275 277.461 76.981C277.127 77.2314 276.702 77.3901 276.217 77.3905C276.09 77.3908 275.963 77.3905 275.837 77.3929L275.647 77.3988L275.545 77.4062L275.532 77.4083L275.444 77.4416C275.281 77.5061 275.057 77.6057 275.364 77.4362C275.296 77.4679 275.231 77.5053 275.166 77.5418L275.053 77.6327C274.307 78.2527 273.018 78.3344 272.278 77.6488C270.968 77.2592 270.273 75.354 271.803 74.4006ZM244.573 68.703L244.522 68.689C242.08 68.0756 243.118 64.7187 245.573 65.3348C248.178 65.9891 249.422 68.1216 249.943 70.3059C250.162 71.2246 249.636 72.1859 248.562 72.4454C247.581 72.6824 246.351 72.1541 246.13 71.2307C245.976 70.5813 245.797 70.0304 245.515 69.5191L245.344 69.2272C245.265 69.0942 245.237 69.0721 244.967 68.8651C244.922 68.8303 244.716 68.7461 244.573 68.703ZM285.938 51.1856L286.32 51.109C288.7 50.6504 291.858 50.411 293.294 52.486C294.604 54.3764 291.3 56.0972 289.94 54.3103C289.919 54.3097 289.895 54.3099 289.867 54.3119L289.823 54.3164L289.213 54.2729C288.453 54.2681 287.726 54.3864 286.99 54.5399C284.516 55.0551 283.46 51.7021 285.938 51.1856ZM200.526 37.8147C198.725 36.23 201.519 33.7696 203.321 35.3556C204.746 36.6091 206.12 37.8712 207.046 39.4638C207.532 40.2994 207.294 41.3507 206.337 41.8433C205.454 42.2976 204.121 42.0585 203.632 41.2194C202.83 39.839 201.817 38.9512 200.526 37.8147ZM223.255 33.6548C225.035 34.5817 226.187 36.1087 226.886 37.876C227.237 38.7629 226.486 39.7781 225.505 40.0151C224.451 40.2699 223.488 39.7266 223.109 38.8829L223.074 38.8003C222.887 38.3277 222.587 37.7695 222.217 37.3482C221.901 36.9886 221.409 36.6286 221.039 36.5091C220.148 36.2213 219.516 35.5109 219.598 34.6813C221.064 35.1269 222.424 34.5909 223.255 33.6548ZM276.527 26.0898C278.322 24.6238 280.731 24.4294 282.907 25.3168C283.876 25.7116 284.119 26.9407 283.616 27.6963C283.035 28.5706 281.884 28.7167 280.912 28.3202C281.162 28.4219 280.711 28.2876 280.516 28.2385C280.491 28.2486 280.165 28.2356 280.052 28.237L279.917 28.2445C279.916 28.2453 279.949 28.2448 280.017 28.2428C279.922 28.2616 279.828 28.2842 279.736 28.3101L279.618 28.346C279.677 28.3351 279.41 28.4882 279.336 28.5391L279.322 28.5489C277.459 30.0701 274.657 27.6163 276.527 26.0898Z" fill="black"/>
<path fill-rule="evenodd" clip-rule="evenodd" d="M137.977 167.104C137.217 165.944 135.468 164.87 133.867 165.035C126.697 165.773 126.709 173.405 129.478 177.861C131.933 181.811 137.013 184.13 142.098 183.792C147.44 183.436 151.992 180.678 153.995 176.291C155.32 173.389 155.932 168.031 152.408 166.081C152.343 166.045 152.235 166.054 152.183 166.107C150.493 167.832 150.427 170.423 148.947 172.344C147.572 174.131 145.434 175.607 142.93 175.835C141.06 176.005 139.169 175.413 138.437 173.939C138.041 173.142 138.086 172.709 138.235 172.16L138.37 171.683C138.839 170.013 139.049 168.742 137.977 167.104ZM136.06 133.633C132.32 135.629 126.622 140.282 130.645 145.23C135.381 149.592 142.199 144.59 145.558 142.328C148.674 140.575 152.174 145.084 149.283 147.131C125.006 162.911 115.153 134.155 134.168 131.287C136.262 130.971 137.04 133.016 136.06 133.633ZM175.551 119.949C173.255 116.926 168.016 117.371 166.751 120.959C166.066 122.902 167.012 124.649 166.963 126.59C166.922 128.229 167.045 130.056 167.617 131.644C168.922 135.265 172.632 137.822 177.02 137.716C181.394 137.61 185.246 135.18 187.078 131.757C188.916 128.321 188.527 124.765 187.185 121.271C187.12 121.103 186.87 121.022 186.719 121.163C185.132 122.643 183.971 124.206 182.77 125.863L181.538 127.562C180.597 128.841 179.229 130.475 177.472 130.372L177.208 130.35C176.72 130.313 176.795 130.398 176.418 129.814C176.244 129.543 176.276 129.041 176.191 128.721L176.162 128.614L176.178 128.556C176.215 128.401 176.252 128.11 176.282 127.604L176.288 127.493C176.416 125.129 177.177 122.091 175.551 119.949ZM117.366 121.962C117.777 118.095 111.585 117.236 109.526 120.098C108.452 121.59 108.14 123.464 107.902 125.24L107.791 126.083C107.548 127.906 107.451 129.804 108.353 131.505C109.773 134.185 112.862 135.601 116.194 135.377C119.376 135.162 122.279 133.542 123.809 131.084C125.173 128.89 126.53 124.607 124.873 122.318C124.773 122.18 124.573 122.162 124.435 122.269C122.869 123.489 122.614 125.715 121.683 127.305C120.723 128.945 119.267 130.543 117.06 130.792C114.948 131.031 114.141 130.018 114.68 128.251C115.375 125.969 117.104 124.417 117.366 121.962ZM173.878 96.9599L172.865 96.6194C169.396 95.4687 164.632 94.1387 161.811 96.6156C160.071 98.1429 159.74 100.393 160.982 102.257C162.487 104.514 165.186 104.57 167.793 104.903C170.758 105.281 173.773 106 176.534 107.025C179.643 108.18 182.529 109.62 185.356 111.229C188.043 112.757 190.721 115.255 193.938 115.725C194.069 115.745 194.218 115.695 194.252 115.569C194.983 112.808 192.953 110.091 191.141 107.937C188.949 105.329 186.293 103.189 183.325 101.27C180.46 99.4172 177.187 98.0786 173.878 96.9599ZM110.852 106.776L110.543 106.728C108.439 106.42 106.532 106.491 104.946 107.954C103.736 109.07 103.269 110.517 103.846 111.992C104.379 113.354 105.569 114.737 107.297 115.022C113.13 115.985 119.592 115.826 125.454 115.097C128.136 114.763 130.843 114.354 133.455 113.71L134.657 113.404C136.838 112.857 139.335 112.285 140.919 110.877C141.489 110.371 141.161 109.647 140.479 109.412C137.715 108.462 133.926 108.968 130.978 108.893C127.549 108.807 124.115 108.582 120.702 108.271C117.368 107.966 114.141 107.305 110.852 106.776Z" fill="black"/>
</svg>
