<svg width="392" height="500" viewBox="0 0 392 500" fill="none" xmlns="http://www.w3.org/2000/svg">
<path fill-rule="evenodd" clip-rule="evenodd" d="M23.6075 429.081C25.5225 419.501 27.2779 409.895 28.8732 400.268C29.6305 395.698 30.3692 391.123 31.0334 386.541C31.4984 383.331 32.2068 379.66 29.7411 377.282C26.2717 373.936 23.1201 371.071 22.6953 366.278C22.2958 361.767 24.0175 356.851 25.094 352.473C27.3516 343.292 30.1621 334.224 33.2676 325.242C36.4226 316.117 39.8821 307.077 43.3914 298.055C46.6723 289.62 49.8263 281.108 54.0996 273.015C62.2096 257.656 75.9297 246.282 92.886 238.687C97.1033 236.798 105.705 230.055 110.111 228.546C114.161 227.158 114.147 231.211 118.133 229.684C121.32 228.464 124.287 226.836 126.071 224.11C128.009 221.151 132.867 217.011 133.607 213.566C135.174 206.264 133.476 200.048 139.36 194.552C144.583 189.672 151.603 186.328 158.867 184.533C174.846 180.585 196.157 183.346 205.798 196.499C210.403 202.781 212.012 210.374 218.226 215.5C223.651 219.977 222.437 223.037 229.465 225.344C229.863 225.475 240.65 223.425 241.049 223.556C248.736 222.099 256.084 226.178 263.137 228.546C273.652 232.074 283.662 236.667 293.067 242.126C312.032 253.133 328.275 267.427 341.665 283.601C355.167 299.909 365.643 318.188 373.102 337.291C374.914 341.932 376.541 346.628 377.976 351.371C378.779 354.025 379.638 356.778 378.659 359.495C377.859 361.718 376.08 363.374 373.99 364.708C371.157 366.516 365.475 367.691 365.585 371.328C365.67 374.093 366.729 377.003 367.246 379.736C367.861 382.99 368.367 386.263 368.872 389.532C371.171 404.409 372.961 419.37 373.752 434.373C374.532 449.145 375.178 464.22 374.021 478.988C373.945 479.962 373.617 480.856 373.088 481.612C373.582 481.779 373.62 482.594 373.006 482.709C372.575 482.79 372.146 482.871 371.715 482.952C370.821 483.551 369.706 483.918 368.423 483.954C367.553 483.979 366.684 484.013 365.815 484.053C356.646 485.751 347.478 487.355 338.188 488.569C326.897 490.045 315.572 491.249 304.212 492.227C280.869 494.238 257.71 493.571 234.337 492.488C210.999 491.405 187.676 491.152 164.314 491.691C140.932 492.23 117.558 493.131 94.1707 493.499C68.0421 493.911 41.9534 493.279 15.9004 491.439C12.3283 491.187 10.1182 488.669 10.8228 485.526C15.0438 466.696 19.8273 447.992 23.6075 429.081Z" fill="#FFDBB4"/>
<path fill-rule="evenodd" clip-rule="evenodd" d="M263.137 228.545L262.626 228.371C255.729 225.985 248.551 222.134 241.048 223.556C240.783 223.468 235.901 224.35 232.558 224.909L235.731 227.844L241.332 228.798C222.01 257.049 199.156 271.174 172.772 271.174C146.389 271.174 126.368 257.049 112.711 228.798L110.848 228.341C110.618 228.389 110.373 228.456 110.11 228.545C105.705 230.055 97.1032 236.798 92.886 238.687C75.9297 246.281 62.2095 257.655 54.0995 273.015C49.9687 280.838 46.8837 289.052 43.7191 297.211L43.3914 298.055C39.882 307.077 36.4225 316.116 33.2675 325.242C30.297 333.833 27.5964 342.503 25.3915 351.275L25.0939 352.472C24.0174 356.85 22.2957 361.767 22.6953 366.278C22.8466 367.985 23.344 369.448 24.0786 370.775L62.2965 382.958L44.089 492.965C60.7672 493.598 77.4608 493.762 94.1706 493.499C117.558 493.13 140.932 492.229 164.314 491.69C186.968 491.169 209.586 491.391 232.215 492.391L237.962 492.652C260.107 493.633 282.077 494.133 304.212 492.227L305.72 492.096L305.721 476.004L297.945 386.401L337.35 379.83L376.031 363.187C377.2 362.152 378.138 360.944 378.659 359.495C379.565 356.979 378.896 354.431 378.154 351.96L377.976 351.371C376.541 346.628 374.913 341.931 373.102 337.291C365.643 318.187 355.167 299.909 341.665 283.601C328.274 267.426 312.032 253.133 293.067 242.126C283.662 236.667 273.651 232.074 263.137 228.545Z" fill="#EC7495"/>
<path fill-rule="evenodd" clip-rule="evenodd" d="M248.339 223.093C245.923 223 243.459 223.346 241.048 223.556C240.838 223.574 240.759 223.861 240.995 223.905C245.309 224.703 249.576 225.795 253.813 226.905L255.627 227.38C260.405 228.632 265.043 229.924 269.668 231.594C278.886 234.922 287.641 239.414 295.699 244.575C326.727 264.448 349.184 294.536 363.355 325.688C367.204 334.147 370.465 342.818 373.106 351.634C373.748 353.779 374.353 355.933 374.926 358.093C375.094 358.726 375.827 360.348 375.425 360.996C375.07 361.569 373.688 361.923 373.046 362.221L370.879 363.216C366.653 365.146 359.612 368.318 358.906 368.627L357.805 369.107C339.795 376.929 320.551 383.562 300.284 384.021L300.125 382.487C299.221 374.011 298.035 365.49 295.447 357.274C295.308 356.832 294.674 356.981 294.616 357.374C293.174 367.1 293.635 376.902 294.138 386.673C295.029 403.979 296.212 421.276 297.263 438.575C297.789 447.229 298.47 455.877 299.084 464.526C299.699 473.193 299.898 482.068 301.303 490.663C301.616 492.579 304.149 493.621 306.068 493.419C308.19 493.195 309.823 491.539 309.833 489.64C309.859 484.633 309.148 479.567 308.754 474.572C308.379 469.827 307.976 465.084 307.564 460.341C306.057 443.031 304.324 425.741 302.72 408.439C302.152 402.302 301.538 396.17 300.906 390.04C322.376 389.426 342.434 382.382 361.569 374.151C361.846 379.722 362.515 385.282 363.163 390.83C364.97 406.311 366.564 421.787 367.757 437.316C368.36 445.159 368.798 453.012 369.18 460.866C369.368 464.726 369.521 468.587 369.638 472.449C369.677 473.737 369.713 475.024 369.744 476.311L369.81 479.261C369.863 481.13 370.077 482.861 371.852 484.221C373.655 485.603 376.091 485.677 377.875 484.221C380.264 482.273 379.841 479.618 379.77 477.001C379.712 474.794 379.641 472.587 379.559 470.38C379.394 465.967 379.183 461.555 378.927 457.145C378.031 441.727 376.241 426.37 373.901 411.075L372.988 405.171C371.282 394.195 369.41 382.97 365.597 372.397C367.081 371.743 368.562 371.084 370.036 370.423C372.652 369.249 375.357 368.148 377.899 366.853C379.916 365.826 381.656 364.417 382.218 362.338C382.844 360.021 381.886 357.487 381.25 355.227L381.195 355.028C380.571 352.752 379.899 350.486 379.19 348.23C376.316 339.081 372.762 330.111 368.603 321.36C360.275 303.839 349.525 287.194 336.395 272.144C324.575 258.597 310.613 246.311 294.249 237.097C286.248 232.592 277.723 228.894 268.706 226.278C264.492 225.056 259.907 223.993 255.494 223.556C253.114 223.32 250.73 223.185 248.339 223.093ZM205.528 195.329C202.657 192.598 196.952 195.424 198.331 199.041C201.574 207.55 206.738 215.312 214.797 220.903C222.373 226.16 231.406 229.573 241.135 228.845C241.21 228.839 241.275 228.822 241.332 228.798L240.494 229.806C233.912 237.693 226.968 245.471 218.599 251.918C201.547 265.053 178.33 272.137 155.912 267.098C138.273 263.133 122.733 250.777 118.163 235.031C118.818 235.291 119.597 235.379 120.452 235.215C124.108 234.512 127.728 231.105 130.087 228.662C132.638 226.02 134.63 223.166 136.091 219.941C138.763 214.038 139.62 206.438 135.971 200.72C135.521 200.015 134.482 200.41 134.394 201.098L134.255 202.172C133.551 207.531 132.675 212.715 129.822 217.6C128.427 219.991 126.754 222.324 124.717 224.326C123.627 225.397 122.446 226.42 121.17 227.318C119.927 228.193 118.423 228.826 117.308 229.83L117.104 230.023L117.099 229.988C116.817 227.867 115.137 226.932 113.494 226.991C111.904 227.047 110.036 227.667 109.313 227.964L109.244 227.993C98.1503 232.711 87.9327 238.86 78.3174 245.682C58.4327 259.79 43.5339 278.234 36.3152 299.953C32.7722 310.613 30.7391 321.597 28.593 332.529L27.2718 339.227C25.2687 349.32 23.0312 359.611 18.5094 369C17.3398 371.428 18.2415 373.706 21.1095 374.661C24.6906 375.854 28.285 377.009 31.8851 378.149C30.1173 384.867 29.0394 391.818 27.7149 398.569C24.8996 412.92 21.4501 427.178 18.4923 441.51C16.9801 448.838 15.6157 456.19 14.105 463.519C13.3776 467.048 12.6185 470.572 11.8802 474.1C11.4826 476.002 11.122 477.91 10.7424 479.815L10.6764 480.131C10.4589 481.136 10.1857 482.175 10.4978 483.181C10.8536 484.328 11.864 485.138 12.7662 485.96C13.5088 486.637 14.5819 486.641 15.4917 486.272L15.791 486.149C17.4158 485.476 18.6888 484.804 19.2652 483.181C19.6301 482.153 19.7617 480.994 20.0002 479.935C20.4577 477.905 20.8914 475.871 21.3009 473.832C22.12 469.753 22.92 465.671 23.701 461.585L24.4305 457.76C26.9343 444.575 29.312 431.31 30.514 417.986C31.0473 412.075 31.6124 406.169 32.1827 400.262L32.611 395.831C33.1526 390.223 33.8144 384.474 33.908 378.79L36.0607 379.467L46.5649 382.756C49.1693 383.572 52.4853 385.242 55.2882 384.939C56.6602 384.79 57.7063 384.407 58.5139 383.712C57.5467 395.804 56.2374 407.875 54.4924 419.885C52.9047 430.813 51.1446 441.726 49.0657 452.589C48.0362 457.968 46.9782 463.343 45.829 468.703C45.2546 471.383 44.6617 474.06 44.0508 476.734C43.7462 478.068 43.3838 479.403 43.1462 480.748C42.8745 482.289 43.3534 483.236 44.3249 484.503C45.1226 485.544 46.7183 486.079 48.0119 485.36C49.7251 484.408 50.6187 483.583 51.1227 481.849C51.5807 480.273 51.8591 478.629 52.2135 477.033C52.8677 474.088 53.5 471.14 54.1105 468.187C55.387 462.012 56.5638 455.823 57.6146 449.614C61.3178 427.743 63.6675 405.689 64.8543 383.599C65.44 372.7 65.621 361.792 65.517 350.882C65.4638 345.29 65.2576 339.681 64.811 334.103C64.3588 328.456 63.4181 322.923 62.5782 317.33C62.5487 317.134 62.2352 317.122 62.2219 317.33C61.8242 323.6 61.201 329.863 60.8955 336.149C60.6038 342.148 60.476 348.155 60.2441 354.156C59.9396 362.043 59.5173 369.935 58.9581 377.822C57.9457 376.841 56.4198 376.275 54.8929 376.496C52.681 376.085 50.2999 375.057 48.191 374.433L40.2411 372.08C36.062 370.844 31.8827 369.616 27.6888 368.425C31.4384 357.25 34.0071 345.908 36.2004 334.402L37.1786 329.227C39.1148 319.04 41.2025 308.849 44.7097 298.985C48.3968 288.615 53.9142 278.973 61.2337 270.242C68.4487 261.637 77.2266 254.06 86.2644 246.973C94.002 240.906 102.279 235.428 110.171 229.528C110.088 229.918 110.071 230.349 110.144 230.822C111.821 241.701 118.228 251.832 127.156 259.367C145.092 274.506 171.643 277.647 194.599 270.548C216.806 263.681 236.439 247.419 243.376 227.295C243.494 226.951 242.974 226.814 242.765 227.067C242.38 227.534 241.993 228.001 241.606 228.468C241.632 228.283 241.523 228.081 241.265 227.992C233.171 225.224 225.224 221.298 219.157 215.744C216.2 213.037 213.62 209.969 211.583 206.662C210.607 205.077 209.73 203.436 209.031 201.741L208.853 201.302C208.006 199.178 207.298 197.012 205.528 195.329Z" fill="black"/>
<path fill-rule="evenodd" clip-rule="evenodd" d="M101.842 76.0723C103.673 66.2416 97.6652 64.2019 101.842 54.857C111.125 37.5418 136.424 38.2878 154.989 36.9565C175.695 36.252 196.653 38.6787 215.742 46.0462C220.302 47.8057 224.687 49.8751 228.891 52.2263C232.527 54.2596 232.027 58.1255 229.735 60.2344C246.263 81.0125 236.81 108.903 249.998 130.774C252.434 134.684 255.657 138.189 257.774 142.257C260.993 148.441 261.199 157.301 253.9 161.407C243.618 166.306 237.881 156.607 232.83 170.667C207.6 219.692 156.875 222.453 108.721 196.893C104.555 194.836 100.303 192.511 97.1569 189.279C90.016 182.145 90.857 172.113 90.6991 163.204C90.611 157.983 90.5963 152.761 90.6536 147.54C90.8783 126.389 98.775 97.049 101.842 76.0723Z" fill="#FFDBB4"/>
<path fill-rule="evenodd" clip-rule="evenodd" d="M204.407 17.2739C175.332 5.56588 142.355 1.12592 110.64 4.0382C94.9854 5.47338 79.5374 8.55246 64.836 13.5541L63.5474 13.9962C59.9183 15.2361 56.0063 16.4669 53.2485 18.991C50.0386 21.9243 49.1383 26.36 51.4328 29.9835C53.2153 32.799 56.42 34.8187 59.8381 35.8965C58.634 36.7718 57.4915 37.7482 56.4201 38.8382C54.6138 40.6647 54.4764 43.2693 56.4201 45.071C60.1652 48.543 65.0244 51.055 70.2582 52.2591C69.6703 54.7799 69.988 57.5702 71.249 60.0826C74.8675 67.2947 85.0607 68.1542 92.9046 67.726L93.1416 67.7126L93.5778 72.1442C93.8101 74.5051 95.4029 76.3358 98.1051 76.6978C98.2 76.7104 98.2953 76.7188 98.3896 76.7268C94.1135 90.4553 91.5298 104.608 89.1452 118.677C87.8993 126.022 86.784 133.383 85.7164 140.749L85.3621 143.204C84.2243 151.146 82.8021 159.167 82.3091 167.168C81.8682 174.427 83.4279 181.359 88.4673 187.217C92.9899 192.469 99.1576 196.404 105.79 199.325C120.775 205.927 136.548 210.843 153.121 213.124L154.226 213.275C160.624 214.142 167.215 214.873 173.544 213.301C179.105 211.921 184.936 208.36 183.68 202.641C183.258 200.709 180.214 200.625 179.171 202.119L178.931 202.461C177.68 204.223 176.309 205.86 174.127 206.769C171.572 207.838 168.609 208.137 165.817 208.167C158.018 208.247 149.897 206.521 142.388 204.792C128.365 201.56 113.963 196.29 102.476 188.307C97.5884 184.915 93.6631 180.673 92.2788 175.214C90.5674 168.485 92.1413 161.128 92.9188 154.365C94.5188 140.41 96.4229 126.481 98.4321 112.567L98.8352 109.785C100.527 98.1526 102.305 86.5162 103.149 74.8166C103.5 74.3915 103.737 73.9075 103.832 73.3773L103.964 72.6155C104.078 71.9632 104.097 71.3656 104.017 70.8143C104.012 68.7016 103.946 66.6016 103.808 64.4885C103.785 64.1102 103.766 63.7314 103.751 63.3568C106.226 63.8408 108.72 64.2322 111.223 64.5647C128.82 66.9172 146.693 67.5064 164.432 66.3365C173.283 65.7511 182.067 64.7456 190.824 63.4873C195.281 62.8476 199.722 62.1406 204.15 61.3494C207.35 60.7812 210.484 60.0111 213.632 59.2872C216.879 63.4831 218.633 68.6469 218.292 73.7181C217.908 79.5048 213.565 84.7528 214.784 90.6657C215.927 96.1995 221.268 97.9153 226.54 99.2858L228.783 99.8609C230.508 100.308 231.761 100.74 232.073 102.58C232.609 105.741 231.95 109.297 231.812 112.474C231.646 116.232 231.429 119.99 231.329 123.749C231.277 125.693 231.192 127.646 231.196 129.59C231.201 130.97 231.433 131.913 232.035 132.805C231.57 133.323 231.154 133.883 230.784 134.476C230.665 134.67 230.959 134.875 231.134 134.716C231.604 134.283 232.102 133.891 232.628 133.541C232.893 133.832 233.201 134.127 233.562 134.442L233.59 134.409C234.718 135.406 236.51 135.503 237.909 134.442L238.276 134.16C239.3 133.363 240.004 132.7 240.289 131.383C240.303 131.316 240.318 131.248 240.327 131.181C242.929 131.101 245.575 131.648 247.916 132.797C251.628 134.619 254.241 137.216 255.786 140.423C255.17 141.062 254.449 141.635 253.61 142.115C253.492 142.186 253.596 142.342 253.724 142.287C254.582 141.929 255.35 141.487 256.037 140.97C256.592 142.232 256.981 143.587 257.218 145.023C258.052 150.09 256.564 156.28 251.406 159.167C249.173 160.417 246.622 161.095 243.977 161.103C242.688 161.107 241.573 160.914 240.322 160.64C239.473 160.455 238.629 160.186 237.743 160.186C236.984 160.186 236.283 160.354 235.633 160.691L235.813 160.705C236.251 160.741 236.167 160.758 235.557 160.758C233.661 160.83 232.576 162.538 233.448 164.024L233.562 164.253C233.586 164.3 233.607 164.338 233.623 164.369L233.692 164.763C233.698 164.8 233.706 164.839 233.713 164.878L233.74 164.958C233.744 164.971 233.75 164.983 233.756 164.996L230.912 168.846C227.425 173.556 223.86 178.248 219.804 182.55C216.96 185.567 213.944 188.526 210.759 191.265C207.895 193.727 204.463 194.914 201.22 196.85C199.49 197.877 198.983 200.028 200.556 201.412C205.174 205.482 211.712 202.25 215.499 198.942C219.083 195.806 222.179 192.036 224.848 188.261C229.584 181.548 233.353 174.41 235.003 166.663C235.69 167.222 236.567 167.572 237.454 167.845C239.231 168.392 241.189 168.62 243.067 168.678C246.665 168.784 250.268 168.009 253.506 166.637C266.68 161.061 268.614 144.362 260.56 134.514C261.646 131.718 262.253 128.684 262.912 126.097L263.211 124.941C266.542 112.024 268.778 98.4242 262.873 85.767C262.115 84.1341 261.262 82.5433 260.252 81.0199C259.441 79.7952 258.047 78.4906 257.663 77.0976C256.81 74.038 262.077 70.8227 263.613 68.3944C265.419 65.5453 265.675 62.1827 263.215 59.5772C262.902 59.2494 262.561 58.9459 262.191 58.6812C264.523 54.9272 264.632 50.2053 261.56 46.5019C259.541 44.0609 256.459 42.3523 253.093 41.8346C251.036 41.519 248.561 41.6368 246.3 42.2008C233.918 31.9952 219.79 23.4688 204.407 17.2739ZM251.956 144.972C248.651 142.384 245.001 141.029 240.497 141.37C235.97 141.714 230.518 143.377 227.859 146.824C225.758 149.547 230.039 153.541 233.12 151.495C235.927 149.631 237.8 147.527 241.284 146.525C244.413 145.629 248.286 145.052 251.562 145.566C251.923 145.62 252.282 145.225 251.956 144.972Z" fill="black"/>
<path fill-rule="evenodd" clip-rule="evenodd" d="M129.709 174.606C128.98 173.483 127.302 172.443 125.767 172.603C118.888 173.318 118.9 180.705 121.556 185.018C123.911 188.842 128.785 191.087 133.663 190.759C138.788 190.415 143.154 187.746 145.076 183.499C146.347 180.69 146.934 175.503 143.553 173.616C143.49 173.581 143.387 173.589 143.337 173.64C141.716 175.311 141.652 177.819 140.233 179.678C138.914 181.408 136.863 182.836 134.461 183.057C132.667 183.222 130.853 182.649 130.151 181.222C129.771 180.45 129.814 180.031 129.957 179.5L130.087 179.039C130.536 177.422 130.738 176.191 129.709 174.606ZM127.87 142.207C124.283 144.139 118.817 148.643 122.676 153.432C127.219 157.654 133.759 152.813 136.982 150.623C139.971 148.926 143.329 153.291 140.556 155.272C117.266 170.547 107.814 142.712 126.056 139.936C128.064 139.63 128.81 141.609 127.87 142.207ZM165.754 128.961C163.552 126.034 158.526 126.465 157.313 129.938C156.656 131.819 157.563 133.51 157.516 135.389C157.477 136.976 157.594 138.744 158.143 140.281C159.396 143.786 162.954 146.261 167.163 146.159C171.359 146.057 175.055 143.704 176.812 140.391C178.576 137.065 178.202 133.623 176.915 130.241C176.853 130.078 176.613 129.999 176.468 130.136C174.946 131.569 173.832 133.081 172.679 134.686L171.498 136.33C170.595 137.568 169.283 139.15 167.597 139.05L167.344 139.028C166.876 138.993 166.948 139.075 166.586 138.509C166.419 138.248 166.449 137.761 166.369 137.452L166.341 137.348L166.356 137.292C166.392 137.142 166.427 136.86 166.456 136.371L166.462 136.263C166.584 133.975 167.314 131.034 165.754 128.961ZM109.937 130.909C110.332 127.166 104.391 126.335 102.416 129.105C101.386 130.549 101.086 132.363 100.859 134.082L100.752 134.898C100.518 136.663 100.426 138.5 101.291 140.147C102.653 142.74 105.616 144.112 108.813 143.894C111.865 143.687 114.65 142.119 116.118 139.739C117.427 137.615 118.728 133.469 117.138 131.254C117.042 131.12 116.85 131.103 116.719 131.206C115.217 132.388 114.972 134.542 114.079 136.081C113.158 137.669 111.761 139.216 109.643 139.457C107.617 139.688 106.844 138.707 107.36 136.997C108.027 134.788 109.686 133.286 109.937 130.909ZM164.149 106.708L163.178 106.378C159.85 105.264 155.28 103.977 152.574 106.374C150.904 107.853 150.587 110.031 151.778 111.835C153.222 114.02 155.811 114.074 158.312 114.396C161.156 114.762 164.049 115.458 166.697 116.451C169.68 117.569 172.448 118.963 175.161 120.52C177.738 121.999 180.307 124.417 183.393 124.872C183.519 124.891 183.662 124.843 183.694 124.72C184.395 122.048 182.448 119.418 180.71 117.333C178.607 114.809 176.06 112.737 173.212 110.88C170.464 109.086 167.323 107.791 164.149 106.708ZM103.688 116.209L103.391 116.163C101.373 115.865 99.5439 115.934 98.0228 117.35C96.8618 118.43 96.4142 119.83 96.9677 121.259C97.4784 122.576 98.6205 123.915 100.278 124.191C105.874 125.124 112.072 124.97 117.696 124.264C120.269 123.94 122.865 123.545 125.372 122.921L126.525 122.625C128.617 122.096 131.012 121.542 132.532 120.179C133.079 119.689 132.764 118.988 132.11 118.761C129.458 117.842 125.823 118.331 122.996 118.259C119.706 118.176 116.412 117.957 113.138 117.656C109.939 117.362 106.843 116.722 103.688 116.209Z" fill="black"/>
</svg>
