<svg width="392" height="500" viewBox="0 0 392 500" fill="none" xmlns="http://www.w3.org/2000/svg">
<g clip-path="url(#clip0_1_332)">
<path fill-rule="evenodd" clip-rule="evenodd" d="M88.8713 271.931C93.1313 270.562 97.2372 268.981 100.978 266.655C111.762 259.419 118.794 248.531 125.438 238.214C134.796 223.21 141.463 207.221 146.072 190.542C148.053 183.376 148.725 175.068 153.224 168.714C163.424 155.411 193.333 157.135 209.214 159.47C219.849 161.166 222.048 171.895 224.463 179.833C226.474 186.429 227.791 193.1 228.896 199.86C231.525 201.418 234.494 202.684 237.323 203.786C268.159 212.309 273.579 228.11 285.356 252.517C305.249 287.993 359.227 301.883 367.38 343.868C372.633 371.586 357.695 397.663 342.293 420.706C327.949 445.875 307.924 457.955 276.034 452.009C246.122 445.961 217.376 435.843 187.991 428.025C173.758 424.871 159.549 416.667 144.577 419.527C113.729 425.772 82.034 428.708 50.4198 427.898C6.03265 429.516 6.03952 391.114 10.5953 361.376C13.7863 315.097 39.6826 285.381 88.8713 271.931Z" fill="#AE5D29"/>
<path fill-rule="evenodd" clip-rule="evenodd" d="M85.9037 338.897C82.1946 341.108 79.0751 344.46 76.5709 347.988C87.0255 347.007 97.462 345.877 107.875 344.59C106.512 343.805 105.136 343.037 103.729 342.312C98.5942 339.704 91.6372 335.48 85.9037 338.897ZM259.601 366.753C261.517 366.077 262.258 363.444 263.004 361.935C265.345 357.203 267.482 352.39 269.704 347.611C261.265 345.442 253.058 343.036 244.315 341.881C234.915 340.639 225.376 340.338 215.888 340.617C196.671 341.182 177.633 344.013 158.74 347.049C139.869 350.081 120.999 352.994 101.996 355.28C83.3778 357.52 64.701 359.159 45.9893 360.598C42.3538 360.878 36.2921 362.056 33.3684 359.477C31.0535 357.435 30.9784 353.668 33.8752 352.007C35.6794 350.972 38.2935 350.957 40.3549 350.718C42.9509 350.417 45.5572 350.217 48.1689 350.061C49.2329 349.998 50.2969 349.939 51.3614 349.881C42.8174 346.977 33.8938 345.394 24.6311 345.835C24.1072 348.703 21.7472 351.655 20.4556 354.02C18.2 358.15 16.4419 362.33 15.2876 366.821C12.8751 376.208 12.7701 385.95 13.4514 395.523C14.0774 403.506 15.422 412.335 22.3682 417.988C27.6274 422.269 35.0475 423.853 41.9315 424.352C49.9324 424.931 58.0569 424.312 65.9906 423.346C77.1183 421.99 88.298 420.196 99.2069 417.792C120.336 413.137 140.588 405.73 159.272 395.687C168.384 390.79 177.079 385.28 186.316 380.569C195.728 375.768 205.743 372.044 216.26 369.731C228.029 367.143 240.332 366.038 252.428 366.677C254.527 366.787 257.559 367.474 259.601 366.753ZM273.239 361.948C272.003 365.565 271.056 369.696 268.417 372.735C265.802 375.747 261.858 376.81 257.771 377.078C252.844 377.401 247.859 377.194 242.921 377.359C232.794 377.699 222.805 379.181 213.124 381.901C204.101 384.436 195.726 388.39 187.658 392.776C180.198 396.833 172.957 401.188 165.494 405.232C167.48 406.053 169.444 406.941 171.418 407.714C175.559 409.335 179.726 410.899 183.912 412.424C192.165 415.431 200.454 418.365 208.827 421.09C225.711 426.586 242.872 431.388 260.24 435.478C268.524 437.429 276.925 439.707 285.531 440.032C293.162 440.319 300.23 438.375 306.384 434.285C319.15 425.802 329.306 413.559 337.515 401.481C342.393 394.306 346.65 386.767 350.17 378.972C351.951 375.03 353.566 371.027 355.019 366.977C355.701 365.076 356.348 363.164 356.96 361.243C357.229 360.399 357.487 359.551 357.743 358.703C344.69 355.113 331.482 351.872 317.964 350.072C310.746 349.112 303.432 348.625 296.136 348.696C292.514 348.731 288.894 348.907 285.292 349.244C283.353 349.426 281.421 349.659 279.498 349.948C278.704 350.067 277.887 350.243 277.068 350.373C275.816 354.238 274.554 358.1 273.239 361.948ZM3.41473 346.58C2.7113 345.297 2.41452 344.035 2.16238 342.639C1.97006 341.574 1.4599 340.074 1.9068 338.691C2.40717 337.142 3.77042 335.757 4.74905 334.436C5.82974 332.976 6.90945 331.515 7.98767 330.053C10.1447 327.13 12.2967 324.204 14.4453 321.275C23.2198 309.318 31.9345 297.327 40.6629 285.343C48.4088 274.708 56.0241 263.978 64.0059 253.486C70.8309 244.514 78.2701 235.69 87.6122 228.713C99.4242 219.89 113.489 215.734 128.181 212.491C129.786 210.99 131.929 210.17 134.22 210.336C137.456 207.028 140.029 204.716 141.195 200.509C141.754 198.493 141.578 192.83 143.756 191.637C146.343 190.221 147.694 192.096 148.407 194.209C150.793 201.28 148.054 210.786 141.751 217.868C144.406 226.142 147.928 237.9 154.209 244.528C160.936 251.626 170.238 253.835 180.275 253.981C199.415 254.258 218.535 247.846 233.135 236.733C237.572 233.356 241.693 229.584 245.422 225.572C248.219 222.562 251.527 217.917 253.715 214.406C253.715 213.038 255.507 211.607 237.262 210.501C219.016 209.396 217.633 186.877 217.227 183.812C216.897 181.324 215.495 177.461 217.441 175.432C218.267 174.57 219.961 174.431 221.008 175.016C222.982 176.121 223.63 178.947 224.251 180.866C225.12 183.554 227.962 200.236 233.347 202.167C235.868 203.071 238.759 203.088 241.426 203.255C244.719 203.463 248.019 203.614 251.298 203.96C252.508 204.087 253.828 204.44 255.021 204.45C255.798 204.457 256.599 204.117 257.349 203.878C259.883 203.071 262.414 203.676 265.024 203.992C288.097 206.787 311.855 213.167 331.536 224.645C348.883 234.762 361.104 249.312 369.168 266.324C377.396 283.685 382.113 302.458 386.065 320.94C387.389 327.132 388.545 333.353 389.539 339.595C390.499 345.627 391.699 351.794 391.987 357.887C392.101 360.297 391.462 362.537 390.478 364.739C389.37 367.218 386.752 368.195 384.241 369.352C378.729 371.894 372.914 373.865 366.923 375.261C363.263 381.263 360.182 387.499 357.707 393.971C358.625 395.611 358.645 398.06 358.821 399.654C359.259 403.624 359.447 407.614 359.486 411.601C359.565 419.594 359.032 427.578 358.614 435.558C358.19 443.652 356.781 475.586 356.551 479.485C356.373 482.515 356.613 486.752 354.843 489.442C352.122 493.575 345.407 493.436 342.297 490.084C265.024 505.058 119.771 500.548 61.2701 493.014C53.6585 492.034 56.0486 493.121 54.1129 491.388C52.6603 490.086 51.4242 487.857 51.0224 486.066C50.4857 483.675 51.3521 481.511 52.8708 479.576C54.4676 477.542 54.7585 474.247 55.3515 471.829C56.754 466.111 57.4511 440.999 58.1065 438.217C58.3105 437.35 58.5082 436.433 58.7466 435.516C48.0158 436.432 36.8347 436.432 26.6258 433.197C20.8367 431.362 15.4377 428.481 11.2818 424.366C6.24966 419.384 3.45007 413.112 2.01031 406.566C0.152588 398.124 -0.241821 389.38 0.123169 380.799C0.630371 370.657 2.49643 360.372 7.12823 351.06C5.6041 349.785 4.32669 348.245 3.41473 346.58Z" fill="black"/>
<path fill-rule="evenodd" clip-rule="evenodd" d="M183.745 5.86304C155.95 5.86304 127.201 25.3243 117.012 37.743C105.231 52.1028 95.9377 121.037 100.298 144.428C104.657 167.819 126.313 193.314 163.907 193.314C201.502 193.314 224.38 189.131 225.298 183.056C225.909 179.005 234.175 165.708 250.094 143.162C266.375 139.026 274.548 132.017 274.612 122.136C274.675 112.255 270.312 105.517 261.524 101.922C264.658 62.9283 262.279 38.3551 254.387 28.2029C242.55 12.9745 211.541 5.86304 183.745 5.86304Z" fill="#AE5D29"/>
<path fill-rule="evenodd" clip-rule="evenodd" d="M197.897 0.000128315L197.401 0.00209342C166.648 0.181574 135.37 12.9645 117.073 35.2947L116.523 35.9742C116.493 36.0096 115.945 36.7458 115.816 36.9556C115.058 38.1849 114.164 39.3352 113.479 40.5854C112.9 41.6466 112.516 42.8321 112.09 43.9625L111.961 44.2997C110.869 47.1208 109.95 49.9685 109.136 52.8648C107.561 58.5026 106.332 64.2288 105.137 69.9418C100.868 90.3989 98.077 111.148 96.6706 131.925L96.393 136.102C96.1092 140.435 95.8946 144.787 96.4335 149.105C97.0556 154.133 98.6559 158.851 101.079 163.405C103.312 167.606 106.19 171.497 109.484 175.075C111.246 176.989 113.116 178.851 115.417 180.252C117.248 181.367 119.387 182.101 121.448 182.808C124.801 185.833 129.104 188.119 133.309 189.945C140.24 192.948 147.755 194.606 155.357 195.437C163.13 196.281 170.982 196.078 178.692 194.871C186.059 193.721 193.956 190.781 198.493 185.178C198.885 184.696 198.156 184.241 197.676 184.44C184.508 189.945 169.71 191.382 155.357 189.644C148.661 188.835 142.072 187.164 135.957 184.568C130.798 182.379 126.446 179.196 121.815 176.313C120.914 175.229 120.004 174.164 118.966 173.173L117.346 171.639C116.136 170.486 114.947 169.318 113.866 168.057C110.527 164.17 107.761 159.762 105.935 155.123C102.383 146.094 103.344 136.293 103.971 126.884L104.026 126.054C104.672 115.99 105.725 105.962 107.183 95.9685C108.643 85.962 110.498 75.9952 112.69 66.0992C113.772 61.222 114.987 56.3757 116.058 51.4984C116.612 48.9824 116.998 46.431 117.419 43.8885C117.674 42.3409 117.669 40.8507 117.674 39.3385C117.723 39.4092 117.782 39.4755 117.841 39.5419C117.664 39.9177 117.786 40.3997 118.217 40.6208C119.847 41.4609 121.727 41.1779 123.563 41.1824C125.511 41.1912 127.46 41.1956 129.408 41.2C131.437 41.2067 133.466 41.2067 135.495 41.2039L141.582 41.1912L165.931 41.1249C181.877 41.0817 198.093 41.6544 213.987 40.2966L215.201 40.1884C216.45 40.0585 230.545 38.5014 234.357 38.0993L234.473 38.0871C241.439 37.3619 248.306 36.2874 255.076 34.6779C252.864 35.4782 250.734 36.5572 248.542 37.3752C245.712 38.4276 242.81 39.3473 239.906 40.2272C233.949 42.0358 227.982 43.7912 222.049 45.6572C220.348 46.1913 216.483 59.3541 215.508 61.4365L215.48 61.4961C214.985 62.4999 214.304 63.6009 214.682 64.7417C215.514 67.2622 219.925 69.1282 222.112 70.552L224.362 72.0184L227.304 73.9409C228.51 74.7216 229.624 75.3189 231.203 74.8721C231.208 74.8677 231.212 74.8677 231.217 74.8677C229.866 80.532 229.21 98.8515 229.01 102.066C228.834 104.865 227.923 108.451 229.372 111.003C229.715 111.608 230.605 112.086 231.365 112.037C234.674 111.812 237.982 111.591 241.292 111.37C242.178 111.308 242.986 110.852 243.231 110.039L243.24 109.994C243.348 110.021 243.47 110.003 243.573 109.906C243.754 109.742 243.94 109.583 244.131 109.428C248.488 105.918 255.302 105.051 260.677 106.877C263.496 107.832 266.702 109.442 268.69 111.529C270.898 113.846 271.372 117.083 271.378 120.041C271.388 125.745 269.106 131.52 264.451 135.477C260.174 139.11 254.655 140.167 249.102 141.207L248.507 141.319C247.24 141.557 246.838 143.264 247.792 143.98C245.252 146.227 243.059 148.906 240.92 151.378C238.079 154.657 235.363 158.066 232.72 161.483L231.444 163.136C226.898 168.997 220.318 177.069 223.179 184.396C223.561 185.382 225.157 185.736 225.779 184.701C227.821 181.296 228.961 177.546 230.9 174.102C232.803 170.724 235.173 167.593 237.523 164.462L238.878 162.648C241.135 159.618 243.371 156.555 245.443 153.434L246.886 151.273C248.242 149.233 249.584 147.124 250.583 144.931C257.265 146.386 264.529 143.149 269.224 138.838C275.127 133.408 277.903 125.409 277.139 117.887C276.738 113.952 275.45 110.145 272.259 107.315C271.936 107.032 271.598 106.762 271.25 106.492C271.372 106.435 271.475 106.347 271.525 106.24C273.664 101.651 274.119 96.1808 274.3 91.2372C274.491 86.1256 274.368 81.0007 273.938 75.8979C273.149 66.5414 271.28 57.2335 268.313 48.2396C263.922 34.9476 256.379 21.9342 244.327 13.0155C231.475 3.50297 214.257 -0.0245336 197.897 0.000128315ZM261.871 116.26C260.056 115.516 257.224 116.841 255.609 117.686L255.503 117.741C250.73 120.249 247.332 124.52 245.761 129.251C244.753 132.303 250.417 133.518 250.896 130.529C251.287 128.093 252.189 125.811 253.671 123.773C254.024 123.879 254.367 124.016 254.675 124.193C255.855 124.883 256.54 126.068 258.18 125.891C259.394 125.763 260.638 125.002 260.554 123.746C260.422 121.672 258.572 120.846 256.589 120.739C256.872 120.511 257.157 120.284 257.45 120.066L257.77 119.834C258.133 119.597 262.012 117.18 262.124 117.802L262.126 117.839C262.121 118.086 262.488 118.228 262.674 118.042C263.423 117.317 262.727 116.614 261.871 116.26Z" fill="black"/>
<path fill-rule="evenodd" clip-rule="evenodd" d="M152.323 161.363C155.62 160.151 158.563 158.128 160.714 155.544C161.462 154.646 161.655 153.697 161.499 152.83C161.322 151.854 160.682 150.97 159.809 150.377C158.933 149.782 157.837 149.489 156.778 149.638C155.857 149.768 154.941 150.222 154.216 151.165L154.065 151.353C152.786 152.912 151.119 154.192 149.22 155.017C147.39 155.812 145.343 156.183 143.225 155.967C139.191 155.556 136.41 153.59 133.455 150.919C133.089 150.582 132.722 150.234 132.354 149.881C132.121 149.56 131.798 149.355 131.44 149.247C131.042 149.127 130.592 149.133 130.179 149.263C129.782 149.388 129.426 149.625 129.188 149.941C128.961 150.241 128.833 150.611 128.874 151.037C129.145 153.805 130.75 156.275 133.03 158.214C135.563 160.368 138.92 161.859 142.08 162.381C145.562 162.957 149.11 162.545 152.323 161.363ZM140.438 118.667C136.733 120.696 131.089 125.429 135.074 130.461C139.765 134.897 146.518 129.81 149.846 127.51C152.932 125.727 156.4 130.312 153.537 132.394C129.488 148.443 119.728 119.197 138.564 116.28C140.638 115.959 141.408 118.039 140.438 118.667ZM183.533 99.9974C183.124 95.418 175.387 94.3781 174.617 98.9096C173.928 102.969 174.739 106.698 176.767 110.352C178.706 113.844 183.577 112.215 183.945 109.036C184.439 104.774 183.788 102.846 183.533 99.9974ZM124.636 97.97C123.557 96.6965 121.999 95.8272 120.133 96.3185C114.303 97.8542 116.022 105.315 118.069 108.947C119.182 110.919 122.778 111.419 124.403 109.682C127.052 106.851 128.321 101.196 124.953 98.4064C124.862 98.2623 124.76 98.1168 124.636 97.97ZM176.85 79.9596L175.929 79.8143C173.08 79.3701 169.537 78.9433 167.522 81.008C166.453 82.1028 166.085 84.1377 167.522 85.1857C170.049 87.0296 172.843 86.315 175.872 86.4711C178.368 86.6002 180.767 86.9725 183.171 87.592C188.445 88.9509 192.743 91.4315 197.248 94.1553C197.839 94.5126 198.442 93.8312 198.16 93.3329C195.56 88.7417 190.52 84.9704 185.472 82.6715C182.778 81.4444 179.83 80.4265 176.85 79.9596ZM129.95 77.9029L129.245 78.033C121.575 79.4783 111.608 82.3654 107.976 89.1571C107.837 90.1174 107.984 90.3233 108.102 90.4577L108.142 90.5025C108.24 90.6173 108.318 90.7756 108.78 90.9063C108.908 90.8788 109.038 90.8496 109.168 90.8188C110.834 90.4254 112.151 89.8836 113.426 89.3213L114.809 88.7072C116.414 87.9981 118.032 87.3148 119.747 86.8104C123.408 85.7342 127.173 84.976 130.997 84.5712C131.825 84.4835 132.623 84.2314 133.253 83.7993C133.851 83.3892 134.307 82.8213 134.515 82.0666C134.785 81.0898 134.708 80.3502 134.126 79.469C133.689 78.8072 133.063 78.3485 132.345 78.0851C131.613 77.8166 130.779 77.7533 129.95 77.9029Z" fill="black"/>
</g>
<defs>
<clipPath id="clip0_1_332">
<rect width="392" height="500" fill="white"/>
</clipPath>
</defs>
</svg>
