<svg width="392" height="500" viewBox="0 0 392 500" fill="none" xmlns="http://www.w3.org/2000/svg">
<path d="M58.9249 310.102H173.451V437.023H58.9249V310.102Z" fill="#FDEA6B"/>
<path fill-rule="evenodd" clip-rule="evenodd" d="M206.855 185.96C194.509 177.499 163.516 173.695 150.34 181.841C137.326 190.021 135.907 203.249 129.843 215.418C124.121 212.99 114.672 216.468 113.013 221.246C110.956 223.499 110.864 229.831 109.445 232.86C47.7098 241.704 38.3373 285.018 30.9066 334.192C21.0764 384.092 -1.23914 433.882 8.44855 485.229C7.18628 486.873 6.19104 488.471 5.27084 490.368C3.06586 493.745 5.90598 498.524 10.3535 498.339C16.1103 497.884 21.8101 497.263 27.5939 497.069C43.6273 496.568 59.6755 496.628 75.715 496.811L77.9022 496.837C158.737 497.742 239.567 499.527 320.405 500C323.338 500.004 324.774 497.637 324.382 495.302C323.594 490.601 322.862 485.898 322.098 481.194C341.219 485.739 361.545 486.883 380.611 481.672C381.945 480.449 377.504 481.112 376.799 480.927C394.346 470.136 389.106 447.404 387.552 431.031C377.886 374.929 374.479 312.856 337.136 264.983C320.981 245.446 297.296 229.978 270.081 226.497L269.326 226.404C261.368 225.449 252.499 225.142 245.541 221.246C237.716 215.624 234.381 205.236 226.148 205.139C223.43 205.106 219.732 208.201 215.752 210.303C215.455 205.68 212.687 201.779 212.076 198.195L212.026 197.889C211.389 193.71 212.262 189.951 206.855 185.96ZM74.1807 335.675C91.53 324.828 136.347 330.278 137.373 330.885C139.632 332.223 140.604 332.341 141.826 334.077C143.032 334.221 144.238 334.371 145.442 334.525C147.858 335.235 146.068 337.909 143.277 336.955C144.955 343.469 140.016 348.102 138.049 354.543C137.411 356.634 138.026 360.395 138.049 362.531C137.859 365.256 134.512 368.473 135.07 371.207C137.053 380.923 147.814 390.402 143.277 399.825C140.271 405.147 131.231 407.861 125.221 409.67C112.769 413.971 91.0716 409.508 83.8364 399.825C79.9773 394.66 75.5064 381.631 73.2054 377.59L72.6953 371.18C71.4376 355.244 70.3188 338.089 74.1807 335.675Z" fill="#D08B5B"/>
<path fill-rule="evenodd" clip-rule="evenodd" d="M226.79 205.168L221.825 207.91L192.99 220.738C187.399 222.147 184.604 223.835 184.604 225.803V245.839C184.604 248.521 179.358 254.598 168.866 264.07L159.173 255.374L159.39 254.236C160.313 249.33 160.774 246.048 160.774 244.39C160.774 242.608 151.291 235.841 132.325 224.089L124.027 217.059L124.912 214.638C119.796 214.855 114.248 217.691 113.013 221.246C110.956 223.5 110.864 229.831 109.445 232.861C47.7098 241.704 38.3373 285.019 30.9066 334.193C21.0764 384.092 -1.23914 433.883 8.44855 485.23C7.18628 486.873 6.19104 488.471 5.27084 490.369C3.06586 493.745 5.90598 498.525 10.3535 498.34C16.1103 497.884 21.8101 497.263 27.5939 497.069C43.6273 496.568 59.6755 496.628 75.715 496.811L77.9022 496.837C158.737 497.743 239.567 499.527 320.405 500.001C323.338 500.004 324.774 497.637 324.382 495.302C323.594 490.601 322.862 485.898 322.098 481.195C341.219 485.74 361.545 486.883 380.611 481.673C381.945 480.45 377.504 481.113 376.799 480.927C394.346 470.137 389.106 447.405 387.552 431.032C377.886 374.93 374.479 312.856 337.136 264.983C320.981 245.446 297.296 229.978 270.081 226.498L269.326 226.405L268.565 226.316C260.807 225.427 252.278 225.019 245.541 221.246C237.922 215.773 234.56 205.781 226.79 205.168ZM157.696 322.775C160.524 322.775 166.317 326.727 175.073 334.633L175.844 334.954C186.429 339.378 193.441 343.216 196.881 346.468L197.003 346.585C200.478 349.94 207.359 358.86 217.646 373.347L232.542 381.275H238.179L242.192 407.471L232.542 426.175L210.685 419.55L175.073 411.102L154.637 392.444L143.11 388.961C144.508 392.598 145.015 396.216 143.277 399.826C140.271 405.148 131.231 407.861 125.221 409.671C112.769 413.972 91.0716 409.509 83.8364 399.826C79.9773 394.661 75.5064 381.632 73.2054 377.591L72.5454 369.263C71.356 353.896 70.4733 337.993 74.1807 335.675C91.53 324.829 136.347 330.278 137.373 330.886C139.632 332.223 140.604 332.341 141.826 334.078L142.459 334.154L138.902 329.813L140.161 329.208C149.147 324.919 154.992 322.775 157.696 322.775ZM143.277 336.955C144.884 343.192 140.425 347.704 138.316 353.729L143.704 344.447L143.704 337.076C143.565 337.045 143.422 337.005 143.277 336.955Z" fill="#9DDADB"/>
<path fill-rule="evenodd" clip-rule="evenodd" d="M229.171 204.199C227.973 203.244 226.201 204.444 226.962 205.733C228.672 208.631 230.427 211.377 232.722 213.939C234.114 215.492 235.605 216.961 237.116 218.414C233.238 221.432 229.913 225.18 226.773 228.693C222.758 233.185 218.961 237.867 214.454 241.978C210.008 246.032 205.093 248.866 199.15 250.755L197.949 251.131C191.979 253.017 185.598 255.564 182.232 260.652C181.569 261.655 182.905 262.894 184.028 262.268C189.876 259.01 196.747 258.354 203.113 256.201C209.262 254.121 214.622 250.92 219.358 246.835C224.086 242.757 228.056 238.116 232.197 233.574C236.292 229.083 240.701 225.247 245.544 221.447C253.019 225.972 261.551 227.941 270.226 229.875L271.173 230.086C279.859 232.021 288.498 234.269 296.647 237.639C303.832 240.61 310.898 244.158 316.751 248.993C322.963 254.124 327.798 260.677 332.224 267.085C342.123 281.423 349.083 297.13 355.209 313.029C361.582 329.566 366.912 346.433 371.215 363.502C373.404 372.184 375.181 380.927 376.642 389.732C377.345 393.973 377.97 398.222 378.518 402.481C379.104 407.029 379.238 411.708 380.789 416.081C381.453 417.955 383.023 418.733 384.594 418.667L384.913 422.258C385.336 427.046 385.73 431.835 385.863 436.653C386.084 444.663 385.984 452.65 385.344 460.644L385.253 461.734C384.75 467.568 383.626 474.123 378.751 478.394C373.703 482.819 365.94 484.21 359.136 484.289C343.289 484.475 328.034 477.737 314.011 471.825C299.569 465.737 285.521 458.979 271.81 451.65C264.828 447.918 257.921 444.061 251.101 440.092C247.755 438.143 244.432 436.162 241.135 434.149C239.246 432.996 237.456 431.731 235.533 430.708C236.475 429.919 236.896 428.678 236.107 427.594C241.665 423.252 243.979 415.503 244.249 409.233C244.468 404.172 243.64 399.125 242.987 394.112C242.658 391.584 242.25 389.06 241.828 386.543C241.661 385.549 241.533 384.485 241.338 383.436C256.348 390.859 271.779 397.47 287.618 403.343C295.737 406.353 303.959 409.06 312.296 411.54L313.985 412.041C321.884 414.367 329.972 416.565 338.138 417.896C338.574 417.967 338.929 417.387 338.463 417.202C330.505 414.042 322.272 411.376 314.194 408.466L312.867 407.98C313.019 407.972 313.177 407.953 313.343 407.918C318.08 406.889 322.78 405.303 327.426 403.968C331.738 402.729 336.582 401.951 340.613 400.08C340.923 399.936 340.749 399.548 340.447 399.53C335.917 399.247 330.999 400.436 326.558 401.135L324.889 401.398C322.094 401.841 319.237 402.318 316.456 402.94C316.355 402.101 315.835 401.259 315.094 400.766C306.944 395.334 307.771 384.363 306.9 376.272L306.253 370.266C305.116 359.755 303.913 349.244 302.086 338.811C301.988 338.254 301.031 338.414 301.027 338.94C300.932 351.873 302.017 364.746 302.561 377.659L302.645 379.777C302.946 387.744 303.181 396.018 308.757 402.149C307.978 401.739 306.924 401.739 306.292 402.415C305.516 403.246 305.068 404.179 305.082 405.095C300.043 403.194 295.026 401.243 290.034 399.253C273.984 392.854 258.271 385.693 242.973 377.944C241.326 377.11 239.761 377.766 238.947 378.865L238.83 378.85C238.81 378.848 238.79 378.846 238.77 378.846L238.653 378.841C238.649 378.841 238.644 378.841 238.64 378.841C236.487 377.777 233.553 378.535 231.705 380.088C231.651 380.135 231.604 380.185 231.556 380.235C229.216 379.29 227.032 378.014 225.049 376.397C220.992 373.088 217.556 368.996 214.56 364.893C209.044 357.336 204.357 348.933 196.905 342.713C190.85 337.659 183.344 334.512 175.468 332.537C175.501 332.33 175.413 332.109 175.254 331.963C174.85 331.59 174.561 331.46 174.039 331.687C173.997 331.705 173.972 331.73 173.955 331.757L173.187 330.576C172.767 329.935 172.336 329.289 172.187 329.119C171.293 328.106 170.373 327.1 169.439 326.116C167.855 324.45 166.05 322.805 163.96 321.649C159.384 319.119 154.573 320.551 149.869 321.934C147.026 322.769 144.193 323.632 141.355 324.481L141.063 324.567C138.947 325.178 136.471 325.714 135.524 327.731C135.15 328.529 135.092 329.358 135.266 330.162C115.17 325.563 92.8488 327.676 73.2379 333.075C72.4852 333.282 71.7336 333.839 71.575 334.571C69.328 344.941 68.3273 355.576 69.344 366.123C70.2212 375.227 72.4627 384.149 76.6867 392.484L76.9268 392.954C80.8965 400.679 87.1881 410.201 96.7967 412.622C102.599 414.084 109.015 413.222 114.933 412.954C120.684 412.693 126.562 412.656 132.258 411.842C137.331 411.117 141.776 409.071 144.912 405.359C147.616 402.156 149.04 398.285 150.207 394.435C150.741 394.588 151.272 394.75 151.794 394.934C153.998 395.709 155.866 396.959 157.554 398.431C161.119 401.538 163.885 405.312 167.615 408.277C170.992 410.961 174.84 413.048 178.967 414.653C187.52 417.979 196.695 419.308 205.741 421.071L206.372 421.194C213.183 422.539 220.135 424.191 226.146 427.382C226.263 428.321 226.739 429.205 227.501 429.784C226.441 430.68 225.992 432.099 226.924 433.43C229.526 437.147 234.009 439.262 238.033 441.639L238.295 441.794C242.254 444.156 246.247 446.471 250.273 448.739C258.458 453.351 266.813 457.708 275.286 461.874C288.915 468.575 302.836 474.895 317.009 480.628C316.159 484.394 316.469 488.278 315.83 492.07L315.732 492.611C315.459 494.018 315.828 495.195 316.905 496.115L317.019 496.209L317.017 496.196L317.118 496.279L317.152 496.305L317.14 496.297C317.265 496.399 317.393 496.494 317.523 496.576L317.689 496.672C318.727 497.24 320.062 497.233 321.124 496.732L321.246 496.672L321.45 496.567C322.853 495.841 323.821 494.041 323.239 492.611C321.808 489.097 321.267 485.346 319.946 481.809L320.994 482.23L322.376 482.772C337.318 488.587 353.916 493.484 370.197 489.52C377.39 487.768 384.114 484.062 387.713 478.021C391.255 472.078 391.756 465.176 391.944 458.564C392.176 450.404 391.69 442.119 390.494 434.029C389.691 428.599 388.721 423.065 387.223 417.691C387.993 417.079 388.559 416.202 388.709 415.116C389.416 409.983 388.179 404.646 387.422 399.539C386.682 394.554 385.865 389.578 384.941 384.617C383.075 374.599 380.907 364.602 378.383 354.701C373.891 337.08 367.959 319.772 360.817 302.878L360.192 301.407C353.593 285.965 345.952 270.853 335.312 257.288C330.222 250.798 324.842 244.913 317.65 240.237C310.913 235.855 303.313 232.7 295.47 230.288C287.619 227.875 279.549 226.258 271.337 225.252C262.997 224.23 254.193 223.604 246.413 220.525C247.397 218.937 246.552 216.794 244.896 215.809C239.322 212.494 234.167 208.183 229.171 204.199ZM50.728 348.322C50.4944 348.003 49.9398 348.205 50.0423 348.582C52.7534 358.578 55.2985 368.594 56.9604 378.78C59.9604 397.166 59.4085 415.791 59.1633 434.313L59.1509 435.271C59.0248 445.247 58.8498 455.224 58.4832 465.196C58.2982 470.236 57.9321 475.326 58.1311 480.368C58.2397 483.104 59.0499 485.691 59.3369 488.394C59.5885 490.758 59.3644 493.157 59.2389 495.524C59.1549 497.097 61.7354 497.03 61.911 495.524L62.1354 493.575C62.427 491.11 62.7874 488.659 63.6854 486.299C64.7651 483.46 65.2833 480.672 65.6578 477.692C66.2316 473.125 66.4868 468.512 66.7082 463.913L66.8596 460.732C67.7843 441.512 67.7519 422.201 66.2549 403.001L66.1455 401.63C64.6631 383.481 62.091 363.872 50.728 348.322ZM108.518 233.937C109.227 233.675 108.979 232.712 108.194 232.879L106.768 233.186C96.3187 235.438 86.0587 237.879 76.3052 242.07C66.5455 246.264 58.2827 252.525 51.7172 260.224C38.9543 275.189 33.6506 293.377 29.4637 311.547C24.8106 331.738 20.5741 352.002 15.8806 372.187L15.009 375.947C10.666 394.746 6.56558 413.556 3.54428 432.578L3.32727 433.958C0.280487 453.519 -1.55212 473.757 1.7724 493.369C2.43005 497.249 9.60464 496.283 9.3241 492.449C8.51392 481.367 7.93378 470.343 8.49442 459.236C9.05554 448.127 10.2133 437.066 11.9392 426.055C13.3916 416.787 15.5567 407.636 17.4727 398.442L17.773 396.99C19.3773 389.171 21.0313 381.359 22.6817 373.547L25.1479 361.85C28.8442 344.337 32.6129 326.808 36.8713 309.404L37.124 308.38C41.2914 291.636 47.4352 274.097 59.9355 260.801C72.6209 247.307 90.7805 240.511 108.518 233.937ZM154.612 411.535C154.307 410.924 153.24 410.991 152.912 411.535C151.626 413.67 151.484 416.394 151.241 418.804L151.215 419.052C150.906 421.992 150.632 424.943 150.465 427.893C150.147 433.491 149.995 439.082 150.015 444.688C150.035 450.433 150.163 456.171 150.507 461.907L150.601 463.444C150.915 468.429 151.442 473.989 154.074 478.347C155.03 479.931 157.633 479.466 158.187 477.863C160.002 472.617 159.07 466.397 158.604 461.024L158.243 456.832C157.885 452.639 157.543 448.444 157.272 444.246C156.901 438.503 156.595 432.755 156.301 427.009C156.205 425.142 156.102 423.275 155.992 421.409L155.824 418.61C155.681 416.269 155.693 413.7 154.612 411.535ZM358.732 418.97L357.929 418.272C355.462 416.099 352.344 412.753 348.697 412.96C347.243 413.043 346.316 414.13 346.617 415.417C347.262 418.17 350.382 419.598 352.628 421.279C355.088 423.119 357.407 425.087 359.722 427.073C361.775 428.834 363.75 430.645 365.677 432.513L366.398 433.216C367.089 433.894 372.008 437.899 371.476 438.938L371.447 438.985C371.299 439.183 371.546 439.457 371.792 439.387C373.916 438.783 373.783 437.145 372.98 435.484C371.437 432.294 368.734 429.343 366.374 426.619C364.021 423.901 361.473 421.37 358.732 418.97ZM146.914 338.968C148.557 335.474 154.609 335.547 158.045 335.756C166.696 336.282 176.058 338.252 183.756 341.892C191.737 345.665 197.113 351.71 201.923 358.395L202.148 358.709C206.837 365.268 211.353 373.032 218.694 377.542C222.434 379.839 226.8 381.937 231.337 382.846C231.649 383.339 232.153 383.729 232.815 383.871L233.122 383.934C234.415 384.191 236.422 384.475 238.156 384.305C238.145 385.068 238.154 385.826 238.132 386.549C238.071 388.622 238.045 390.703 238.045 392.777C238.044 397.123 238.304 401.477 238.102 405.822C237.924 409.665 237.32 413.68 235.27 417.116C233.766 419.636 231.781 421.304 229.385 422.897C223.491 419.664 216.826 417.693 210.061 416.212C201.88 414.42 193.504 413.224 185.509 410.794C181.661 409.625 177.962 408.094 174.61 406.015C171.053 403.808 168.336 400.821 165.54 397.899L165.103 397.446C162.25 394.501 159.137 391.683 155.105 390.087C151.633 388.711 147.056 388.466 144.02 386.338C142.432 385.225 142.299 383.609 142.132 381.955C144.077 382.205 146.135 381.804 148.073 381.6L149.077 381.493C150.91 381.298 152.7 381.082 154.504 380.662C154.839 380.585 154.839 380.13 154.504 380.052C152.372 379.557 150.259 379.346 148.073 379.115L147.56 379.057C145.582 378.824 143.504 378.472 141.564 378.864C141.216 377.672 140.713 376.534 140.008 375.394C139.018 373.793 137.145 371.978 136.892 370.108C136.817 369.55 136.961 368.891 137.254 368.397L137.355 368.229C137.478 368.03 137.623 367.831 137.836 367.707C137.86 367.731 137.91 367.76 138.019 367.79C139.511 368.213 140.814 367.556 141.505 366.542C144.439 366.87 147.641 366.76 150.393 366.869L153.175 366.99C156.148 367.113 159.255 367.167 162.049 366.626C162.439 366.551 162.557 365.967 162.166 365.816C158.732 364.494 154.566 364.073 150.889 363.565C148.836 363.281 146.767 363.065 144.708 362.815C143.337 362.649 141.881 362.374 140.461 362.308C136.898 358.317 138.818 352.021 143.775 350.303C145.581 351.017 147.205 350.602 149.178 350.449C151.147 350.297 153.122 350.194 155.099 350.201C159.062 350.217 163.261 351.155 167.185 350.751C167.823 350.685 168.416 349.921 167.781 349.455C164.778 347.249 160.473 346.53 156.66 346.06L155.87 345.964C154.592 345.814 153.037 345.594 151.425 345.463C151.06 344.823 150.406 344.339 149.424 344.219C149.132 344.183 148.838 344.161 148.545 344.139L148.549 344.113C146.153 344.009 146.257 340.366 146.914 338.968ZM310.985 407.121C311.028 407.18 311.074 407.236 311.123 407.29L311.2 407.369L310.805 407.225L310.985 407.121ZM105.094 331.16C115.181 330.185 125.283 330.391 135.4 330.652C136.209 333.034 139.026 335.064 141.755 335.141C139.617 338.068 139.397 342.031 140.896 345.136C137.713 346.276 134.972 348.324 133.307 351.24C130.999 355.283 131.301 359.782 133.583 363.519C131.636 365.105 130.487 367.681 130.602 370.108C130.73 372.815 132.523 375.128 134.013 377.369C135.623 379.793 135.677 381.928 136.172 384.642C136.895 388.616 139.873 391.025 143.704 392.53L143.501 393.251C142.513 396.712 141.284 400.363 138.461 402.893C134.829 406.148 129.195 406.118 124.396 406.324L124.165 406.334C119.771 406.532 115.379 406.764 110.987 406.988L107.693 407.153C102.636 407.404 97.7789 407.434 93.6505 404.425C86.9105 399.514 82.2899 391.386 79.3653 384.191C73.2269 369.088 73.1534 352.514 75.971 336.785C85.4207 334.044 95.2253 332.114 105.094 331.16ZM188.982 356.216L188.908 356.221C186.831 356.435 185.404 357.948 184.896 359.744C184.158 362.353 184.52 364.712 182.744 367.068C180.917 369.49 179.794 371.43 179.528 374.422C179.419 375.654 179.469 376.882 179.165 378.087L178.944 378.932C178.709 379.832 178.517 380.699 178.634 381.666C178.74 382.548 179.218 383.235 180.2 383.517C183.402 384.439 185.875 382.316 186.702 379.63C187.417 377.31 186.463 374.546 187.471 372.368C188.03 371.16 189.06 370.15 189.642 368.935C190.219 367.73 190.508 366.471 190.601 365.161C190.776 362.684 188.342 359.708 189.7 357.463C189.989 356.984 189.662 356.202 188.982 356.216ZM231.518 330.653C229.349 330.257 226.889 329.348 224.751 330.103C223.652 330.492 223.108 331.698 224.037 332.537C225.65 333.991 227.993 334.072 230.165 334.415L230.356 334.446C232.924 334.874 235.497 335.279 238.073 335.664C242.919 336.386 247.777 337.025 252.653 337.568C257.66 338.125 262.681 338.622 267.709 338.995L269.656 339.139C273.903 339.445 278.322 339.675 282.49 339.09C283.095 339.005 282.998 338.211 282.49 338.072C277.924 336.829 272.916 336.495 268.196 335.969C263.178 335.409 258.168 334.817 253.172 334.115C248.183 333.413 243.201 332.661 238.237 331.829C235.994 331.454 233.754 331.062 231.518 330.653ZM153.273 326.66C155.176 326.054 157.269 325.156 159.331 325.456C162.887 325.975 166.052 329.093 168.866 331.146L167.453 330.899C160.222 329.648 150.646 328.3 144.576 332.438C144.56 332.414 144.548 332.39 144.53 332.366C144.04 331.697 143.473 331.174 142.853 330.601C142.794 330.551 142.737 330.499 142.68 330.446L142.346 330.126L143.111 329.887C144.748 329.367 146.689 328.694 146.995 328.596L147.017 328.589C149.105 327.952 151.195 327.323 153.273 326.66ZM212.687 190.254C212.985 186.81 207.028 186.838 206.733 190.254C206.089 197.712 207.954 205.099 211.968 211.637C211.998 211.685 212.03 211.727 212.061 211.772C209.55 212.948 207.011 214.076 204.416 215.084C201.096 216.374 197.713 217.549 194.27 218.545C191.155 219.447 187.317 219.803 184.699 221.68C179.177 225.637 181.252 233.849 182.314 239.172L182.48 240.012C183.008 242.751 183.391 245.562 182.108 248.191C180.737 250.999 177.966 253.082 175.494 255.091L174.995 255.498C172.805 257.294 170.303 259.475 168.696 261.909C167.23 259.181 165.231 256.951 163.118 254.441C161.61 252.65 162.683 252.059 163.766 250.31C164.809 248.625 165.318 246.83 164.992 244.909C164.39 241.36 161.239 238.797 158.102 236.871C154.398 234.598 150.264 232.914 146.434 230.799C138.565 226.454 130.902 221.486 123.998 215.968C123.808 215.816 123.478 216.016 123.63 216.224C129.084 223.689 135.479 230.14 143.338 235.616C146.525 237.836 149.873 239.678 153.243 241.614L154.212 242.173C155.565 242.962 157.253 244.017 157.864 245.36C158.48 246.71 157.167 247.73 156.461 248.849C154.217 252.402 155.299 255.717 157.959 258.731L158.083 258.87C160.727 261.801 162.73 264.528 163.689 268.273C165.748 276.319 162.88 284.7 159.878 292.254L159.759 292.551C158.135 296.623 156.41 300.664 154.999 304.801L154.61 305.945C153.332 309.751 152.285 313.505 153.719 317.417C154.207 318.748 156.224 319.063 157.062 317.81C160.017 313.393 160.753 308.078 162.606 303.222C164.411 298.489 166.484 293.841 168.228 289.089C170.474 282.97 171.977 276.384 171.161 269.966C171.185 269.928 171.211 269.893 171.231 269.854L171.803 268.728C173.362 265.681 174.867 263.021 177.702 260.592C180.658 258.058 183.868 255.816 186.194 252.749C191.248 246.087 188.122 238.677 187.512 231.393L187.442 230.5C187.331 228.987 187.27 226.932 188.368 225.885C189.603 224.707 192.499 224.406 194.137 223.885C198.371 222.536 202.543 220.965 206.517 219.078C210.3 217.283 213.964 215.299 217.376 212.975L219.105 211.804C221.834 209.951 224.663 207.928 226.492 205.406C226.703 205.116 226.344 204.647 225.962 204.786C222.909 205.901 220.12 207.674 217.264 209.217C217.22 209.123 217.168 209.028 217.11 208.933C213.576 203.177 212.123 196.801 212.687 190.254ZM115.174 229.688C113.957 226.686 108.414 226.918 108.635 230.484C108.805 233.224 110.097 235.697 111.279 238.185L111.405 238.452C112.625 241.044 114.035 243.477 115.721 245.853C118.943 250.394 122.718 254.608 126.749 258.586C130.404 262.192 135.201 264.397 140.729 264.03C143.058 263.876 145.409 263.342 147.45 262.296C149.874 261.052 152.506 257.316 155.599 258.221C155.898 258.308 156.177 257.914 155.919 257.727C152.348 255.14 148.296 259.152 144.878 260.119C139.727 261.575 134.441 259.965 131.126 256.217C127.665 252.305 124.479 247.924 121.57 243.664C120.093 241.501 118.745 239.256 117.581 236.942C116.406 234.607 116.139 232.069 115.174 229.688ZM123.476 211.216C123.626 210.801 123.054 210.407 122.649 210.644C120.303 212.018 118.27 213.834 116.106 215.426C113.705 217.192 111.287 218.922 108.831 220.626C105.25 223.11 109.403 227.682 112.555 224.969C116.868 221.257 121.591 216.404 123.476 211.216ZM136.356 196.687C135.403 193.38 129.766 194.744 130.588 198.013L130.615 198.112C132.171 203.512 129.955 209.009 125.224 212.509L125.05 212.636C122.057 214.792 126.297 218.56 129.26 216.425C135.729 211.766 138.42 203.851 136.356 196.687Z" fill="black"/>
<path fill-rule="evenodd" clip-rule="evenodd" d="M87.9277 42.9656C89.0361 40.4429 90.9964 37.2722 94.2727 37.1457C96.8069 30.1583 103.108 23.0422 111.872 23.2312C137.598 -0.494015 169.985 0.624419 203.846 5.6468C221.71 8.63484 239.849 14.4858 253.173 26.032C269.131 39.6252 275.345 63.3436 262.848 80.5324C273.649 85.7519 273.858 98.138 269.239 107.076C274.791 110.538 275.129 118.942 268.877 121.583C269.209 122.811 268.974 124.08 268.341 125.171C271.44 127.498 275.475 129.217 278.81 130.695C280.284 131.348 281.134 132.414 281.488 133.616C292.439 140.096 319.746 155.93 319.421 168.533C319.582 175.107 314.174 179.434 307.602 181.157C311.513 188.207 314.48 196.441 310.737 204.045C309.703 206.343 301.951 213.096 301.561 213.22C300.879 213.748 289.759 209.143 284.354 206.795C283.306 212.943 276.016 216.164 269.732 214.057C263.774 212.438 260.112 207.889 256.354 203.751C251.366 213.564 236.69 213.677 227.205 209.446C218.686 205.897 212.211 199.393 208.604 191.555C189.449 200.011 167.038 202.476 146.228 199.098C144.892 201.23 141.936 202.661 139.302 201.837C128.236 198.837 116.001 198.668 106.62 191.794C87.0678 179.138 85.4214 155.804 86.7849 135.914C87.9941 116.082 86.9356 96.0856 90.933 76.4683C89.1983 70.6925 86.3127 65.5864 83.6428 60.1603C80.7423 54.4704 80.8031 46.0122 87.9277 42.9656Z" fill="#D08B5B"/>
<path fill-rule="evenodd" clip-rule="evenodd" d="M176.694 3.60107L175.934 3.60377C174.678 3.61124 173.423 3.63363 172.172 3.67082C165.559 3.86708 158.663 4.6407 150.899 5.96492L149.718 6.16945C147.787 6.51042 146.057 6.85258 143.298 7.43388L137.822 8.59774C135.033 9.18366 132.981 9.58907 131.088 9.91523L130.84 9.95748C121.111 14.1629 114.675 17.649 111.533 20.4158L111.063 20.8331L110.863 21.0136L108.814 21.0719L108.794 21.3052L108.776 21.3076C106.742 21.593 104.901 22.5434 103.19 24.0229L103.007 24.1834L102.831 24.3424C101.497 25.5656 100.434 26.8691 98.969 28.9349L98.6365 29.4069L98.041 30.2591L97.5586 30.9434C97.2453 31.391 96.9441 31.8338 96.655 32.2725L96.3698 32.7099L96.1646 33.0314L90.8739 35.8147C90.1116 36.2157 89.4179 36.7347 88.7832 37.3563L88.6116 37.5283L88.4429 37.7054L87.0013 39.2523L87.2919 39.5251L87.1514 39.6918L86.8996 40.0027L86.6541 40.3178L86.4151 40.637L86.3122 40.7773L86.1568 41.0802L86.0811 41.2315L86.0208 41.356L85.8402 41.4398L85.4727 42.0379C83.5653 45.1414 82.5381 48.666 82.4684 52.2879C82.4205 54.7861 82.7623 57.055 83.5736 59.2437C84.135 60.757 84.8873 61.9462 86.188 63.5835L87.2158 64.8548L87.4257 65.1171L87.6765 65.4363C87.7162 65.4875 87.7551 65.5379 87.7933 65.5879C89.4649 67.771 103.749 71.903 112.528 72.1028L112.793 72.1076L113.13 72.1106C113.968 72.1139 114.778 72.0868 115.558 72.028C118.935 71.7733 122.093 71.1324 125.761 70.0843L126.522 69.8625L130.564 68.6381C130.692 68.5997 130.796 68.569 130.868 68.5484L131.237 68.4443C132.127 68.1981 132.774 68.0565 133.215 68.0053L133.305 67.9955L133.314 68.1462L133.317 68.2883L133.316 68.4039C133.29 70.0814 134.42 71.3043 136.172 72.0835C137.288 72.5798 138.726 72.9342 140.531 73.2002L140.819 73.2415C143.769 73.6525 147.287 73.828 153.172 73.9483C153.396 73.9529 153.622 73.9503 153.85 73.9409C155.113 73.8888 156.106 73.6945 157.952 73.2166L158.825 72.9907L159.298 72.8728C160.176 72.6589 160.665 72.5735 161.127 72.5502L161.261 72.5451L161.395 72.5431C161.949 72.5424 162.35 72.6538 162.745 72.9252L162.947 73.0708L165.66 75.1207C166.013 75.3859 166.33 75.6211 166.562 75.7879L166.656 75.8551C170.38 78.4882 173.931 79.9924 178.113 80.1354L178.393 80.143L178.685 80.146C178.897 80.1463 179.11 80.1428 179.324 80.1355C181.086 80.0751 182.914 79.4862 185.411 78.3508L185.928 78.1121L186.29 77.9417C186.475 77.854 186.668 77.7617 186.877 77.6608L188.74 76.762L189.692 76.3135C190.829 75.7861 191.463 75.5315 191.89 75.4266L191.96 75.41L192 75.4447C192.988 76.3146 193.835 77.4093 194.747 78.9205L194.885 79.1503L195.084 79.4928L196.38 81.8189L196.625 82.2516C197.587 83.9306 198.348 85.0037 199.343 85.9453C200.788 87.3116 202.539 88.1044 204.683 88.2317L204.898 88.2422L205.154 88.2478C206.164 88.2567 207.234 88.1169 208.394 87.8263L208.664 87.7565L208.926 87.6839C210.655 87.1916 213.387 87.4981 215.557 88.5368C217.914 89.665 219.212 91.3863 219.155 93.5861C219.126 94.6788 218.987 95.8501 218.742 97.1198L218.672 97.4685C218.351 99.0381 217.915 100.613 217.243 102.713L215.798 107.107L215.635 107.62L215.472 108.148C215.237 108.916 215.05 109.586 214.896 110.216C214.307 112.626 214.208 114.436 214.799 115.978C217.405 122.777 221.926 126.388 227.072 126.541L227.25 126.545L227.47 126.545C231.424 126.507 235.007 124.183 234.963 121.173C234.959 120.858 234.893 120.564 234.777 120.298L234.724 120.186L234.699 120.138L234.739 120.048C235.955 117.425 238.765 115.51 242.065 115.134L242.252 115.115L242.437 115.099C242.618 115.085 242.799 115.075 242.97 115.07L243.138 115.066L243.339 115.064C247.737 115.07 252.089 117.711 255.512 122.03C256.226 122.931 256.889 123.914 257.484 124.953L257.68 125.301L258.632 127.057L259.275 128.756C262.817 138.108 261.024 147.894 254.109 152.953L253.898 153.105C251.407 154.867 248.477 155.938 245.35 156.226C244.99 156.259 244.628 156.28 244.279 156.288L244.021 156.292L243.723 156.292C242.704 156.28 241.729 156.165 240.854 155.952C240.14 155.778 239.643 155.567 239.297 155.298C239.206 155.228 239.133 155.164 239.069 155.1L239.016 155.043L238.996 155.018L234.271 155.65C233.467 160.252 231.145 165.02 227.367 170.488L227.129 170.83L226.714 171.42L226.292 172.01C221.847 178.175 216.89 183.367 211.441 187.351L211.061 187.627L210.55 187.992L210.081 188.323C209.171 188.96 208.412 189.456 207.653 189.899L207.463 190.008L205.671 191.032L206.503 192.792C208.444 196.898 211.122 200.63 214.424 203.808L214.735 204.105L217.03 206.239L218.794 204.212C218.808 204.197 218.847 204.178 218.894 204.17L218.926 204.166H218.944L218.968 204.169L218.997 204.175L219.025 204.187C220.346 204.833 221.072 205.327 222.114 206.293L222.266 206.434L222.442 206.602L222.684 206.829C223.767 207.83 224.925 208.683 226.186 209.392C229.1 211.03 232.334 211.94 235.683 212.022L235.998 212.027L236.314 212.027C236.428 212.026 236.541 212.024 236.655 212.022C243.643 211.847 249.904 207.81 252.982 201.893C253.104 201.658 253.216 201.581 253.423 201.566L253.482 201.563L253.556 201.562C254.069 201.565 254.698 201.841 255.049 202.211L255.111 202.281L256.29 203.709L256.741 204.247C260.943 209.223 264.393 211.944 269.027 212.77C269.392 212.835 269.778 212.875 270.188 212.891L270.436 212.901H270.582C272.575 212.905 274.871 212.385 276.661 211.468C279.029 210.255 280.493 208.39 280.307 206.078L280.293 205.93L280.261 205.683C280.106 204.449 281.201 203.778 282.039 204.384L282.096 204.427L282.165 204.484C285.618 207.404 289.589 209.644 293.865 211.027L294.244 211.147L294.806 211.32C297.503 212.14 299.405 212.547 301.407 212.579C303.141 212.606 304.582 212.042 305.624 210.959C306.319 210.236 306.744 209.432 307.168 208.26L307.239 208.061L307.394 207.605L307.49 207.309C308.731 203.371 308.758 199.161 307.783 194.516C307.056 191.046 305.897 187.693 303.949 182.995L303.571 182.089L302.791 180.241C302.712 180.056 303.181 179.408 303.471 179.336L303.505 179.33L303.77 179.355C303.956 179.371 304.143 179.382 304.334 179.389L304.626 179.395H304.817C311.145 179.337 315.978 173.741 315.935 167.813C315.885 162.26 312.788 157.485 306.875 151.817L306.362 151.329L305.806 150.81L305.257 150.303C300.003 145.479 294.632 141.267 289.039 137.656L288.576 137.358L288.06 137.03C286.177 135.838 284.345 134.758 281.811 133.337L280.319 132.506L274.273 126.072C274.128 125.998 273.985 125.924 273.844 125.85L273.768 123.618L267.942 123.726C269.42 123.042 270.645 122.212 271.64 121.149C274.946 117.613 274.531 112.701 270.511 110.288L270.369 110.205L268.675 109.261L267.288 110.358C266.08 111.314 264.799 111.947 263.463 112.24L263.251 112.283L262.206 112.483L262.002 112.78L261.885 112.626C261.885 112.611 261.889 112.596 261.894 112.581L261.905 112.559L261.927 112.528L262.058 112.382L262.204 112.226C262.669 111.732 263.191 111.254 264.139 110.431L264.804 109.854L265.322 109.4C266.68 108.197 267.404 107.451 268.173 106.416C270.087 103.84 271.168 100.936 271.213 97.9868C271.307 91.8534 267.077 86.0545 260.809 83.4078C260.589 83.3152 260.427 82.6564 260.691 82.221C266.76 72.1778 268.444 60.1391 265.395 48.9402C262.551 38.4916 255.473 29.269 245.341 22.2043C227.946 10.0756 203.817 3.82115 178.215 3.60575L177.439 3.60107H176.694Z" fill="#ECDCBF"/>
<path fill-rule="evenodd" clip-rule="evenodd" d="M269.714 127.144C268.561 126.883 267.943 128.28 268.921 128.841C275.131 132.403 281.546 135.585 287.546 139.461C293.252 143.146 298.522 147.343 303.436 151.856L303.981 152.358C308.424 156.481 313.345 161.725 313.395 167.806C313.433 172.532 309.392 177.692 303.754 177.071C301.63 176.837 299.678 179.267 300.419 181.019L301.199 182.866C304.336 190.339 307.527 198.807 305.05 206.67L304.959 206.95C304.359 208.75 303.727 210.341 301.41 210.305C299.26 210.271 297.022 209.617 295.009 208.993C290.831 207.697 287.045 205.536 283.832 202.819C280.99 200.415 277.358 202.857 277.741 205.912L277.755 206.009C278.278 209.437 272.223 211.029 269.47 210.539C264.035 209.569 260.16 204.658 257.073 200.914C255.589 199.115 251.986 198.406 250.682 200.914C248.099 205.88 242.775 209.592 236.546 209.748C233.31 209.829 230.206 208.998 227.466 207.458C226.347 206.829 225.347 206.081 224.43 205.234L224.202 205.02C222.845 203.722 221.908 203.032 220.174 202.185C218.466 201.35 216.256 202.385 216.267 204.206C216.281 206.566 217.047 208.134 218.851 209.845C220.344 211.263 222.118 212.507 223.982 213.501C227.729 215.497 232.184 216.621 236.546 216.491C243.422 216.286 249.985 213.195 254.239 208.388C258.583 213.072 263.972 217.376 270.974 217.26C276.216 217.174 281.101 214.713 283.442 210.9C286.746 212.954 290.373 214.56 294.252 215.61L294.598 215.702C300.09 217.143 306.409 217.716 309.944 212.799C313.263 208.183 313.511 201.791 312.75 196.515C312.071 191.802 310.463 187.326 308.616 182.911C313.872 181.495 317.952 177.043 319.353 172.243C321.473 164.985 317.361 157.946 312.276 152.554C306.753 146.696 299.802 141.741 292.799 137.404C285.814 133.079 277.989 129.015 269.714 127.144ZM90.1179 70.3754C90.105 70.1737 89.7386 70.1031 89.7047 70.3245C87.2923 86.1122 85.8954 101.868 84.7391 117.764C84.1527 125.817 83.487 133.862 82.7583 141.906C82.0592 149.619 80.8954 157.537 81.1584 165.281C81.5701 177.408 88.0997 187.268 98.8065 194.364C109.066 201.164 121.793 204.526 134.28 205.947C141.531 206.772 148.884 206.811 156.144 206.036C159.914 205.634 163.68 205.098 167.373 204.293L168.97 203.933C171.878 203.263 175.125 202.354 175.54 199.247C175.741 197.743 174.855 196.633 173.424 195.878C171.558 194.893 169.418 195.473 167.495 195.921C164.255 196.677 160.98 197.326 157.668 197.775C150.555 198.74 143.243 198.797 136.094 198.129C124.067 197.005 111.381 193.487 102.109 186.222C98.0789 183.065 94.575 179.219 92.732 174.649C90.3625 168.773 90.7133 162.364 90.7927 156.211C90.9768 141.906 90.8146 127.6 91.0352 113.293C91.2568 98.9425 91.0637 84.7048 90.1179 70.3754ZM211.057 3.51925C197.004 0.250809 182.742 -0.598482 168.308 0.38538C154.695 1.31253 139.188 4.05934 128.07 11.6102C127.53 11.9766 127.853 12.6702 128.521 12.5743C135.954 11.5058 143.199 9.5624 150.6 8.27654C157.719 7.03973 164.966 6.11123 172.214 5.89609C196.729 5.16742 224.007 10.1772 243.774 23.9607C253.043 30.4233 260.117 39.1134 262.932 49.4529C265.819 60.058 264.257 71.5268 258.46 81.1202C257.625 82.5014 257.969 84.6866 259.711 85.422C264.996 87.6535 268.76 92.5971 268.678 97.9318C268.639 100.519 267.65 103.001 266.06 105.139C264.379 107.401 261.821 108.983 259.941 111.096C259.201 111.927 259.172 113.073 259.759 113.839C258.659 114.273 257.473 114.506 256.391 115.019C255.474 115.455 255.448 116.813 256.391 117.242C258.777 118.325 261.356 117.175 262.966 115.428C263.253 115.117 263.502 114.792 263.729 114.461C265.657 114.092 267.385 113.219 268.893 112.026C271.768 113.578 272.162 117.034 269.692 119.674C268.431 121.022 266.64 121.855 264.829 122.453L264.611 122.523C262.849 123.088 261.235 123.403 260.09 124.674C259.335 123.255 258.469 121.917 257.502 120.697C253.989 116.266 248.59 112.334 242.182 112.833C237.163 113.223 232.815 116.464 231.786 120.935C231.711 121.265 232.263 121.524 232.428 121.179C234.836 116.115 242.455 115.929 246.994 118.568C252.331 121.671 255.248 127.52 256.418 132.967C257.57 138.333 256.904 144.859 252.451 148.941C250.629 150.611 248.15 151.766 245.563 152.07C244.299 152.219 243.183 152.072 241.974 151.853L241.172 151.702C240.616 151.598 240.064 151.514 239.48 151.561L238.612 151.666L238.118 151.874C237.69 152.048 237.728 152 238.234 151.731C236.757 151.623 235.994 152.606 235.914 153.685C235.867 153.712 235.821 153.741 235.783 153.783C230.181 159.966 226.021 167.074 220.076 173.054L218.336 174.806C213.861 179.295 208.754 184.161 202.676 186.489L201.952 186.759C200.184 187.433 198.408 188.355 198.183 190.277C197.981 191.999 199.486 193.295 201.221 193.697C205.173 194.611 209.677 191.444 212.571 189.366C218.794 184.899 224.025 179.204 228.344 173.213L228.771 172.616C232.322 167.615 235.659 161.912 236.696 155.977L236.883 156.25C236.897 156.269 236.908 156.284 236.915 156.293C237.126 156.552 237.359 156.771 237.63 156.981C238.356 157.546 239.243 157.877 240.164 158.101C241.892 158.522 243.787 158.605 245.563 158.441C249.172 158.108 252.545 156.869 255.398 154.852C264.083 148.709 265.109 137.278 261.596 128.004C264.479 128.625 267.762 126.876 270.013 125.376C272.594 123.656 274.722 121.173 275.231 118.252C275.736 115.354 273.687 111.515 270.648 110.397C273.801 106.982 275.637 102.136 275.827 98.2563C276.156 91.507 272.18 85.1276 266.076 81.4451C271.816 70.3503 272.922 57.4787 269.057 45.6984C261.387 22.322 235.694 9.2496 211.057 3.51925ZM232.926 181.129L232.854 180.924C232.242 179.116 231.453 175.52 228.458 176.889C225.597 178.196 227.424 182.067 228.424 183.951C229.621 186.205 231.689 188.013 234.466 188.497C236.724 188.891 239.205 188.385 240.785 186.811C241.245 186.352 241.505 185.849 241.778 185.294C241.885 185.078 241.933 184.93 241.953 184.833C241.979 184.939 242.052 185.097 242.241 185.282C243.502 186.524 244.692 187.97 245.607 189.44C245.824 189.787 246.506 189.544 246.334 189.163C245.268 186.813 245.447 183.179 243.072 181.479C240.979 179.98 239.012 181.16 237.905 182.905L237.848 182.996C236.23 185.646 233.651 183.129 232.926 181.129ZM255.697 172.637L255.479 172.363C253.24 169.604 249.465 166.286 245.688 168.852C244.487 169.668 244.442 171.029 245.688 171.839L246.159 172.143C247.81 173.198 249.453 174.194 250.665 175.707C251.982 177.352 253.164 179.094 254.935 180.384C258.067 182.666 263.128 183.116 265.845 180.04L266.112 179.735C266.34 179.471 266.6 179.153 266.812 178.836L266.977 179.042C266.993 179.062 267.008 179.082 267.022 179.101L267.06 179.153C268.177 180.762 269.588 182.088 271.345 183.134C274.685 185.121 278.448 185.397 282.227 184.345C282.596 184.242 282.497 183.795 282.139 183.765C277.662 183.388 273.3 180.52 271.479 176.826L271.273 176.411C270.536 174.942 269.711 173.546 267.89 172.969C266.118 172.407 264.258 173 263.042 174.209C262.026 175.22 261.765 177.228 259.932 176.785C257.924 176.3 256.795 174.033 255.697 172.637ZM268.52 148.098C267.529 147.418 265.976 148.147 265.703 149.132C264.466 153.59 269.604 158.844 274.542 158.982C275.813 159.017 277.035 158.74 278.161 158.209C279.035 157.798 280.068 156.747 281.027 156.572C282.265 156.348 283.362 157.835 284.234 158.598C285.315 159.546 286.385 160.425 287.597 161.233C288.081 161.555 288.832 161.013 288.628 160.518L288.218 159.533C286.734 156.026 284.179 150.906 279.396 152.362C277.053 153.074 275.29 155.479 272.822 153.575C270.847 152.051 270.662 149.565 268.52 148.098ZM247.421 130.149C242.963 125.534 232.483 127.972 230.496 133.586C230.057 134.826 230.515 136.438 231.589 137.316C233.004 138.472 235.022 138.822 236.74 137.915C238.218 137.135 238.825 135.859 239.911 134.764C241.505 133.159 243.672 132.268 245.905 131.63C246.464 131.895 246.983 132.243 247.449 132.662C247.688 132.877 248.139 132.583 247.927 132.33C247.64 131.986 247.288 131.662 246.888 131.364L247.081 131.313C247.669 131.165 247.796 130.538 247.421 130.149ZM218.447 79.1941C217.448 79.1955 216.284 80.0416 216.412 81.0295L216.45 81.3038C216.738 83.1846 217.408 84.2496 219.496 85.1234C221.267 85.8638 223.127 86.2729 225.069 86.4349C225.803 86.4961 226.581 86.4997 227.369 86.4471L227.535 87.3104C227.864 89.0371 228.169 90.765 228.227 92.5249C228.333 95.7875 226.983 98.4762 225.536 101.389C222.756 106.984 222.444 112.57 225.47 118.157C225.912 118.974 227.166 119.64 228.177 119.557C229.488 119.45 230.121 119.108 230.884 118.157C231.524 117.358 231.378 116.23 230.934 115.395L230.884 115.303C229.359 112.639 228.878 109.629 229.657 106.701C230.388 103.949 232.046 101.476 232.786 98.7318C233.992 94.2626 232.708 89.8294 230.198 85.9952C232.092 85.5033 233.844 84.6265 235.013 83.2894L235.008 83.2876C235.454 82.8577 235.21 81.9598 234.427 82.0138L233.542 82.0783C231.009 82.2693 228.677 82.4678 226.116 81.8311C224.802 81.5043 223.669 80.9595 222.542 80.2999L222.3 80.1568C220.89 79.3116 220.108 79.1923 218.447 79.1941ZM212.385 46.1619C206.035 45.8365 200.613 49.6158 197.978 54.6467C195.115 60.1086 196.316 66.3756 198.843 71.7494L199.561 73.2534C200.817 75.8592 202.467 78.9581 205.041 80.3563C207.931 81.9271 210.43 80.1056 209.578 77.2103C209.07 75.486 207.695 74.1561 206.582 72.7329C205.544 71.4039 204.576 70.0284 203.726 68.5936C202.062 65.7797 200.82 62.6445 200.834 59.4206C200.857 53.5364 205.168 46.7929 212.385 46.8793C212.9 46.8847 212.892 46.1876 212.385 46.1619ZM180.269 36.6673C180.665 36.3964 180.311 35.7937 179.868 36.048C172.505 40.2715 167.007 48.205 165.9 55.9989C165.285 60.3232 165.754 64.9446 167.797 68.9354C168.968 71.2254 170.978 73.4114 173.789 74.0392C176.373 74.6158 179.036 73.2849 179.838 71.0102C180.149 70.1276 179.614 69.2045 178.806 68.7225C176.186 67.1603 174.077 65.189 172.842 62.5371C171.558 59.78 171.046 56.854 171.031 53.88C170.993 46.9151 174.075 40.9124 180.269 36.6673ZM90.3186 39.686C90.6595 39.3453 90.2308 38.843 89.7796 39.0564C84.4562 41.5813 81.0736 46.4178 80.1044 51.7147C79.1547 56.9005 80.4323 63.9603 84.8834 67.7108C87.3951 69.8279 91.8946 67.0123 89.8066 64.2853C88.3344 62.3621 86.7429 60.7783 85.8999 58.5059C85.1484 56.4783 84.8824 54.4336 84.9233 52.3029C85.0126 47.6546 86.8542 43.1516 90.3186 39.686ZM155.404 33.1922C146.309 32.8016 140.797 42.1654 139.534 49.1447C138.755 53.4568 139.341 57.8982 141.981 61.6383L142.137 61.856C144.315 64.8438 148.276 68.2838 152.543 66.8691C154.349 66.2709 154.83 64.526 153.616 63.2023C151.76 61.1761 148.89 60.3502 147.145 58.1867C145.186 55.7603 144.544 52.7205 144.658 49.7698L144.673 49.4439C144.977 44.0163 147.847 33.5988 155.404 33.7832C155.828 33.7931 155.823 33.2098 155.404 33.1922ZM126.955 31.6364C118.157 30.6224 112.8 39.9561 111.148 46.3858C110.116 50.4054 109.89 54.8895 111.21 58.879L111.308 59.1632C112.383 62.1406 115.553 67.2421 119.691 65.7206C120.825 65.3038 121.983 64.1683 121.44 62.9441C120.746 61.3791 119.746 60.9732 118.412 59.9718C117.385 59.2008 116.668 58.0941 116.14 57.004C114.734 54.0987 114.42 50.7047 114.613 47.574L114.639 47.2035C115.136 41.0884 118.813 31.9752 126.955 32.1428C127.327 32.1504 127.301 31.676 126.955 31.6364ZM110.849 22.8617C105.952 21.1802 101.941 25.4024 99.1263 28.4156C95.6005 32.1913 92.402 36.2586 90.5939 40.9587C88.9835 45.1467 88.7 49.8031 90.1508 54.0662C90.8689 56.1771 91.9878 58.1345 93.5149 59.8574L93.7099 60.0747C95.2993 61.8224 96.8336 62.8964 99.4372 62.2707C100.497 62.0155 100.944 61.0708 100.761 60.1679C100.369 58.2389 99.2666 57.7379 97.8388 56.3913C96.5796 55.2036 95.6454 53.7408 95.0171 52.2029C93.7215 49.0304 93.6542 45.5931 94.524 42.3247C95.4971 38.6657 97.4126 35.2869 99.6286 32.1207L100.107 31.4425C102.455 28.095 105.802 22.94 110.755 23.4832C111.18 23.53 111.185 22.9769 110.849 22.8617Z" fill="black"/>
<path fill-rule="evenodd" clip-rule="evenodd" d="M128.469 161.286C127.702 160.086 125.935 158.973 124.319 159.144C117.078 159.908 117.09 167.809 119.886 172.421C122.365 176.511 127.496 178.912 132.631 178.561C138.026 178.193 142.622 175.338 144.645 170.797C145.983 167.792 146.601 162.246 143.043 160.227C142.976 160.19 142.867 160.199 142.815 160.254C141.109 162.04 141.042 164.722 139.548 166.711C138.158 168.561 136 170.088 133.471 170.324C131.583 170.5 129.672 169.887 128.934 168.362C128.534 167.536 128.58 167.088 128.73 166.52L128.866 166.027C129.339 164.298 129.552 162.981 128.469 161.286ZM126.533 126.637C122.756 128.703 117.002 133.52 121.065 138.642C125.847 143.157 132.732 137.98 136.125 135.638C139.271 133.823 142.806 138.491 139.887 140.61C115.37 156.945 105.42 127.177 124.623 124.208C126.737 123.881 127.522 125.998 126.533 126.637ZM166.413 112.471C164.095 109.341 158.804 109.802 157.527 113.516C156.836 115.528 157.791 117.336 157.741 119.346C157.7 121.043 157.823 122.934 158.402 124.578C159.72 128.326 163.466 130.973 167.897 130.863C172.314 130.754 176.205 128.238 178.055 124.695C179.911 121.138 179.518 117.457 178.163 113.84C178.098 113.666 177.845 113.582 177.692 113.728C176.09 115.26 174.917 116.878 173.704 118.594L172.46 120.352C171.51 121.676 170.128 123.368 168.354 123.261L168.088 123.238C167.594 123.2 167.67 123.288 167.29 122.683C167.114 122.403 167.146 121.883 167.061 121.552L167.031 121.441L167.047 121.381C167.085 121.221 167.122 120.919 167.152 120.396L167.159 120.28C167.287 117.833 168.056 114.689 166.413 112.471ZM107.654 114.555C108.07 110.552 101.817 109.663 99.7375 112.625C98.6532 114.169 98.3375 116.11 98.0978 117.948L97.9856 118.821C97.7396 120.709 97.6421 122.673 98.5528 124.434C99.9871 127.208 103.106 128.674 106.471 128.442C109.684 128.22 112.616 126.543 114.161 123.998C115.539 121.727 116.909 117.293 115.236 114.924C115.135 114.78 114.932 114.762 114.794 114.873C113.213 116.136 112.955 118.44 112.015 120.086C111.045 121.784 109.574 123.438 107.345 123.696C105.213 123.943 104.398 122.895 104.942 121.065C105.644 118.703 107.39 117.096 107.654 114.555ZM164.724 88.6727L163.702 88.3202C160.198 87.1291 155.387 85.7522 152.539 88.3163C150.781 89.8974 150.447 92.2265 151.701 94.156C153.221 96.4932 155.947 96.5508 158.579 96.8951C161.574 97.2867 164.619 98.0311 167.406 99.0924C170.547 100.288 173.461 101.779 176.316 103.444C179.03 105.026 181.734 107.611 184.982 108.099C185.114 108.119 185.265 108.067 185.299 107.936C186.037 105.078 183.987 102.266 182.158 100.036C179.944 97.3367 177.262 95.121 174.265 93.1343C171.371 91.2166 168.066 89.8308 164.724 88.6727ZM101.076 98.8339L100.764 98.7846C98.6392 98.4663 96.7138 98.5396 95.1125 100.054C93.8902 101.209 93.4191 102.707 94.0017 104.234C94.5394 105.644 95.7416 107.075 97.4865 107.37C103.377 108.368 109.902 108.203 115.823 107.448C118.531 107.102 121.264 106.679 123.903 106.012L125.117 105.695C127.319 105.129 129.841 104.538 131.441 103.08C132.016 102.556 131.684 101.806 130.996 101.564C128.204 100.58 124.378 101.103 121.401 101.026C117.939 100.937 114.47 100.703 111.024 100.382C107.656 100.067 104.398 99.3821 101.076 98.8339Z" fill="black"/>
<path fill-rule="evenodd" clip-rule="evenodd" d="M82.7967 128.759C87.3876 133.921 105.36 139.65 114.925 133.43C124.491 127.21 128.271 122.876 129.549 115.104C129.686 114.275 131.351 113.724 132.055 114.312C135.996 117.607 138.547 121.803 141.075 126.01C143.926 130.755 146.734 135.529 151.915 138.741C161.091 143.167 177.692 143.798 182.596 141.845C191.991 138.105 199.423 130.105 201.113 119.096C202.259 115.841 203.334 113.871 204.338 113.186C205.766 112.212 213.644 111.344 214.507 111.2C230.06 108.603 249.731 106.947 263.583 116.084C265.458 117.104 271.876 120.935 271.972 119.993C272.038 116.303 267.391 107.951 256.823 103.976C243.754 99.0618 224.327 98.7743 213.072 99.8589C212.506 99.9135 210.577 99.4868 210.441 99.4337C193.39 92.7902 173.771 94.5546 155.527 97.3469C152.913 97.8034 129.509 103.019 120.2 99.8589C104.808 94.2042 88.3981 90.1075 71.777 91.7192C71.638 91.7327 69.5397 103.194 71.1743 103.976C72.475 104.599 74.6884 106.193 75.4747 107.066C76.1776 107.846 76.6206 108.816 76.5813 110.159C76.2652 117.932 78.7295 124.186 82.7967 128.759ZM146.08 121.823C144.129 119.283 143.513 113.575 144.33 109.412C144.744 107.303 145.547 105.625 146.555 104.79C147.225 104.235 147.99 103.973 148.824 104.012C149.281 104.033 149.776 104.15 150.3 104.405C157.399 100.949 165.998 99.7052 174.149 100.063C180.638 100.062 185.267 101.44 188.407 103.586C192.185 106.168 193.887 109.879 193.985 113.904C194.102 118.68 191.922 123.905 188.346 128.039C184.923 131.996 180.24 134.93 175.161 135.607C169.394 136.637 163.517 135.64 158.408 133.203C153.168 130.702 148.741 126.686 146.08 121.823ZM89.1781 124.518C85.889 121.02 83.702 116.47 83.3691 111.961C83.0662 107.858 84.287 103.794 87.6627 100.435C90.7229 98.0709 96.1305 98.0318 101.819 99.3481C109.175 101.05 116.784 104.854 119.321 107.311C119.919 107.593 120.473 108.084 120.956 109.137L120.96 109.513C121.728 112.702 121.272 115.939 119.943 118.924C118.499 122.168 116.023 125.112 113.003 127.359C108.991 130.333 104.803 131.243 100.884 130.763C96.4437 130.219 92.3151 127.854 89.1781 124.518Z" fill="white"/>
<path fill-rule="evenodd" clip-rule="evenodd" d="M120.729 98.5955C105.143 92.8687 88.4828 88.7411 71.616 90.3767C70.2212 89.8991 68.4898 90.3015 67.8717 92.0766C61.8638 108.547 75.2613 103.967 75.0813 110.124C73.677 144.646 125.236 150.541 131.033 115.301L131.14 115.358C139.481 122.363 141.238 133.761 151.063 139.852C170.884 152.898 198.982 142.562 202.591 119.338L202.669 119.024C203.881 114.284 205.329 113.109 211.304 113.132L212.247 112.964C227.77 110.211 248.442 107.738 262.739 117.203C265.849 118.831 265.995 123.015 268.622 124.833C271.501 125.336 273.274 122.22 273.47 120.064C273.926 98.5667 231.181 97.0202 212.038 98.8651C211.672 98.5244 210.891 98.5667 210.628 98.9911C193.315 92.2454 173.811 93.1788 155.273 96.0157C143.79 98.0162 132.449 102.573 120.729 98.5955ZM73.1679 94.3454C82.5205 93.9246 91.1714 94.385 100.352 96.4081C105.19 97.4586 108.902 98.7868 113.533 100.384C142.419 111.901 145.751 91.4294 210.499 99.4542C209.662 102.683 209.508 105.88 209.463 108.913C196.242 108.434 199.355 119.795 194.402 127.774L194.249 128.015C187.031 139.658 169.997 145.088 156.256 137.366C144.792 131.353 143.674 116.102 132.261 110.049C122.367 109.699 126.319 121.716 120.935 126.655C113.356 135.756 97.2468 137.029 87.7436 128.468C83.2851 124.349 80.9156 119.119 80.7846 113.501C80.536 109.911 81.2202 106.263 78.2045 103.738C76.0905 101.805 72.3347 102.45 71.9036 99.5289C71.6295 97.8015 72.4277 95.9279 73.1679 94.3454ZM174.811 99.0506C165.52 98.6388 155.69 100.091 147.713 104.191C141.808 99.9625 140.361 116.769 144.281 121.63C149.927 132.028 163.074 138.864 175.732 136.594C195.48 134.019 209.239 99.0196 174.811 99.0506ZM148.28 105.318L148.785 105.252C157.344 104.077 180.646 98.6324 189.634 107.225C198.356 121.479 176.228 145.42 153.2 126.35C146.791 120.478 144.307 113.358 148.28 105.318ZM121.159 107.14C116.727 102.417 94.1396 92.8515 86.2664 98.9901C71.8966 113.483 94.6853 142.798 113.773 128.515C120.13 123.741 124.312 116.135 122.482 108.77L122.479 108.461C122.475 108.349 122.452 108.375 122.319 108.235C122.083 107.678 121.659 107.323 121.159 107.14ZM86.4669 115.924C81.6208 92.2696 101.875 101.262 118.509 107.576C117.616 108.31 117.62 109.312 117.876 110.136C119.631 127.687 95.927 137.633 86.4669 115.924ZM212.374 100.015C219.312 102.129 265.203 98.3475 269.442 117.707C264.967 111.182 255.699 108.593 247.367 107.188C236.034 105.276 224.763 106.383 213.589 108.394L213.358 106.313C213.11 104.106 212.849 102.041 212.374 100.015Z" fill="black"/>
</svg>
