<svg width="392" height="500" viewBox="0 0 392 500" fill="none" xmlns="http://www.w3.org/2000/svg">
<path fill-rule="evenodd" clip-rule="evenodd" d="M31.1862 320.462C32.7908 316.832 30.4477 313.211 29.148 309.699C24.5307 297.519 37.1599 266.798 45.9925 266.349C49.2227 259.462 57.8439 256.606 64.6292 252.64C72.329 248.679 79.8191 244.131 87.8269 240.659C88.2722 237.378 93.0994 236.565 96.0513 238.912C104.159 234.756 113.881 235.528 122.572 232.805C129.175 224.009 129.671 214.76 131.419 206.274C132.181 202.575 131.372 199.006 134.439 195.708C144.742 183.767 185.454 178.589 200.464 185.666C208.544 181.513 208.738 189.034 210.022 193.675C211.448 195.998 212.22 198.627 211.981 201.398C215.806 207.982 219.05 216.217 227.088 221.134C237.289 227.374 252.982 229.746 262.927 232.805C264.414 231.626 265.385 230.184 265.84 228.479C281.253 231.24 296.212 236.094 309.125 243.672C323.797 247.208 334.129 257.041 341.601 267.585C342.424 268.696 342.618 269.83 342.378 270.87C365.354 298.624 376.32 331.85 377.86 365.407C392.635 372.715 370.837 438.358 365.763 451.986C365.758 451.984 365.753 451.982 365.748 451.98C362.456 456.783 358.718 470.487 350.479 469.427C344.828 474.693 335.821 473.658 328.152 474.062C329.401 478.011 328.787 482.528 327.301 486.43C325.542 491.075 316.914 491.232 315.69 486.168C239.317 498.396 160.955 488.639 83.7239 490.475C61.3939 490.605 39.0659 491.175 16.7895 492.486C13.6527 492.67 10.4725 490.029 10.686 487.455C15.4754 445.466 19.9732 390.229 25.3289 348.652C26.5991 339.17 27.6036 329.583 31.1862 320.462Z" fill="#EDB98A"/>
<path fill-rule="evenodd" clip-rule="evenodd" d="M265.84 228.479C265.815 228.573 265.788 228.666 265.76 228.758L266.052 229.304C267.902 232.82 268.827 235.732 268.827 238.039C268.827 243.299 240.42 295.346 177.399 290.563C135.385 287.374 109.776 271.646 100.572 243.377L100.033 237.269C98.6719 237.714 97.3412 238.251 96.0514 238.912C93.0995 236.565 88.2724 237.378 87.8271 240.659C79.8192 244.131 72.3292 248.68 64.6293 252.64L64.1586 252.912C57.4506 256.739 49.1487 259.621 45.9927 266.349L44.7292 266.416C36.2948 266.871 24.5309 297.519 29.1482 309.699C30.4479 313.211 32.791 316.832 31.1864 320.462C27.6038 329.584 26.5992 339.17 25.3291 348.652C19.9734 390.23 15.4756 445.466 10.6862 487.455C10.4727 490.029 13.6599 492.249 16.7896 492.486C81.5986 497.383 325.542 493.6 327.301 488.955C328.787 485.054 329.401 478.011 328.152 474.062C335.821 473.658 344.828 474.693 350.479 469.427C358.718 470.488 362.456 456.783 365.748 451.98L365.763 451.986C370.837 438.358 392.635 372.715 377.86 365.407C376.32 331.85 365.354 298.624 342.378 270.87C342.608 269.873 342.44 268.791 341.701 267.724L341.601 267.585C334.129 257.041 323.797 247.208 309.125 243.672C296.212 236.094 281.253 231.24 265.84 228.479ZM79.1961 316.342C82.4944 314.234 108.409 318.45 127.241 322.238C139.796 324.764 148.541 328.179 153.478 332.483L175.577 352.471L181.169 355.451C181.169 361.673 180.738 368.216 179.876 375.082C179.013 381.947 175.211 389.211 168.471 396.876C148.609 392.379 136.732 389.827 132.841 389.22C127.005 388.309 122.382 380.413 119.639 377.699C116.895 374.985 106.375 374.683 98.3587 372.592C93.0146 371.198 89.2978 367.637 87.2083 361.909C75.5278 359.832 67.8062 358.446 64.0436 357.753C60.2811 357.06 60.2811 355.299 64.0436 352.471L107.788 351.21C90.3283 348.135 79.7287 346.386 75.989 345.963C70.3793 345.328 55.3105 341.472 55.3105 338.485C55.3105 335.558 78.2503 335.611 90.478 335.614L91.4622 335.615C99.4902 335.627 112.288 336.247 129.856 337.474L119.639 333.442C96.5858 329.764 83.5226 327.924 80.4488 327.924C77.3749 327.924 75.1973 326.029 73.9159 322.238C75.2372 319.712 76.9973 317.747 79.1961 316.342Z" fill="#FFCF77"/>
<path fill-rule="evenodd" clip-rule="evenodd" d="M107.497 317.041L85.0492 275.141C82.7879 270.395 79.7375 268.022 75.8978 268.022C72.0582 268.022 52.7299 268.471 17.913 269.369C10.7876 270.118 8.37528 272.042 10.676 275.141C12.9768 278.239 31.2327 308.619 65.4439 366.279H87.2082V361.909L62.9779 356.327C60.0379 353.756 60.8599 352.471 65.4439 352.471C70.028 352.471 85.6547 352.051 112.324 351.21L74.1792 346.598L55.3104 340.618L58.0859 337.474L74.1792 335.58L126.589 337.474L112.324 333.499L80.4487 327.924C76.269 325.499 74.1792 323.097 74.1792 320.718C74.1792 318.34 79.7774 316.693 90.9739 315.778L107.497 317.041Z" fill="white"/>
<path fill-rule="evenodd" clip-rule="evenodd" d="M208.762 188.257C208.543 187.765 207.65 187.83 207.633 188.383C207.282 200.189 210.848 214.616 222.313 222.591C228.198 226.685 235.978 228.558 243.123 230.711L243.929 230.956L256.553 234.831C259.901 235.859 263.513 237.44 266.47 235.988C264.077 240.878 262.068 245.903 259.153 250.616C255.525 256.483 251.139 261.851 245.77 266.734C224.501 286.075 190.841 291.975 160.634 286.308C145.08 283.389 129.944 277.859 119.332 267.771C111.267 260.103 106.633 249.812 105.542 239.66C105.861 239.702 106.195 239.701 106.539 239.638C110.361 238.951 114.219 237.263 117.582 235.608L117.906 235.448C121.142 233.843 124.515 232.003 126.837 229.509C128.374 227.858 129.95 224.339 131.564 218.953C132.223 215.917 132.841 209.868 132.736 206.799C132.726 206.509 131.167 206.338 131 206.639C129.56 209.245 129.094 214.97 127.982 217.682L127.757 218.223C126.57 221.055 125.551 224.503 123.089 226.792C118.467 231.091 111.493 232.911 105.268 235.067C104.821 230.208 95.4036 230.322 95.5231 235.389C95.5297 235.664 95.5446 235.937 95.5563 236.211C94.8136 236.548 94.0994 236.933 93.4316 237.304L92.7801 237.668C90.3144 239.051 87.8298 240.364 85.2043 241.536C80.1212 243.807 74.74 245.607 69.5318 247.668C64.2629 249.753 59.3351 252.237 54.7342 255.211C52.5732 256.607 50.5011 258.094 48.5359 259.674L48.0026 260.107C46.1319 261.643 43.6978 263.359 42.632 265.377C42.3971 265.822 41.2202 266.856 40.5816 266.891C30.6862 267.425 20.8119 268.18 10.9785 269.312C8.43271 269.605 7.42639 270.686 8.3674 272.435C11.6012 278.444 24.261 302.441 27.6275 308.881C27.2343 313.612 27.7654 319.182 27.4109 323.915C26.8926 330.821 26.2139 337.724 25.4003 344.611C22.4893 369.246 18.0763 393.762 14.0887 418.289C12.0929 430.565 10.2733 442.858 8.47711 455.154C7.5701 461.368 6.80048 467.588 6.20807 473.828C5.9613 476.428 5.7374 479.03 5.54004 481.634L5.36996 483.942C5.13583 486.848 4.59546 489.623 6.7775 492.117C7.76672 493.248 10.0261 493.885 11.3269 492.6C12.9621 490.985 13.5699 489.778 13.7261 487.655C13.8456 486.031 13.8743 484.399 13.9641 482.773C14.1582 479.247 14.4023 475.724 14.6883 472.203C15.2588 465.164 15.9099 458.126 16.6642 451.099C19.3081 426.457 24.3329 402 27.6765 377.419C29.3618 365.027 30.559 352.611 31.1927 340.15C31.5099 333.928 31.6248 327.705 31.5502 321.477C31.5222 319.151 31.3883 316.835 31.1948 314.525C36.2038 323.902 41.4697 333.188 46.975 342.351L48.28 344.521C51.7689 350.313 55.3516 356.126 59.5447 361.586L60.2653 362.517C61.9644 364.735 64.285 368.232 67.3828 368.932C69.5405 369.419 72.1773 369.076 74.3896 369.041C76.5852 369.007 78.7832 368.999 80.9772 368.926C83.4383 368.844 85.7865 368.578 88.1649 368.049C88.5602 367.962 88.934 367.866 89.2746 367.745C91.6709 370.977 95.7422 373.438 99.9049 374.871C103.239 376.02 106.734 376.807 110.234 377.536L111.47 377.791C115.222 378.562 119.515 378.928 121.632 381.914L122.123 382.607C123.697 384.809 125.207 386.744 127.811 388.323C130.614 390.024 133.935 391.094 137.244 391.926C140.631 392.778 144.098 393.43 147.537 394.129L148.474 394.321C150.745 394.789 153.036 395.219 155.293 395.728C156.256 395.945 157.236 396.169 158.181 396.437C159.287 396.75 160.091 397.239 160.964 397.771C161.748 400.029 165.101 401.256 167.858 401.098C169.306 401.016 170.604 400.611 171.786 400.018C173.849 401.465 176.12 402.761 178.222 404.101C181.167 405.978 184.123 407.842 187.095 409.689C193.223 413.495 199.398 417.251 205.638 420.933C216.712 427.469 228.026 433.706 239.534 439.711C244.332 442.215 249.162 444.715 254.04 447.155L253.52 447.314L252.487 447.636C250.046 448.387 247.327 449.6 246.854 451.946C246.479 453.807 247.741 455.09 249.97 455.317C252.62 455.587 254.683 454.044 256.333 452.571C257.061 451.922 257.876 451.318 258.574 450.65C258.858 450.376 259.077 450.062 259.269 449.732C264.083 452.069 268.948 454.328 273.89 456.44L275.127 456.965C287.382 462.129 299.311 467.787 311.671 472.805C314.895 474.114 318.825 475.529 322.923 476.496C321.836 479.968 321.852 483.781 321.825 487.306C321.799 490.741 328.423 490.724 328.283 487.306L328.216 485.655C328.095 482.879 327.898 479.997 327.099 477.296C339.171 478.946 351.231 475.36 353.477 474.284C355.955 473.096 358.205 471.195 360.077 469.432C364.084 465.659 366.864 461.135 369.331 456.585C374.614 446.84 378.358 436.423 381.095 426.005C391.185 387.596 386.845 346.486 370.459 309.668C366.365 300.469 361.532 291.472 355.993 282.802L355.305 281.73C349.778 273.155 343.636 264.613 335.833 257.316C327.706 249.716 317.68 243.805 306.764 239.217C301.437 236.978 295.956 235.038 290.353 233.318C289.453 233.042 288.547 232.794 287.639 232.558C281.801 229.491 274.715 226.556 267.627 226.672C267.146 226.679 266.756 226.829 266.465 227.056C266.123 227.106 265.781 227.165 265.439 227.247C264.684 227.428 263.886 228.11 263.994 228.811L264.031 229.044C264.051 229.158 264.076 229.268 264.119 229.375C263.866 229.406 263.617 229.456 263.374 229.525C256.592 227.946 249.92 225.533 243.302 223.586L241.795 223.147C236.252 221.547 230.566 219.978 226.019 216.81C221.496 213.659 218.095 209.577 215.636 205.165C212.606 199.728 211.25 193.839 208.762 188.257ZM72.9866 474.99C71.644 474.167 70.0562 475.123 69.5536 476.141C67.9041 479.485 68.7192 484.681 71.0444 487.637C73.4539 490.7 79.2213 489.491 79.3607 485.781C79.5063 481.912 76.7771 477.316 72.9866 474.99ZM59.1168 382.662C58.9963 382.227 58.1771 382.231 58.0546 382.662C56.9367 386.585 56.9627 390.81 56.6345 394.833L56.5965 395.279C56.2028 399.715 55.8718 404.164 55.6359 408.607C55.1726 417.35 54.619 426.094 53.9985 434.83C53.6906 439.163 53.3607 443.494 53.0088 447.825C51.9067 447.319 50.7714 446.874 49.5947 446.482C47.8318 445.895 46.1153 445.828 44.2211 445.844C41.9143 445.863 40.1774 447.535 40.4828 449.397C40.8157 451.425 42.9826 452.294 45.2328 452.005C47.725 451.683 50.228 451.185 52.7443 450.979C52.4639 454.328 52.1743 457.675 51.8674 461.02C51.4604 465.45 50.9297 469.874 50.5569 474.305C50.5211 474.727 50.4828 475.151 50.4435 475.575C48.9431 474.932 47.3497 474.603 45.5438 474.198L45.074 474.089C42.4521 473.469 39.6472 472.611 37.2204 474.064C35.5892 475.04 35.2633 476.648 36.6147 477.936C38.6635 479.891 41.6952 479.512 44.5254 479.412L46.0479 479.366C47.4829 479.32 48.8068 479.244 50.133 478.946C49.8894 481.833 49.7612 484.73 50.1907 487.575C50.4231 489.112 52.8791 489.516 53.5292 487.947C55.2273 483.848 55.5782 479.428 56.1997 475.135C56.78 471.125 57.1329 467.086 57.513 463.059L57.6281 461.851C58.483 452.99 59.1669 444.125 59.6664 435.247C60.1663 426.369 60.4666 417.494 60.5861 408.607C60.6404 404.573 60.5593 400.523 60.3676 396.489L60.3068 395.279C60.0861 391.13 60.2404 386.727 59.1168 382.662ZM283.532 475.645C283.467 475.078 282.916 474.373 282.096 474.461C281.341 474.542 280.563 474.503 279.815 474.606C278.829 474.741 278.036 475.221 277.118 475.523C275.628 476.014 274.003 476.268 272.473 476.67C269.603 477.424 268.04 479.914 269.228 482.238C270.478 484.682 273.618 485.237 276.331 484.211C278.47 483.403 280.064 482.111 281.502 480.616L281.91 480.19C282.53 479.547 283.233 478.831 283.493 478.052C283.746 477.294 283.621 476.416 283.532 475.645ZM144.111 464.155C140.537 463.741 137.484 464.748 134.177 465.697L133.908 465.774C130.542 466.731 125.631 467.394 123.905 470.233C122.865 471.945 123.673 474.218 126.122 474.725C130.002 475.527 133.48 473.19 136.687 471.618L136.856 471.535C139.952 470.041 143.147 468.785 145.124 466.207C145.652 465.519 145.194 464.281 144.111 464.155ZM268.886 229.914C270.318 230.178 271.75 230.412 273.181 230.636C278.622 233.04 283.904 235.534 289.522 237.675C295.483 239.947 301.422 242.294 307.084 245.043C318.524 250.596 327.954 257.816 335.746 266.666C349.206 281.953 359.219 299.583 366.384 317.471C368.225 322.067 369.873 326.714 371.33 331.401C368.753 329.437 365.703 328.229 362.281 327.195C360.831 326.757 359.027 327.499 358.292 328.533C357.961 328.998 357.775 329.457 357.809 330.002C357.885 331.205 358.835 332.572 360.403 332.81C364.058 333.365 367.612 334.446 371.136 335.397C371.671 335.541 372.13 335.486 372.496 335.316C375.995 347.529 378.184 359.993 378.959 372.532C379.615 383.147 379.211 393.846 377.784 404.447C376.687 404.041 375.615 403.66 374.413 403.429C372.853 403.131 371.32 402.767 369.799 402.356C365.41 401.17 363.408 407.141 367.894 408.051C369.563 408.39 371.243 408.671 372.944 408.876C374.427 409.056 375.738 408.977 377.136 408.789C376.068 415.403 374.61 421.968 372.752 428.441L372.342 429.857C369.928 438.123 367.116 446.467 363.048 454.279C361.053 458.111 358.411 461.751 355.149 464.946C353.546 466.517 351.767 467.863 349.828 469.14C348.213 470.202 342.724 472.506 336.223 472.506C329.722 472.506 327.962 471.999 324.682 471.069C318.195 469.229 312.037 466.292 305.954 463.676L305.324 463.407C302.635 462.26 299.955 461.097 297.282 459.923C297.62 457.677 297.029 455.791 295.609 453.718C294.075 451.474 290.272 452.592 289.989 454.886L289.98 454.974C289.937 455.491 289.832 456.018 289.702 456.544C271.831 448.478 254.34 439.846 237.127 430.852C226.039 425.057 215.069 419.09 204.259 412.949C198.855 409.879 193.499 406.754 188.195 403.567C185.417 401.898 182.651 400.215 179.899 398.518C178.752 397.811 177.627 397.068 176.478 396.357C176.758 396.07 177.03 395.782 177.293 395.498C181.584 390.868 184.368 385.35 185.755 379.657C186.593 376.222 186.997 372.657 187.12 369.154L187.175 367.632C187.259 365.066 187.281 362.381 186.708 359.895C187.489 360.248 188.286 360.595 189.082 360.966C191.935 362.298 194.791 363.627 197.651 364.95C203.379 367.598 209.124 370.215 214.942 372.726C225.334 377.213 235.828 381.48 246.605 385.305L251.849 387.168C260.951 390.394 270.126 393.562 279.589 395.959C284.926 397.312 292.929 398.986 298.343 400.018C293.994 403.395 293.393 405.665 296.541 406.827C301.263 408.569 305.175 401.885 305.33 401.279C306.993 401.566 310.198 402.055 314.946 402.748C321.714 403.825 328.276 405.956 334.326 408.684C336.429 409.632 337.015 407.79 334.787 406.506C328.271 402.753 320.671 400.629 312.83 398.847L312.445 398.759C309.568 398.11 306.696 397.433 303.831 396.732C304.146 395.793 304.328 394.818 304.291 393.743C304.211 391.349 303.954 388.946 303.8 386.554C303.476 381.532 303.063 376.527 302.578 371.514C302.393 369.584 302.184 367.647 301.946 365.713C303.482 365.034 304.808 364.132 306.521 363.689L306.81 363.62C308.643 363.213 308.024 361.267 306.396 361.1C304.922 360.95 303.455 361.019 302.001 361.276C301.776 361.317 301.563 361.362 301.36 361.413C301.093 359.621 300.797 357.833 300.46 356.056C299.57 351.36 298.94 346.413 297.087 341.901C296.95 341.567 296.348 341.447 296.125 341.797C293.429 346.023 293.335 351.206 293.032 355.912L292.994 356.474C292.636 361.608 292.616 366.791 292.731 371.932C292.85 377.229 293.07 382.514 293.358 387.807C293.474 389.938 293.47 392.149 293.91 394.187C277.87 389.89 262.113 384.747 247.01 378.657C236.356 374.361 225.795 369.894 215.353 365.258C210.122 362.936 204.865 360.651 199.639 358.32C197.808 357.503 195.979 356.683 194.15 355.862L191.407 354.63C188.84 353.476 186.698 352.327 183.708 352.246C182.817 352.222 182.018 352.566 181.45 353.087C179.843 352.148 177.987 351.571 176.038 351.585C173.104 348.246 170.126 344.934 167.029 341.694L164.741 339.296C160.781 335.158 156.586 330.957 151.537 327.807C149.283 326.401 146.804 325.347 144.219 324.476C144.827 324.354 145.422 324.107 145.953 323.702C148.422 321.815 148.762 318.311 149.264 315.678C149.784 312.948 149.583 310.504 149.069 307.783C148.87 306.726 146.744 306.505 146.225 307.477C145.132 309.525 143.974 311.488 142.979 313.559L142.686 314.183C141.618 316.515 139.343 318.968 139.493 321.497C139.534 322.19 139.816 322.794 140.251 323.28C138.081 322.686 135.88 322.156 133.713 321.604C126.891 319.867 120.044 318.179 113.091 316.832C111.24 316.473 109.38 316.14 107.512 315.835C106.534 312.007 105.108 308.249 103.427 304.56C105.019 303.888 106.049 302.761 107.42 301.759C108.703 300.821 109.584 299.678 110.679 298.601C111.675 297.62 111.115 295.85 109.325 295.907L108.818 295.924C106.963 295.995 105.166 296.153 103.484 296.867L102.885 297.121C102.063 297.473 101.163 297.876 100.362 298.352C99.3146 296.366 98.2254 294.399 97.1245 292.452L95.696 289.934C91.9922 283.38 88.2987 276.578 83.6487 270.475C81.5814 267.762 78.8302 266.069 74.8815 265.806C70.8152 265.537 66.5876 265.885 62.5158 266.005C57.7953 266.144 53.0764 266.309 48.3606 266.513C49.5694 265.47 50.6725 264.309 51.8865 263.307C53.9017 261.647 56.0308 260.073 58.2687 258.618C62.6981 255.739 67.5681 253.367 72.6267 251.324C77.6862 249.281 82.8944 247.499 87.644 244.975C90.6494 243.378 93.3357 241.368 95.7866 239.193C97.3294 252.909 105.366 265.651 117.44 275.225C129.981 285.167 147.312 290.63 164.265 292.953C181.557 295.323 199.605 294.454 216.147 289.501C224.677 286.946 232.857 283.298 240.153 278.721C240.233 279.119 240.329 279.513 240.519 279.883C240.773 280.38 241.084 280.803 241.441 281.24L242.077 282.006C242.478 282.487 242.887 282.965 243.342 283.412C244.444 284.494 246.007 284.968 247.689 284.963C250.912 284.954 253.352 282.351 252.484 279.776C251.94 278.158 250.774 277.184 248.953 276.551C248.378 276.35 247.792 276.183 247.202 276.018L246.759 275.894C246.163 275.726 245.572 275.565 244.959 275.472C248.413 272.96 251.618 270.228 254.488 267.279C263.491 258.033 272.37 245.083 269.36 232.803C269.308 232.592 269.078 232.46 268.83 232.426C268.655 231.564 268.098 230.73 267.336 230.17C267.849 230.059 268.366 229.973 268.886 229.914ZM175.408 442.23C173.625 441.413 171.783 443.354 173.232 444.553L175.395 446.337C177.403 447.999 179.357 449.68 181.075 451.574L181.491 452.038C183.811 454.638 186.285 457.651 190.086 458.623C194.683 459.799 199.101 455.184 196.439 451.813C194.113 448.867 189.635 447.756 185.774 446.538C182.121 445.385 178.822 443.794 175.408 442.23ZM323.717 428.635C322.669 427.505 319.938 428.1 320.653 429.7C322.978 434.892 323.925 441.972 329.795 445.422C331.689 446.534 334.663 446.023 336.223 444.739C337.994 443.279 338.065 441.223 337.052 439.442C335.816 437.269 332.777 435.694 330.646 434.039L330.455 433.888C328.163 432.054 325.684 430.758 323.717 428.635ZM78.3807 434.611C76.5111 433.947 71.6383 432.656 70.1942 434.185C70.1268 434.24 70.0691 434.301 70.0227 434.369C69.6687 434.876 69.6161 435.591 70.0227 436.095C71.7054 438.179 73.458 439.734 75.8504 441.217L76.119 441.382C78.7235 442.96 81.1703 444.813 84.3438 445.525C88.7425 446.511 91.8149 441.973 88.7257 439.323C86.2368 437.188 82.4374 436.079 79.1396 434.889L78.3807 434.611ZM255.025 404.942C255.761 403.846 254.258 402.502 252.896 403.187C249.012 405.144 244.488 406.611 240.125 407.665C238.36 408.092 236.767 409.567 236.898 411.158L236.919 411.399C236.971 411.961 237.065 412.519 237.498 412.986C239.018 414.624 241.191 415.255 243.512 414.286C248.685 412.126 252.226 409.11 255.025 404.942ZM141.507 401.623C141.602 401.162 141.193 400.807 140.624 400.896C137.342 401.408 134.31 402.715 131.492 404.216C129.98 405.022 128.522 405.906 127.014 406.72C125.151 407.724 124.453 408.553 124.178 410.397C123.996 411.613 125.375 412.724 126.639 413.06C130.084 413.975 134.031 410.971 136.365 409.02L136.47 408.932C138.913 406.88 140.928 404.453 141.507 401.623ZM42.9254 398.435C43.6735 396.77 41.095 395.39 39.4087 396.208C37.8209 396.977 36.0983 397.616 34.6004 398.498C33.224 399.309 31.969 400.27 30.649 401.149L29.9967 401.574C27.576 403.178 23.5803 407.144 27.0414 409.445C30.3357 411.634 34.7033 408.838 36.9144 406.793L37.0686 406.649C38.3408 405.438 39.9091 404.122 40.832 402.708C41.7007 401.377 42.29 399.848 42.9254 398.435ZM75.4116 269.552C79.5375 270.211 81.2193 274.408 82.9567 277.144C87.0571 283.599 90.8282 290.174 94.6156 296.756C95.7815 298.781 96.9168 300.821 98.0623 302.858C98.1323 303.017 98.2222 303.174 98.3279 303.329C100.675 307.493 103.091 311.629 105.916 315.581C103.331 315.182 100.732 314.842 98.1241 314.574C98.2557 312.551 96.5741 309.842 95.7424 308.139L95.6732 307.995C94.636 305.812 93.5487 302.373 90.8788 301.24C89.9891 300.863 89.0377 301.335 88.9692 302.142C88.767 304.546 91.6193 307.296 93.0135 309.335C93.8567 310.569 94.6784 311.809 95.4792 313.061C95.7794 313.53 96.0302 313.991 96.3382 314.404C94.993 314.284 93.6463 314.177 92.296 314.1L91.416 314.05C86.41 313.778 81.0932 313.7 76.5703 315.735C72.3739 317.621 70.2289 321.649 72.5343 325.317C75.4065 329.886 81.731 330.492 87.2926 330.862C94.2392 331.324 101.202 332.157 108.099 332.971C115.234 333.811 121.952 335.979 128.98 337.093C129.634 337.196 130.041 336.492 129.441 336.191C123.897 333.41 117.158 331.88 110.959 330.321L110.458 330.195C107.096 329.344 103.81 328.371 100.332 327.889C96.9561 327.42 93.5589 327.041 90.1536 326.752L89.8228 326.727C86.0735 326.468 76.5083 326.556 76.9125 321.982C77.1801 318.954 83.1523 318.431 85.8784 318.395C98.3774 318.23 110.966 320.964 122.845 323.893L125.497 324.548C130.361 325.754 135.231 326.995 140.004 328.409C145.412 330.011 149.673 332.508 153.612 335.927C157.98 339.718 162.21 343.594 166.741 347.256C169.597 349.565 172.49 351.833 175.407 354.083C176.066 354.786 176.593 355.55 176.958 356.542C177.575 358.218 177.433 359.776 177.2 361.497C176.613 365.844 176.483 370.236 175.747 374.569C175.065 378.584 174.111 382.746 172.088 386.47C171.287 387.944 170.244 389.393 169.057 390.688L168.099 391.715C167.681 392.161 167.214 392.649 166.723 393.108C166.003 392.384 164.962 391.913 163.751 392.031C161.177 392.28 159.154 392.221 156.63 391.733C154.676 391.357 152.737 390.915 150.792 390.506C146.972 389.703 143.117 388.973 139.336 388.051L138.686 387.889C135.869 387.177 133.051 386.285 130.706 384.786C127.981 383.044 127.143 380.531 125.125 378.359C120.815 373.719 111.503 373.816 105.198 372.545C99.8394 371.465 94.6829 369.761 90.9747 366.558L90.7583 366.367C90.9227 365.795 90.6561 365.15 90.0116 364.854L89.8711 364.789C89.6198 364.673 89.3492 364.625 89.0836 364.63C88.7394 364.213 88.4074 363.783 88.1056 363.326C87.8574 362.948 87.2369 363.226 87.3181 363.599C87.3666 363.821 87.4341 364.038 87.4979 364.256C83.9059 363.495 79.961 363.64 76.314 363.642L71.5811 363.628C70.7621 363.62 69.5413 363.586 69.4327 363.546L69.3215 363.505C69.0264 363.399 69.4453 363.574 69.2392 363.348C69.0119 363.099 68.7893 362.848 68.5697 362.594C67.7852 361.69 67.0432 360.758 66.3159 359.818C74.2415 361.481 82.4516 362.517 90.5442 363.38C99.2262 364.307 108.023 364.95 116.782 364.957C119.197 364.959 119.175 361.955 116.782 361.879C107.507 361.588 98.2799 361.183 89.0668 360.204C84.3024 359.697 79.558 359.061 74.8401 358.317C73.0187 358.03 71.2016 357.725 69.3889 357.404L68.0303 357.159C67.178 357.004 64.7695 356.78 63.5949 356.131C63.364 355.804 63.1332 355.478 62.9044 355.151C63.0168 354.005 66.5549 354.158 67.3843 354.156C69.7361 354.153 72.0884 354.168 74.4407 354.173C79.1448 354.185 83.8484 354.151 88.553 354.12C97.952 354.057 107.387 353.787 116.778 354.117C119.058 354.197 120.255 351.184 118.002 350.392C108.055 346.892 97.0123 346.132 86.3907 345.056C80.8051 344.49 75.2165 343.837 69.756 342.693L68.406 342.41C64.9757 341.685 61.1879 340.801 58.2994 339.074C62.6409 337.627 68.0374 337.793 72.5377 337.588L72.882 337.572C79.1836 337.253 85.4964 337.089 91.8098 337.082C104.728 337.067 117.649 337.444 130.553 337.949C130.877 337.961 130.943 337.54 130.629 337.484C117.366 335.099 103.887 333.95 90.3149 333.773C83.994 333.691 77.67 333.765 71.3543 333.995L69.037 334.083C63.6522 334.274 57.6771 334.326 53.1719 337.006C52.485 337.414 52.1229 337.935 52.0663 338.487C46.0241 328.562 40.4436 318.43 34.8407 308.365C30.4849 300.539 26.2915 292.647 21.7769 284.882L20.3154 282.37C18.3583 279.018 16.3533 275.665 14.127 272.435C22.452 271.518 30.8235 270.881 39.2001 270.394C46.8328 269.949 71.737 268.964 75.4116 269.552ZM79.098 377.118C78.1486 376.684 76.6941 377.038 76.4602 378.003C76.286 378.721 75.9888 379.518 75.9888 380.253C75.9888 381.134 76.3708 382.09 76.5746 382.951C77.0429 384.932 77.6195 386.541 78.8416 388.305C79.6061 389.409 81.15 390.159 82.7015 390.129C83.9302 390.106 85.0191 389.834 85.8622 389.051C86.8724 388.112 87.5659 386.731 87.0118 385.467C85.5604 382.155 82.8925 378.855 79.098 377.118ZM280.467 373.814C278.246 370.608 272.98 367.742 268.384 368.026C261.484 368.452 260.076 376.108 266.757 377.935C270.75 379.026 276.244 377.905 279.737 376.108C280.679 375.624 281.024 374.617 280.467 373.814ZM351.383 362.86C351.888 362.255 351.054 361.565 350.302 361.701C348.634 362.002 346.837 362.134 345.204 362.544C343.531 362.963 341.912 363.658 340.255 364.137C336.785 365.139 333.077 365.642 329.718 366.851C328.376 367.335 327.32 368.937 327.444 370.118L327.475 370.394C327.55 370.981 327.673 371.492 328.071 372.028C329.14 373.466 331.258 374.21 333.257 373.767C336.965 372.946 340.588 370.837 343.75 369.085L344.334 368.765C345.716 368.015 347.201 367.231 348.314 366.266C349.476 365.258 350.431 364.001 351.383 362.86ZM223.913 351.198C224.34 349.931 222.427 349.094 221.312 349.95C219.084 351.661 216.755 353.247 214.573 355L214.427 355.12C212.864 356.413 210.592 358.907 212.623 360.581C215.227 362.726 218.853 359.543 220.249 357.884C222.021 355.78 223.084 353.659 223.913 351.198ZM53.437 340.725C56.7417 343.609 61.8335 344.935 66.3164 346.034C71.6318 347.336 77.1086 348.113 82.591 348.753C87.8885 349.371 93.1453 349.924 98.3585 350.633C94.4149 350.673 90.4717 350.697 86.5373 350.755C81.9997 350.823 77.4646 350.904 72.9285 351.012C69.6248 351.091 65.7485 350.718 62.6092 351.73C62.0434 351.912 61.5148 352.164 61.0531 352.471C58.4138 348.604 55.8842 344.684 53.437 340.725ZM257.28 313.751C253.831 312.848 250.587 311.65 246.93 311.961C245.959 312.043 245.263 312.823 245.793 313.593C247.526 316.106 250.344 317.525 253.118 319.205L253.362 319.354C256.398 321.215 259.658 322.911 262.96 324.438C268.645 327.067 273.739 319.543 267.998 317.336C264.544 316.007 260.915 314.703 257.28 313.751ZM195.178 307.219C189.901 307.505 184.627 307.7 179.344 307.875C173.223 308.08 175.281 315.84 180.394 314.27C185.444 312.718 190.496 311.185 195.592 309.738C197.143 309.297 197.019 307.198 195.277 307.216L195.178 307.219ZM330.529 293.412C329.161 293.333 327.781 293.579 326.412 293.689L324.954 293.805C321.95 294.051 319.133 294.355 316.268 295.363C310.981 297.222 313.82 304.225 319.128 304.065C323.05 303.946 326.405 302.557 329.717 300.941C332.613 299.529 334.388 297.761 336.343 295.543C336.991 294.808 336.089 293.984 335.207 293.91C333.653 293.78 332.083 293.502 330.529 293.412ZM65.5152 279.11C66.39 283.608 68.5616 287.825 71.8336 291.495C73.4781 293.34 76.3651 293.41 77.9948 291.495C80.3002 288.787 78.8786 285.684 77.1419 283.083L76.628 282.321C75.8503 281.179 74.6559 279.513 73.2911 278.363L73.2682 278.245C72.5368 273.535 64.6138 274.476 65.5152 279.11ZM278.956 250.241C277.641 249.264 275.218 249.558 274.791 251.147C274.193 253.372 273.83 255.88 274.221 258.139C274.433 259.363 274.512 260.738 275.097 261.879C275.725 263.106 276.933 264.049 278.072 264.972C280.344 266.813 285.135 266.204 285.744 263.303L285.821 262.947C286.127 261.574 286.519 260.106 286.066 258.745C285.723 257.718 284.959 256.671 284.326 255.719L284.192 255.516C282.925 253.571 280.949 251.719 278.956 250.241ZM94.0345 254.975L93.5587 254.98C89.8866 255.039 83.1733 255.776 83.1375 259.515C83.129 260.396 83.9211 261.31 84.9828 261.512C87.1778 261.932 88.5966 260.863 90.1609 259.783C91.4402 258.9 92.9314 258.195 94.4804 257.688C96.1535 257.139 96.0442 254.973 94.0345 254.975Z" fill="black"/>
<path fill-rule="evenodd" clip-rule="evenodd" d="M99.6805 76.0723C101.648 66.2416 95.1902 64.2019 99.6805 54.857C109.66 37.5418 136.856 38.2878 156.813 36.9565C179.073 36.252 201.602 38.6787 222.123 46.0462C227.025 47.8057 231.739 49.8751 236.258 52.2263C240.166 54.2596 239.629 58.1255 237.165 60.2344C254.933 81.0125 244.771 108.903 258.948 130.774C261.567 134.684 265.031 138.189 267.307 142.257C270.768 148.441 270.99 157.301 263.142 161.407C252.09 166.306 245.922 156.607 240.492 170.667C213.371 219.692 158.841 222.453 107.075 196.893C102.597 194.836 98.0257 192.511 94.6438 189.279C86.9673 182.145 87.8714 172.113 87.7017 163.204C87.6069 157.983 87.5911 152.761 87.6528 147.54C87.8943 126.389 96.3832 97.049 99.6805 76.0723Z" fill="#EDB98A"/>
<path fill-rule="evenodd" clip-rule="evenodd" d="M209.937 17.2739C178.682 5.56588 143.232 1.12592 109.138 4.0382C92.3094 5.47338 75.7028 8.55245 59.8988 13.5541L58.5135 13.9962C54.6122 15.2361 50.4068 16.4669 47.4422 18.991C43.9915 21.9243 43.0238 26.36 45.4904 29.9835C47.4066 32.799 50.8516 34.8187 54.526 35.8965C53.2316 36.7718 52.0034 37.7482 50.8516 38.8382C48.9099 40.6647 48.7621 43.2693 50.8516 45.071C54.8777 48.543 60.1013 51.055 65.7276 52.2591C65.0957 54.7799 65.4371 57.5702 66.7927 60.0826C70.6827 67.2947 81.6403 68.1542 90.0726 67.726L90.3273 67.7126L90.7962 72.1442C91.0459 74.5051 92.7582 76.3358 95.6631 76.6977C95.765 76.7104 95.8675 76.7188 95.9689 76.7268C91.372 90.4553 88.5946 104.608 86.0312 118.677C84.6918 126.022 83.4929 133.383 82.3452 140.749L81.9643 143.204C80.7412 151.146 79.2123 159.167 78.6823 167.168C78.2084 174.427 79.8851 181.359 85.3024 187.217C90.1642 192.469 96.7945 196.404 103.924 199.325C120.033 205.927 136.989 210.843 154.805 213.124L155.993 213.275C162.871 214.142 169.957 214.873 176.76 213.301C182.737 211.921 189.006 208.36 187.656 202.641C187.202 200.709 183.93 200.625 182.809 202.119L182.55 202.461C181.206 204.223 179.733 205.86 177.386 206.769C174.64 207.838 171.455 208.137 168.453 208.167C160.07 208.247 151.34 206.521 143.267 204.792C128.193 201.56 112.71 196.29 100.362 188.307C95.1076 184.915 90.8879 180.673 89.3998 175.214C87.56 168.485 89.252 161.128 90.0878 154.365C91.8078 140.41 93.8547 126.481 96.0145 112.567L96.4479 109.785C98.2668 98.1526 100.178 86.5161 101.086 74.8166C101.463 74.3915 101.717 73.9075 101.819 73.3773L101.962 72.6155C102.084 71.9632 102.105 71.3656 102.018 70.8143C102.013 68.7016 101.942 66.6016 101.794 64.4885C101.769 64.1102 101.748 63.7314 101.733 63.3568C104.393 63.8408 107.074 64.2322 109.764 64.5647C128.682 66.9172 147.895 67.5064 166.965 66.3364C176.48 65.751 185.923 64.7456 195.336 63.4873C200.127 62.8476 204.902 62.1406 209.662 61.3494C213.101 60.7812 216.47 60.0111 219.854 59.2872C223.345 63.4831 225.231 68.6469 224.864 73.7181C224.451 79.5048 219.783 84.7528 221.092 90.6657C222.322 96.1995 228.063 97.9153 233.731 99.2858L236.142 99.8609C237.996 100.308 239.343 100.739 239.679 102.58C240.254 105.741 239.546 109.297 239.398 112.474C239.22 116.232 238.986 119.99 238.878 123.749C238.822 125.693 238.731 127.646 238.736 129.59C238.741 130.97 238.991 131.913 239.638 132.805C239.138 133.323 238.69 133.883 238.292 134.476C238.165 134.67 238.481 134.875 238.669 134.716C239.174 134.282 239.71 133.891 240.275 133.541C240.56 133.832 240.891 134.127 241.279 134.442L241.309 134.409C242.522 135.406 244.449 135.503 245.953 134.442L246.347 134.16C247.448 133.363 248.204 132.7 248.51 131.383C248.526 131.316 248.541 131.248 248.551 131.181C251.349 131.101 254.193 131.648 256.71 132.797C260.701 134.619 263.509 137.216 265.17 140.423C264.508 141.062 263.733 141.635 262.831 142.114C262.703 142.186 262.816 142.342 262.953 142.287C263.876 141.929 264.701 141.487 265.44 140.97C266.036 142.232 266.454 143.587 266.709 145.023C267.606 150.09 266.006 156.28 260.461 159.167C258.061 160.417 255.319 161.095 252.475 161.103C251.09 161.107 249.891 160.914 248.546 160.64C247.634 160.455 246.727 160.186 245.774 160.186C244.958 160.186 244.204 160.354 243.506 160.691L243.699 160.705C244.17 160.741 244.08 160.758 243.424 160.758C241.386 160.83 240.219 162.538 241.156 164.024L241.279 164.253C241.305 164.3 241.327 164.338 241.345 164.369L241.419 164.763C241.426 164.8 241.434 164.839 241.442 164.878L241.47 164.958C241.475 164.971 241.481 164.983 241.488 164.996L238.43 168.846C234.682 173.556 230.85 178.248 226.489 182.55C223.432 185.567 220.19 188.526 216.766 191.265C213.688 193.727 209.998 194.914 206.512 196.85C204.651 197.877 204.107 200.027 205.798 201.412C210.762 205.482 217.79 202.25 221.862 198.942C225.715 195.806 229.043 192.036 231.912 188.261C237.003 181.548 241.055 174.41 242.828 166.663C243.567 167.222 244.51 167.572 245.463 167.845C247.374 168.392 249.479 168.62 251.497 168.678C255.365 168.784 259.238 168.009 262.719 166.637C276.881 161.061 278.961 144.362 270.302 134.514C271.47 131.718 272.122 128.684 272.83 126.097L273.152 124.941C276.732 112.024 279.137 98.4242 272.789 85.767C271.974 84.1341 271.056 82.5433 269.971 81.0199C269.099 79.7952 267.601 78.4906 267.188 77.0975C266.271 74.038 271.933 70.8227 273.584 68.3944C275.526 65.5453 275.801 62.1827 273.156 59.5772C272.82 59.2494 272.453 58.9459 272.055 58.6812C274.562 54.9272 274.68 50.2053 271.377 46.5018C269.206 44.0609 265.894 42.3523 262.275 41.8346C260.064 41.519 257.403 41.6368 254.972 42.2008C241.661 31.9952 226.474 23.4688 209.937 17.2739ZM261.053 144.972C257.5 142.384 253.576 141.029 248.734 141.37C243.867 141.714 238.007 143.377 235.148 146.824C232.89 149.547 237.492 153.541 240.805 151.495C243.822 149.631 245.835 147.527 249.58 146.525C252.944 145.629 257.108 145.052 260.63 145.565C261.017 145.62 261.404 145.225 261.053 144.972Z" fill="black"/>
<path fill-rule="evenodd" clip-rule="evenodd" d="M150.471 164.06C147.614 160.187 141.524 169.674 140.877 171.305C140.304 172.75 139.926 174.23 139.734 175.728C137.519 176.137 135.219 176.137 132.949 175.779C129.576 175.246 127.514 173.751 124.583 172.468C122.558 171.582 120.006 172.621 118.953 174.092C117.715 175.822 118.504 177.619 120.133 178.909C123.222 181.356 129.3 181.918 133.333 181.268C135.643 180.896 137.761 180.182 139.631 179.144C139.643 179.338 139.651 179.532 139.67 179.725L139.705 180.06C140.015 182.774 140.92 186.186 143.478 187.952C147.673 190.848 152.85 185.278 148.774 182.385L148.648 182.298C146.114 180.611 145.561 176.085 145.698 173.592C145.787 171.965 146.147 170.317 146.77 168.767L146.899 168.458C147.086 168.021 149.133 163.868 149.872 164.397L149.907 164.427C150.212 164.727 150.705 164.377 150.471 164.06ZM127.66 142.207C123.804 144.139 117.928 148.643 122.076 153.432C126.96 157.655 133.991 152.813 137.456 150.624C140.669 148.927 144.278 153.291 141.297 155.272C116.261 170.547 106.1 142.712 125.71 139.936C127.869 139.63 128.671 141.609 127.66 142.207ZM168.841 124.352C165.072 123.801 161.211 124.573 158.093 126.39L157.856 126.53C154.851 128.341 151.49 131.521 153.214 134.642C153.906 135.896 155.978 136.092 157.293 135.524C159.483 134.578 159.88 132.25 161.833 130.962C163.435 129.906 165.592 129.266 167.656 129.42C172.503 129.783 175.484 133.722 176.99 137.117C177.182 137.552 177.956 137.72 178.258 137.254C181.808 131.786 175.524 125.329 168.841 124.352ZM108.471 122.288C101.251 121.798 92.8003 127.966 94.7011 134.246C95.6127 137.259 101.037 137.173 102.001 134.246C102.532 132.635 102.479 131.21 103.886 129.873C105.047 128.768 106.697 128.127 108.471 128.226C110.426 128.334 112.229 129.139 113.599 130.271C114.837 131.293 115.577 132.788 116.859 133.692C117.174 133.915 117.596 133.929 117.908 133.692C120.114 132.016 118.79 128.526 117.391 126.777C115.389 124.273 112.129 122.537 108.471 122.288ZM182.59 113.214C177.958 109.835 169.543 106.572 163.297 108.235C159.706 109.191 158.141 113.959 162.15 115.47C166.791 117.22 172.143 116.508 176.868 118.322C178.852 119.084 180.718 120.036 182.099 121.433C183.188 122.534 184.295 123.983 185.869 124.617C186.282 124.784 186.843 124.788 187.174 124.479C190.624 121.263 185.603 115.411 182.59 113.214ZM116.431 108.067C113.569 107.405 110.393 107.419 107.485 107.835C104.578 108.251 101.627 109.243 99.2539 110.691L98.9784 110.861C96.3875 112.47 93.2958 114.811 93.4615 117.661C93.5999 120.041 96.6381 121.65 99.261 120.403C101.399 119.386 102.405 117.348 104.216 115.991C105.71 114.871 107.464 113.988 109.337 113.37C111.416 112.683 113.499 112.361 115.731 112.33C117.45 112.306 119.179 112.771 120.865 112.919C120.726 113.154 122.059 113.045 122.823 112.837C123.389 112.638 123.392 112.048 123.196 111.666C122.223 109.771 118.683 108.588 116.431 108.067Z" fill="black"/>
</svg>
